<svg width="400" height="65" viewBox="0 0 400 65" fill="none" xmlns="http://www.w3.org/2000/svg">
<g clip-path="url(#clip0_15_2836)">
<rect y="-565" width="400" height="630" rx="30" fill="white"/>
<path d="M38.4232 18.8432C37.2971 18.1097 36.0516 17.7686 34.8402 17.7686C32.7075 17.7686 30.6259 18.8432 29.2268 20.7709C27.8278 18.8262 25.7462 17.7686 23.6135 17.7686C22.4021 17.7686 21.1565 18.1267 20.0305 18.8432C16.5839 21.0779 15.4067 26.008 17.3859 29.8633C19.0067 33.0021 25.8486 38.478 28.3226 40.3886C28.5955 40.5933 28.9027 40.6957 29.2098 40.6957C29.5169 40.6957 29.8411 40.5933 30.1141 40.3886C32.588 38.478 39.4299 33.0192 41.0508 29.8633C43.0299 26.008 41.8527 21.0609 38.4062 18.8432H38.4232Z" fill="url(#paint0_linear_15_2836)"/>
<path d="M82.9714 34.6737C82.9031 34.4349 82.9372 34.1961 83.0567 33.9573C84.1998 31.6543 84.4728 29.0784 83.8245 26.4855C82.9202 22.7837 80.0708 19.8837 76.4196 18.9114C75.447 18.6555 74.4575 18.519 73.4849 18.519C70.1578 18.519 67.0867 20.0202 65.0563 22.6473C63.0089 25.2914 62.3264 28.7202 63.1795 32.0467C64.0155 35.322 67.5474 38.7679 70.8574 39.5697C73.4849 40.2008 76.2148 39.8597 78.5353 38.5973C78.7741 38.4608 79.0301 38.4267 79.286 38.495L83.8756 39.7061C83.8756 39.7061 84.0633 39.655 84.1316 39.5697C84.1998 39.4844 84.2169 39.365 84.1998 39.2455L82.9714 34.6567V34.6737Z" stroke="#454B60" stroke-miterlimit="10"/>
<path d="M379.457 19.8154H362.855C362.531 19.8154 362.275 20.0713 362.275 20.3954V38.3755C362.275 38.5972 362.412 38.8019 362.617 38.9043C362.821 39.0067 363.077 38.9555 363.248 38.819L371.165 31.8931L379.081 38.819C379.252 38.9555 379.508 39.0067 379.713 38.9043C379.917 38.8019 380.054 38.5972 380.054 38.3755V20.3954C380.054 20.0713 379.798 19.8154 379.474 19.8154H379.457Z" stroke="#454B60" stroke-linejoin="round"/>
<path d="M128.185 19.1333H106.21C105.988 19.1333 105.783 19.2698 105.698 19.4915C105.613 19.6962 105.698 19.9351 105.851 20.0886L114.519 27.458V27.5263L116.669 39.1945C116.703 39.4163 116.89 39.5869 117.112 39.621C117.334 39.6722 117.556 39.5527 117.675 39.3651L128.663 19.9351C128.766 19.7645 128.766 19.5598 128.663 19.4062C128.561 19.2357 128.39 19.1333 128.203 19.1333H128.185Z" stroke="#454B60" stroke-miterlimit="10"/>
<path d="M128.645 19.4062L114.535 27.5263" stroke="#454B60" stroke-miterlimit="10"/>
<path d="M0 0.829102H400" stroke="#B7BAC7" stroke-linejoin="round"/>
</g>
<defs>
<linearGradient id="paint0_linear_15_2836" x1="16.4133" y1="29.2321" x2="42.0233" y2="29.2321" gradientUnits="userSpaceOnUse">
<stop stop-color="#FF3636"/>
<stop offset="1" stop-color="#DE0606"/>
</linearGradient>
<clipPath id="clip0_15_2836">
<rect width="400" height="65" fill="white"/>
</clipPath>
</defs>
</svg>
