<svg width="1707" height="194" viewBox="0 0 1707 194" fill="none" xmlns="http://www.w3.org/2000/svg">
<path d="M23.2044 32.304L19.0138 33.7462C18.5445 32.9062 17.9733 32.2215 17.3003 31.692C16.6274 31.1624 15.8914 30.7698 15.0923 30.514C14.2932 30.2582 13.4581 30.145 12.5869 30.1744C11.7247 30.2008 10.8548 30.3649 9.97729 30.6669C8.39239 31.2124 7.11026 32.0993 6.13093 33.3276C5.16054 34.5529 4.57772 36.0604 4.38245 37.8501C4.19614 39.6368 4.4851 41.6405 5.24933 43.8611C6.01973 46.0997 7.02811 47.8658 8.27448 49.1594C9.52981 50.4499 10.9199 51.2734 12.4446 51.63C13.9694 51.9866 15.5153 51.8952 17.0823 51.3559C17.9509 51.057 18.7346 50.6571 19.4335 50.1562C20.1383 49.6432 20.7284 49.0446 21.2039 48.3601C21.6794 47.6757 22.021 46.9222 22.2287 46.0997C22.4422 45.2651 22.483 44.3797 22.3511 43.4437L26.5464 42.0149C26.7878 43.4441 26.7819 44.8382 26.5285 46.1972C26.2811 47.5443 25.7976 48.8022 25.0783 49.9712C24.3648 51.1281 23.4448 52.1507 22.3184 53.0391C21.192 53.9275 19.8722 54.632 18.3589 55.1528C15.9771 55.9725 13.6608 56.1387 11.41 55.6515C9.15619 55.1552 7.12838 54.0354 5.32662 52.292C3.53381 50.5455 2.13356 48.2082 1.12589 45.2802C0.11513 42.3432 -0.215077 39.6376 0.135265 37.1636C0.482526 34.6806 1.39326 32.5545 2.86747 30.7853C4.3386 29.0071 6.26061 27.7097 8.63349 26.8931C10.093 26.3908 11.5265 26.1329 12.9339 26.1192C14.3472 26.0935 15.6984 26.3095 16.9875 26.7672C18.2736 27.2159 19.4468 27.9038 20.5069 28.8308C21.564 29.749 22.4631 30.9067 23.2044 32.304Z" fill="white"/>
<path d="M32.6256 49.8953L31.6281 46.3541L32.3809 46.1452C32.9649 45.9831 33.4188 45.7245 33.7428 45.3692C34.0734 45.0023 34.2829 44.4822 34.3712 43.8091C34.4596 43.1359 34.4253 42.2511 34.2684 41.1547C34.109 40.0491 33.8371 38.6799 33.4527 37.0471L31.2391 27.6372L45.9118 23.565L51.7466 44.5885L47.7363 45.7015L42.8815 28.2093L36.0105 30.1163L37.665 37.3521C38.064 39.1086 38.3065 40.6727 38.3924 42.0444C38.4874 43.4136 38.3997 44.6025 38.1292 45.6112C37.8563 46.6107 37.3779 47.4364 36.6939 48.0881C36.0074 48.7307 35.0893 49.2115 33.9396 49.5306L32.6256 49.8953Z" fill="white"/>
<path d="M57.2267 43.171L52.1291 21.9566L56.2587 20.9643L61.3563 42.1786L57.2267 43.171ZM53.4281 18.1822C52.7099 18.3548 52.0354 18.2636 51.4048 17.9087C50.7811 17.5424 50.3885 17.0232 50.227 16.351C50.0632 15.6696 50.1771 15.0287 50.5684 14.4282C50.9668 13.8163 51.5251 13.4241 52.2433 13.2515C52.9615 13.0789 53.6324 13.1758 54.2561 13.5421C54.8868 13.897 55.284 14.4152 55.4477 15.0965C55.6092 15.7687 55.4908 16.4107 55.0924 17.0226C54.701 17.6231 54.1463 18.0096 53.4281 18.1822Z" fill="white"/>
<path d="M66.1016 47.5321L64.1108 37.7613L65.8506 37.4068C66.2128 36.9078 66.4894 36.3441 66.6803 35.7157C66.8804 35.0853 67.0078 34.3587 67.0624 33.5358C67.1263 32.711 67.1266 31.7638 67.0633 30.6943C66.9981 29.6156 66.8842 28.3921 66.7214 27.0239L65.7645 18.9125L80.2955 15.9518L83.9169 33.7258L87.2017 33.0565L89.1925 42.8274L85.1283 43.6554L83.872 37.4895L68.9652 40.5268L70.2215 46.6927L66.1016 47.5321ZM70.3046 36.4993L79.8527 34.5539L76.9572 20.343L70.2207 21.7156L70.6742 26.2185C70.9184 28.5076 71.0463 30.511 71.0581 32.2288C71.0679 33.9374 70.8168 35.3609 70.3046 36.4993Z" fill="white"/>
<path d="M92.024 35.9632L88.6603 14.4058L92.8567 13.751L94.267 22.7894L96.2879 22.474L101.993 12.3254L107.186 11.5151L100.471 23.3021L110.648 33.0571L105.441 33.8696L97.5985 26.2662L94.8757 26.691L96.2204 35.3084L92.024 35.9632Z" fill="white"/>
<path d="M117.625 40.4777C116.995 40.5491 116.415 40.5623 115.886 40.5174C115.358 40.4819 114.96 40.422 114.693 40.3379L115.318 36.7648C116.113 36.8845 116.81 36.8961 117.409 36.7997C118.008 36.7033 118.514 36.4173 118.927 35.9416C119.35 35.4649 119.686 34.7265 119.934 33.7262L120.294 32.2274L109.875 11.1634L114.392 10.6521L121.787 26.8549L122.013 26.8293L125.599 9.38342L130.129 8.8705L123.977 34.4551C123.691 35.6311 123.272 36.6458 122.72 37.4993C122.17 38.3621 121.475 39.0412 120.635 39.5365C119.795 40.0319 118.792 40.3456 117.625 40.4777Z" fill="white"/>
<path d="M140.29 23.9911L148.764 7.48615L153.327 7.16371L154.865 28.9276L150.713 29.221L149.594 13.3798L141.163 29.8959L136.558 30.2214L135.02 8.45747L139.172 8.16407L140.29 23.9911ZM146.43 0.246334L149.916 0C150.028 1.5964 149.554 2.9353 148.491 4.0167C147.437 5.08798 145.951 5.69138 144.033 5.8269C142.125 5.96175 140.574 5.57297 139.38 4.66057C138.185 3.73872 137.531 2.4796 137.418 0.883197L140.89 0.637865C140.94 1.34633 141.192 1.95981 141.647 2.47831C142.1 2.98737 142.832 3.20618 143.843 3.13475C144.835 3.06466 145.524 2.74537 145.911 2.1769C146.308 1.60776 146.481 0.964242 146.43 0.246334Z" fill="white"/>
<path d="M157.304 10.6361L157.191 6.97303L175.591 6.40631L175.704 10.0693L168.591 10.2884L169.15 28.4332L165.004 28.5609L164.445 10.4161L157.304 10.6361Z" fill="white"/>
<path d="M189.136 28.7428C186.987 28.724 185.139 28.2485 183.595 27.3164C182.059 26.3749 180.877 25.0624 180.049 23.3789C179.231 21.6861 178.832 19.708 178.851 17.4449C178.871 15.2101 179.305 13.2441 180.153 11.547C181.011 9.84988 182.197 8.52973 183.711 7.58652C185.234 6.6434 187.009 6.18072 189.036 6.19848C190.267 6.20927 191.458 6.42332 192.61 6.84063C193.761 7.25793 194.793 7.9062 195.703 8.78543C196.614 9.66466 197.329 10.8026 197.847 12.1992C198.365 13.5864 198.616 15.2695 198.598 17.2486L198.585 18.7543L181.242 18.6022L181.27 15.4205L194.451 15.5361C194.461 14.4187 194.242 13.4272 193.795 12.5615C193.348 11.6863 192.715 10.9942 191.896 10.4851C191.086 9.97607 190.132 9.71675 189.033 9.70712C187.84 9.69666 186.796 9.98108 185.901 10.5604C185.015 11.1303 184.326 11.8819 183.835 12.8151C183.354 13.7389 183.108 14.7453 183.099 15.8343L183.077 18.32C183.064 19.7783 183.309 21.021 183.811 22.0482C184.323 23.0754 185.041 23.863 185.964 24.4109C186.887 24.9493 187.969 25.224 189.21 25.2348C190.015 25.2419 190.749 25.1347 191.414 24.9132C192.079 24.6823 192.655 24.337 193.142 23.8772C193.629 23.4174 194.003 22.8478 194.265 22.1682L198.278 22.9279C197.946 24.1087 197.359 25.1405 196.518 26.0233C195.687 26.8968 194.644 27.5742 193.39 28.0557C192.145 28.5277 190.727 28.7568 189.136 28.7428Z" fill="white"/>
<path d="M212.889 23.1792L217.225 23.4783C217.22 24.3703 217.575 25.0829 218.288 25.6162C219.01 26.1501 219.971 26.4585 221.171 26.5413C222.39 26.6253 223.447 26.4372 224.343 25.9769C225.239 25.5072 225.725 24.7197 225.801 23.6143C225.847 22.953 225.721 22.3653 225.424 21.8513C225.138 21.3284 224.706 20.9095 224.13 20.5944C223.563 20.2801 222.878 20.0952 222.075 20.0398L218.533 19.7954L218.762 16.4652L222.305 16.7096C223.505 16.7924 224.421 16.5803 225.054 16.0735C225.687 15.5666 226.032 14.9022 226.089 14.0803C226.15 13.1922 225.878 12.4568 225.273 11.874C224.678 11.2824 223.813 10.9475 222.679 10.8693C221.527 10.7898 220.55 10.9834 219.749 11.4502C218.949 11.9076 218.501 12.5412 218.408 13.351L214.128 13.0558C214.24 11.8391 214.683 10.7969 215.454 9.92944C216.236 9.05314 217.249 8.40163 218.494 7.9749C219.748 7.53937 221.15 7.37505 222.7 7.48194C224.315 7.59338 225.695 7.94964 226.84 8.5507C227.985 9.15177 228.848 9.93265 229.427 10.8934C230.015 11.8547 230.269 12.9306 230.187 14.1209C230.104 15.3207 229.677 16.2785 228.906 16.9942C228.146 17.701 227.182 18.1804 226.016 18.4322L226.001 18.6589C226.838 18.7736 227.566 19.0802 228.187 19.5786C228.807 20.077 229.276 20.7121 229.593 21.4839C229.91 22.2556 230.036 23.1139 229.971 24.0586C229.879 25.3907 229.431 26.5178 228.627 27.44C227.832 28.3629 226.77 29.0442 225.439 29.484C224.118 29.915 222.631 30.0734 220.978 29.9594C219.372 29.8486 217.949 29.4988 216.708 28.9101C215.477 28.3127 214.52 27.5253 213.838 26.5479C213.165 25.5713 212.848 24.4484 212.889 23.1792Z" fill="white"/>
<path d="M240.178 31.6874C238.804 31.5383 237.588 31.1494 236.533 30.5205C235.478 29.8822 234.679 29.0383 234.135 27.9888C233.601 26.9402 233.411 25.7051 233.566 24.2836C233.698 23.0597 234.043 22.0779 234.599 21.3381C235.156 20.5983 235.859 20.0412 236.71 19.6667C237.56 19.2921 238.492 19.0408 239.506 18.9126C240.52 18.7845 241.547 18.7149 242.586 18.7038C243.902 18.694 244.97 18.686 245.789 18.6797C246.61 18.6639 247.217 18.563 247.608 18.3769C248 18.1907 248.223 17.8435 248.278 17.3351L248.289 17.2363C248.423 16.003 248.178 15.0096 247.555 14.2562C246.941 13.5038 245.952 13.0536 244.587 12.9056C243.165 12.7514 242.011 12.9453 241.123 13.4872C240.246 14.0207 239.611 14.652 239.218 15.3808L235.347 14.0467C235.961 12.7797 236.764 11.7904 237.755 11.0788C238.757 10.3588 239.871 9.87949 241.097 9.64097C242.325 9.39305 243.592 9.34005 244.901 9.48197C245.767 9.57591 246.674 9.77902 247.621 10.0913C248.579 10.3952 249.452 10.8614 250.241 11.4899C251.04 12.1195 251.658 12.9628 252.096 14.02C252.534 15.0677 252.668 16.3824 252.497 17.964L250.934 32.3682L246.811 31.921L247.132 28.9554L246.963 28.937C246.631 29.4535 246.163 29.9457 245.56 30.4137C244.957 30.8817 244.208 31.2434 243.313 31.4988C242.419 31.7542 241.374 31.8171 240.178 31.6874ZM241.464 28.3978C242.631 28.5244 243.654 28.4019 244.532 28.0305C245.42 27.66 246.121 27.1264 246.635 26.4297C247.159 25.7245 247.468 24.9435 247.56 24.0868L247.864 21.2907C247.697 21.425 247.39 21.5346 246.942 21.6194C246.505 21.6959 246.009 21.7515 245.452 21.7865C244.897 21.812 244.357 21.8343 243.831 21.8535C243.306 21.8632 242.867 21.8727 242.513 21.882C241.683 21.8968 240.915 21.9897 240.211 22.161C239.516 22.3333 238.941 22.6281 238.486 23.0455C238.042 23.4546 237.779 24.0356 237.697 24.7888C237.584 25.8338 237.884 26.6665 238.598 27.2868C239.313 27.8978 240.268 28.2681 241.464 28.3978Z" fill="white"/>
<path d="M283.73 24.508L283.114 28.1351L271.463 26.1576L272.078 22.5305L283.73 24.508ZM274.773 13.7814L271.123 35.292L267.019 34.5956L270.67 13.085L274.773 13.7814ZM288.176 16.0561L284.525 37.5666L280.435 36.8726L284.086 15.362L288.176 16.0561Z" fill="white"/>
<path d="M298.997 40.9864C296.997 40.559 295.349 39.7277 294.054 38.4924C292.759 37.2571 291.875 35.7272 291.403 33.9027C290.931 32.0782 290.931 30.0639 291.401 27.8599C291.874 25.6465 292.7 23.7991 293.878 22.3175C295.057 20.8359 296.489 19.7959 298.176 19.1976C299.863 18.5993 301.706 18.5138 303.707 18.9412C305.707 19.3685 307.355 20.1998 308.65 21.4351C309.945 22.6705 310.828 24.205 311.298 26.0387C311.768 27.8725 311.766 29.896 311.294 32.1093C310.823 34.3134 309.999 36.1516 308.823 37.6239C307.646 39.0963 306.215 40.1316 304.528 40.7299C302.841 41.3282 300.998 41.4137 298.997 40.9864ZM299.756 37.5027C301.053 37.7796 302.2 37.6665 303.198 37.1632C304.197 36.6599 305.021 35.8822 305.672 34.8302C306.332 33.7802 306.809 32.5698 307.101 31.1992C307.392 29.8379 307.451 28.5432 307.278 27.3151C307.115 26.0797 306.682 25.0238 305.979 24.1472C305.275 23.2706 304.275 22.6939 302.979 22.4169C301.673 22.138 300.515 22.2538 299.506 22.7643C298.505 23.2769 297.674 24.0628 297.012 25.1221C296.361 26.1741 295.89 27.3808 295.6 28.7422C295.307 30.1127 295.242 31.4111 295.407 32.6372C295.58 33.8653 296.02 34.913 296.725 35.7803C297.44 36.6496 298.45 37.2237 299.756 37.5027Z" fill="white"/>
<path d="M313.643 43.7832L319.062 22.6487L327.827 24.896C330.212 25.5075 331.971 26.5011 333.104 27.8768C334.24 29.2434 334.585 30.7935 334.141 32.5272C333.823 33.7655 333.177 34.6459 332.203 35.1683C331.228 35.6907 330.058 35.9087 328.691 35.8224C329.608 36.1747 330.402 36.6813 331.073 37.3423C331.747 37.994 332.225 38.7617 332.506 39.6454C332.797 40.5314 332.808 41.5018 332.537 42.5567C332.25 43.6758 331.707 44.5924 330.908 45.3065C330.112 46.0114 329.101 46.4658 327.875 46.6698C326.661 46.8669 325.284 46.7679 323.743 46.3727L313.643 43.7832ZM318.392 41.3347L324.625 42.9329C325.643 43.1939 326.503 43.1555 327.206 42.8175C327.908 42.4795 328.367 41.8931 328.581 41.0584C328.832 40.0769 328.741 39.2323 328.307 38.5245C327.874 37.8076 327.149 37.3186 326.131 37.0576L319.898 35.4594L318.392 41.3347ZM320.671 32.4461L325.61 33.7126C326.381 33.9102 327.07 33.9695 327.676 33.8904C328.292 33.8138 328.799 33.6112 329.196 33.2829C329.605 32.9477 329.881 32.5004 330.024 31.9408C330.233 31.1244 330.062 30.4011 329.51 29.7707C328.958 29.1404 328.099 28.6758 326.934 28.3771L322.036 27.1212L320.671 32.4461Z" fill="white"/>
<path d="M341.23 44.9624L354.92 32.4403L359.309 33.7265L353.174 54.6643L349.18 53.494L353.645 38.2541L339.992 50.8018L335.562 49.5036L341.697 28.5658L345.691 29.7362L341.23 44.9624Z" fill="white"/>
<path d="M376.59 48.6818L375.474 52.1872L364.213 48.5999L365.33 45.0945L376.59 48.6818ZM369.222 36.8082L362.599 57.597L358.634 56.3337L365.256 35.5449L369.222 36.8082ZM382.174 40.9345L375.551 61.7233L371.599 60.4643L378.222 39.6755L382.174 40.9345Z" fill="white"/>
<path d="M380.945 63.5063L388.016 42.8656L392.033 44.242L389.069 52.896L391.004 53.5589L400.782 47.2387L405.754 48.9419L394.319 56.2411L398.777 69.6148L393.792 67.907L390.396 57.5248L387.789 56.6317L384.963 64.8827L380.945 63.5063Z" fill="white"/>
<path d="M407.668 73.3908C406.37 72.9133 405.285 72.2416 404.413 71.3758C403.545 70.5011 402.974 69.4887 402.701 68.3388C402.436 67.1922 402.551 65.9479 403.045 64.606C403.47 63.4507 404.043 62.5815 404.762 61.9985C405.481 61.4156 406.298 61.0454 407.214 60.8879C408.129 60.7304 409.095 60.7123 410.11 60.8336C411.124 60.9548 412.137 61.1359 413.149 61.3769C414.427 61.6861 415.465 61.9369 416.262 62.1293C417.062 62.3128 417.675 62.3617 418.1 62.2759C418.525 62.1902 418.826 61.9074 419.003 61.4275L419.037 61.3342C419.466 60.17 419.469 59.147 419.047 58.2651C418.633 57.3864 417.782 56.71 416.494 56.2358C415.152 55.7419 413.985 55.6504 412.992 55.9613C412.012 56.2665 411.243 56.7251 410.685 57.337L407.253 55.1053C408.155 54.0247 409.174 53.2592 410.308 52.8089C411.455 52.353 412.652 52.1578 413.899 52.2233C415.15 52.2799 416.392 52.5356 417.628 52.9902C418.445 53.2911 419.276 53.7077 420.119 54.2401C420.975 54.7669 421.709 55.4307 422.323 56.2316C422.945 57.0358 423.34 58.0038 423.509 59.1355C423.681 60.2583 423.493 61.5662 422.943 63.0593L417.939 76.6563L414.046 75.2238L415.077 72.4244L414.917 72.3655C414.469 72.7861 413.896 73.1504 413.198 73.4583C412.499 73.7663 411.685 73.9359 410.755 73.9671C409.826 73.9983 408.796 73.8062 407.668 73.3908ZM409.712 70.5104C410.814 70.916 411.836 71.0449 412.778 70.8973C413.729 70.7529 414.538 70.4049 415.206 69.8533C415.885 69.296 416.373 68.6131 416.671 67.8044L417.642 65.1649C417.448 65.2548 417.123 65.2867 416.669 65.2607C416.226 65.229 415.731 65.1628 415.183 65.062C414.638 64.9522 414.108 64.843 413.593 64.7342C413.082 64.6165 412.653 64.5194 412.308 64.4428C411.499 64.256 410.732 64.1604 410.007 64.156C409.291 64.1548 408.662 64.3017 408.119 64.5965C407.589 64.8857 407.193 65.3858 406.931 66.0967C406.568 67.0832 406.658 67.9638 407.2 68.7385C407.746 69.5044 408.583 70.095 409.712 70.5104Z" fill="white"/>
<path d="M436.537 78.3951L449.264 65.6683L452.663 67.0387L436.034 83.8591L433.109 82.68L432.968 59.0983L436.327 60.4527L436.537 78.3951ZM435.234 60.0118L427.076 80.2474L423.215 78.6912L431.374 58.4557L435.234 60.0118ZM442.173 86.3341L450.331 66.0986L454.165 67.6441L446.007 87.8797L442.173 86.3341Z" fill="white"/>
<path d="M457.419 86.2776L472.576 75.5781L476.768 77.4065L468.047 97.4056L464.232 95.7419L470.58 81.1853L455.456 91.9148L451.224 90.0694L459.946 70.0703L463.761 71.734L457.419 86.2776Z" fill="white"/>
<path d="M489.46 87.1699L491.01 83.8492L507.691 91.6369L506.14 94.9576L499.692 91.9471L492.012 108.396L488.254 106.641L495.934 90.1924L489.46 87.1699Z" fill="white"/>
<path d="M507.146 116.026C505.895 115.437 504.873 114.674 504.08 113.735C503.291 112.788 502.81 111.73 502.638 110.561C502.475 109.395 502.698 108.166 503.307 106.872C503.831 105.758 504.477 104.942 505.244 104.424C506.011 103.906 506.858 103.608 507.784 103.531C508.709 103.454 509.673 103.52 510.673 103.73C511.674 103.939 512.667 104.207 513.653 104.536C514.9 104.955 515.912 105.295 516.69 105.556C517.471 105.809 518.077 105.911 518.508 105.863C518.939 105.814 519.263 105.559 519.481 105.096L519.523 105.006C520.051 103.884 520.144 102.865 519.8 101.95C519.465 101.038 518.676 100.29 517.434 99.7056C516.14 99.0966 514.985 98.9038 513.97 99.127C512.967 99.3457 512.16 99.7355 511.551 100.296L508.327 97.7742C509.32 96.7763 510.401 96.1024 511.57 95.7527C512.752 95.3984 513.962 95.3083 515.198 95.4822C516.439 95.6476 517.655 96.0106 518.846 96.5711C519.634 96.9421 520.425 97.4296 521.219 98.0334C522.026 98.6328 522.7 99.3581 523.241 100.209C523.791 101.065 524.1 102.063 524.17 103.206C524.243 104.339 523.941 105.626 523.264 107.065L517.094 120.174L513.341 118.408L514.611 115.709L514.457 115.636C513.975 116.017 513.372 116.329 512.649 116.575C511.927 116.821 511.101 116.919 510.172 116.869C509.243 116.819 508.234 116.538 507.146 116.026ZM509.433 113.335C510.496 113.835 511.503 114.052 512.454 113.987C513.415 113.927 514.251 113.65 514.964 113.159C515.689 112.663 516.235 112.025 516.602 111.246L517.8 108.701C517.598 108.773 517.272 108.777 516.822 108.711C516.384 108.641 515.896 108.532 515.359 108.384C514.825 108.227 514.307 108.072 513.804 107.919C513.304 107.757 512.886 107.623 512.549 107.517C511.759 107.26 511.003 107.098 510.281 107.03C509.568 106.967 508.928 107.058 508.362 107.305C507.809 107.547 507.371 108.01 507.048 108.696C506.601 109.647 506.613 110.532 507.086 111.351C507.563 112.161 508.345 112.823 509.433 113.335Z" fill="white"/>
<path d="M537.469 129.958C536.203 129.402 535.162 128.665 534.344 127.747C533.531 126.821 533.023 125.775 532.822 124.611C532.628 123.45 532.819 122.215 533.395 120.906C533.89 119.779 534.515 118.947 535.268 118.409C536.022 117.871 536.86 117.552 537.784 117.451C538.707 117.35 539.672 117.391 540.678 117.575C541.683 117.758 542.683 118.001 543.678 118.304C544.935 118.691 545.955 119.005 546.739 119.246C547.526 119.478 548.135 119.565 548.565 119.505C548.994 119.446 549.312 119.182 549.518 118.714L549.558 118.623C550.057 117.487 550.123 116.466 549.756 115.56C549.397 114.658 548.589 113.93 547.332 113.378C546.023 112.802 544.864 112.639 543.854 112.889C542.857 113.133 542.061 113.544 541.467 114.12L538.178 111.682C539.145 110.659 540.209 109.957 541.369 109.577C542.541 109.193 543.748 109.071 544.989 109.213C546.234 109.347 547.458 109.678 548.663 110.208C549.461 110.559 550.264 111.025 551.073 111.609C551.895 112.187 552.587 112.895 553.15 113.732C553.722 114.573 554.057 115.563 554.156 116.703C554.259 117.834 553.99 119.128 553.35 120.585L547.52 133.848L543.723 132.18L544.923 129.449L544.767 129.38C544.295 129.772 543.701 130.101 542.984 130.365C542.268 130.63 541.445 130.749 540.515 130.723C539.585 130.697 538.57 130.442 537.469 129.958ZM539.686 127.209C540.761 127.681 541.773 127.873 542.723 127.783C543.681 127.698 544.51 127.4 545.21 126.89C545.922 126.376 546.452 125.724 546.798 124.935L547.93 122.361C547.731 122.438 547.405 122.45 546.952 122.396C546.513 122.338 546.022 122.241 545.482 122.107C544.944 121.964 544.422 121.822 543.915 121.682C543.411 121.533 542.99 121.41 542.65 121.312C541.854 121.076 541.094 120.933 540.371 120.884C539.656 120.839 539.019 120.947 538.46 121.208C537.913 121.464 537.487 121.939 537.182 122.633C536.759 123.595 536.794 124.479 537.288 125.286C537.786 126.084 538.585 126.725 539.686 127.209Z" fill="white"/>
<path d="M552.741 136.021L560.733 115.719L564.685 117.275L561.334 125.787L563.237 126.536L573.289 120.662L578.18 122.587L566.429 129.365L570.28 142.926L565.377 140.995L562.452 130.471L559.888 129.462L556.693 137.577L552.741 136.021Z" fill="white"/>
<path d="M597.18 128.912L591.386 146.311L594.418 147.32L591.097 157.293L587.122 155.97L589.343 149.298L573.4 143.989L580.293 123.289L584.242 124.604L578.507 141.827L587.509 144.825L593.245 127.602L597.18 128.912Z" fill="white"/>
<path d="M597.819 151.988L603.791 131.003L607.876 132.166L601.904 153.151L597.819 151.988ZM606.776 128.352C606.065 128.15 605.522 127.74 605.147 127.121C604.784 126.496 604.696 125.851 604.886 125.186C605.077 124.512 605.491 124.009 606.127 123.678C606.774 123.34 607.453 123.273 608.164 123.475C608.874 123.677 609.411 124.091 609.775 124.716C610.15 125.335 610.242 125.981 610.05 126.655C609.861 127.32 609.442 127.821 608.795 128.159C608.159 128.49 607.486 128.555 606.776 128.352Z" fill="white"/>
<path d="M620.074 157.667L624.356 139.981L619.275 138.751C618.07 138.459 617.063 138.513 616.255 138.912C615.447 139.31 614.933 139.965 614.712 140.877C614.494 141.779 614.626 142.58 615.109 143.282C615.604 143.976 616.412 144.46 617.535 144.731L624.093 146.319L623.284 149.66L616.726 148.072C615.162 147.694 613.871 147.108 612.855 146.317C611.85 145.518 611.155 144.565 610.77 143.459C610.394 142.355 610.364 141.149 610.681 139.842C611.004 138.507 611.595 137.433 612.455 136.618C613.326 135.796 614.416 135.261 615.723 135.012C617.04 134.766 618.508 134.839 620.128 135.231L629.088 137.4L623.953 158.606L620.074 157.667ZM606.158 154.297L614.73 145.031L618.954 146.054L610.383 155.32L606.158 154.297Z" fill="white"/>
<path d="M642.469 156.806L652.375 141.778L655.98 142.437L643.076 162.259L639.974 161.693L635.089 138.622L638.653 139.273L642.469 156.806ZM637.493 139.061L633.574 160.524L629.479 159.776L633.399 138.313L637.493 139.061ZM649.587 163.448L653.507 141.985L657.573 142.727L653.654 164.191L649.587 163.448Z" fill="white"/>
<path d="M664.148 159.717L675.768 145.253L680.302 145.855L677.432 167.483L673.306 166.936L675.395 151.193L663.815 165.677L659.239 165.069L662.109 143.441L666.235 143.988L664.148 159.717Z" fill="white"/>
<path d="M693.631 169.224L695.47 147.484L704.486 148.246C706.939 148.453 708.839 149.142 710.184 150.31C711.531 151.469 712.129 152.941 711.978 154.724C711.87 155.998 711.379 156.973 710.505 157.65C709.63 158.327 708.512 158.736 707.151 158.878C708.113 159.073 708.98 159.441 709.751 159.981C710.524 160.512 711.122 161.19 711.547 162.015C711.981 162.84 712.152 163.796 712.06 164.881C711.963 166.032 711.579 167.026 710.91 167.863C710.241 168.69 709.319 169.306 708.145 169.71C706.98 170.106 705.606 170.237 704.02 170.103L693.631 169.224ZM697.908 166.022L704.32 166.564C705.367 166.653 706.209 166.472 706.846 166.022C707.483 165.572 707.837 164.918 707.91 164.06C707.995 163.05 707.765 162.232 707.219 161.606C706.674 160.971 705.878 160.609 704.831 160.52L698.419 159.978L697.908 166.022ZM698.681 156.879L703.762 157.308C704.555 157.375 705.244 157.319 705.829 157.141C706.424 156.963 706.89 156.679 707.227 156.29C707.574 155.891 707.772 155.404 707.821 154.829C707.892 153.989 707.603 153.304 706.954 152.774C706.305 152.244 705.381 151.928 704.183 151.827L699.144 151.401L698.681 156.879Z" fill="white"/>
<path d="M733.109 142.965L731.497 172.011L727.115 171.768L728.727 142.721L733.109 142.965Z" fill="white"/>
<path d="M742.258 159.501L741.786 172.447L737.542 172.292L738.337 150.488L742.411 150.637L742.282 154.186L742.551 154.196C743.095 153.059 743.914 152.161 745.009 151.499C746.114 150.838 747.484 150.538 749.122 150.598C750.607 150.652 751.897 151.011 752.991 151.677C754.085 152.333 754.918 153.282 755.488 154.525C756.059 155.769 756.311 157.289 756.246 159.087L755.74 172.956L751.496 172.801L751.983 159.443C752.04 157.863 751.674 156.613 750.883 155.694C750.092 154.764 748.978 154.274 747.54 154.221C746.555 154.185 745.672 154.366 744.89 154.764C744.118 155.162 743.494 155.765 743.019 156.572C742.554 157.37 742.3 158.346 742.258 159.501Z" fill="white"/>
<path d="M777.809 156.599L773.958 157.275C773.798 156.782 773.543 156.313 773.194 155.867C772.853 155.422 772.39 155.056 771.803 154.771C771.217 154.486 770.483 154.343 769.602 154.342C768.4 154.34 767.395 154.608 766.59 155.146C765.784 155.675 765.38 156.361 765.379 157.204C765.378 157.933 765.647 158.521 766.186 158.967C766.725 159.413 767.595 159.779 768.798 160.065L772.262 160.866C774.269 161.333 775.764 162.05 776.747 163.018C777.731 163.985 778.221 165.241 778.218 166.785C778.216 168.091 777.836 169.255 777.076 170.277C776.327 171.289 775.279 172.083 773.933 172.658C772.597 173.234 771.048 173.52 769.287 173.517C766.844 173.513 764.851 172.989 763.309 171.945C761.768 170.891 760.823 169.398 760.476 167.466L764.582 166.848C764.836 167.918 765.36 168.729 766.155 169.279C766.949 169.82 767.986 170.092 769.264 170.094C770.656 170.096 771.769 169.809 772.604 169.233C773.438 168.647 773.856 167.933 773.857 167.09C773.858 166.408 773.604 165.835 773.093 165.37C772.592 164.905 771.821 164.553 770.779 164.315L767.087 163.499C765.052 163.032 763.548 162.291 762.574 161.276C761.61 160.261 761.129 158.977 761.131 157.424C761.133 156.136 761.495 155.01 762.216 154.045C762.938 153.081 763.933 152.329 765.203 151.792C766.473 151.245 767.927 150.972 769.565 150.975C771.923 150.979 773.778 151.493 775.131 152.518C776.483 153.534 777.376 154.894 777.809 156.599Z" fill="white"/>
<path d="M792.421 150.906L792.52 154.313L780.607 154.66L780.508 151.253L792.421 150.906ZM783.551 145.935L787.796 145.811L788.397 166.441C788.421 167.265 788.562 167.881 788.82 168.291C789.078 168.691 789.403 168.961 789.796 169.101C790.197 169.231 790.63 169.29 791.094 169.276C791.435 169.266 791.732 169.234 791.986 169.179C792.241 169.124 792.438 169.081 792.579 169.048L793.448 172.533C793.205 172.635 792.857 172.739 792.406 172.847C791.955 172.965 791.388 173.038 790.707 173.067C789.591 173.119 788.544 172.95 787.566 172.562C786.588 172.174 785.789 171.553 785.167 170.699C784.545 169.846 784.215 168.761 784.177 167.445L783.551 145.935Z" fill="white"/>
<path d="M804.114 172.564C802.734 172.651 801.471 172.474 800.323 172.034C799.175 171.585 798.244 170.889 797.53 169.947C796.825 169.005 796.428 167.82 796.338 166.393C796.261 165.165 796.433 164.139 796.856 163.315C797.278 162.491 797.877 161.822 798.651 161.309C799.425 160.795 800.301 160.389 801.278 160.09C802.256 159.791 803.256 159.548 804.278 159.36C805.573 159.127 806.623 158.937 807.43 158.791C808.236 158.636 808.817 158.433 809.171 158.183C809.525 157.933 809.686 157.553 809.654 157.043L809.648 156.943C809.57 155.705 809.16 154.768 808.417 154.132C807.685 153.495 806.633 153.22 805.263 153.306C803.836 153.396 802.731 153.783 801.949 154.468C801.175 155.143 800.657 155.874 800.393 156.659L796.352 156.003C796.741 154.65 797.364 153.538 798.22 152.668C799.085 151.788 800.101 151.126 801.269 150.683C802.436 150.23 803.676 149.962 804.99 149.879C805.859 149.824 806.787 149.87 807.774 150.016C808.769 150.153 809.709 150.464 810.594 150.949C811.488 151.433 812.24 152.159 812.852 153.126C813.462 154.084 813.818 155.357 813.918 156.945L814.829 171.405L810.69 171.666L810.502 168.689L810.332 168.699C810.093 169.265 809.715 169.829 809.201 170.393C808.686 170.957 808.009 171.441 807.171 171.845C806.333 172.249 805.314 172.488 804.114 172.564ZM804.821 169.104C805.993 169.03 806.98 168.735 807.783 168.22C808.595 167.703 809.194 167.058 809.582 166.284C809.979 165.5 810.15 164.678 810.096 163.818L809.919 161.011C809.777 161.172 809.493 161.332 809.066 161.492C808.649 161.642 808.169 161.781 807.627 161.91C807.084 162.03 806.555 162.144 806.04 162.252C805.524 162.351 805.093 162.435 804.747 162.504C803.931 162.66 803.191 162.882 802.526 163.171C801.87 163.459 801.354 163.847 800.977 164.336C800.608 164.815 800.448 165.432 800.495 166.188C800.562 167.237 800.999 168.007 801.808 168.497C802.616 168.977 803.621 169.179 804.821 169.104Z" fill="white"/>
<path d="M830.477 178.539C828.754 178.723 827.247 178.656 825.956 178.337C824.674 178.017 823.603 177.527 822.741 176.867C821.88 176.206 821.209 175.454 820.729 174.611L824.198 172.725C824.497 173.112 824.883 173.514 825.356 173.93C825.839 174.354 826.466 174.692 827.235 174.943C828.015 175.193 828.988 175.255 830.156 175.13C831.756 174.959 833.037 174.427 833.999 173.533C834.961 172.649 835.352 171.36 835.171 169.665L834.714 165.4L834.446 165.428C834.241 165.917 833.929 166.469 833.509 167.086C833.099 167.701 832.501 168.26 831.717 168.763C830.933 169.266 829.877 169.589 828.549 169.731C826.835 169.914 825.248 169.679 823.788 169.026C822.336 168.362 821.126 167.287 820.157 165.8C819.197 164.303 818.593 162.401 818.347 160.094C818.1 157.787 818.279 155.768 818.884 154.037C819.499 152.304 820.446 150.927 821.727 149.904C823.007 148.872 824.518 148.262 826.26 148.076C827.607 147.932 828.719 148.041 829.596 148.405C830.472 148.759 831.172 149.207 831.697 149.751C832.231 150.294 832.649 150.778 832.952 151.203L833.263 151.169L832.886 147.652L837.025 147.21L839.398 169.384C839.597 171.249 839.328 172.825 838.59 174.114C837.851 175.402 836.774 176.413 835.357 177.145C833.949 177.877 832.323 178.341 830.477 178.539ZM829.107 166.128C830.321 165.998 831.317 165.606 832.095 164.951C832.881 164.286 833.433 163.399 833.753 162.288C834.08 161.168 834.164 159.859 834.004 158.361C833.848 156.902 833.494 155.64 832.942 154.575C832.39 153.51 831.661 152.712 830.757 152.18C829.851 151.639 828.782 151.435 827.548 151.567C826.277 151.703 825.253 152.146 824.476 152.895C823.698 153.636 823.153 154.589 822.839 155.756C822.536 156.922 822.458 158.197 822.606 159.581C822.758 161.003 823.108 162.227 823.656 163.254C824.204 164.282 824.934 165.051 825.846 165.563C826.767 166.074 827.854 166.262 829.107 166.128Z" fill="white"/>
<path d="M844.994 168.193L841.871 146.6L845.934 146.012L846.43 149.442L846.655 149.41C846.88 148.191 847.442 147.177 848.339 146.367C849.244 145.548 850.329 145.046 851.595 144.863C851.857 144.825 852.168 144.79 852.527 144.757C852.895 144.723 853.184 144.705 853.394 144.703L853.976 148.724C853.8 148.701 853.493 148.693 853.054 148.699C852.613 148.696 852.177 148.726 851.746 148.788C850.753 148.932 849.898 149.271 849.181 149.805C848.472 150.329 847.946 150.993 847.603 151.799C847.259 152.595 847.155 153.461 847.29 154.399L849.198 167.585L844.994 168.193Z" fill="white"/>
<path d="M866.312 165.274C864.952 165.519 863.676 165.489 862.486 165.184C861.293 164.87 860.288 164.287 859.471 163.433C858.662 162.578 858.131 161.447 857.877 160.04C857.658 158.829 857.712 157.789 858.036 156.923C858.361 156.056 858.878 155.323 859.588 154.723C860.298 154.123 861.121 153.619 862.058 153.209C862.994 152.8 863.959 152.443 864.953 152.139C866.212 151.758 867.234 151.448 868.019 151.21C868.802 150.963 869.355 150.695 869.678 150.406C870.001 150.117 870.117 149.721 870.027 149.217L870.009 149.119C869.789 147.899 869.273 147.015 868.463 146.468C867.661 145.92 866.585 145.768 865.234 146.011C863.826 146.265 862.774 146.778 862.076 147.548C861.385 148.308 860.954 149.093 860.783 149.903L856.693 149.717C856.924 148.328 857.414 147.152 858.164 146.19C858.922 145.216 859.855 144.441 860.964 143.866C862.071 143.281 863.272 142.872 864.568 142.639C865.425 142.484 866.352 142.423 867.349 142.454C868.353 142.475 869.323 142.676 870.258 143.056C871.201 143.434 872.033 144.068 872.751 144.959C873.468 145.84 873.968 147.063 874.251 148.629L876.822 162.887L872.741 163.623L872.211 160.688L872.043 160.718C871.871 161.307 871.561 161.912 871.115 162.531C870.668 163.15 870.052 163.709 869.266 164.207C868.48 164.705 867.496 165.06 866.312 165.274ZM866.616 161.755C867.771 161.546 868.718 161.14 869.456 160.535C870.203 159.929 870.724 159.219 871.02 158.406C871.324 157.581 871.399 156.745 871.246 155.897L870.747 153.129C870.624 153.305 870.361 153.497 869.956 153.705C869.558 153.901 869.097 154.095 868.574 154.286C868.048 154.467 867.536 154.641 867.037 154.808C866.536 154.966 866.118 155.099 865.781 155.208C864.989 155.457 864.279 155.763 863.652 156.126C863.034 156.488 862.566 156.933 862.247 157.462C861.937 157.98 861.848 158.612 861.983 159.357C862.169 160.392 862.693 161.106 863.553 161.499C864.411 161.883 865.432 161.968 866.616 161.755Z" fill="white"/>
<path d="M882.358 161.74L877.392 140.495L881.362 139.567L882.17 143.025L882.433 142.963C882.602 141.689 883.112 140.607 883.964 139.717C884.814 138.818 885.94 138.205 887.342 137.877C888.762 137.545 890.029 137.599 891.143 138.039C892.266 138.477 893.194 139.223 893.927 140.277L894.148 140.225C894.39 138.972 894.986 137.88 895.935 136.948C896.882 136.007 898.121 135.358 899.652 135C901.579 134.549 903.292 134.786 904.792 135.709C906.301 136.631 907.34 138.308 907.909 140.743L911.239 154.989L907.103 155.956L903.863 142.097C903.527 140.658 902.892 139.708 901.957 139.246C901.022 138.783 900.011 138.679 898.923 138.934C897.577 139.248 896.627 139.908 896.074 140.913C895.519 141.908 895.392 143.051 895.694 144.342L898.859 157.883L894.737 158.847L891.436 144.724C891.167 143.572 890.591 142.729 889.708 142.196C888.825 141.664 887.807 141.532 886.654 141.802C885.87 141.985 885.195 142.361 884.628 142.932C884.068 143.49 883.671 144.181 883.435 145.005C883.209 145.826 883.208 146.716 883.432 147.675L886.494 160.774L882.358 161.74Z" fill="white"/>
<path d="M1146.88 95.0064C1141.37 96.3018 1136.28 96.7032 1131.62 96.2106C1126.97 95.7352 1122.82 94.4035 1119.17 92.2154C1115.52 90.0446 1112.43 87.0677 1109.9 83.2847C1107.37 79.5018 1105.48 74.9657 1104.24 69.6765C1103.01 64.4564 1102.68 59.5376 1103.24 54.92C1103.81 50.2983 1105.24 46.1131 1107.54 42.3643C1109.83 38.5983 1112.95 35.3845 1116.9 32.7232C1120.87 30.0577 1125.64 28.0712 1131.2 26.7636C1136.35 25.5534 1141.13 25.2251 1145.53 25.7786C1149.94 26.3281 1153.88 27.6633 1157.36 29.7843C1160.84 31.8839 1163.77 34.6711 1166.13 38.1459C1168.51 41.5994 1170.24 45.6357 1171.3 50.2549C1172.07 53.4313 1172.48 56.4174 1172.53 59.2133C1172.59 62.0093 1172.23 64.5453 1171.47 66.8214C1170.73 69.0761 1169.5 71.014 1167.81 72.6351C1166.1 74.2388 1163.87 75.4474 1161.11 76.2609C1159.14 76.8875 1157.48 77.1223 1156.13 76.9653C1154.78 76.8083 1153.67 76.3662 1152.81 75.6389C1151.96 74.8904 1151.3 73.9421 1150.83 72.7941L1150.52 72.8672C1150.34 74.0017 1149.75 75.1346 1148.74 76.2659C1147.73 77.3798 1146.4 78.3752 1144.77 79.2521C1143.14 80.1076 1141.34 80.7043 1139.36 81.0422C1137.29 81.4004 1135.24 81.3799 1133.22 80.9806C1131.21 80.5773 1129.31 79.7557 1127.52 78.5158C1125.75 77.2718 1124.19 75.5871 1122.83 73.4618C1121.49 71.3324 1120.46 68.7486 1119.72 65.7105C1119.03 62.6989 1118.84 59.9807 1119.15 57.556C1119.47 55.1272 1120.15 52.9899 1121.17 51.1439C1122.21 49.2939 1123.49 47.7357 1125 46.4695C1126.51 45.2032 1128.1 44.246 1129.77 43.5979C1131.65 42.8452 1133.5 42.4107 1135.32 42.2943C1137.13 42.178 1138.71 42.3082 1140.06 42.6848C1141.42 43.0574 1142.34 43.5894 1142.81 44.2809L1143.18 44.1956L1142.49 41.2918L1150.61 39.3851L1156.56 64.6905C1156.85 65.8791 1157.34 66.7409 1158.01 67.2759C1158.68 67.8109 1159.46 67.9748 1160.34 67.7677C1161.54 67.4875 1162.41 66.7268 1162.95 65.4856C1163.52 64.2404 1163.74 62.4821 1163.63 60.2108C1163.53 57.9354 1163.09 55.1124 1162.3 51.7418C1161.53 48.4922 1160.43 45.7417 1158.99 43.4903C1157.56 41.2175 1155.88 39.3976 1153.93 38.0305C1152 36.6421 1149.89 35.641 1147.62 35.0271C1145.34 34.4133 1142.96 34.1339 1140.47 34.189C1138 34.24 1135.52 34.5579 1133.03 35.1427C1128.73 36.1539 1125.13 37.694 1122.22 39.763C1119.31 41.8147 1117.06 44.2677 1115.47 47.122C1113.88 49.9764 1112.92 53.111 1112.59 56.5259C1112.27 59.9195 1112.54 63.4765 1113.4 67.1968C1114.38 71.2893 1115.8 74.7852 1117.67 77.6844C1119.55 80.5623 1121.85 82.8129 1124.56 84.4365C1127.28 86.06 1130.39 87.0432 1133.9 87.386C1137.41 87.7288 1141.27 87.4047 1145.49 86.4139C1147.48 85.9469 1149.39 85.3431 1151.22 84.6025C1153.06 83.8793 1154.7 83.1295 1156.14 82.3532C1157.58 81.5943 1158.73 80.915 1159.57 80.3154L1163.9 87.2314C1162.96 88.1095 1161.62 89.0357 1159.88 90.0101C1158.16 90.9978 1156.17 91.9299 1153.91 92.8066C1151.68 93.6964 1149.33 94.4297 1146.88 95.0064ZM1140.18 71.848C1142.29 71.3526 1143.87 70.5525 1144.92 69.4477C1146 68.3389 1146.61 66.9264 1146.77 65.2103C1146.95 63.4728 1146.74 61.4328 1146.16 59.0901C1145.65 57.02 1144.97 55.3285 1144.12 54.0156C1143.27 52.6815 1142.14 51.7889 1140.72 51.3381C1139.32 50.8659 1137.52 50.8876 1135.32 51.4034C1133.4 51.8541 1131.87 52.6441 1130.71 53.7732C1129.57 54.8983 1128.82 56.2787 1128.45 57.9145C1128.1 59.5288 1128.15 61.3233 1128.6 63.2979C1129.04 65.126 1129.75 66.7941 1130.7 68.3022C1131.65 69.793 1132.91 70.894 1134.46 71.6052C1136.01 72.2991 1137.92 72.38 1140.18 71.848Z" fill="#F3EEE2"/>
<path d="M1185.39 86.0314L1179.44 30.0971L1190.56 28.9136L1191.29 35.7465L1191.8 35.6929C1192.17 34.5456 1192.77 33.3572 1193.59 32.1277C1194.42 30.8786 1195.55 29.7937 1196.99 28.8729C1198.44 27.9326 1200.31 27.3413 1202.59 27.099C1205.55 26.7834 1208.37 27.2691 1211.04 28.556C1213.71 29.8254 1215.96 31.9339 1217.8 34.8817C1219.63 37.8118 1220.79 41.6075 1221.28 46.2687C1221.77 50.8063 1221.44 54.7156 1220.31 57.9966C1219.19 61.2581 1217.47 63.8256 1215.13 65.6991C1212.81 67.553 1210.1 68.6443 1207.01 68.9731C1204.82 69.206 1202.92 69.0422 1201.31 68.4818C1199.71 67.9194 1198.37 67.1426 1197.29 66.1512C1196.2 65.1422 1195.34 64.1 1194.7 63.0244L1194.36 63.0611L1196.68 84.831L1185.39 86.0314ZM1192.65 49.2618C1192.91 51.6806 1193.47 53.7548 1194.33 55.4844C1195.19 57.2139 1196.31 58.5142 1197.69 59.3854C1199.07 60.2389 1200.66 60.5689 1202.48 60.3754C1204.32 60.18 1205.82 59.5115 1206.98 58.3698C1208.15 57.2105 1208.96 55.6957 1209.42 53.8253C1209.9 51.9353 1210.01 49.8074 1209.76 47.4415C1209.51 45.0932 1208.96 43.0622 1208.12 41.3485C1207.28 39.6347 1206.17 38.3423 1204.79 37.4711C1203.41 36.6 1201.79 36.263 1199.94 36.4603C1198.1 36.6557 1196.6 37.3065 1195.43 38.4128C1194.28 39.5173 1193.47 40.9968 1192.99 42.8515C1192.5 44.7061 1192.39 46.8429 1192.65 49.2618Z" fill="#F3EEE2"/>
<path d="M1230.97 66.0274L1229.08 25.1618L1240.41 24.6385L1242.3 65.5041L1230.97 66.0274ZM1234.53 19.6311C1232.84 19.7089 1231.37 19.217 1230.12 18.1552C1228.87 17.075 1228.22 15.7455 1228.14 14.167C1228.07 12.6061 1228.61 11.2396 1229.74 10.0673C1230.9 8.87642 1232.31 8.24209 1234 8.16429C1235.68 8.08649 1237.15 8.58773 1238.39 9.66801C1239.65 10.7297 1240.31 12.041 1240.38 13.6019C1240.46 15.1804 1239.92 16.5651 1238.76 17.756C1237.63 18.9283 1236.21 19.5533 1234.53 19.6311Z" fill="#F3EEE2"/>
<path d="M1269.87 66.12C1265.68 66.115 1262.07 65.223 1259.06 63.4438C1256.06 61.6469 1253.75 59.1584 1252.14 55.9782C1250.55 52.7981 1249.75 49.1395 1249.76 45.0024C1249.76 40.8121 1250.57 37.1376 1252.19 33.979C1253.83 30.8027 1256.15 28.3285 1259.15 26.5565C1262.16 24.7667 1265.72 23.8743 1269.86 23.8792C1273.43 23.8834 1276.56 24.5352 1279.23 25.8345C1281.91 27.1338 1284.03 28.9563 1285.59 31.3019C1287.15 33.6475 1288.01 36.4006 1288.17 39.5613L1277.46 39.5487C1277.16 37.5064 1276.36 35.8631 1275.07 34.6186C1273.79 33.3565 1272.12 32.7242 1270.04 32.7217C1268.28 32.7196 1266.74 33.1972 1265.43 34.1545C1264.13 35.094 1263.12 36.4688 1262.39 38.2791C1261.66 40.0893 1261.29 42.2817 1261.29 44.8562C1261.28 47.4663 1261.64 49.6862 1262.35 51.5159C1263.07 53.3456 1264.09 54.7406 1265.4 55.701C1266.72 56.6613 1268.25 57.1425 1270.01 57.1446C1271.31 57.1462 1272.47 56.8812 1273.5 56.3498C1274.55 55.8183 1275.41 55.047 1276.09 54.0357C1276.78 53.0067 1277.23 51.7732 1277.45 50.3352L1288.15 50.3479C1287.97 53.4727 1287.12 56.2238 1285.59 58.6013C1284.08 60.961 1281.99 62.8051 1279.32 64.1336C1276.66 65.4622 1273.51 66.1243 1269.87 66.12Z" fill="#F3EEE2"/>
<path d="M1308.33 42.8472L1306.7 66.4414L1295.38 65.6583L1298.21 24.8468L1308.99 25.5931L1308.49 32.7936L1308.97 32.8267C1310.04 30.5156 1311.69 28.7427 1313.91 27.5082C1316.13 26.2559 1318.75 25.7345 1321.78 25.9441C1324.62 26.1402 1327.05 26.9311 1329.07 28.3169C1331.09 29.7026 1332.61 31.5873 1333.62 33.9709C1334.63 36.3368 1335.02 39.1051 1334.8 42.2758L1333.01 68.2613L1321.69 67.4782L1323.34 43.512C1323.54 41.0157 1323.03 39.0231 1321.84 37.5343C1320.64 36.0278 1318.91 35.1961 1316.64 35.0392C1315.12 34.9338 1313.75 35.1684 1312.54 35.7429C1311.34 36.3186 1310.37 37.2126 1309.63 38.4249C1308.9 39.6207 1308.47 41.0948 1308.33 42.8472Z" fill="#F3EEE2"/>
<path d="M1341.9 69.1015L1346.74 28.4803L1358.01 29.8238L1353.16 70.4451L1341.9 69.1015ZM1353.02 23.9189C1351.35 23.7191 1349.98 22.9924 1348.91 21.7387C1347.87 20.4694 1347.44 19.0502 1347.62 17.4811C1347.81 15.9296 1348.56 14.6689 1349.87 13.699C1351.2 12.7137 1352.71 12.3208 1354.38 12.5206C1356.06 12.7203 1357.42 13.4548 1358.47 14.7241C1359.53 15.9778 1359.97 17.3804 1359.79 18.9319C1359.6 20.501 1358.84 21.7783 1357.51 22.7637C1356.19 23.7336 1354.7 24.1186 1353.02 23.9189Z" fill="#F3EEE2"/>
<path d="M1380.25 75.583C1376.12 74.8892 1372.71 73.4169 1370.03 71.1661C1367.37 68.9007 1365.5 66.067 1364.43 62.6651C1363.38 59.2661 1363.2 55.5266 1363.89 51.4467C1364.58 47.3142 1365.99 43.8232 1368.1 40.9739C1370.24 38.1099 1372.93 36.0508 1376.19 34.7966C1379.44 33.5248 1383.11 33.2314 1387.19 33.9164C1390.71 34.5073 1393.69 35.6638 1396.12 37.386C1398.55 39.1082 1400.34 41.2544 1401.49 43.8245C1402.64 46.3946 1403.04 49.2513 1402.67 52.3946L1392.11 50.6219C1392.15 48.5582 1391.64 46.8062 1390.56 45.3659C1389.51 43.911 1387.96 43.0115 1385.91 42.6676C1384.18 42.3765 1382.58 42.595 1381.13 43.3231C1379.7 44.0365 1378.47 45.226 1377.45 46.8916C1376.43 48.5571 1375.71 50.6594 1375.29 53.1985C1374.85 55.7725 1374.84 58.0202 1375.23 59.9413C1375.65 61.8655 1376.43 63.4091 1377.56 64.5722C1378.7 65.7353 1380.13 66.4624 1381.87 66.7534C1383.15 66.968 1384.34 66.8979 1385.44 66.5431C1386.56 66.1912 1387.54 65.5721 1388.37 64.6857C1389.23 63.7848 1389.88 62.6427 1390.33 61.2597L1400.88 63.0323C1400.19 66.0848 1398.9 68.6578 1397 70.7514C1395.12 72.8305 1392.75 74.3062 1389.91 75.1785C1387.06 76.0508 1383.84 76.1857 1380.25 75.583Z" fill="#F3EEE2"/>
<path d="M1405.49 79.372L1415.42 39.6887L1425.91 42.3158L1424.16 49.3173L1424.63 49.4337C1426.03 47.3156 1427.87 45.8264 1430.14 44.9661C1432.4 44.1058 1434.88 44.0122 1437.57 44.6852C1440.29 45.3668 1442.43 46.6273 1444 48.4668C1445.58 50.2891 1446.4 52.4341 1446.46 54.9016L1446.87 55.0052C1448.25 52.9344 1450.17 51.484 1452.63 50.6539C1455.11 49.811 1457.8 49.754 1460.71 50.4831C1464.42 51.4106 1467.13 53.3432 1468.84 56.2809C1470.58 59.2057 1470.91 62.821 1469.83 67.127L1463.15 93.815L1452.17 91.0649L1458.31 66.547C1458.86 64.3424 1458.69 62.5422 1457.8 61.1466C1456.9 59.7509 1455.58 58.8331 1453.82 58.393C1451.82 57.8926 1450.1 58.1395 1448.66 59.1336C1447.23 60.1106 1446.25 61.6324 1445.74 63.6993L1439.67 87.933L1429 85.2605L1435.19 60.5101C1435.68 58.5638 1435.51 56.8735 1434.68 55.4391C1433.87 54.009 1432.56 53.0675 1430.75 52.6145C1429.52 52.3082 1428.34 52.3422 1427.21 52.7163C1426.09 53.0776 1425.11 53.7382 1424.27 54.6981C1423.43 55.6409 1422.82 56.8442 1422.46 58.3082L1416.49 82.1286L1405.49 79.372Z" fill="#F3EEE2"/>
<path d="M1489.18 102.914C1485.18 101.594 1482.01 99.6485 1479.66 97.0775C1477.34 94.4951 1475.89 91.4557 1475.33 87.9591C1474.77 84.4457 1475.16 80.6406 1476.52 76.5438C1477.84 72.5481 1479.77 69.2977 1482.32 66.7923C1484.87 64.287 1487.83 62.6565 1491.2 61.9009C1494.59 61.1508 1498.19 61.4052 1502 62.6642C1504.56 63.5109 1506.81 64.7122 1508.75 66.268C1510.7 67.8125 1512.24 69.6754 1513.35 71.8567C1514.48 74.0435 1515.1 76.5293 1515.21 79.314C1515.32 82.0818 1514.83 85.1179 1513.74 88.4223L1512.76 91.3811L1479.96 80.5437L1482.17 73.8675L1504.83 81.3542C1505.34 79.8032 1505.46 78.3177 1505.18 76.8979C1504.9 75.4781 1504.27 74.2332 1503.3 73.1633C1502.35 72.0822 1501.09 71.2826 1499.52 70.7645C1497.88 70.2242 1496.31 70.1244 1494.79 70.4653C1493.3 70.7949 1491.99 71.475 1490.87 72.5054C1489.75 73.5191 1488.92 74.7902 1488.4 76.3188L1486.3 82.6663C1485.67 84.5883 1485.47 86.3659 1485.72 87.9991C1485.98 89.638 1486.64 91.054 1487.71 92.2472C1488.77 93.4403 1490.21 94.3349 1492.01 94.931C1493.21 95.3265 1494.36 95.52 1495.47 95.5114C1496.57 95.5029 1497.59 95.2785 1498.52 94.838C1499.45 94.3976 1500.27 93.7498 1500.96 92.8945L1510.71 96.8442C1509.41 99.0711 1507.68 100.819 1505.52 102.088C1503.39 103.346 1500.92 104.065 1498.13 104.247C1495.37 104.417 1492.38 103.973 1489.18 102.914Z" fill="#F3EEE2"/>
<path d="M1533.38 92.6992L1524.77 114.726L1514.2 110.596L1529.09 72.4943L1539.16 76.4313L1536.54 83.1536L1536.98 83.3281C1538.69 81.4419 1540.79 80.2417 1543.28 79.7275C1545.78 79.1969 1548.44 79.4843 1551.27 80.5897C1553.91 81.6241 1555.99 83.1047 1557.51 85.0316C1559.02 86.9585 1559.91 89.2102 1560.16 91.7866C1560.41 94.3466 1559.96 97.1066 1558.81 100.067L1549.32 124.326L1538.76 120.196L1547.5 97.821C1548.43 95.4958 1548.55 93.444 1547.85 91.6656C1547.16 89.8707 1545.76 88.5596 1543.64 87.7321C1542.22 87.1761 1540.84 86.9907 1539.51 87.1759C1538.2 87.3676 1537 87.9309 1535.93 88.8658C1534.89 89.7907 1534.03 91.0685 1533.38 92.6992Z" fill="#F3EEE2"/>
<path d="M1588.62 122.521L1598.17 101.059L1608.53 105.67L1591.9 143.048L1581.95 138.62L1584.97 131.831L1584.58 131.657C1582.76 133.472 1580.58 134.608 1578.02 135.065C1575.48 135.529 1572.81 135.137 1570 133.889C1567.51 132.777 1565.56 131.231 1564.17 129.251C1562.78 127.271 1562.01 124.997 1561.87 122.428C1561.75 119.866 1562.33 117.121 1563.61 114.194L1574.2 90.3953L1584.56 95.0071L1574.8 116.956C1573.83 119.17 1573.65 121.177 1574.25 122.979C1574.84 124.78 1576.12 126.117 1578.09 126.99C1579.34 127.546 1580.63 127.782 1581.97 127.698C1583.32 127.597 1584.58 127.127 1585.75 126.287C1586.93 125.455 1587.89 124.199 1588.62 122.521Z" fill="#F3EEE2"/>
<path d="M1605.82 150.349C1604.23 149.588 1603.14 148.375 1602.54 146.709C1601.97 145.034 1602.06 143.405 1602.82 141.82C1603.57 140.251 1604.78 139.176 1606.44 138.593C1608.11 138.018 1609.74 138.111 1611.33 138.872C1612.86 139.61 1613.94 140.815 1614.55 142.489C1615.17 144.163 1615.1 145.784 1614.34 147.353C1613.84 148.409 1613.1 149.247 1612.13 149.866C1611.19 150.477 1610.16 150.839 1609.04 150.952C1607.93 151.049 1606.86 150.848 1605.82 150.349Z" fill="#F3EEE2"/>
<path d="M1651.5 152.861L1662.08 131.887L1672.21 136.996L1653.79 173.523L1644.06 168.618L1647.41 161.983L1647.03 161.791C1645.13 163.516 1642.89 164.544 1640.31 164.877C1637.76 165.218 1635.1 164.696 1632.36 163.313C1629.92 162.082 1628.05 160.444 1626.76 158.399C1625.46 156.353 1624.81 154.044 1624.79 151.472C1624.79 148.907 1625.5 146.193 1626.93 143.332L1638.66 120.074L1648.79 125.183L1637.97 146.633C1636.9 148.797 1636.62 150.793 1637.13 152.622C1637.64 154.45 1638.85 155.847 1640.77 156.815C1641.99 157.43 1643.27 157.729 1644.61 157.709C1645.96 157.674 1647.24 157.266 1648.45 156.484C1649.68 155.71 1650.7 154.502 1651.5 152.861Z" fill="#F3EEE2"/>
<path d="M1671.88 183.696C1669.56 182.497 1667.7 181.026 1666.3 179.284C1664.91 177.525 1664.1 175.576 1663.87 173.437C1663.66 171.29 1664.18 169.018 1665.42 166.621C1666.46 164.602 1667.71 163.099 1669.16 162.11C1670.61 161.121 1672.19 160.54 1673.9 160.365C1675.61 160.19 1677.39 160.309 1679.23 160.724C1681.09 161.146 1682.97 161.736 1684.86 162.493C1687.08 163.365 1688.89 164.041 1690.28 164.521C1691.68 164.985 1692.78 165.17 1693.56 165.078C1694.35 164.986 1694.94 164.553 1695.34 163.78L1695.42 163.638C1696.19 162.14 1696.32 160.736 1695.8 159.427C1695.29 158.125 1694.18 157.03 1692.46 156.141C1690.65 155.203 1688.99 154.858 1687.51 155.108C1686.03 155.342 1684.8 155.968 1683.84 156.987L1674.91 151.409C1676.52 149.446 1678.44 148.019 1680.66 147.128C1682.89 146.222 1685.32 145.902 1687.96 146.168C1690.63 146.427 1693.41 147.307 1696.31 148.808C1698.33 149.853 1700.14 151.089 1701.74 152.516C1703.36 153.952 1704.63 155.538 1705.55 157.274C1706.48 159.018 1706.97 160.887 1706.99 162.88C1707.03 164.858 1706.49 166.927 1705.37 169.088L1692.7 193.595L1683.14 188.652L1685.74 183.613L1685.46 183.466C1684.29 184.3 1682.99 184.897 1681.56 185.259C1680.15 185.605 1678.62 185.667 1677 185.446C1675.38 185.21 1673.68 184.626 1671.88 183.696ZM1678.36 178.234C1679.84 179.001 1681.3 179.387 1682.74 179.39C1684.19 179.379 1685.49 179.035 1686.66 178.36C1687.83 177.686 1688.75 176.709 1689.41 175.432L1691.4 171.576C1690.98 171.618 1690.45 171.583 1689.81 171.471C1689.19 171.351 1688.5 171.187 1687.75 170.978C1687.01 170.753 1686.27 170.521 1685.53 170.28C1684.81 170.024 1684.15 169.793 1683.56 169.586C1682.28 169.148 1681.11 168.889 1680.03 168.811C1678.95 168.733 1678 168.89 1677.17 169.284C1676.36 169.662 1675.71 170.324 1675.22 171.27C1674.51 172.642 1674.46 173.948 1675.08 175.187C1675.72 176.419 1676.82 177.435 1678.36 178.234Z" fill="#F3EEE2"/>
<path d="M962.888 135.955C963.933 129.009 967.49 123.418 972.316 118.652C982.902 108.191 995.78 101.8 1010.06 98.0264C1018.65 95.7534 1027.42 94.8039 1036.29 94.766C1038.81 94.7551 1038.81 94.7736 1038.27 97.4261C1039.75 97.0112 1040.79 96.055 1042.09 95.1834C1040.63 94.1644 1039.12 94.0311 1037.66 93.88C1031.81 93.2758 1026.04 92.2637 1020.3 91.0338C1019.6 90.8842 1018.37 91.1539 1018.83 89.7256C1019.15 88.6887 1019.03 87.261 1020.87 87.4789C1025.18 87.9911 1029.51 88.4144 1033.83 88.8888C1036.5 89.1841 1039.18 89.4416 1041.84 89.8296C1043.6 90.0887 1045.51 90.6817 1045.83 92.6088C1046.14 94.4554 1045.42 96.3981 1043.81 97.561C1038.84 101.17 1033.64 104.428 1028.16 107.292C1027.96 104.076 1028.24 103.552 1030.89 102.036C1032.08 101.352 1033.27 100.656 1034.51 99.9357C1034.3 99.7793 1034.19 99.6284 1034.08 99.6336C1018.83 100.314 1004 102.836 990.209 109.769C983.131 113.327 976.696 117.83 970.846 123.15C967.592 126.112 964.895 129.472 963.78 133.873C963.598 134.593 963.193 135.26 962.889 135.951L962.888 135.955Z" fill="#AD6C9C"/>
</svg>
