<svg width="340" height="341" viewBox="0 0 340 341" fill="none" xmlns="http://www.w3.org/2000/svg">
<path d="M238.396 314.51C239.229 314.118 240.037 313.913 240.819 313.893C241.597 313.876 242.293 314.034 242.906 314.367C243.52 314.7 243.995 315.195 244.332 315.851L242.157 316.874C241.987 316.563 241.749 316.333 241.444 316.184C241.141 316.04 240.798 315.977 240.416 315.997C240.035 316.016 239.645 316.119 239.248 316.306C238.824 316.505 238.482 316.756 238.223 317.056C237.966 317.361 237.808 317.69 237.748 318.043C237.688 318.396 237.741 318.745 237.909 319.09C238.073 319.451 238.315 319.723 238.632 319.908C238.95 320.093 239.324 320.179 239.756 320.164C240.183 320.152 240.647 320.027 241.149 319.792L242.195 319.299L242.973 320.954L241.926 321.446C241.514 321.64 241.187 321.881 240.945 322.169C240.7 322.458 240.55 322.774 240.494 323.116C240.44 323.461 240.495 323.805 240.66 324.146C240.814 324.484 241.026 324.739 241.297 324.914C241.565 325.094 241.871 325.188 242.213 325.196C242.553 325.206 242.907 325.124 243.277 324.95C243.64 324.78 243.945 324.556 244.191 324.28C244.438 324.004 244.599 323.7 244.674 323.368C244.75 323.04 244.716 322.708 244.572 322.371L246.637 321.399C246.934 322.07 247.016 322.742 246.886 323.416C246.753 324.095 246.445 324.72 245.96 325.292C245.477 325.868 244.852 326.336 244.085 326.697C243.294 327.068 242.538 327.243 241.816 327.219C241.092 327.202 240.453 327.02 239.899 326.673C239.345 326.326 238.926 325.852 238.644 325.25C238.326 324.585 238.26 323.933 238.445 323.295C238.626 322.659 239.004 322.121 239.579 321.681L239.535 321.589C238.648 321.865 237.865 321.856 237.186 321.563C236.504 321.276 235.991 320.762 235.647 320.019C235.335 319.356 235.245 318.673 235.376 317.971C235.506 317.275 235.83 316.623 236.35 316.016C236.866 315.411 237.548 314.909 238.396 314.51ZM227.713 319.153C228.296 318.935 228.859 318.842 229.404 318.874C229.946 318.913 230.43 319.086 230.855 319.396C231.276 319.707 231.6 320.164 231.825 320.766C232.02 321.285 232.085 321.75 232.02 322.161C231.955 322.572 231.796 322.941 231.541 323.269C231.286 323.596 230.97 323.89 230.594 324.149C230.215 324.413 229.811 324.653 229.382 324.869C228.864 325.126 228.446 325.34 228.127 325.509C227.81 325.682 227.593 325.845 227.478 325.998C227.359 326.156 227.339 326.339 227.417 326.546L227.43 326.582C227.599 327.033 227.863 327.332 228.223 327.48C228.583 327.627 229.015 327.606 229.518 327.418C230.049 327.219 230.426 326.946 230.651 326.598C230.871 326.252 230.977 325.901 230.966 325.545L233.097 325.075C233.147 325.693 233.058 326.259 232.832 326.771C232.606 327.288 232.264 327.739 231.803 328.126C231.344 328.516 230.793 328.831 230.151 329.072C229.708 329.238 229.247 329.351 228.769 329.412C228.292 329.472 227.826 329.451 227.373 329.347C226.922 329.248 226.51 329.036 226.139 328.711C225.763 328.387 225.46 327.92 225.232 327.31L222.928 321.156L225.011 320.376L225.484 321.639L225.556 321.612C225.592 321.307 225.688 320.998 225.843 320.685C225.997 320.378 226.228 320.089 226.536 319.819C226.842 319.554 227.234 319.332 227.713 319.153ZM227.747 320.956C227.312 321.119 226.967 321.346 226.712 321.637C226.458 321.932 226.299 322.255 226.235 322.607C226.167 322.96 226.197 323.306 226.324 323.645L226.729 324.729C226.776 324.647 226.873 324.552 227.018 324.443C227.16 324.335 227.324 324.226 227.51 324.116C227.696 324.005 227.882 323.899 228.067 323.798C228.252 323.697 228.413 323.609 228.549 323.536C228.856 323.371 229.118 323.191 229.336 322.995C229.554 322.8 229.703 322.585 229.784 322.35C229.866 322.119 229.854 321.864 229.75 321.584C229.6 321.185 229.342 320.939 228.974 320.844C228.607 320.75 228.198 320.787 227.747 320.956ZM219.037 322.516L221.768 331.946L219.546 332.59L218.443 328.783L217.633 329.018L215.899 333.646L213.222 334.421L215.375 328.78L210.454 325.001L213.143 324.222L216.758 327.029L217.844 326.714L216.815 323.159L219.037 322.516ZM205.183 322.5C205.491 322.435 205.782 322.4 206.055 322.395C206.324 322.387 206.541 322.398 206.709 322.428L206.553 324.302C206.203 324.275 205.9 324.291 205.642 324.35C205.384 324.408 205.174 324.537 205.011 324.736C204.843 324.933 204.729 325.227 204.667 325.618L204.582 326.178L210.122 335.258L207.72 335.761L203.984 328.968L203.884 328.989L203.184 336.712L200.775 337.216L202.366 325.637C202.438 325.091 202.585 324.605 202.805 324.18C203.024 323.751 203.328 323.395 203.718 323.114C204.102 322.828 204.59 322.624 205.183 322.5ZM191.477 328.517C192.449 328.389 193.311 328.492 194.064 328.827C194.814 329.162 195.426 329.681 195.901 330.383C196.373 331.091 196.673 331.936 196.803 332.921C196.934 333.909 196.859 334.807 196.578 335.613C196.298 336.424 195.84 337.086 195.203 337.6C194.562 338.119 193.766 338.441 192.815 338.566C192.025 338.67 191.307 338.617 190.66 338.405C190.01 338.199 189.468 337.856 189.035 337.376C188.603 336.9 188.315 336.314 188.171 335.62L190.364 335.33C190.515 335.788 190.777 336.151 191.152 336.419C191.524 336.693 191.986 336.793 192.54 336.72C193.009 336.658 193.404 336.477 193.725 336.176C194.047 335.88 194.277 335.485 194.413 334.99C194.546 334.495 194.569 333.92 194.482 333.266C194.395 332.602 194.222 332.045 193.965 331.593C193.708 331.145 193.388 330.816 193.003 330.604C192.615 330.398 192.182 330.326 191.704 330.389C191.366 330.434 191.073 330.537 190.823 330.699C190.57 330.865 190.369 331.083 190.22 331.352C190.07 331.621 189.985 331.935 189.964 332.295L187.771 332.584C187.735 331.888 187.857 331.251 188.138 330.673C188.419 330.098 188.841 329.621 189.406 329.241C189.971 328.866 190.661 328.625 191.477 328.517ZM183.659 329.652L184.208 339.455L181.898 339.584L181.676 335.627L180.834 335.674L178.107 339.796L175.324 339.952L178.686 334.937L174.737 330.151L177.532 329.995L180.426 333.54L181.556 333.476L181.349 329.781L183.659 329.652ZM168.81 329.987C169.432 329.998 169.99 330.119 170.485 330.35C170.975 330.585 171.361 330.925 171.642 331.369C171.92 331.813 172.053 332.357 172.041 333C172.031 333.554 171.92 334.01 171.709 334.368C171.498 334.727 171.213 335.011 170.856 335.222C170.498 335.433 170.097 335.59 169.651 335.692C169.202 335.799 168.738 335.874 168.26 335.916C167.684 335.965 167.216 336.01 166.857 336.05C166.499 336.094 166.237 336.166 166.073 336.266C165.905 336.369 165.819 336.532 165.815 336.753L165.814 336.792C165.806 337.273 165.941 337.648 166.222 337.918C166.503 338.187 166.911 338.327 167.448 338.337C168.015 338.347 168.467 338.232 168.804 337.991C169.136 337.75 169.363 337.462 169.484 337.128L171.639 337.474C171.457 338.067 171.167 338.561 170.768 338.954C170.368 339.352 169.883 339.645 169.313 339.835C168.743 340.029 168.114 340.12 167.428 340.107C166.956 340.099 166.486 340.035 166.019 339.915C165.552 339.796 165.128 339.605 164.745 339.342C164.362 339.083 164.057 338.735 163.83 338.296C163.6 337.857 163.491 337.311 163.503 336.659L163.623 330.09L165.848 330.13L165.823 331.479L165.899 331.48C166.045 331.21 166.248 330.958 166.508 330.724C166.764 330.495 167.084 330.311 167.471 330.173C167.852 330.04 168.299 329.977 168.81 329.987ZM168.178 331.676C167.714 331.667 167.309 331.751 166.965 331.928C166.621 332.11 166.354 332.352 166.165 332.655C165.972 332.959 165.872 333.291 165.866 333.653L165.845 334.81C165.918 334.752 166.043 334.699 166.218 334.651C166.39 334.603 166.582 334.562 166.796 334.527C167.01 334.493 167.221 334.463 167.431 334.437C167.64 334.411 167.821 334.388 167.975 334.37C168.321 334.329 168.631 334.258 168.906 334.157C169.181 334.055 169.399 333.91 169.56 333.721C169.721 333.537 169.804 333.295 169.81 332.997C169.818 332.571 169.668 332.247 169.361 332.024C169.054 331.801 168.66 331.685 168.178 331.676ZM153.264 329.406L151.966 339.138L149.672 338.832L150.196 334.904L149.36 334.792L145.909 338.33L143.146 337.961L147.389 333.665L144.407 328.224L147.182 328.594L149.36 332.619L150.481 332.768L150.971 329.1L153.264 329.406ZM140.592 323.81C140.901 323.875 141.181 323.961 141.433 324.066C141.682 324.167 141.877 324.265 142.018 324.36L141.119 326.012C140.81 325.847 140.526 325.739 140.266 325.688C140.007 325.637 139.763 325.67 139.533 325.787C139.3 325.899 139.077 326.122 138.862 326.455L138.559 326.933L139.964 337.476L137.563 336.968L136.886 329.245L136.786 329.224L133.029 336.007L130.622 335.497L136.749 325.544C137.036 325.073 137.366 324.688 137.739 324.388C138.112 324.084 138.534 323.881 139.004 323.781C139.471 323.675 140 323.684 140.592 323.81ZM130.402 321.566L126.566 334.51L124.384 333.863L124.846 332.307L124.717 332.268C124.535 332.463 124.301 332.659 124.017 332.854C123.731 333.054 123.383 333.193 122.973 333.272C122.562 333.354 122.08 333.314 121.529 333.15C120.801 332.935 120.201 332.554 119.727 332.009C119.247 331.467 118.943 330.784 118.814 329.959C118.68 329.137 118.768 328.203 119.078 327.157C119.385 326.123 119.814 325.295 120.368 324.673C120.921 324.05 121.547 323.635 122.243 323.428C122.94 323.222 123.658 323.228 124.398 323.447C124.937 323.607 125.358 323.829 125.66 324.114C125.962 324.399 126.184 324.701 126.326 325.018C126.462 325.339 126.555 325.631 126.606 325.895L126.698 325.922L128.184 320.909L130.402 321.566ZM125.785 329.158C125.966 328.55 126.038 327.991 126.002 327.482C125.962 326.973 125.817 326.541 125.566 326.187C125.31 325.835 124.947 325.59 124.477 325.451C123.987 325.305 123.538 325.314 123.129 325.478C122.72 325.645 122.363 325.933 122.06 326.341C121.752 326.752 121.51 327.251 121.336 327.84C121.163 328.424 121.093 328.968 121.126 329.471C121.159 329.974 121.303 330.403 121.558 330.759C121.812 331.114 122.187 331.365 122.681 331.512C123.155 331.652 123.594 331.647 123.999 331.496C124.404 331.345 124.759 331.07 125.064 330.671C125.364 330.271 125.605 329.767 125.785 329.158ZM111.462 319.213L108.608 326.621L110.565 327.375C111.062 327.566 111.488 327.598 111.843 327.47C112.198 327.342 112.44 327.106 112.568 326.763C112.703 326.422 112.687 326.092 112.518 325.771C112.349 325.45 112.028 325.199 111.555 325.017L108.847 323.973L109.454 322.399L112.162 323.442C112.894 323.724 113.481 324.083 113.925 324.519C114.369 324.954 114.653 325.438 114.777 325.97C114.901 326.502 114.854 327.05 114.637 327.615C114.41 328.203 114.068 328.658 113.611 328.98C113.148 329.304 112.6 329.481 111.968 329.511C111.329 329.544 110.636 329.416 109.889 329.128L105.91 327.596L109.44 318.434L111.462 319.213ZM117.379 321.493L113.01 325.207L110.88 324.387L115.256 320.674L117.379 321.493ZM93.9991 322.204L98.2214 313.34L100.23 314.296L96.0074 323.16L93.9991 322.204ZM96.8475 318.647L97.6612 316.939C97.9358 316.947 98.2366 316.979 98.5636 317.036C98.885 317.094 99.2163 317.177 99.5576 317.283C99.8951 317.387 100.222 317.514 100.537 317.664C101.722 318.229 102.532 318.94 102.968 319.799C103.398 320.66 103.344 321.656 102.805 322.787L101.398 325.742L99.4009 324.791L100.808 321.836C100.99 321.455 101.068 321.117 101.043 320.822C101.019 320.527 100.895 320.261 100.674 320.023C100.45 319.789 100.132 319.574 99.7206 319.378C99.2589 319.158 98.7984 318.995 98.3389 318.89C97.8794 318.784 97.3823 318.703 96.8475 318.647ZM92.1881 309.907C92.7277 310.217 93.1585 310.592 93.4807 311.032C93.797 311.474 93.9716 311.958 94.0044 312.483C94.0336 313.005 93.888 313.546 93.5677 314.104C93.292 314.584 92.9753 314.931 92.6176 315.143C92.2599 315.355 91.8735 315.468 91.4586 315.48C91.0437 315.493 90.6164 315.437 90.1769 315.312C89.7316 315.189 89.2892 315.031 88.8498 314.838C88.3211 314.603 87.8899 314.417 87.5561 314.28C87.2202 314.146 86.9566 314.083 86.7652 314.091C86.568 314.101 86.4143 314.202 86.304 314.394L86.2849 314.427C86.0452 314.845 85.9835 315.239 86.0996 315.611C86.2157 315.982 86.5066 316.301 86.9723 316.568C87.4639 316.851 87.9153 316.967 88.3266 316.918C88.7342 316.867 89.0717 316.724 89.3391 316.49L91.0602 317.831C90.6154 318.264 90.1233 318.556 89.5839 318.708C89.0424 318.864 88.476 318.888 87.8847 318.78C87.2913 318.675 86.6971 318.452 86.1021 318.11C85.6918 317.875 85.311 317.593 84.9596 317.263C84.6082 316.934 84.3279 316.562 84.1189 316.147C83.9077 315.736 83.8086 315.283 83.8217 314.79C83.8311 314.294 83.998 313.763 84.3226 313.198L87.5933 307.499L89.5226 308.606L88.8513 309.776L88.9178 309.814C89.1755 309.647 89.4746 309.524 89.8152 309.445C90.1499 309.366 90.5196 309.36 90.9244 309.425C91.3233 309.492 91.7445 309.653 92.1881 309.907ZM90.8206 311.083C90.4178 310.852 90.0229 310.731 89.636 310.72C89.247 310.713 88.8967 310.797 88.585 310.972C88.2697 311.144 88.0219 311.388 87.8416 311.702L87.2657 312.705C87.3582 312.69 87.493 312.703 87.67 312.746C87.8433 312.786 88.0318 312.843 88.2357 312.916C88.4396 312.989 88.6395 313.064 88.8355 313.142C89.0314 313.22 89.2012 313.288 89.3449 313.346C89.6676 313.477 89.9737 313.564 90.2633 313.608C90.5529 313.651 90.8138 313.629 91.046 313.541C91.276 313.457 91.4653 313.285 91.6138 313.027C91.8259 312.657 91.8512 312.301 91.6895 311.957C91.5279 311.614 91.2383 311.322 90.8206 311.083ZM53.3141 288.063L51.3719 289.781L53.9142 290.322L53.5006 291.829L51.041 291L51.8481 293.467L50.3366 293.867L49.8192 291.32L48.084 293.247L46.9906 292.144L48.9283 290.421L46.386 289.881L46.7995 288.373L49.2637 289.207L48.4521 286.735L49.9635 286.335L50.481 288.882L52.2207 286.96L53.3141 288.063ZM30.5717 248.581C31.0188 249.386 31.2785 250.178 31.3506 250.957C31.4207 251.732 31.3103 252.437 31.0194 253.071C30.7286 253.706 30.2672 254.213 29.6352 254.594L28.4676 252.493C28.7664 252.303 28.9796 252.05 29.107 251.736C29.2307 251.423 29.27 251.077 29.2248 250.697C29.1796 250.318 29.0504 249.936 28.8372 249.553C28.6095 249.143 28.3369 248.819 28.0194 248.581C27.6981 248.345 27.3593 248.209 27.003 248.173C26.6466 248.138 26.3018 248.215 25.9687 248.405C25.6202 248.593 25.3644 248.853 25.2014 249.182C25.0384 249.512 24.9786 249.891 25.0222 250.32C25.0636 250.746 25.2189 251.2 25.488 251.685L26.0501 252.696L24.4522 253.584L23.8901 252.573C23.6686 252.174 23.4062 251.864 23.1027 251.643C22.7972 251.418 22.4721 251.289 22.1273 251.256C21.7788 251.226 21.4398 251.304 21.1104 251.492C20.7843 251.669 20.5434 251.898 20.3878 252.179C20.2265 252.459 20.1533 252.77 20.1682 253.113C20.1811 253.452 20.2869 253.8 20.4857 254.158C20.6802 254.508 20.9237 254.797 21.2159 255.024C21.5082 255.252 21.8223 255.392 22.1584 255.444C22.4908 255.498 22.8203 255.442 23.1468 255.275L24.2554 257.269C23.6064 257.611 22.9415 257.739 22.2606 257.654C21.574 257.568 20.9291 257.302 20.3259 256.857C19.7191 256.414 19.2097 255.822 18.7977 255.081C18.3733 254.318 18.1483 253.575 18.1225 252.853C18.0909 252.13 18.2294 251.48 18.5381 250.904C18.8468 250.327 19.2917 249.878 19.8727 249.555C20.515 249.193 21.1607 249.083 21.8097 249.224C22.4567 249.362 23.019 249.703 23.4967 250.246L23.5861 250.197C23.2507 249.33 23.2061 248.548 23.4523 247.851C23.6926 247.151 24.1714 246.605 24.8886 246.211C25.5293 245.855 26.2043 245.719 26.9138 245.802C27.6174 245.884 28.2896 246.164 28.9304 246.641C29.5692 247.115 30.1162 247.762 30.5717 248.581ZM25.2127 238.238C25.4704 238.805 25.6016 239.361 25.6064 239.906C25.6055 240.45 25.4653 240.944 25.1858 241.39C24.9045 241.831 24.4711 242.185 23.8854 242.452C23.3811 242.681 22.9218 242.778 22.5074 242.742C22.093 242.705 21.7137 242.571 21.3694 242.34C21.0251 242.108 20.7107 241.813 20.4263 241.455C20.1363 241.096 19.8692 240.709 19.625 240.296C19.3324 239.797 19.0907 239.394 18.8998 239.088C18.705 238.783 18.5276 238.579 18.3674 238.474C18.2016 238.366 18.0179 238.359 17.8162 238.45L17.7813 238.466C17.343 238.666 17.0627 238.95 16.9404 239.319C16.8182 239.689 16.8683 240.118 17.0906 240.606C17.3253 241.122 17.624 241.48 17.9866 241.681C18.3475 241.877 18.705 241.958 19.059 241.923L19.6745 244.017C19.0609 244.108 18.4906 244.059 17.9636 243.868C17.4328 243.679 16.9589 243.368 16.5418 242.935C16.1209 242.504 15.7684 241.976 15.4843 241.351C15.2884 240.921 15.1438 240.469 15.0505 239.997C14.9573 239.524 14.9467 239.058 15.0188 238.6C15.0871 238.143 15.2705 237.717 15.5691 237.324C15.8659 236.927 16.311 236.593 16.9044 236.323L22.8855 233.602L23.8067 235.627L22.5791 236.185L22.6108 236.255C22.9173 236.27 23.2321 236.344 23.5552 236.478C23.8727 236.61 24.1767 236.821 24.4674 237.11C24.7525 237.397 25.0009 237.773 25.2127 238.238ZM23.4162 238.396C23.2239 237.973 22.9737 237.644 22.6657 237.41C22.3539 237.177 22.0204 237.041 21.6652 237.001C21.3083 236.958 20.965 237.011 20.6353 237.161L19.5822 237.64C19.6665 237.681 19.7681 237.771 19.887 237.909C20.0042 238.043 20.1243 238.199 20.2475 238.377C20.3706 238.555 20.489 238.733 20.6026 238.91C20.7163 239.088 20.8145 239.242 20.8975 239.373C21.0831 239.668 21.2808 239.917 21.4907 240.121C21.7007 240.325 21.9255 240.46 22.1654 240.524C22.4013 240.59 22.6551 240.561 22.9266 240.437C23.3145 240.261 23.5429 239.986 23.6119 239.613C23.6809 239.24 23.6157 238.834 23.4162 238.396ZM21.2618 229.814L12.0412 233.187L11.2463 231.014L14.9681 229.653L14.6782 228.86L9.94184 227.449L8.98437 224.831L14.7602 226.591L18.1918 221.422L19.1536 224.052L16.6024 227.85L16.9911 228.913L20.4668 227.641L21.2618 229.814ZM20.3257 215.992C20.4114 216.295 20.4661 216.583 20.4898 216.856C20.5165 217.123 20.5205 217.341 20.5018 217.51L18.6211 217.483C18.624 217.132 18.5875 216.83 18.5116 216.577C18.4357 216.324 18.2927 216.123 18.0824 215.974C17.8751 215.82 17.574 215.726 17.179 215.691L16.6145 215.645L7.93605 221.794L7.2692 219.432L13.7903 215.24L13.7626 215.141L6.01019 214.972L5.34161 212.604L17.0027 213.397C17.5528 213.432 18.0474 213.544 18.4864 213.735C18.9295 213.924 19.305 214.203 19.6129 214.573C19.9237 214.937 20.1613 215.41 20.3257 215.992ZM13.3842 202.731C13.5786 203.692 13.5345 204.559 13.2521 205.334C12.9688 206.104 12.493 206.75 11.8247 207.272C11.1514 207.791 10.3282 208.149 9.35499 208.346C8.37763 208.543 7.47711 208.53 6.65342 208.305C5.82557 208.081 5.13352 207.669 4.57728 207.069C4.01602 206.465 3.64034 205.693 3.45025 204.753C3.29225 203.972 3.29652 203.252 3.46306 202.592C3.62457 201.929 3.93004 201.365 4.37948 200.9C4.82474 200.436 5.38897 200.109 6.07218 199.919L6.51067 202.087C6.06479 202.268 5.72069 202.555 5.47835 202.947C5.23099 203.337 5.16265 203.805 5.27333 204.352C5.36712 204.816 5.57479 205.197 5.89637 205.498C6.21377 205.799 6.62414 206 7.12747 206.103C7.62995 206.201 8.20489 206.185 8.85229 206.054C9.50805 205.921 10.0525 205.711 10.4856 205.424C10.9145 205.137 11.2213 204.794 11.406 204.396C11.5856 203.995 11.6277 203.558 11.5322 203.086C11.4646 202.752 11.3416 202.466 11.163 202.228C10.9795 201.987 10.7484 201.801 10.4698 201.67C10.1913 201.54 9.87187 201.476 9.51168 201.479L9.07319 199.312C9.76498 199.228 10.4091 199.307 11.0055 199.547C11.5977 199.788 12.1025 200.177 12.5199 200.714C12.9331 201.253 13.2212 201.925 13.3842 202.731ZM11.7186 195.009L1.97538 196.219L1.69008 193.923L5.62291 193.434L5.51887 192.597L1.22193 190.155L0.878309 187.39L6.10958 190.405L10.6168 186.141L10.962 188.919L7.62109 192.046L7.76059 193.169L11.4333 192.713L11.7186 195.009ZM10.3835 180.217C10.4137 180.838 10.3302 181.403 10.133 181.912C9.93137 182.417 9.61838 182.824 9.19402 183.135C8.76945 183.442 8.23582 183.61 7.59311 183.642C7.03978 183.669 6.57727 183.589 6.20556 183.402C5.83386 183.215 5.53089 182.95 5.29668 182.608C5.06246 182.265 4.87927 181.875 4.74713 181.438C4.61052 180.996 4.50511 180.538 4.4309 180.064C4.34342 179.492 4.2676 179.029 4.20343 178.674C4.135 178.319 4.04579 178.063 3.93579 177.906C3.82132 177.745 3.65342 177.67 3.43209 177.681L3.39379 177.683C2.91282 177.706 2.54731 177.867 2.29725 178.165C2.0472 178.463 1.93518 178.88 1.96121 179.416C1.98868 179.982 2.13391 180.425 2.39689 180.745C2.65966 181.061 2.96196 181.268 3.30379 181.367L3.10206 183.54C2.49791 183.398 1.98628 183.142 1.56718 182.769C1.14382 182.397 0.818384 181.933 0.590863 181.377C0.359086 180.821 0.22657 180.2 0.193314 179.515C0.170387 179.042 0.202894 178.569 0.290838 178.096C0.378782 177.622 0.541046 177.185 0.777631 176.786C1.00996 176.386 1.33752 176.059 1.7603 175.804C2.18289 175.544 2.71979 175.399 3.37101 175.367L9.93431 175.049L10.0421 177.27L8.69499 177.336L8.69871 177.412C8.97794 177.54 9.24292 177.725 9.49367 177.969C9.73996 178.209 9.94475 178.517 10.1081 178.893C10.2669 179.265 10.3587 179.706 10.3835 180.217ZM8.6561 179.699C8.63358 179.235 8.52255 178.837 8.323 178.506C8.1192 178.174 7.85963 177.925 7.54429 177.756C7.22874 177.584 6.89007 177.507 6.52828 177.524L5.37268 177.58C5.43578 177.65 5.4971 177.77 5.55665 177.942C5.61599 178.11 5.66998 178.3 5.71861 178.511C5.76725 178.722 5.81152 178.931 5.85144 179.138C5.89135 179.345 5.92567 179.524 5.95439 179.677C6.01794 180.019 6.10953 180.324 6.22916 180.591C6.34878 180.858 6.50819 181.066 6.70737 181.214C6.90229 181.363 7.14872 181.43 7.44667 181.415C7.8723 181.395 8.18612 181.224 8.38811 180.902C8.59011 180.581 8.67944 180.18 8.6561 179.699ZM9.91833 164.667L0.120697 164.032L0.270329 161.723L4.2251 161.98L4.27966 161.138L0.515857 157.934L0.696076 155.153L5.2704 159.094L10.4962 155.75L10.3151 158.544L6.44788 160.99L6.37471 162.119L10.068 162.358L9.91833 164.667ZM14.6424 151.647C14.598 151.959 14.5315 152.244 14.4431 152.503C14.3594 152.758 14.2749 152.959 14.1894 153.106L12.4805 152.32C12.6249 152.001 12.7137 151.71 12.7467 151.448C12.7797 151.186 12.7302 150.944 12.5981 150.723C12.4708 150.498 12.2335 150.29 11.8863 150.099L11.389 149.828L0.964573 151.94L1.31044 149.51L8.97008 148.315L8.98449 148.214L1.96345 144.922L2.31021 142.486L12.6536 147.929C13.1424 148.184 13.5491 148.487 13.8735 148.839C14.2021 149.191 14.4325 149.598 14.5648 150.06C14.7018 150.519 14.7277 151.048 14.6424 151.647ZM16.1936 141.319L3.01401 138.396L3.50684 136.174L5.09189 136.526L5.12096 136.395C4.91383 136.227 4.70275 136.007 4.48773 135.737C4.26854 135.466 4.10549 135.128 3.99857 134.725C3.8875 134.32 3.89425 133.837 4.01885 133.276C4.18313 132.535 4.52054 131.91 5.0311 131.399C5.53842 130.883 6.19902 130.532 7.0129 130.346C7.82355 130.154 8.76138 130.177 9.8264 130.413C10.8789 130.647 11.7351 131.018 12.3948 131.526C13.0546 132.035 13.5119 132.63 13.7669 133.31C14.0218 133.991 14.0657 134.708 13.8987 135.461C13.7769 136.01 13.5843 136.445 13.3209 136.767C13.0576 137.088 12.7725 137.33 12.4656 137.494C12.1556 137.652 11.8706 137.765 11.6109 137.834L11.5901 137.928L16.6947 139.06L16.1936 141.319ZM8.29804 137.244C8.91791 137.381 9.4802 137.414 9.98491 137.343C10.4905 137.267 10.9113 137.092 11.2472 136.817C11.5799 136.538 11.7993 136.159 11.9055 135.68C12.0162 135.181 11.9759 134.733 11.7844 134.337C11.5887 133.94 11.2768 133.605 10.8487 133.331C10.4174 133.052 9.90216 132.846 9.30309 132.713C8.70818 132.581 8.16091 132.549 7.66128 132.617C7.16166 132.685 6.74342 132.859 6.40657 133.138C6.06972 133.417 5.84546 133.808 5.73379 134.311C5.62673 134.794 5.66271 135.232 5.84173 135.625C6.02075 136.018 6.31969 136.353 6.73855 136.629C7.15833 136.901 7.67816 137.106 8.29804 137.244ZM17.2349 122.266L9.65097 119.919L9.03102 121.922C8.87351 122.43 8.87059 122.858 9.02227 123.204C9.17396 123.549 9.42547 123.775 9.77682 123.879C10.1257 123.991 10.4544 123.953 10.763 123.763C11.0716 123.573 11.3009 123.235 11.4508 122.751L12.3089 119.979L13.921 120.478L13.0629 123.25C12.831 123.999 12.5126 124.61 12.1076 125.082C11.7027 125.555 11.2391 125.87 10.7169 126.03C10.1946 126.19 9.64449 126.18 9.06643 126.001C8.46395 125.814 7.98685 125.504 7.63512 125.069C7.28057 124.63 7.06686 124.095 6.99398 123.466C6.9183 122.831 6.9989 122.131 7.23579 121.366L8.4965 117.293L17.8756 120.196L17.2349 122.266ZM15.3599 128.324L11.3591 124.215L12.0338 122.035L16.0328 126.15L15.3599 128.324ZM13.0458 105.057L22.1822 108.652L21.3678 110.722L12.2313 107.127L13.0458 105.057ZM16.7923 107.651L18.553 108.344C18.5641 108.618 18.5527 108.921 18.519 109.251C18.4828 109.575 18.4238 109.912 18.3419 110.26C18.2616 110.603 18.1574 110.938 18.0295 111.263C17.5489 112.485 16.8954 113.342 16.0689 113.837C15.24 114.326 14.2426 114.341 13.0767 113.882L10.0313 112.684L10.841 110.626L13.8865 111.824C14.2791 111.979 14.6216 112.033 14.9142 111.988C15.2067 111.943 15.4639 111.802 15.6857 111.564C15.9035 111.324 16.0959 110.992 16.2629 110.568C16.4501 110.092 16.5804 109.621 16.6537 109.156C16.727 108.69 16.7732 108.188 16.7923 107.651ZM25.1932 102.398C24.9207 102.957 24.5757 103.413 24.1581 103.764C23.7386 104.109 23.2681 104.316 22.7466 104.385C22.227 104.449 21.6779 104.34 21.0995 104.059C20.6014 103.816 20.2344 103.523 19.9983 103.181C19.7623 102.838 19.624 102.46 19.5835 102.047C19.543 101.634 19.57 101.204 19.6645 100.757C19.757 100.305 19.8848 99.8525 20.0479 99.401C20.2462 98.8577 20.4027 98.4149 20.5173 98.0726C20.6281 97.7284 20.673 97.4611 20.6519 97.2707C20.6289 97.0747 20.5178 96.9281 20.3186 96.8311L20.2841 96.8143C19.8512 96.6034 19.4535 96.5684 19.091 96.7094C18.7284 96.8504 18.4295 97.1622 18.1944 97.6449C17.9462 98.1544 17.8604 98.6127 17.937 99.0198C18.0155 99.423 18.1809 99.75 18.4332 100.001L17.2111 101.809C16.7495 101.394 16.4244 100.923 16.236 100.395C16.0437 99.8655 15.9817 99.302 16.0498 98.7048C16.1142 98.1057 16.2966 97.4978 16.597 96.881C16.8042 96.4557 17.0602 96.0567 17.3651 95.6838C17.67 95.3109 18.0223 95.0061 18.422 94.7695C18.8178 94.531 19.2624 94.4015 19.7559 94.3812C20.2511 94.357 20.7918 94.4877 21.378 94.7732L27.2853 97.651L26.3112 99.6507L25.0986 99.0601L25.0651 99.129C25.2487 99.3749 25.3917 99.665 25.4943 99.9994C25.5949 100.328 25.6263 100.697 25.5886 101.105C25.5489 101.507 25.4171 101.938 25.1932 102.398ZM23.9278 101.113C24.1312 100.696 24.2252 100.294 24.2097 99.9069C24.1905 99.5183 24.0831 99.1744 23.8875 98.8753C23.6938 98.5724 23.4341 98.3416 23.1085 98.183L22.0683 97.6763C22.0903 97.7676 22.0859 97.9029 22.0554 98.0824C22.0267 98.258 21.983 98.45 21.9241 98.6584C21.8653 98.8667 21.8036 99.0713 21.7389 99.2721C21.6743 99.4728 21.618 99.6468 21.5699 99.7941C21.4609 100.125 21.3946 100.436 21.3709 100.728C21.3472 101.02 21.3871 101.279 21.4904 101.504C21.5899 101.728 21.7738 101.906 22.0419 102.036C22.425 102.223 22.7824 102.224 23.114 102.039C23.4456 101.855 23.7169 101.546 23.9278 101.113ZM48.6789 57.3019L46.9066 55.4091L46.4387 57.9657L44.9198 57.595L45.6788 55.1129L43.2357 55.9895L42.7931 54.49L45.3244 53.9006L43.3493 52.2207L44.4211 51.0965L46.1977 52.9846L46.6657 50.428L48.1846 50.7987L47.4211 53.2854L49.8686 52.4042L50.3113 53.9037L47.7799 54.4931L49.7507 56.1776L48.6789 57.3019ZM92.9086 30.3172C92.0998 30.7566 91.3056 31.0087 90.526 31.0733C89.7502 31.136 89.0464 31.0188 88.4146 30.7219C87.7829 30.4249 87.2798 29.9587 86.9054 29.3231L89.0173 28.1757C89.2049 28.4764 89.4553 28.6919 89.7687 28.8223C90.08 28.949 90.4256 28.9916 90.8056 28.9501C91.1855 28.9085 91.5683 28.783 91.954 28.5735C92.3659 28.3497 92.6923 28.0802 92.9333 27.765C93.1723 27.4461 93.3114 27.1086 93.3508 26.7526C93.3901 26.3966 93.3164 26.0511 93.1296 25.7161C92.9441 25.3658 92.6875 25.1076 92.3596 24.9414C92.0316 24.7753 91.6529 24.7119 91.2233 24.7513C90.7974 24.7887 90.3411 24.9396 89.8543 25.204L88.8377 25.7564L87.965 24.15L88.9816 23.5977C89.3823 23.38 89.6947 23.1205 89.919 22.8192C90.1471 22.5159 90.279 22.192 90.315 21.8476C90.3489 21.4994 90.2735 21.1597 90.0887 20.8284C89.9154 20.5006 89.6888 20.2576 89.4089 20.0993C89.1306 19.9353 88.82 19.8591 88.4772 19.8708C88.1381 19.8804 87.7888 19.9829 87.4294 20.1781C87.0774 20.3694 86.7862 20.61 86.5558 20.9001C86.3254 21.1901 86.1826 21.5029 86.1273 21.8385C86.0699 22.1703 86.1231 22.5003 86.2868 22.8285L84.2816 23.9178C83.9467 23.2656 83.8249 22.5995 83.9162 21.9195C84.0091 21.2337 84.2809 20.5913 84.7315 19.9925C85.1801 19.3899 85.777 18.8862 86.5221 18.4814C87.2897 18.0644 88.0346 17.8465 88.7566 17.8276C89.4804 17.803 90.1289 17.9477 90.7021 18.2619C91.2753 18.5761 91.7206 19.0253 92.0379 19.6094C92.3936 20.2552 92.4976 20.9019 92.3499 21.5495C92.206 22.1951 91.8599 22.7541 91.3115 23.2266L91.3604 23.3165C92.2302 22.9894 93.0126 22.9523 93.7077 23.2051C94.4045 23.4522 94.9463 23.9362 95.3331 24.6572C95.683 25.3012 95.8128 25.9776 95.7225 26.6862C95.634 27.389 95.3478 28.0585 94.8642 28.6947C94.3843 29.3288 93.7324 29.8697 92.9086 30.3172ZM103.304 25.0625C102.735 25.3141 102.178 25.4393 101.632 25.4382C101.088 25.4314 100.596 25.2859 100.153 25.0016C99.7145 24.7156 99.3651 24.2783 99.105 23.6898C98.881 23.1831 98.7893 22.7228 98.83 22.3088C98.8706 21.8948 99.0088 21.5169 99.2444 21.1751C99.48 20.8334 99.7781 20.5222 100.139 20.2417C100.501 19.9556 100.891 19.6927 101.307 19.4529C101.809 19.1658 102.214 18.9284 102.522 18.7408C102.829 18.5493 103.036 18.3741 103.143 18.2151C103.251 18.0505 103.261 17.8668 103.172 17.6641L103.156 17.6291C102.961 17.1886 102.68 16.9053 102.312 16.7791C101.944 16.6529 101.515 16.6983 101.024 16.9154C100.505 17.1445 100.144 17.4393 99.9398 17.7997C99.7397 18.1584 99.655 18.515 99.6859 18.8694L97.5857 19.4623C97.5005 18.8477 97.5561 18.278 97.7528 17.7531C97.9477 17.2243 98.2638 16.7538 98.7012 16.3415C99.1369 15.9253 99.6685 15.5785 100.296 15.3011C100.729 15.1099 101.182 14.9701 101.655 14.882C102.129 14.7938 102.595 14.7883 103.053 14.8653C103.509 14.9385 103.932 15.1265 104.322 15.4293C104.716 15.7304 105.045 16.1791 105.309 16.7754L107.965 22.7855L105.931 23.6848L105.385 22.4512L105.315 22.4822C105.297 22.7885 105.219 23.1025 105.082 23.4241C104.946 23.7401 104.733 24.0419 104.441 24.3295C104.15 24.6114 103.772 24.8558 103.304 25.0625ZM103.166 23.2645C103.591 23.0767 103.922 22.8301 104.16 22.5247C104.396 22.2153 104.536 21.8833 104.579 21.5286C104.627 21.1722 104.577 20.8283 104.431 20.497L103.963 19.4388C103.921 19.5227 103.83 19.6233 103.691 19.7407C103.556 19.8564 103.399 19.9749 103.219 20.0961C103.04 20.2173 102.861 20.3338 102.682 20.4455C102.503 20.5572 102.348 20.6538 102.216 20.7353C101.919 20.9177 101.668 21.1128 101.461 21.3205C101.255 21.5282 101.118 21.7516 101.052 21.9907C100.983 22.226 101.009 22.48 101.13 22.7528C101.302 23.1426 101.574 23.374 101.947 23.447C102.319 23.52 102.726 23.4592 103.166 23.2645ZM111.77 21.2024L108.492 11.9473L110.674 11.175L111.996 14.9107L112.792 14.6291L114.253 9.90756L116.88 8.97729L115.06 14.7345L120.193 18.2195L117.554 19.1541L113.782 16.5636L112.715 16.9413L113.951 20.43L111.77 21.2024ZM125.601 20.4089C125.297 20.4915 125.009 20.5433 124.736 20.5642C124.469 20.5882 124.251 20.59 124.082 20.5696L124.128 18.6893C124.478 18.6958 124.781 18.6623 125.034 18.589C125.288 18.5156 125.491 18.3746 125.642 18.1659C125.798 17.9601 125.895 17.6599 125.934 17.2653L125.986 16.7014L119.924 7.96132L122.293 7.31833L126.419 13.8814L126.518 13.8546L126.766 6.10436L129.141 5.4597L128.23 17.1122C128.189 17.6619 128.072 18.1553 127.877 18.5924C127.683 19.0335 127.4 19.4062 127.028 19.7104C126.661 20.0175 126.185 20.2503 125.601 20.4089ZM138.931 13.5997C137.968 13.7847 137.101 13.7322 136.33 13.4422C135.562 13.1514 134.921 12.6694 134.405 11.9961C133.893 11.3178 133.543 10.4911 133.356 9.51603C133.167 8.53678 133.19 7.63644 133.422 6.81498C133.654 5.98934 134.073 5.30134 134.679 4.75097C135.288 4.19562 136.064 3.82747 137.005 3.64653C137.788 3.49614 138.508 3.50743 139.166 3.68037C139.828 3.84833 140.389 4.15928 140.849 4.61322C141.309 5.06298 141.63 5.63037 141.814 6.31539L139.642 6.73277C139.465 6.28514 139.181 5.93826 138.791 5.69211C138.405 5.44098 137.937 5.36809 137.389 5.47344C136.924 5.5627 136.54 5.76665 136.237 6.08529C135.933 6.39975 135.727 6.80813 135.62 7.31044C135.517 7.81194 135.527 8.38702 135.652 9.03566C135.778 9.69267 135.983 10.2391 136.266 10.675C136.549 11.1067 136.889 11.4168 137.285 11.6054C137.685 11.7889 138.121 11.8352 138.594 11.7444C138.929 11.68 139.216 11.5597 139.455 11.3835C139.698 11.2023 139.886 10.9731 140.02 10.6958C140.153 10.4185 140.22 10.0997 140.22 9.73954L142.392 9.32217C142.469 10.0147 142.384 10.658 142.138 11.2521C141.891 11.8419 141.497 12.3429 140.956 12.755C140.414 13.163 139.739 13.4445 138.931 13.5997ZM146.669 12.0093L145.552 2.25482L147.851 1.9916L148.301 5.92894L149.14 5.83296L151.623 1.55967L154.392 1.24264L151.326 6.4447L155.547 10.9927L152.765 11.3112L149.671 7.94037L148.546 8.06908L148.968 11.746L146.669 12.0093ZM161.473 10.8157C160.851 10.84 160.287 10.7511 159.78 10.5491C159.277 10.3428 158.873 10.0259 158.566 9.59864C158.264 9.1712 158.1 8.63599 158.075 7.99301C158.053 7.43946 158.137 6.97772 158.328 6.6078C158.518 6.23787 158.786 5.93743 159.13 5.70646C159.475 5.4755 159.867 5.29601 160.306 5.168C160.748 5.03557 161.207 4.9345 161.682 4.86477C162.254 4.78271 162.719 4.71128 163.075 4.65047C163.43 4.5854 163.687 4.49861 163.845 4.3901C164.007 4.27716 164.083 4.10998 164.075 3.88856L164.073 3.85023C164.054 3.36907 163.897 3.00205 163.602 2.74919C163.306 2.49633 162.89 2.38037 162.353 2.40133C161.787 2.42344 161.343 2.56447 161.02 2.82442C160.702 3.08419 160.492 3.38452 160.39 3.7254L158.219 3.50313C158.366 2.90034 158.628 2.39117 159.004 1.9756C159.38 1.55578 159.847 1.23475 160.406 1.0125C160.964 0.785993 161.586 0.659352 162.272 0.632579C162.744 0.61412 163.217 0.651099 163.69 0.743518C164.162 0.835936 164.597 1.00232 164.995 1.24268C165.392 1.47877 165.716 1.80941 165.968 2.23459C166.223 2.65961 166.363 3.19786 166.389 3.84935L166.645 10.4154L164.423 10.5022L164.37 9.15448L164.293 9.15748C164.163 9.43548 163.975 9.6987 163.729 9.94714C163.487 10.1911 163.177 10.393 162.8 10.5528C162.426 10.7081 161.984 10.7957 161.473 10.8157ZM162.007 9.09324C162.471 9.07511 162.87 8.96785 163.203 8.77144C163.537 8.57078 163.789 8.31358 163.96 7.99985C164.136 7.68595 164.216 7.34803 164.202 6.98609L164.157 5.83001C164.087 5.89245 163.966 5.95263 163.793 6.01054C163.625 6.06829 163.435 6.12049 163.223 6.16712C163.012 6.21376 162.802 6.25606 162.595 6.29401C162.387 6.33197 162.208 6.36458 162.055 6.39186C161.712 6.45217 161.406 6.54087 161.138 6.65797C160.87 6.77507 160.66 6.9325 160.51 7.13027C160.36 7.32378 160.291 7.56957 160.302 7.86763C160.319 8.29345 160.487 8.60886 160.806 8.81389C161.126 9.01891 161.526 9.11203 162.007 9.09324ZM177.027 10.5124L177.761 0.721751L180.069 0.89488L179.772 4.84684L180.614 4.90997L183.855 1.17897L186.634 1.38749L182.647 5.92145L185.938 11.181L183.146 10.9715L180.739 7.07957L179.611 6.99492L179.334 10.6855L177.027 10.5124ZM190.002 15.3671C189.69 15.3197 189.405 15.2506 189.147 15.1598C188.893 15.0737 188.693 14.9873 188.547 14.9004L189.348 13.1989C189.666 13.3464 189.956 13.4378 190.218 13.4733C190.48 13.5087 190.722 13.4615 190.944 13.3314C191.17 13.2063 191.381 12.971 191.575 12.6256L191.851 12.1308L189.836 1.68709L192.263 2.05564L193.386 9.72611L193.487 9.74147L196.844 2.75147L199.277 3.12098L193.738 13.413C193.479 13.8995 193.172 14.3033 192.817 14.6244C192.462 14.9497 192.052 15.1763 191.589 15.3042C191.129 15.437 190.6 15.4579 190.002 15.3671ZM200.306 17.0153L203.379 3.86958L205.595 4.3875L205.225 5.96847L205.356 5.99902C205.527 5.79381 205.748 5.58522 206.021 5.37327C206.295 5.15716 206.634 4.99793 207.038 4.89559C207.444 4.78909 207.927 4.80131 208.487 4.93224C209.226 5.10488 209.848 5.44935 210.353 5.96565C210.863 6.47877 211.207 7.1433 211.383 7.95924C211.565 8.77199 211.532 9.70951 211.284 10.7718C211.039 11.8216 210.658 12.6735 210.142 13.3275C209.626 13.9814 209.026 14.432 208.342 14.6792C207.659 14.9265 206.941 14.9623 206.19 14.7867C205.643 14.6587 205.21 14.4612 204.891 14.1943C204.573 13.9273 204.334 13.6395 204.174 13.3308C204.019 13.019 203.909 12.7328 203.843 12.4723L203.75 12.4505L202.56 17.5419L200.306 17.0153ZM204.471 9.1663C204.327 9.78458 204.287 10.3465 204.353 10.8519C204.423 11.3584 204.593 11.7811 204.864 12.1201C205.14 12.456 205.517 12.6797 205.994 12.7912C206.492 12.9076 206.94 12.8723 207.338 12.6853C207.737 12.4941 208.076 12.186 208.355 11.761C208.639 11.3329 208.85 10.82 208.99 10.2225C209.129 9.62913 209.167 9.08225 209.104 8.58189C209.042 8.08153 208.873 7.66136 208.598 7.32138C208.323 6.9814 207.935 6.75273 207.433 6.63537C206.951 6.52286 206.513 6.55389 206.118 6.72845C205.722 6.90301 205.384 7.19815 205.103 7.61386C204.827 8.03054 204.616 8.54802 204.471 9.1663ZM219.352 18.2546L221.766 10.6914L219.768 10.054C219.261 9.89207 218.833 9.88544 218.486 10.0341C218.139 10.1828 217.912 10.4323 217.805 10.7827C217.689 11.1306 217.725 11.4596 217.912 11.7699C218.1 12.0801 218.435 12.3123 218.918 12.4665L221.682 13.3487L221.169 14.9563L218.405 14.0741C217.658 13.8358 217.05 13.5121 216.581 13.103C216.112 12.694 215.8 12.2276 215.645 11.704C215.49 11.1804 215.505 10.6304 215.689 10.0539C215.88 9.45309 216.195 8.97871 216.633 8.63077C217.076 8.28007 217.612 8.07101 218.242 8.00361C218.877 7.93345 219.576 8.02014 220.339 8.26368L224.401 9.55977L221.416 18.9133L219.352 18.2546ZM213.311 16.3269L217.455 12.362L219.629 13.0557L215.479 17.0187L213.311 16.3269ZM236.608 14.2397L232.916 23.3373L230.855 22.5008L234.547 13.4032L236.608 14.2397ZM233.974 17.9584L233.263 19.7116C232.988 19.7197 232.686 19.7051 232.356 19.6679C232.032 19.6283 231.696 19.5657 231.349 19.48C231.006 19.396 230.673 19.2883 230.349 19.1569C229.133 18.6634 228.282 18.0007 227.796 17.169C227.316 16.3349 227.312 15.3374 227.783 14.1765L229.014 11.144L231.063 11.9757L229.832 15.0082C229.674 15.3991 229.615 15.7411 229.657 16.0341C229.699 16.3271 229.838 16.5857 230.074 16.8101C230.311 17.0304 230.641 17.2264 231.063 17.3978C231.537 17.5901 232.006 17.7254 232.471 17.8037C232.936 17.882 233.437 17.9336 233.974 17.9584ZM239.139 26.4127C238.583 26.1346 238.131 25.7851 237.784 25.3641C237.443 24.9411 237.24 24.4686 237.177 23.9464C237.118 23.4262 237.232 22.8782 237.52 22.3026C237.767 21.807 238.064 21.4429 238.408 21.2103C238.753 20.9776 239.133 20.8431 239.546 20.8068C239.96 20.7704 240.389 20.8017 240.835 20.9007C241.287 20.9977 241.738 21.13 242.188 21.2975C242.729 21.5012 243.17 21.6621 243.511 21.7801C243.854 21.8944 244.121 21.9419 244.312 21.9228C244.508 21.9017 244.656 21.7921 244.755 21.5939L244.772 21.5596C244.987 21.1288 245.026 20.7314 244.889 20.3675C244.751 20.0035 244.442 19.7016 243.962 19.4616C243.455 19.2084 242.998 19.118 242.59 19.1906C242.186 19.265 241.857 19.4271 241.604 19.6769L239.808 18.4369C240.227 17.9794 240.702 17.659 241.231 17.4759C241.763 17.2889 242.327 17.2325 242.924 17.3066C243.522 17.3769 244.128 17.5654 244.742 17.872C245.165 18.0834 245.562 18.3433 245.931 18.6519C246.301 18.9605 246.602 19.3158 246.835 19.7179C247.07 20.1161 247.195 20.562 247.21 21.0556C247.229 21.551 247.093 22.0904 246.802 22.6737L243.865 28.5521L241.875 27.558L242.478 26.3514L242.41 26.3171C242.162 26.4983 241.87 26.6385 241.535 26.7377C241.205 26.835 240.837 26.8628 240.429 26.821C240.027 26.7773 239.597 26.6412 239.139 26.4127ZM240.437 25.1601C240.852 25.3677 241.253 25.4657 241.64 25.4541C242.029 25.4387 242.374 25.3348 242.675 25.1422C242.98 24.9515 243.213 24.6941 243.375 24.3701L243.892 23.3351C243.801 23.3561 243.665 23.3504 243.486 23.3181C243.311 23.2876 243.119 23.242 242.911 23.1811C242.704 23.1202 242.5 23.0564 242.3 22.9898C242.1 22.9231 241.926 22.8651 241.779 22.8156C241.45 22.7033 241.139 22.6338 240.847 22.6072C240.556 22.5807 240.297 22.6179 240.07 22.719C239.845 22.8163 239.666 22.9983 239.533 23.2652C239.342 23.6464 239.338 24.0037 239.519 24.3372C239.7 24.6706 240.006 24.9449 240.437 25.1601ZM279.208 45.981L281.048 44.1541L278.479 43.7611L278.805 42.232L281.309 42.9182L280.361 40.5018L281.847 40.0154L282.51 42.5285L284.131 40.505L285.286 41.5435L283.451 43.3746L286.02 43.7676L285.694 45.2967L283.186 44.6063L284.139 47.027L282.653 47.5133L281.99 45.0003L280.363 47.0195L279.208 45.981ZM304.191 84.0852C303.697 83.3084 303.391 82.5333 303.273 81.76C303.158 80.9903 303.226 80.2801 303.479 79.6295C303.732 78.9789 304.163 78.4451 304.771 78.028L306.061 80.0563C305.774 80.264 305.576 80.5287 305.467 80.8502C305.362 81.1695 305.343 81.5172 305.411 81.8934C305.478 82.2697 305.63 82.643 305.865 83.0134C306.117 83.409 306.408 83.7162 306.739 83.935C307.073 84.1515 307.42 84.2673 307.777 84.2821C308.135 84.297 308.475 84.1998 308.796 83.9905C309.133 83.7815 309.373 83.5077 309.516 83.1692C309.66 82.8307 309.697 82.4484 309.628 82.0225C309.562 81.6002 309.38 81.1553 309.083 80.6878L308.462 79.7114L310.005 78.7307L310.626 79.7071C310.87 80.0919 311.151 80.3859 311.466 80.589C311.785 80.7957 312.117 80.9052 312.463 80.9175C312.813 80.9275 313.146 80.8289 313.464 80.6219C313.779 80.4266 314.006 80.1839 314.145 79.8937C314.29 79.6049 314.344 79.2898 314.309 78.9486C314.276 78.611 314.15 78.2695 313.931 77.9243C313.716 77.5862 313.456 77.3122 313.151 77.1022C312.846 76.8923 312.524 76.7712 312.185 76.739C311.85 76.7045 311.525 76.7801 311.208 76.9659L309.984 75.0401C310.612 74.6613 311.268 74.4941 311.953 74.5386C312.644 74.5844 313.303 74.8115 313.931 75.2201C314.563 75.6263 315.107 76.1873 315.561 76.9029C316.03 77.6402 316.299 78.3683 316.367 79.0874C316.441 79.8078 316.341 80.4647 316.067 81.058C315.793 81.6514 315.375 82.1264 314.814 82.4831C314.194 82.8821 313.556 83.0302 312.9 82.9272C312.246 82.8279 311.664 82.5208 311.155 82.0062L311.069 82.061C311.455 82.9064 311.546 83.6845 311.341 84.3952C311.142 85.1073 310.697 85.681 310.004 86.1163C309.385 86.5095 308.719 86.6853 308.006 86.6438C307.299 86.6036 306.611 86.364 305.944 85.925C305.278 85.4897 304.694 84.8764 304.191 84.0852ZM310.148 94.0961C309.858 93.5458 309.694 92.9984 309.658 92.454C309.627 91.9114 309.738 91.4096 309.991 90.9485C310.246 90.4913 310.658 90.1126 311.227 89.8124C311.717 89.554 312.17 89.4308 312.586 89.4428C313.002 89.4548 313.389 89.5665 313.746 89.778C314.103 89.9895 314.434 90.2654 314.739 90.6057C315.049 90.9478 315.338 91.318 315.606 91.7164C315.927 92.1974 316.192 92.5853 316.4 92.8801C316.613 93.1728 316.802 93.367 316.968 93.4625C317.14 93.5598 317.323 93.5568 317.519 93.4535L317.553 93.4356C317.979 93.211 318.243 92.9108 318.343 92.535C318.444 92.1592 318.369 91.7338 318.118 91.2589C317.854 90.7575 317.535 90.4175 317.161 90.2388C316.789 90.0638 316.428 90.004 316.076 90.0592L315.34 88.005C315.947 87.8775 316.519 87.8938 317.057 88.0537C317.598 88.2117 318.089 88.4946 318.53 88.9025C318.976 89.3084 319.358 89.8148 319.678 90.4217C319.899 90.8401 320.07 91.2824 320.19 91.7487C320.311 92.2151 320.349 92.6794 320.303 93.1416C320.262 93.6019 320.103 94.0371 319.828 94.4472C319.555 94.861 319.13 95.22 318.553 95.5241L312.741 98.5891L311.704 96.6215L312.897 95.9924L312.861 95.9245C312.554 95.9274 312.235 95.8713 311.905 95.7565C311.58 95.6434 311.265 95.4511 310.958 95.1794C310.656 94.9095 310.386 94.5484 310.148 94.0961ZM311.932 93.8345C312.149 94.2453 312.418 94.5588 312.739 94.7749C313.064 94.989 313.404 95.1055 313.761 95.1245C314.12 95.1472 314.46 95.0741 314.78 94.9052L315.804 94.3655C315.717 94.3292 315.61 94.2458 315.484 94.1151C315.359 93.9882 315.23 93.8394 315.097 93.6688C314.963 93.4982 314.835 93.3276 314.711 93.1568C314.587 92.986 314.48 92.8377 314.39 92.712C314.187 92.4285 313.975 92.191 313.754 91.9995C313.532 91.8079 313.3 91.6871 313.057 91.6371C312.817 91.5851 312.566 91.6287 312.302 91.7678C311.925 91.9666 311.713 92.2542 311.666 92.6308C311.619 93.0073 311.707 93.4085 311.932 93.8345ZM314.583 102.276L323.592 98.3741L324.512 100.497L320.875 102.072L321.21 102.847L326.021 103.982L327.128 106.539L321.26 105.117L318.134 110.476L317.021 107.907L319.348 103.967L318.898 102.929L315.502 104.399L314.583 102.276ZM316.32 116.023C316.217 115.725 316.146 115.44 316.106 115.17C316.064 114.905 316.047 114.688 316.056 114.518L317.935 114.435C317.952 114.785 318.007 115.084 318.097 115.332C318.188 115.581 318.342 115.773 318.561 115.909C318.777 116.051 319.083 116.127 319.479 116.139L320.045 116.152L328.35 109.507L329.154 111.826L322.888 116.392L322.922 116.489L330.671 116.205L331.476 118.531L319.789 118.42C319.238 118.417 318.737 118.333 318.288 118.168C317.835 118.005 317.444 117.748 317.115 117.398C316.783 117.053 316.518 116.594 316.32 116.023ZM324.023 128.856C323.773 127.909 323.766 127.04 324.003 126.25C324.241 125.465 324.679 124.792 325.315 124.232C325.957 123.675 326.759 123.27 327.719 123.017C328.683 122.763 329.583 122.724 330.418 122.9C331.257 123.076 331.972 123.447 332.562 124.014C333.158 124.584 333.578 125.333 333.822 126.26C334.025 127.031 334.063 127.75 333.935 128.418C333.812 129.09 333.54 129.67 333.118 130.161C332.701 130.65 332.157 131.009 331.486 131.239L330.922 129.1C331.356 128.893 331.683 128.587 331.902 128.181C332.127 127.778 332.168 127.306 332.026 126.767C331.905 126.309 331.675 125.94 331.337 125.659C331.003 125.377 330.581 125.2 330.073 125.126C329.565 125.057 328.992 125.107 328.354 125.276C327.707 125.446 327.175 125.687 326.76 126C326.348 126.311 326.062 126.671 325.901 127.079C325.745 127.49 325.728 127.929 325.851 128.394C325.938 128.724 326.077 129.002 326.269 129.229C326.466 129.459 326.708 129.632 326.994 129.746C327.279 129.86 327.602 129.905 327.961 129.881L328.525 132.019C327.839 132.143 327.192 132.102 326.582 131.897C325.977 131.69 325.451 131.331 325.003 130.819C324.559 130.306 324.232 129.652 324.023 128.856ZM326.134 136.469L335.791 134.695L336.209 136.971L332.311 137.687L332.463 138.517L336.895 140.705L337.398 143.446L332.001 140.74L327.749 145.258L327.243 142.504L330.397 139.189L330.192 138.076L326.552 138.745L326.134 136.469ZM328.323 151.159C328.258 150.54 328.308 149.971 328.476 149.452C328.648 148.936 328.937 148.511 329.343 148.177C329.749 147.846 330.272 147.647 330.912 147.579C331.463 147.52 331.929 147.573 332.311 147.738C332.693 147.903 333.011 148.15 333.264 148.479C333.518 148.808 333.723 149.187 333.88 149.616C334.042 150.048 334.174 150.499 334.275 150.968C334.395 151.534 334.498 151.993 334.582 152.343C334.671 152.694 334.775 152.944 334.893 153.095C335.017 153.249 335.189 153.314 335.409 153.29L335.447 153.286C335.926 153.235 336.282 153.054 336.514 152.742C336.747 152.43 336.835 152.007 336.778 151.473C336.718 150.91 336.547 150.476 336.266 150.171C335.986 149.871 335.672 149.682 335.325 149.603L335.402 147.422C336.013 147.529 336.538 147.755 336.978 148.103C337.422 148.45 337.774 148.895 338.033 149.437C338.297 149.979 338.465 150.591 338.537 151.273C338.587 151.743 338.582 152.218 338.521 152.695C338.461 153.173 338.324 153.619 338.111 154.031C337.902 154.443 337.594 154.789 337.186 155.068C336.779 155.351 336.252 155.528 335.603 155.597L329.069 156.292L328.834 154.08L330.175 153.938L330.167 153.861C329.881 153.75 329.606 153.58 329.341 153.351C329.082 153.126 328.859 152.831 328.675 152.465C328.495 152.102 328.378 151.667 328.323 151.159ZM330.078 151.576C330.127 152.038 330.261 152.429 330.479 152.748C330.702 153.067 330.975 153.302 331.3 153.452C331.625 153.605 331.967 153.663 332.327 153.625L333.478 153.502C333.411 153.437 333.343 153.32 333.273 153.151C333.204 152.987 333.14 152.801 333.079 152.594C333.018 152.386 332.962 152.18 332.91 151.975C332.858 151.771 332.814 151.593 332.776 151.443C332.693 151.105 332.584 150.806 332.449 150.546C332.315 150.286 332.143 150.088 331.936 149.951C331.733 149.814 331.483 149.761 331.186 149.793C330.763 149.838 330.459 150.027 330.276 150.359C330.093 150.692 330.027 151.097 330.078 151.576ZM329.681 166.656L339.499 166.732L339.481 169.046L335.518 169.015L335.511 169.859L339.451 172.843L339.43 175.63L334.638 171.955L329.611 175.592L329.633 172.792L333.355 170.13L333.364 168.999L329.663 168.97L329.681 166.656ZM325.709 179.931C325.735 179.617 325.785 179.328 325.858 179.065C325.927 178.805 325.999 178.599 326.076 178.448L327.828 179.132C327.703 179.459 327.631 179.755 327.613 180.018C327.596 180.282 327.659 180.52 327.804 180.733C327.944 180.95 328.194 181.144 328.551 181.315L329.064 181.556L339.346 178.836L339.144 181.282L331.567 182.925L331.559 183.026L338.761 185.901L338.557 188.353L327.913 183.526C327.41 183.3 326.986 183.021 326.641 182.689C326.293 182.357 326.039 181.964 325.88 181.51C325.716 181.06 325.659 180.534 325.709 179.931ZM324.765 190.327L338.091 192.489L337.727 194.735L336.124 194.475L336.103 194.608C336.319 194.764 336.543 194.97 336.773 195.228C337.007 195.486 337.189 195.813 337.319 196.21C337.453 196.607 337.475 197.09 337.382 197.658C337.261 198.407 336.96 199.051 336.48 199.59C336.003 200.134 335.364 200.523 334.562 200.756C333.763 200.993 332.826 201.024 331.749 200.85C330.685 200.677 329.809 200.356 329.121 199.886C328.433 199.416 327.942 198.849 327.649 198.184C327.355 197.519 327.27 196.806 327.393 196.044C327.483 195.489 327.651 195.043 327.895 194.707C328.139 194.371 328.41 194.113 328.707 193.933C329.008 193.757 329.286 193.627 329.541 193.543L329.556 193.449L324.395 192.611L324.765 190.327ZM332.882 193.943C332.255 193.841 331.692 193.84 331.192 193.941C330.692 194.045 330.282 194.244 329.962 194.538C329.646 194.836 329.449 195.227 329.371 195.711C329.289 196.216 329.355 196.66 329.569 197.045C329.787 197.43 330.118 197.747 330.561 197.996C331.007 198.249 331.534 198.425 332.139 198.524C332.741 198.621 333.289 198.622 333.784 198.525C334.279 198.428 334.686 198.231 335.007 197.933C335.327 197.635 335.528 197.232 335.611 196.723C335.69 196.235 335.629 195.8 335.428 195.418C335.226 195.035 334.909 194.718 334.474 194.467C334.04 194.219 333.509 194.044 332.882 193.943ZM324.835 209.413L332.545 211.304L333.045 209.268C333.172 208.751 333.149 208.324 332.977 207.988C332.805 207.652 332.541 207.442 332.184 207.359C331.829 207.267 331.503 207.326 331.206 207.534C330.91 207.742 330.701 208.092 330.58 208.584L329.889 211.403L328.25 211.001L328.941 208.182C329.128 207.421 329.409 206.792 329.786 206.297C330.162 205.801 330.606 205.458 331.117 205.268C331.629 205.077 332.179 205.054 332.767 205.198C333.379 205.349 333.874 205.63 334.251 206.043C334.631 206.461 334.876 206.982 334.986 207.606C335.1 208.234 335.061 208.938 334.87 209.716L333.854 213.857L324.319 211.517L324.835 209.413ZM326.346 203.254L330.584 207.118L330.041 209.334L325.804 205.464L326.346 203.254ZM330.012 226.358L320.685 223.291L321.38 221.178L330.707 224.245L330.012 226.358ZM326.123 223.982L324.326 223.391C324.299 223.118 324.293 222.815 324.308 222.484C324.326 222.158 324.365 221.819 324.427 221.467C324.488 221.119 324.573 220.779 324.682 220.447C325.092 219.2 325.696 218.306 326.492 217.765C327.292 217.23 328.287 217.158 329.477 217.549L332.586 218.571L331.895 220.672L328.786 219.65C328.385 219.518 328.04 219.483 327.751 219.545C327.461 219.607 327.213 219.763 327.005 220.013C326.801 220.264 326.628 220.607 326.485 221.04C326.326 221.526 326.223 222.003 326.176 222.472C326.129 222.941 326.112 223.445 326.123 223.982ZM318.042 229.71C318.281 229.135 318.599 228.661 318.995 228.285C319.393 227.916 319.851 227.682 320.368 227.583C320.883 227.488 321.437 227.564 322.031 227.812C322.542 228.025 322.926 228.295 323.182 228.623C323.438 228.951 323.598 229.32 323.662 229.73C323.727 230.14 323.725 230.571 323.657 231.023C323.592 231.48 323.491 231.939 323.354 232.399C323.188 232.953 323.058 233.405 322.964 233.753C322.873 234.103 322.844 234.373 322.876 234.562C322.911 234.756 323.03 234.896 323.235 234.981L323.27 234.996C323.715 235.181 324.114 235.192 324.468 235.03C324.821 234.868 325.101 234.539 325.308 234.044C325.526 233.52 325.584 233.058 325.484 232.656C325.382 232.258 325.198 231.941 324.931 231.706L326.045 229.829C326.53 230.216 326.882 230.667 327.101 231.183C327.324 231.701 327.419 232.259 327.386 232.86C327.357 233.461 327.211 234.079 326.947 234.712C326.765 235.149 326.533 235.563 326.251 235.953C325.968 236.343 325.635 236.668 325.249 236.927C324.868 237.189 324.432 237.344 323.941 237.393C323.448 237.447 322.9 237.348 322.298 237.097L316.232 234.572L317.087 232.518L318.332 233.036L318.362 232.966C318.164 232.731 318.004 232.45 317.882 232.122C317.762 231.8 317.709 231.434 317.723 231.024C317.739 230.62 317.845 230.182 318.042 229.71ZM319.381 230.918C319.202 231.347 319.132 231.754 319.17 232.139C319.212 232.526 319.339 232.863 319.552 233.15C319.763 233.441 320.036 233.656 320.371 233.795L321.439 234.24C321.411 234.15 321.408 234.015 321.428 233.834C321.446 233.657 321.478 233.462 321.525 233.251C321.571 233.04 321.621 232.832 321.674 232.627C321.726 232.423 321.772 232.246 321.812 232.096C321.901 231.76 321.949 231.445 321.956 231.152C321.962 230.86 321.907 230.604 321.791 230.384C321.678 230.167 321.484 230.001 321.209 229.886C320.816 229.722 320.459 229.742 320.139 229.946C319.818 230.149 319.566 230.473 319.381 230.918ZM301.252 271.02L303.199 272.732L303.417 270.142L304.965 270.364L304.45 272.908L306.797 271.799L307.383 273.248L304.92 274.08L307.049 275.561L306.091 276.783L304.14 275.076L303.922 277.666L302.374 277.445L302.893 274.896L300.542 276.01L299.957 274.56L302.419 273.728L300.294 272.243L301.252 271.02Z" fill="#1D1D1D"/>
</svg>
