<svg width="312" height="313" viewBox="0 0 312 313" fill="none" xmlns="http://www.w3.org/2000/svg">
<path d="M224.093 299.77L223.194 297.997L228.586 295.261L223.563 285.36L225.678 284.287L231.601 295.961L224.093 299.77ZM214.354 285.806L219.432 298.315L217.323 299.171L216.713 297.666L216.588 297.717C216.568 297.983 216.507 298.281 216.407 298.612C216.308 298.946 216.123 299.272 215.851 299.589C215.582 299.91 215.18 300.179 214.647 300.395C213.944 300.681 213.238 300.758 212.527 300.628C211.814 300.504 211.15 300.159 210.535 299.595C209.917 299.036 209.403 298.252 208.993 297.241C208.587 296.242 208.406 295.326 208.45 294.495C208.494 293.663 208.724 292.948 209.14 292.352C209.555 291.756 210.12 291.312 210.835 291.022C211.356 290.811 211.824 290.722 212.238 290.756C212.652 290.791 213.013 290.888 213.322 291.047C213.628 291.213 213.883 291.383 214.088 291.557L214.177 291.521L212.21 286.677L214.354 285.806ZM215.483 294.62C215.244 294.032 214.952 293.55 214.606 293.175C214.257 292.802 213.874 292.555 213.457 292.434C213.038 292.319 212.601 292.354 212.147 292.538C211.673 292.731 211.328 293.018 211.111 293.401C210.895 293.787 210.796 294.234 210.814 294.742C210.829 295.256 210.952 295.797 211.183 296.365C211.412 296.93 211.697 297.399 212.036 297.771C212.376 298.144 212.757 298.389 213.177 298.508C213.598 298.627 214.047 298.59 214.525 298.396C214.983 298.21 215.323 297.932 215.545 297.561C215.767 297.19 215.873 296.754 215.863 296.252C215.848 295.752 215.722 295.208 215.483 294.62ZM202.402 297.675L200.605 305.22L198.332 305.917L195.452 296.531L197.591 295.875L199.554 302.273L201.337 294.725L203.617 294.026L206.496 303.413L204.363 304.067L202.402 297.675ZM186.525 312.439L185.427 311.142C185.655 310.841 185.931 310.6 186.254 310.418C186.577 310.237 186.969 310.08 187.429 309.948C187.885 309.82 188.431 309.683 189.066 309.536C189.78 309.367 190.337 309.108 190.737 308.757C191.138 308.407 191.404 307.947 191.537 307.379C191.67 306.815 191.69 306.127 191.596 305.315L191.49 305.337C191.314 305.989 190.988 306.526 190.511 306.949C190.035 307.373 189.432 307.661 188.702 307.816C187.906 307.984 187.165 307.954 186.481 307.724C185.793 307.5 185.207 307.086 184.722 306.483C184.233 305.881 183.887 305.1 183.684 304.141C183.475 303.153 183.479 302.257 183.696 301.453C183.914 300.654 184.324 299.985 184.925 299.449C185.521 298.913 186.287 298.546 187.22 298.349C188.15 298.152 189.002 298.183 189.775 298.441C190.545 298.705 191.202 299.196 191.746 299.912C192.287 300.634 192.681 301.581 192.929 302.752L193.112 303.615C193.59 305.875 193.526 307.65 192.92 308.942C192.313 310.233 191.185 311.065 189.534 311.436C189.044 311.548 188.604 311.644 188.216 311.721C187.823 311.8 187.485 311.891 187.202 311.995C186.919 312.098 186.693 312.246 186.525 312.439ZM187.592 300.165C187.129 300.263 186.754 300.466 186.467 300.775C186.18 301.089 185.994 301.485 185.908 301.965C185.818 302.446 185.838 302.988 185.966 303.593C186.092 304.189 186.291 304.676 186.562 305.054C186.835 305.437 187.164 305.702 187.548 305.852C187.932 306.001 188.358 306.027 188.825 305.928C189.175 305.854 189.477 305.724 189.73 305.54C189.982 305.356 190.181 305.122 190.326 304.839C190.471 304.556 190.559 304.23 190.59 303.862C190.621 303.494 190.592 303.084 190.506 302.632C190.314 301.727 189.957 301.051 189.436 300.604C188.915 300.161 188.301 300.015 187.592 300.165ZM173.033 306.835L172.799 304.952L177.988 304.307L178.222 306.191L173.033 306.835ZM177.998 310.2L176.788 300.456L179.002 300.181L180.212 309.925L177.998 310.2ZM172.016 310.942L170.806 301.199L173.014 300.925L174.224 310.668L172.016 310.942ZM163.862 301.526C164.483 301.501 165.048 301.589 165.555 301.79C166.058 301.996 166.463 302.312 166.77 302.739C167.073 303.166 167.238 303.701 167.263 304.344C167.286 304.898 167.202 305.36 167.012 305.73C166.822 306.1 166.555 306.401 166.211 306.632C165.866 306.864 165.474 307.044 165.036 307.172C164.594 307.305 164.135 307.407 163.66 307.477C163.088 307.56 162.624 307.632 162.268 307.693C161.912 307.758 161.656 307.846 161.498 307.954C161.336 308.067 161.26 308.235 161.269 308.456L161.27 308.494C161.289 308.976 161.447 309.342 161.743 309.595C162.039 309.847 162.455 309.963 162.992 309.941C163.558 309.918 164.002 309.777 164.324 309.517C164.642 309.256 164.852 308.956 164.953 308.615L167.124 308.834C166.978 309.437 166.717 309.947 166.342 310.363C165.966 310.783 165.499 311.105 164.941 311.328C164.383 311.555 163.761 311.682 163.076 311.71C162.603 311.729 162.13 311.693 161.658 311.601C161.185 311.509 160.749 311.343 160.352 311.103C159.954 310.868 159.629 310.537 159.378 310.112C159.122 309.688 158.981 309.15 158.954 308.498L158.69 301.932L160.913 301.843L160.967 303.191L161.044 303.187C161.173 302.909 161.361 302.646 161.607 302.397C161.848 302.153 162.158 301.951 162.535 301.79C162.909 301.635 163.351 301.546 163.862 301.526ZM163.33 303.249C162.866 303.268 162.467 303.375 162.134 303.572C161.801 303.773 161.549 304.031 161.378 304.345C161.203 304.659 161.123 304.997 161.137 305.359L161.184 306.515C161.254 306.452 161.375 306.392 161.548 306.334C161.716 306.276 161.906 306.223 162.117 306.177C162.328 306.13 162.538 306.087 162.745 306.049C162.953 306.011 163.133 305.978 163.285 305.95C163.628 305.89 163.934 305.801 164.202 305.683C164.47 305.566 164.679 305.408 164.829 305.21C164.979 305.016 165.048 304.77 165.036 304.472C165.019 304.047 164.85 303.731 164.531 303.527C164.211 303.322 163.811 303.23 163.33 303.249ZM148.635 304.534L146.347 304.349C146.356 303.982 146.215 303.686 145.925 303.462C145.636 303.237 145.247 303.105 144.758 303.066C144.261 303.026 143.834 303.1 143.477 303.289C143.115 303.482 142.916 303.801 142.88 304.247C142.858 304.511 142.906 304.748 143.021 304.958C143.136 305.172 143.308 305.345 143.537 305.474C143.766 305.604 144.042 305.682 144.365 305.708L145.862 305.829L145.729 307.467L144.232 307.345C143.752 307.307 143.38 307.388 143.116 307.589C142.847 307.789 142.699 308.057 142.672 308.393C142.643 308.754 142.751 309.057 142.996 309.304C143.237 309.55 143.587 309.692 144.045 309.729C144.504 309.766 144.895 309.693 145.217 309.51C145.536 309.326 145.715 309.071 145.754 308.745L148.028 308.929C147.974 309.498 147.764 309.979 147.398 310.372C147.029 310.766 146.552 311.056 145.968 311.244C145.38 311.432 144.729 311.497 144.016 311.439C143.251 311.377 142.6 311.209 142.062 310.934C141.524 310.66 141.121 310.304 140.853 309.868C140.585 309.436 140.473 308.943 140.517 308.391C140.561 307.86 140.762 307.434 141.121 307.113C141.48 306.795 141.946 306.585 142.519 306.482L142.527 306.38C142.143 306.328 141.803 306.189 141.509 305.964C141.215 305.744 140.99 305.458 140.835 305.108C140.679 304.758 140.62 304.361 140.655 303.92C140.704 303.321 140.918 302.817 141.297 302.407C141.677 302.002 142.177 301.707 142.799 301.522C143.417 301.337 144.112 301.276 144.886 301.338C145.637 301.399 146.301 301.566 146.878 301.839C147.45 302.117 147.892 302.484 148.206 302.941C148.519 303.398 148.662 303.929 148.635 304.534ZM134.522 300.177C135.136 300.275 135.672 300.474 136.129 300.772C136.581 301.073 136.915 301.463 137.132 301.943C137.344 302.421 137.399 302.978 137.297 303.614C137.209 304.161 137.035 304.597 136.776 304.922C136.516 305.247 136.195 305.489 135.811 305.647C135.427 305.806 135.008 305.905 134.553 305.944C134.093 305.986 133.623 305.995 133.144 305.97C132.566 305.937 132.097 305.916 131.736 305.905C131.375 305.899 131.106 305.933 130.93 306.009C130.749 306.088 130.641 306.236 130.606 306.455L130.6 306.493C130.523 306.968 130.605 307.359 130.845 307.665C131.085 307.972 131.47 308.167 132 308.252C132.56 308.342 133.023 308.292 133.39 308.1C133.754 307.908 134.019 307.655 134.186 307.341L136.27 307.987C136.007 308.549 135.65 308.997 135.2 309.33C134.748 309.667 134.227 309.89 133.636 309.998C133.044 310.11 132.409 310.111 131.732 310.003C131.265 309.928 130.808 309.798 130.363 309.614C129.918 309.431 129.524 309.182 129.182 308.868C128.839 308.558 128.586 308.17 128.424 307.704C128.257 307.237 128.226 306.681 128.329 306.037L129.372 299.55L131.568 299.903L131.354 301.234L131.43 301.246C131.612 301 131.848 300.779 132.139 300.583C132.424 300.392 132.767 300.255 133.169 300.173C133.566 300.094 134.017 300.096 134.522 300.177ZM133.659 301.76C133.2 301.686 132.788 301.713 132.422 301.84C132.056 301.971 131.758 302.173 131.528 302.447C131.294 302.72 131.149 303.036 131.091 303.393L130.908 304.536C130.989 304.488 131.119 304.453 131.3 304.43C131.476 304.407 131.673 304.393 131.889 304.389C132.106 304.385 132.32 304.385 132.53 304.388C132.741 304.392 132.924 304.396 133.079 304.399C133.427 304.407 133.744 304.381 134.031 304.319C134.317 304.257 134.553 304.144 134.739 303.98C134.924 303.819 135.041 303.592 135.088 303.298C135.156 302.877 135.053 302.535 134.781 302.271C134.508 302.007 134.134 301.836 133.659 301.76ZM125.321 298.796L122.944 308.322L120.699 307.762L121.658 303.917L120.84 303.712L117.015 306.842L114.311 306.167L119.007 302.372L116.651 296.632L119.368 297.31L121.082 301.553L122.18 301.827L123.076 298.236L125.321 298.796ZM113.379 291.812C113.678 291.913 113.946 292.031 114.184 292.165C114.419 292.294 114.601 292.415 114.73 292.526L113.643 294.061C113.356 293.86 113.086 293.719 112.835 293.639C112.583 293.558 112.337 293.562 112.095 293.651C111.851 293.735 111.602 293.93 111.35 294.236L110.993 294.675L111.151 305.31L108.826 304.523L109.06 296.774L108.963 296.741L104.436 303.037L102.105 302.247L109.359 293.082C109.699 292.649 110.072 292.305 110.477 292.051C110.884 291.793 111.327 291.641 111.805 291.596C112.281 291.546 112.806 291.618 113.379 291.812ZM98.534 289.996C99.4334 290.385 100.12 290.917 100.594 291.592C101.064 292.265 101.323 293.024 101.369 293.871C101.41 294.72 101.233 295.6 100.838 296.511C100.442 297.426 99.9162 298.157 99.261 298.705C98.6042 299.256 97.8704 299.588 97.0597 299.702C96.2435 299.817 95.3954 299.684 94.5156 299.303C93.7844 298.986 93.1957 298.571 92.7496 298.057C92.2978 297.546 92.0096 296.973 91.8851 296.338C91.7589 295.708 91.8129 295.058 92.0472 294.388L94.0766 295.268C93.9707 295.737 94.0095 296.184 94.193 296.607C94.371 297.032 94.7161 297.356 95.2283 297.578C95.6623 297.766 96.0944 297.814 96.5245 297.721C96.9529 297.633 97.353 297.411 97.7248 297.057C98.0927 296.701 98.408 296.22 98.6705 295.614C98.9365 295 99.0753 294.433 99.0868 293.913C99.0967 293.397 98.991 292.95 98.7698 292.571C98.543 292.194 98.2087 291.91 97.7668 291.718C97.454 291.583 97.149 291.52 96.8518 291.531C96.5491 291.544 96.2645 291.627 95.9981 291.781C95.7317 291.935 95.4969 292.161 95.2938 292.458L93.2644 291.579C93.5913 290.964 94.0238 290.48 94.5618 290.128C95.0981 289.78 95.706 289.588 96.3854 289.552C97.0631 289.521 97.7793 289.669 98.534 289.996ZM91.2507 286.94L86.602 295.588L84.5639 294.492L86.4403 291.002L85.6971 290.602L81.2196 292.695L78.7648 291.375L84.2503 288.852L83.3797 282.709L85.8457 284.035L86.4637 288.569L87.4602 289.104L89.2125 285.844L91.2507 286.94ZM78.4277 279.452C78.9499 279.79 79.3599 280.188 79.6579 280.645C79.9501 281.103 80.0984 281.595 80.103 282.121C80.104 282.644 79.9296 283.176 79.5798 283.716C79.2786 284.181 78.9437 284.51 78.5752 284.703C78.2066 284.896 77.8148 284.987 77.3997 284.977C76.9847 284.968 76.5611 284.889 76.1289 284.741C75.6908 284.594 75.2576 284.412 74.8292 284.196C74.3139 283.933 73.8933 283.724 73.5674 283.569C73.2392 283.417 72.9793 283.34 72.7878 283.338C72.5904 283.337 72.4314 283.43 72.311 283.616L72.2901 283.648C72.0283 284.052 71.9455 284.443 72.0415 284.82C72.1375 285.197 72.4108 285.531 72.8614 285.823C73.3371 286.131 73.7816 286.272 74.195 286.245C74.6048 286.216 74.9494 286.091 75.229 285.871L76.8756 287.303C76.4082 287.712 75.9011 287.977 75.3542 288.1C74.8051 288.227 74.2383 288.22 73.6537 288.08C73.0668 287.944 72.4854 287.689 71.9096 287.316C71.5126 287.059 71.1475 286.756 70.8143 286.409C70.4811 286.061 70.2213 285.674 70.0348 285.249C69.846 284.827 69.7714 284.37 69.811 283.878C69.847 283.383 70.0422 282.862 70.3967 282.315L73.969 276.8L75.836 278.009L75.1027 279.141L75.1671 279.183C75.4334 279.03 75.7387 278.923 76.0831 278.862C76.4215 278.802 76.7911 278.816 77.1917 278.902C77.5865 278.991 77.9985 279.174 78.4277 279.452ZM76.999 280.552C76.6092 280.3 76.2214 280.158 75.8356 280.126C75.4475 280.098 75.0932 280.163 74.7726 280.321C74.4485 280.476 74.1879 280.706 73.991 281.01L73.362 281.981C73.4553 281.971 73.5891 281.991 73.7635 282.043C73.9344 282.093 74.1197 282.16 74.3194 282.243C74.519 282.327 74.7146 282.413 74.9061 282.502C75.0976 282.59 75.2635 282.667 75.4038 282.733C75.719 282.881 76.02 282.985 76.3068 283.043C76.5936 283.102 76.8553 283.094 77.0919 283.019C77.3262 282.947 77.5244 282.786 77.6866 282.536C77.9182 282.178 77.9626 281.824 77.8197 281.472C77.6767 281.121 77.4032 280.814 76.999 280.552ZM45.404 259.883L43.3984 261.527L45.9185 262.163L45.4484 263.654L43.0218 262.732L43.7353 265.228L42.2098 265.571L41.7888 263.006L39.9821 264.866L38.9311 263.722L40.9324 262.074L38.4123 261.439L38.8824 259.947L41.3133 260.873L40.5955 258.373L42.121 258.03L42.542 260.595L44.3529 258.74L45.404 259.883ZM13.9216 227.804L15.6709 226.86L18.5433 232.181L28.3136 226.907L29.4401 228.993L17.9205 235.212L13.9216 227.804ZM27.6318 217.711L15.2582 223.11L14.3483 221.024L15.8364 220.375L15.7827 220.252C15.5162 220.238 15.2165 220.185 14.8836 220.093C14.5467 220.003 14.2162 219.826 13.8922 219.563C13.5643 219.302 13.2853 218.907 13.0553 218.38C12.7519 217.685 12.6561 216.98 12.7679 216.267C12.874 215.551 13.2012 214.878 13.7493 214.248C14.2919 213.617 15.0631 213.082 16.063 212.646C17.0512 212.215 17.9617 212.011 18.7944 212.033C19.6272 212.056 20.347 212.267 20.954 212.667C21.5609 213.067 22.0186 213.621 22.327 214.328C22.552 214.843 22.6526 215.308 22.629 215.723C22.6054 216.138 22.5177 216.502 22.3659 216.814C22.2084 217.125 22.045 217.384 21.8757 217.593L21.9141 217.681L26.7065 215.59L27.6318 217.711ZM18.8503 219.067C19.4323 218.813 19.9062 218.508 20.2721 218.153C20.6362 217.795 20.8732 217.405 20.9829 216.985C21.0871 216.563 21.0411 216.128 20.8452 215.679C20.6407 215.21 20.3444 214.872 19.9564 214.665C19.5645 214.459 19.1149 214.372 18.6076 214.402C18.0947 214.431 17.557 214.568 16.9945 214.813C16.436 215.057 15.9749 215.353 15.6112 215.703C15.2476 216.052 15.0117 216.438 14.9037 216.862C14.7956 217.286 14.8447 217.734 15.0509 218.207C15.2486 218.66 15.5356 218.992 15.9118 219.205C16.2881 219.417 16.7269 219.512 17.2281 219.488C17.7276 219.461 18.2683 219.32 18.8503 219.067ZM15.4599 206.069L7.87149 204.464L7.11627 202.21L16.4261 199.091L17.1366 201.213L10.7907 203.338L18.3811 204.928L19.1384 207.189L9.82856 210.307L9.12004 208.192L15.4599 206.069ZM0.293866 190.577L1.56164 189.446C1.86835 189.666 2.11666 189.936 2.30658 190.254C2.4965 190.572 2.66346 190.959 2.80747 191.416C2.94635 191.869 3.09772 192.411 3.26159 193.042C3.44841 193.751 3.72218 194.301 4.0829 194.693C4.44362 195.084 4.90966 195.339 5.48102 195.456C6.04824 195.575 6.73659 195.577 7.54607 195.463L7.52083 195.357C6.86515 195.198 6.31961 194.886 5.88423 194.42C5.44884 193.955 5.14454 193.359 4.97133 192.634C4.78229 191.842 4.79374 191.101 5.00569 190.411C5.2125 189.718 5.61106 189.121 6.20136 188.621C6.79068 188.116 7.56199 187.75 8.5153 187.523C9.49762 187.288 10.3934 187.269 11.2027 187.466C12.0079 187.663 12.6864 188.056 13.2383 188.642C13.7893 189.225 14.1756 189.98 14.3973 190.909C14.618 191.833 14.609 192.685 14.3703 193.465C14.1264 194.242 13.6532 194.911 12.9506 195.473C12.2429 196.032 11.3067 196.451 10.142 196.729L9.284 196.934C7.0375 197.47 5.26096 197.452 3.95436 196.879C2.64775 196.306 1.78762 195.199 1.37396 193.559C1.24888 193.072 1.14239 192.635 1.05448 192.248C0.965592 191.858 0.86578 191.522 0.755048 191.242C0.644316 190.962 0.490589 190.74 0.293866 190.577ZM12.5913 191.327C12.4815 190.867 12.2683 190.497 11.9519 190.218C11.6313 189.94 11.2301 189.764 10.7482 189.69C10.2653 189.613 9.72333 189.646 9.12233 189.79C8.52962 189.931 8.0478 190.143 7.67687 190.424C7.30179 190.706 7.0445 191.041 6.90499 191.43C6.76549 191.818 6.75116 192.244 6.86202 192.708C6.94516 193.056 7.08206 193.355 7.27272 193.603C7.46338 193.851 7.70216 194.043 7.98908 194.181C8.276 194.318 8.60384 194.397 8.97261 194.419C9.34137 194.44 9.75057 194.402 10.2002 194.303C11.0996 194.088 11.7661 193.715 12.1996 193.182C12.629 192.65 12.7596 192.032 12.5913 191.327ZM5.54978 176.943L7.42718 176.661L8.20342 181.831L6.32602 182.113L5.54978 176.943ZM2.31323 181.992L12.0226 180.534L12.3538 182.74L2.64441 184.198L2.31323 181.992ZM1.41836 176.031L11.1277 174.573L11.458 176.773L1.7486 178.231L1.41836 176.031ZM10.6254 167.639C10.6661 168.26 10.5921 168.827 10.4036 169.339C10.2106 169.847 9.90451 170.26 9.48547 170.577C9.06616 170.891 8.53546 171.069 7.89337 171.111C7.34058 171.147 6.87677 171.075 6.50196 170.895C6.12715 170.714 5.81974 170.455 5.57976 170.116C5.33977 169.777 5.15001 169.39 5.01048 168.955C4.86641 168.516 4.75327 168.06 4.67104 167.587C4.5739 167.017 4.49024 166.555 4.42006 166.201C4.34563 165.847 4.2521 165.593 4.13946 165.438C4.02228 165.279 3.85314 165.207 3.63202 165.221L3.59375 165.224C3.11325 165.255 2.75051 165.422 2.50554 165.724C2.26056 166.027 2.15563 166.445 2.19073 166.981C2.22778 167.547 2.38049 167.987 2.64885 168.303C2.91693 168.614 3.2227 168.816 3.56615 168.909L3.40123 171.085C2.79478 170.954 2.27888 170.706 1.85353 170.341C1.42394 169.976 1.09069 169.517 0.85378 168.965C0.61262 168.413 0.469613 167.794 0.424759 167.11C0.393835 166.638 0.41833 166.164 0.498243 165.689C0.578156 165.214 0.733003 164.775 0.962786 164.371C1.18832 163.968 1.51029 163.635 1.92869 163.373C2.34682 163.106 2.88118 162.952 3.53177 162.909L10.0887 162.479L10.2342 164.699L8.88833 164.787L8.89334 164.864C9.17468 164.986 9.44277 165.167 9.69761 165.407C9.94792 165.642 10.1579 165.947 10.3276 166.32C10.4927 166.689 10.5919 167.129 10.6254 167.639ZM8.88945 167.151C8.85908 166.687 8.74133 166.292 8.5362 165.963C8.32681 165.635 8.06305 165.39 7.74491 165.227C7.42649 165.06 7.08656 164.989 6.72512 165.012L5.57063 165.088C5.6349 165.156 5.69826 165.276 5.76071 165.447C5.82288 165.614 5.88006 165.802 5.93226 166.012C5.98446 166.222 6.03227 166.431 6.07569 166.637C6.1191 166.843 6.15646 167.023 6.18775 167.174C6.25709 167.516 6.35383 167.819 6.47796 168.084C6.6021 168.349 6.765 168.554 6.96666 168.699C7.16406 168.844 7.4116 168.907 7.70925 168.887C8.13448 168.86 8.44535 168.683 8.64188 168.359C8.83841 168.034 8.92093 167.631 8.88945 167.151ZM7.24404 152.496L7.36942 150.204C7.73651 150.203 8.02843 150.055 8.24518 149.759C8.46193 149.464 8.58369 149.071 8.61046 148.582C8.6377 148.084 8.55214 147.659 8.35376 147.307C8.15135 146.95 7.82677 146.76 7.37999 146.735C7.11618 146.721 6.88068 146.774 6.67347 146.895C6.46202 147.016 6.29445 147.192 6.17079 147.424C6.04712 147.657 5.97644 147.934 5.95874 148.258L5.87667 149.758L4.23637 149.668L4.31844 148.168C4.34475 147.687 4.25402 147.317 4.04627 147.058C3.83874 146.795 3.56691 146.655 3.23077 146.636C2.86909 146.616 2.56828 146.732 2.32833 146.984C2.08861 147.231 1.95618 147.584 1.93104 148.044C1.90589 148.503 1.98918 148.892 2.18092 149.21C2.37288 149.523 2.63233 149.695 2.95927 149.726L2.83459 152.005C2.26489 151.965 1.77849 151.768 1.37541 151.413C0.972557 151.053 0.669601 150.584 0.466541 150.006C0.263715 149.423 0.181858 148.774 0.220972 148.059C0.26288 147.293 0.413969 146.638 0.674239 146.093C0.934508 145.548 1.27928 145.136 1.70854 144.856C2.13355 144.577 2.62263 144.452 3.17578 144.482C3.70766 144.511 4.13897 144.701 4.46972 145.052C4.79621 145.403 5.01856 145.863 5.13675 146.433L5.23887 146.439C5.28133 146.053 5.41105 145.71 5.62803 145.41C5.84076 145.11 6.1202 144.878 6.46636 144.713C6.81251 144.549 7.20685 144.479 7.64937 144.503C8.24933 144.536 8.75901 144.736 9.17841 145.105C9.59356 145.474 9.90162 145.966 10.1026 146.583C10.3038 147.196 10.3832 147.89 10.3408 148.664C10.2996 149.417 10.15 150.085 9.89184 150.669C9.62971 151.248 9.27422 151.7 8.82537 152.025C8.37653 152.351 7.84942 152.507 7.24404 152.496ZM11.2393 138.275C11.1553 138.891 10.9699 139.432 10.683 139.896C10.3925 140.355 10.0102 140.699 9.53621 140.927C9.06277 141.15 8.50726 141.219 7.86968 141.132C7.32077 141.057 6.88068 140.894 6.54939 140.642C6.21811 140.391 5.96867 140.075 5.80108 139.695C5.63349 139.315 5.52472 138.898 5.47477 138.444C5.42117 137.985 5.40125 137.516 5.41502 137.036C5.43357 136.458 5.44379 135.989 5.44567 135.628C5.44332 135.266 5.40241 134.998 5.32294 134.824C5.23981 134.645 5.08847 134.54 4.86891 134.511L4.83091 134.505C4.35378 134.44 3.96506 134.531 3.66472 134.779C3.36439 135.026 3.17799 135.416 3.1055 135.948C3.02898 136.509 3.09074 136.971 3.29076 137.334C3.49136 137.692 3.75068 137.951 4.06871 138.111L3.47302 140.21C2.90491 139.961 2.44886 139.615 2.10489 139.172C1.75669 138.729 1.52162 138.213 1.39969 137.625C1.27353 137.035 1.25676 136.401 1.34939 135.721C1.41324 135.252 1.5317 134.793 1.70477 134.344C1.87783 133.894 2.11721 133.495 2.4229 133.145C2.72437 132.795 3.10627 132.533 3.56859 132.359C4.03149 132.182 4.58594 132.137 5.23196 132.225L11.7428 133.112L11.4425 135.316L10.1062 135.134L10.0958 135.21C10.347 135.386 10.5736 135.617 10.7756 135.902C10.9739 136.183 11.1189 136.523 11.2107 136.923C11.2988 137.318 11.3084 137.768 11.2393 138.275ZM9.63572 137.45C9.69843 136.99 9.66201 136.579 9.52648 136.216C9.38672 135.853 9.1772 135.56 8.89793 135.337C8.61923 135.11 8.30043 134.972 7.94153 134.923L6.79517 134.767C6.8445 134.846 6.88271 134.976 6.90979 135.156C6.93744 135.332 6.95589 135.528 6.96513 135.744C6.97436 135.961 6.97966 136.174 6.98103 136.385C6.9824 136.596 6.98328 136.779 6.98368 136.934C6.98353 137.282 7.01782 137.599 7.08656 137.883C7.1553 138.168 7.27403 138.401 7.44275 138.583C7.60725 138.765 7.83728 138.876 8.13285 138.916C8.55508 138.974 8.89487 138.863 9.1522 138.584C9.40954 138.305 9.57071 137.927 9.63572 137.45ZM12.3945 129.044L2.80591 126.933L3.3034 124.673L7.17379 125.525L7.35519 124.701L4.11971 120.965L4.71889 118.243L8.64383 122.832L14.3157 120.317L13.7138 123.051L9.52078 124.883L9.27753 125.988L12.892 126.784L12.3945 129.044ZM19.0479 116.927C18.954 117.228 18.8428 117.499 18.714 117.74C18.5906 117.979 18.475 118.164 18.367 118.295L16.806 117.246C16.9997 116.954 17.1339 116.681 17.2085 116.427C17.283 116.174 17.2728 115.927 17.1779 115.688C17.0882 115.446 16.8874 115.202 16.5753 114.958L16.1278 114.611L5.49958 115.027L6.23016 112.683L13.9824 112.73L14.0128 112.632L7.6095 108.259L8.34198 105.91L17.6801 112.939C18.1219 113.269 18.4748 113.633 18.7386 114.032C19.0066 114.433 19.1688 114.872 19.2253 115.349C19.2872 115.823 19.228 116.35 19.0479 116.927ZM20.4972 102.039C20.1307 102.948 19.6164 103.648 18.9542 104.14C18.2937 104.627 17.5408 104.904 16.6955 104.972C15.8478 105.035 14.9636 104.881 14.0427 104.509C13.1179 104.136 12.3735 103.63 11.8094 102.989C11.2415 102.346 10.8906 101.621 10.7567 100.814C10.6205 100 10.7316 99.1493 11.0902 98.2601C11.3882 97.521 11.7882 96.9219 12.2904 96.4627C12.7902 95.998 13.3557 95.6953 13.9867 95.5546C14.6139 95.4123 15.265 95.4498 15.9402 95.6669L15.1131 97.718C14.641 97.6242 14.1957 97.6744 13.7774 97.8687C13.3567 98.0574 13.0419 98.4107 12.8332 98.9284C12.6563 99.3671 12.6195 99.8002 12.7227 100.228C12.8221 100.654 13.0536 101.048 13.4174 101.411C13.7828 101.769 14.2718 102.072 14.8844 102.319C15.5049 102.57 16.0751 102.694 16.595 102.692C17.1109 102.689 17.5556 102.572 17.9289 102.341C18.2999 102.104 18.5754 101.763 18.7555 101.316C18.883 101 18.9377 100.694 18.9195 100.397C18.899 100.095 18.8083 99.8122 18.6476 99.5498C18.4869 99.2875 18.2553 99.0585 17.9528 98.863L18.7798 96.8118C19.4033 97.123 19.8979 97.543 20.2636 98.0718C20.6254 98.599 20.8326 99.2018 20.8854 99.8801C20.9341 100.557 20.8047 101.277 20.4972 102.039ZM23.3645 94.6801L14.5962 90.2628L15.6372 88.1963L19.1765 89.9793L19.5562 89.2258L17.3455 84.8054L18.5994 82.3165L21.2673 87.7331L27.385 86.6996L26.1253 89.1999L21.6093 89.9381L21.1003 90.9485L24.4056 92.6136L23.3645 94.6801ZM30.5183 81.6687C30.1927 82.1989 29.805 82.6184 29.3552 82.9272C28.904 83.2302 28.4156 83.3903 27.89 83.4075C27.3665 83.4211 26.8307 83.2595 26.2824 82.9227C25.8103 82.6328 25.4735 82.3058 25.2719 81.942C25.0703 81.5781 24.9695 81.1886 24.9694 80.7735C24.9693 80.3584 25.0381 79.933 25.1756 79.4974C25.3118 79.0559 25.483 78.6184 25.6892 78.185C25.9394 77.6635 26.1383 77.2381 26.2857 76.9085C26.4294 76.5767 26.5001 76.3151 26.4977 76.1236C26.4939 75.9262 26.3976 75.7695 26.2088 75.6536L26.1761 75.6335C25.7658 75.3815 25.3734 75.3079 24.9988 75.413C24.6243 75.518 24.2965 75.7992 24.0155 76.2567C23.7188 76.7397 23.5888 77.1874 23.6255 77.6C23.6643 78.009 23.7971 78.3506 24.0237 78.6248L22.6315 80.3052C22.2124 79.8477 21.9347 79.3471 21.7986 78.8034C21.6588 78.2574 21.6519 77.6906 21.7779 77.1028C21.9003 76.5128 22.141 75.9255 22.5 75.3409C22.7476 74.9379 23.0413 74.5656 23.381 74.2242C23.7207 73.8828 24.101 73.6137 24.5219 73.4171C24.939 73.2183 25.3942 73.1328 25.8872 73.1605C26.3825 73.1847 26.9079 73.3674 27.4634 73.7086L33.0626 77.1478L31.8984 79.0432L30.7491 78.3373L30.709 78.4027C30.8678 78.6652 30.9819 78.9679 31.0515 79.3107C31.1196 79.6476 31.115 80.0173 31.0377 80.42C30.9591 80.8167 30.7859 81.233 30.5183 81.6687ZM29.3839 80.2668C29.6271 79.871 29.7597 79.48 29.782 79.0936C29.8007 78.7049 29.7273 78.3523 29.5617 78.0356C29.3984 77.7152 29.1624 77.4602 28.8538 77.2707L27.8679 76.6651C27.8809 76.7581 27.8634 76.8924 27.8155 77.068C27.7699 77.24 27.7076 77.4268 27.6288 77.6285C27.55 77.8301 27.4686 78.0277 27.3848 78.2212C27.3009 78.4148 27.2279 78.5825 27.1657 78.7243C27.025 79.043 26.9287 79.3464 26.8767 79.6345C26.8248 79.9227 26.8392 80.1841 26.9201 80.4188C26.9974 80.6513 27.1631 80.8456 27.4172 81.0017C27.7804 81.2248 28.1359 81.2606 28.4839 81.1093C28.8319 80.958 29.1319 80.6772 29.3839 80.2668ZM49.2439 48.158L47.5507 46.1941L46.9784 48.7294L45.4759 48.2968L46.3361 45.8478L43.8592 46.6236L43.4783 45.1072L46.0317 44.6221L44.1271 42.8626L45.2441 41.7833L46.9418 43.7426L47.5142 41.2074L49.0166 41.64L48.1518 44.0934L50.6334 43.3132L51.0143 44.8296L48.4609 45.3147L50.3609 47.0786L49.2439 48.158ZM80.5236 15.8734L81.5108 17.5989L76.2621 20.6016L81.7754 30.239L79.717 31.4165L73.2165 20.0536L80.5236 15.8734ZM90.9588 29.324L85.225 17.1021L87.2851 16.1356L87.9747 17.6055L88.0962 17.5485C88.1029 17.2818 88.1476 16.9807 88.2303 16.6454C88.3112 16.3062 88.4788 15.971 88.733 15.64C88.9854 15.305 89.372 15.0154 89.8928 14.7711C90.5795 14.4489 91.281 14.334 91.9974 14.4262C92.7158 14.5128 93.3973 14.8215 94.0417 15.3523C94.6881 15.8775 95.243 16.6339 95.7064 17.6215C96.1643 18.5975 96.3933 19.5021 96.3935 20.3352C96.3936 21.1682 96.202 21.8936 95.8186 22.5112C95.4353 23.1288 94.8945 23.6014 94.1962 23.929C93.6869 24.1679 93.2247 24.2812 92.8094 24.2689C92.3941 24.2566 92.0281 24.1788 91.7115 24.0356C91.3968 23.8866 91.1329 23.7304 90.9197 23.5668L90.8329 23.6076L93.0536 28.3412L90.9588 29.324ZM89.3643 20.5827C89.634 21.1575 89.9512 21.623 90.316 21.979C90.6846 22.3333 91.0802 22.5595 91.5028 22.6578C91.9275 22.7504 92.3617 22.6926 92.8054 22.4845C93.2683 22.2673 93.5981 21.9619 93.7948 21.5684C93.9896 21.1711 94.0648 20.7192 94.0203 20.2129C93.9778 19.701 93.8262 19.1672 93.5656 18.6117C93.3068 18.06 92.9978 17.6072 92.6388 17.2531C92.2797 16.8991 91.8869 16.6739 91.4604 16.5774C91.0339 16.481 90.5872 16.5423 90.1204 16.7613C89.6729 16.9712 89.3481 17.2672 89.146 17.6491C88.9439 18.031 88.8614 18.4722 88.8984 18.9726C88.9394 19.4711 89.0947 20.0078 89.3643 20.5827ZM102.281 16.8475L103.707 9.22358L105.944 8.4158L109.279 17.6501L107.175 18.4101L104.901 12.1156L103.49 19.7412L101.247 20.5512L97.9117 11.3169L100.01 10.559L102.281 16.8475ZM117.347 1.3L118.513 2.5359C118.301 2.8486 118.039 3.1043 117.726 3.30297C117.413 3.50165 117.03 3.6793 116.578 3.83592C116.129 3.98732 115.591 4.15368 114.965 4.335C114.261 4.54142 113.719 4.83036 113.338 5.2018C112.956 5.57324 112.715 6.04617 112.613 6.62058C112.51 7.19087 112.527 7.87901 112.664 8.685L112.769 8.65684C112.91 7.997 113.207 7.44301 113.66 6.99487C114.113 6.54673 114.7 6.22602 115.42 6.03275C116.207 5.82181 116.948 5.81269 117.643 6.00541C118.342 6.1929 118.95 6.57474 119.466 7.15093C119.987 7.72602 120.374 8.48687 120.628 9.4335C120.89 10.4089 120.934 11.3039 120.76 12.1183C120.584 12.9286 120.211 13.6178 119.64 14.1858C119.073 14.7527 118.328 15.1598 117.406 15.4072C116.489 15.6535 115.637 15.6682 114.85 15.4512C114.067 15.2289 113.385 14.7745 112.804 14.0877C112.225 13.3958 111.781 12.4716 111.47 11.3151L111.242 10.4631C110.643 8.23235 110.612 6.45598 111.149 5.13398C111.685 3.81198 112.768 2.92146 114.396 2.46243C114.88 2.32388 115.313 2.20531 115.697 2.10671C116.085 2.00701 116.418 1.89793 116.695 1.77947C116.972 1.661 117.189 1.50118 117.347 1.3ZM116.938 13.6136C117.395 13.491 117.759 13.2676 118.029 12.9436C118.299 12.6154 118.463 12.2095 118.523 11.7257C118.587 11.2408 118.539 10.7 118.379 10.1032C118.221 9.51466 117.996 9.03889 117.705 8.67591C117.412 8.30881 117.07 8.06092 116.678 7.93225C116.286 7.80357 115.86 7.80108 115.399 7.92477C115.053 8.01754 114.759 8.16266 114.516 8.36013C114.273 8.5576 114.087 8.80164 113.958 9.09226C113.829 9.38289 113.758 9.71281 113.747 10.082C113.736 10.4512 113.786 10.8592 113.897 11.3059C114.137 12.199 114.529 12.8549 115.073 13.2735C115.617 13.6879 116.239 13.8013 116.938 13.6136ZM131.15 6.20236L131.477 8.07252L126.326 8.97161L125.999 7.10145L131.15 6.20236ZM126.025 3.0869L127.714 12.7588L125.516 13.1424L123.828 3.4705L126.025 3.0869ZM131.963 2.05042L133.651 11.7224L131.46 12.1049L129.772 2.43292L131.963 2.05042ZM140.571 11.0512C139.952 11.1072 139.383 11.0474 138.867 10.8716C138.354 10.6912 137.934 10.3955 137.606 9.98443C137.282 9.57302 137.091 9.04689 137.033 8.40604C136.983 7.85432 137.044 7.38887 137.215 7.0097C137.386 6.63053 137.638 6.31679 137.97 6.06848C138.303 5.82017 138.685 5.62087 139.116 5.4706C139.552 5.3157 140.005 5.19129 140.475 5.09736C141.043 4.98612 141.503 4.89103 141.855 4.8121C142.207 4.72892 142.459 4.62911 142.611 4.51266C142.767 4.39159 142.835 4.22071 142.815 4.00002L142.812 3.96182C142.768 3.48225 142.592 3.12375 142.284 2.88635C141.976 2.64894 141.555 2.55442 141.02 2.60279C140.456 2.65385 140.019 2.81743 139.71 3.09353C139.406 3.36925 139.211 3.67993 139.127 4.02557L136.948 3.91464C137.064 3.30512 137.299 2.78323 137.653 2.34897C138.007 1.91047 138.457 1.56595 139.004 1.31542C139.55 1.06065 140.164 0.902359 140.848 0.840549C141.319 0.797935 141.793 0.810685 142.27 0.878799C142.746 0.946914 143.189 1.09082 143.599 1.31053C144.008 1.52599 144.348 1.83961 144.621 2.25139C144.898 2.66278 145.065 3.19315 145.124 3.84248L145.716 10.3868L143.501 10.5872L143.379 9.24395L143.303 9.25086C143.187 9.53515 143.013 9.80764 142.78 10.0683C142.551 10.3244 142.252 10.5419 141.883 10.7207C141.518 10.8949 141.08 11.0051 140.571 11.0512ZM141.016 9.30366C141.479 9.26181 141.872 9.13429 142.195 8.92108C142.517 8.70363 142.756 8.43387 142.911 8.11179C143.07 7.78932 143.133 7.44772 143.101 7.08698L142.997 5.93472C142.93 6.00067 142.812 6.06697 142.642 6.13364C142.477 6.19993 142.29 6.26176 142.081 6.31916C141.873 6.37655 141.666 6.4295 141.46 6.47802C141.255 6.52654 141.077 6.56832 140.926 6.60336C140.587 6.68115 140.286 6.78537 140.024 6.91604C139.762 7.04671 139.561 7.21464 139.421 7.41983C139.281 7.62077 139.224 7.86978 139.251 8.16687C139.29 8.59127 139.474 8.89768 139.803 9.0861C140.132 9.27452 140.537 9.34704 141.016 9.30366ZM155.625 7.27003L157.919 7.33893C157.929 7.70588 158.085 7.99406 158.385 8.20346C158.686 8.41287 159.081 8.52492 159.571 8.53964C160.069 8.55461 160.492 8.45859 160.84 8.2516C161.191 8.04047 161.374 7.71128 161.387 7.26404C161.395 6.99996 161.336 6.76583 161.21 6.56167C161.084 6.35325 160.904 6.19009 160.668 6.07218C160.433 5.95427 160.154 5.89045 159.83 5.88073L158.329 5.83563L158.378 4.19362L159.879 4.23871C160.361 4.25317 160.728 4.15336 160.982 3.93929C161.24 3.72535 161.374 3.45013 161.384 3.11364C161.395 2.75158 161.272 2.45372 161.014 2.22003C160.761 1.98648 160.405 1.86279 159.945 1.84897C159.485 1.83516 159.098 1.928 158.785 2.1275C158.477 2.32713 158.311 2.59074 158.288 2.91833L156.007 2.84982C156.033 2.27932 156.218 1.78821 156.563 1.3765C156.912 0.964924 157.374 0.650508 157.947 0.433255C158.525 0.216129 159.172 0.118313 159.887 0.139806C160.654 0.162835 161.313 0.297734 161.864 0.544503C162.415 0.791273 162.836 1.12578 163.126 1.54803C163.416 1.96602 163.553 2.45188 163.536 3.00561C163.52 3.53804 163.341 3.9739 162.998 4.3132C162.655 4.64823 162.201 4.88185 161.634 5.01404L161.631 5.11627C162.018 5.14921 162.364 5.27044 162.669 5.47998C162.974 5.68525 163.213 5.95888 163.386 6.30088C163.559 6.64288 163.639 7.03537 163.625 7.47835C163.607 8.07893 163.419 8.5934 163.061 9.02176C162.703 9.44586 162.218 9.76596 161.606 9.98207C160.998 10.1983 160.307 10.2948 159.532 10.2715C158.778 10.2488 158.106 10.1157 157.517 9.87203C156.931 9.62423 156.471 9.27999 156.134 8.83929C155.798 8.3986 155.628 7.87551 155.625 7.27003ZM169.941 10.9049C169.323 10.8375 168.777 10.6666 168.306 10.3923C167.839 10.1143 167.485 9.74137 167.245 9.27365C167.008 8.80639 166.925 8.25291 166.995 7.61323C167.055 7.06252 167.206 6.61819 167.449 6.28026C167.691 5.94233 168 5.6845 168.375 5.50676C168.75 5.32902 169.164 5.20908 169.617 5.14693C170.074 5.08102 170.543 5.04849 171.023 5.04935C171.601 5.05236 172.071 5.04994 172.432 5.04212C172.793 5.03005 173.06 4.98195 173.232 4.89782C173.409 4.80992 173.509 4.65582 173.533 4.43553L173.537 4.39741C173.589 3.91871 173.488 3.53257 173.232 3.23899C172.977 2.94542 172.583 2.76955 172.049 2.71139C171.486 2.65 171.025 2.72416 170.668 2.93386C170.315 3.14403 170.063 3.41021 169.912 3.73242L167.798 3.19339C168.032 2.61877 168.365 2.15359 168.799 1.79784C169.232 1.43786 169.742 1.18901 170.327 1.05129C170.912 0.909337 171.546 0.875517 172.228 0.949829C172.698 1.00106 173.16 1.10714 173.614 1.26805C174.068 1.42897 174.474 1.65752 174.832 1.9537C175.19 2.24564 175.462 2.62036 175.648 3.07785C175.839 3.5358 175.898 4.08885 175.828 4.737L175.116 11.2694L172.905 11.0284L173.051 9.68764L172.974 9.67933C172.805 9.93522 172.58 10.1679 172.3 10.3775C172.025 10.5832 171.689 10.7374 171.292 10.8399C170.9 10.9386 170.449 10.9602 169.941 10.9049ZM170.723 9.27965C171.184 9.32996 171.595 9.2825 171.953 9.13727C172.313 8.9878 172.6 8.77048 172.815 8.48531C173.035 8.20061 173.164 7.87821 173.203 7.51813L173.329 6.36797C173.25 6.41944 173.121 6.46112 172.942 6.49303C172.767 6.52541 172.572 6.54912 172.356 6.56417C172.14 6.57921 171.926 6.59026 171.716 6.59729C171.505 6.60433 171.322 6.61013 171.167 6.6147C170.819 6.62391 170.504 6.6667 170.221 6.74307C169.938 6.81943 169.708 6.94439 169.531 7.11795C169.354 7.28727 169.249 7.5202 169.217 7.81674C169.17 8.24037 169.29 8.57705 169.576 8.8268C169.862 9.07655 170.244 9.2275 170.723 9.27965ZM179.2 11.8154L181.084 2.17978L183.355 2.62394L182.594 6.51331L183.423 6.67527L187.081 3.35274L189.817 3.8877L185.322 7.91954L187.97 13.5307L185.222 12.9933L183.291 8.84454L182.181 8.62737L181.471 12.2595L179.2 11.8154ZM191.484 18.1766C191.181 18.0909 190.907 17.9869 190.662 17.8647C190.421 17.7478 190.233 17.6372 190.098 17.5328L191.105 15.944C191.402 16.1299 191.679 16.2566 191.934 16.3243C192.19 16.3921 192.436 16.3752 192.672 16.2738C192.912 16.1777 193.15 15.9703 193.386 15.6518L193.721 15.1951L193.019 4.58195L195.381 5.24912L195.543 12.9998L195.642 13.0276L199.841 6.50874L202.209 7.17764L195.434 16.7018C195.117 17.1523 194.762 17.5149 194.37 17.7894C193.977 18.0681 193.542 18.242 193.067 18.3114C192.594 18.386 192.066 18.3411 191.484 18.1766ZM206.404 19.2284C205.485 18.8857 204.772 18.3898 204.264 17.7408C203.76 17.0932 203.462 16.3478 203.372 15.5045C203.288 14.6588 203.419 13.7708 203.766 12.8406C204.115 11.9063 204.602 11.1489 205.228 10.5684C205.855 9.98383 206.571 9.6141 207.375 9.4592C208.184 9.30179 209.038 9.3907 209.936 9.72592C210.683 10.0045 211.292 10.3888 211.764 10.8789C212.242 11.3664 212.559 11.9237 212.716 12.5509C212.875 13.1741 212.854 13.826 212.655 14.5066L210.583 13.7334C210.665 13.2589 210.603 12.8151 210.398 12.402C210.198 11.9864 209.837 11.681 209.314 11.4858C208.87 11.3204 208.436 11.2949 208.012 11.4093C207.588 11.5197 207.2 11.7615 206.847 12.1346C206.498 12.5092 206.208 13.006 205.977 13.6248C205.743 14.2516 205.634 14.8249 205.649 15.3445C205.666 15.8602 205.795 16.3017 206.035 16.6689C206.281 17.0336 206.63 17.3001 207.081 17.4684C207.4 17.5876 207.708 17.6343 208.004 17.6084C208.306 17.5799 208.586 17.482 208.844 17.3145C209.102 17.147 209.325 16.9095 209.512 16.6019L211.585 17.3752C211.29 18.0066 210.883 18.512 210.364 18.8914C209.846 19.2668 209.249 19.4897 208.572 19.5601C207.897 19.6265 207.174 19.5159 206.404 19.2284ZM213.835 21.9048L218.038 13.0317L220.129 14.0222L218.433 17.6038L219.195 17.965L223.56 15.6475L226.079 16.8405L220.729 19.6393L221.911 25.7301L219.381 24.5316L218.533 20.0349L217.51 19.5506L215.926 22.8953L213.835 21.9048ZM227.022 28.7323C226.483 28.4209 226.053 28.0446 225.733 27.6032C225.418 27.1602 225.245 26.6763 225.213 26.1512C225.186 25.6284 225.333 25.0884 225.655 24.5313C225.933 24.0517 226.25 23.7063 226.609 23.4951C226.967 23.2839 227.354 23.1727 227.769 23.1616C228.184 23.1505 228.611 23.2079 229.05 23.3337C229.495 23.4581 229.937 23.6176 230.375 23.8122C230.903 24.0484 231.334 24.2359 231.667 24.3745C232.003 24.5093 232.266 24.573 232.458 24.5655C232.655 24.5565 232.809 24.456 232.92 24.2642L232.939 24.231C233.18 23.8141 233.243 23.4199 233.128 23.0482C233.013 22.6766 232.723 22.3564 232.258 22.0877C231.768 21.804 231.317 21.686 230.905 21.7336C230.497 21.7834 230.16 21.9252 229.891 22.159L228.175 20.8121C228.621 20.3809 229.114 20.09 229.654 19.9394C230.196 19.7852 230.762 19.7632 231.353 19.8735C231.946 19.9801 232.54 20.205 233.134 20.5484C233.543 20.7852 233.923 21.0688 234.273 21.3993C234.624 21.7299 234.903 22.1028 235.111 22.5183C235.32 22.93 235.418 23.3827 235.403 23.8763C235.392 24.3721 235.224 24.9022 234.897 25.4666L231.609 31.1554L229.683 30.042L230.358 28.8744L230.292 28.836C230.033 29.0017 229.734 29.1239 229.393 29.2025C229.058 29.2796 228.688 29.2849 228.284 29.2184C227.885 29.1503 227.464 28.9883 227.022 28.7323ZM228.393 27.5611C228.795 27.7935 229.189 27.9158 229.576 27.9278C229.965 27.9361 230.316 27.8533 230.628 27.6794C230.944 27.5076 231.192 27.2649 231.374 26.9513L231.953 25.9497C231.86 25.9651 231.726 25.9512 231.549 25.908C231.375 25.867 231.187 25.8097 230.983 25.7363C230.78 25.6629 230.58 25.5868 230.384 25.5081C230.189 25.4294 230.019 25.3609 229.876 25.3026C229.553 25.1704 229.247 25.0822 228.958 25.0379C228.669 24.9936 228.408 25.015 228.175 25.1022C227.945 25.1856 227.755 25.3564 227.606 25.6146C227.392 25.9836 227.366 26.3399 227.527 26.6838C227.687 27.0276 227.976 27.3201 228.393 27.5611ZM256.209 42.1947L258.053 40.3712L255.484 39.9735L255.813 38.445L258.315 39.1358L257.372 36.7176L258.859 36.234L259.517 38.7482L261.143 36.7277L262.296 37.7683L260.457 39.5961L263.026 39.9938L262.697 41.5223L260.19 40.8272L261.138 43.2497L259.651 43.7333L258.993 41.2191L257.363 43.2353L256.209 42.1947ZM286.79 65.4925L285.185 66.6666L281.614 61.7872L272.655 68.3453L271.254 66.4317L281.817 58.6995L286.79 65.4925ZM274.585 77.3619L286.107 70.3273L287.293 72.2695L285.907 73.1155L285.977 73.2301C286.243 73.2076 286.547 73.2191 286.889 73.2647C287.235 73.3081 287.587 73.438 287.943 73.6546C288.304 73.8688 288.634 74.2215 288.934 74.7125C289.329 75.3599 289.52 76.0447 289.507 76.7669C289.499 77.4905 289.267 78.2015 288.809 78.9001C288.358 79.6 287.667 80.2342 286.736 80.8027C285.815 81.3645 284.941 81.6909 284.113 81.7821C283.285 81.8732 282.543 81.762 281.887 81.4484C281.232 81.1348 280.703 80.6489 280.301 79.9906C280.008 79.5105 279.845 79.0633 279.812 78.6492C279.778 78.2351 279.816 77.8628 279.924 77.5324C280.037 77.2033 280.164 76.9239 280.303 76.6941L280.253 76.6122L275.79 79.3368L274.585 77.3619ZM283.099 74.8221C282.557 75.1529 282.129 75.5191 281.815 75.9205C281.503 76.3256 281.322 76.7436 281.27 77.1745C281.225 77.6068 281.329 78.032 281.585 78.4503C281.851 78.8867 282.191 79.1812 282.603 79.3337C283.02 79.484 283.477 79.5093 283.975 79.4098C284.48 79.3116 284.994 79.1026 285.517 78.7829C286.038 78.4654 286.454 78.1088 286.767 77.7132C287.079 77.3176 287.26 76.9025 287.31 76.468C287.359 76.0336 287.249 75.5963 286.98 75.1562C286.723 74.7343 286.393 74.4437 285.992 74.2846C285.59 74.1254 285.142 74.0916 284.649 74.1831C284.158 74.2782 283.641 74.4912 283.099 74.8221ZM288.23 87.2362L295.967 87.7892L297.022 89.9197L288.225 94.2798L287.232 92.2753L293.228 89.3033L285.492 88.7645L284.433 86.6283L293.23 82.2682L294.221 84.267L288.23 87.2362ZM305.376 100.483L304.276 101.778C303.942 101.603 303.659 101.37 303.427 101.081C303.195 100.792 302.976 100.432 302.77 99.9999C302.57 99.5703 302.345 99.0543 302.095 98.4519C301.812 97.7756 301.465 97.2686 301.054 96.9308C300.642 96.5931 300.145 96.4055 299.563 96.368C298.985 96.3289 298.303 96.4221 297.517 96.6474L297.557 96.7486C298.228 96.8152 298.812 97.049 299.307 97.4498C299.803 97.8507 300.187 98.3984 300.458 99.0928C300.755 99.8507 300.846 100.586 300.732 101.299C300.623 102.014 300.311 102.661 299.795 103.238C299.282 103.819 298.568 104.288 297.656 104.645C296.715 105.013 295.831 105.156 295.002 105.073C294.177 104.989 293.451 104.694 292.823 104.19C292.197 103.689 291.71 102.994 291.362 102.105C291.015 101.22 290.906 100.375 291.035 99.5699C291.169 98.7669 291.545 98.0384 292.163 97.3846C292.787 96.7331 293.656 96.1891 294.771 95.7525L295.592 95.4309C297.743 94.5888 299.505 94.3611 300.878 94.7478C302.252 95.1345 303.257 96.1117 303.893 97.6792C304.085 98.1443 304.25 98.5622 304.391 98.9328C304.533 99.3073 304.678 99.6257 304.827 99.8879C304.975 100.15 305.158 100.349 305.376 100.483ZM293.093 101.441C293.265 101.882 293.527 102.219 293.879 102.451C294.235 102.683 294.657 102.801 295.144 102.807C295.633 102.817 296.166 102.709 296.741 102.484C297.308 102.262 297.756 101.986 298.085 101.656C298.417 101.324 298.626 100.957 298.71 100.553C298.794 100.149 298.75 99.7252 298.576 99.2808C298.445 98.9475 298.268 98.6712 298.045 98.4519C297.822 98.2327 297.559 98.0749 297.256 97.9785C296.953 97.8821 296.617 97.8488 296.249 97.8785C295.881 97.9083 295.481 98.0031 295.049 98.163C294.188 98.5001 293.58 98.9626 293.224 99.5503C292.872 100.136 292.828 100.767 293.093 101.441ZM302.044 114.73L300.223 115.265L298.749 110.248L300.57 109.713L302.044 114.73ZM304.562 109.286L295.142 112.054L294.513 109.913L303.933 107.146L304.562 109.286ZM306.261 115.07L296.841 117.837L296.214 115.703L305.634 112.935L306.261 115.07ZM298.282 124.638C298.157 124.029 298.154 123.457 298.271 122.924C298.393 122.395 298.64 121.944 299.012 121.572C299.385 121.205 299.887 120.957 300.517 120.828C301.06 120.717 301.529 120.725 301.925 120.853C302.321 120.981 302.661 121.196 302.945 121.499C303.228 121.802 303.469 122.16 303.666 122.572C303.869 122.987 304.043 123.424 304.188 123.881C304.362 124.433 304.507 124.879 304.625 125.22C304.747 125.561 304.874 125.8 305.007 125.938C305.144 126.08 305.322 126.128 305.539 126.084L305.576 126.076C306.048 125.98 306.385 125.765 306.587 125.433C306.788 125.1 306.835 124.671 306.728 124.145C306.614 123.589 306.403 123.174 306.095 122.898C305.787 122.626 305.456 122.467 305.103 122.422L304.971 120.243C305.59 120.291 306.135 120.467 306.606 120.771C307.081 121.074 307.473 121.483 307.783 121.998C308.097 122.512 308.323 123.105 308.46 123.778C308.555 124.241 308.595 124.713 308.58 125.195C308.565 125.676 308.472 126.133 308.299 126.564C308.13 126.994 307.856 127.368 307.477 127.684C307.099 128.005 306.591 128.231 305.952 128.361L299.514 129.677L299.069 127.498L300.39 127.228L300.375 127.153C300.079 127.07 299.789 126.927 299.504 126.724C299.224 126.524 298.975 126.251 298.756 125.905C298.542 125.561 298.384 125.139 298.282 124.638ZM300.068 124.886C300.161 125.341 300.332 125.717 300.579 126.015C300.831 126.311 301.126 126.519 301.463 126.637C301.801 126.759 302.148 126.784 302.503 126.711L303.636 126.479C303.563 126.42 303.484 126.31 303.399 126.15C303.315 125.993 303.233 125.814 303.153 125.613C303.072 125.412 302.997 125.212 302.926 125.013C302.855 124.815 302.793 124.642 302.742 124.496C302.627 124.168 302.49 123.88 302.331 123.634C302.172 123.388 301.982 123.207 301.763 123.091C301.548 122.974 301.294 122.946 301.002 123.006C300.584 123.091 300.3 123.308 300.149 123.656C299.999 124.004 299.972 124.414 300.068 124.886ZM303.699 139.186L303.881 141.474C303.517 141.524 303.248 141.71 303.072 142.032C302.897 142.354 302.829 142.759 302.868 143.247C302.907 143.744 303.049 144.154 303.292 144.477C303.54 144.803 303.888 144.949 304.334 144.913C304.597 144.892 304.823 144.808 305.013 144.661C305.206 144.513 305.348 144.315 305.44 144.069C305.532 143.822 305.565 143.537 305.539 143.215L305.42 141.717L307.058 141.587L307.176 143.084C307.215 143.564 307.354 143.919 307.594 144.148C307.835 144.381 308.123 144.484 308.459 144.457C308.82 144.429 309.103 144.274 309.307 143.992C309.511 143.715 309.596 143.348 309.559 142.889C309.523 142.43 309.388 142.056 309.156 141.767C308.924 141.482 308.644 141.346 308.315 141.359L308.135 139.084C308.705 139.047 309.213 139.178 309.66 139.476C310.107 139.778 310.47 140.202 310.748 140.749C311.027 141.3 311.195 141.932 311.252 142.645C311.313 143.41 311.25 144.08 311.065 144.654C310.88 145.229 310.593 145.684 310.205 146.018C309.821 146.352 309.353 146.541 308.801 146.585C308.27 146.627 307.817 146.496 307.443 146.192C307.072 145.888 306.79 145.462 306.597 144.913L306.495 144.921C306.505 145.309 306.422 145.666 306.247 145.992C306.076 146.318 305.83 146.586 305.509 146.795C305.188 147.004 304.807 147.126 304.365 147.161C303.766 147.209 303.234 147.078 302.769 146.769C302.308 146.459 301.937 146.012 301.656 145.427C301.375 144.847 301.203 144.17 301.142 143.397C301.082 142.645 301.141 141.963 301.319 141.35C301.502 140.742 301.793 140.246 302.195 139.864C302.596 139.481 303.098 139.255 303.699 139.186ZM301.648 153.813C301.647 153.191 301.757 152.631 301.979 152.132C302.204 151.638 302.536 151.245 302.975 150.955C303.414 150.669 303.955 150.526 304.598 150.526C305.152 150.525 305.61 150.627 305.973 150.831C306.335 151.036 306.625 151.315 306.843 151.668C307.06 152.022 307.225 152.42 307.336 152.863C307.451 153.31 307.535 153.773 307.586 154.25C307.646 154.825 307.7 155.292 307.747 155.65C307.798 156.008 307.875 156.268 307.978 156.429C308.084 156.595 308.248 156.678 308.47 156.678L308.508 156.678C308.99 156.678 309.363 156.535 309.627 156.249C309.891 155.963 310.022 155.552 310.022 155.015C310.022 154.448 309.898 153.999 309.65 153.667C309.403 153.339 309.111 153.117 308.774 153.003L309.079 150.842C309.676 151.012 310.175 151.293 310.576 151.685C310.981 152.076 311.284 152.555 311.484 153.122C311.689 153.689 311.792 154.315 311.793 155.001C311.793 155.474 311.738 155.945 311.628 156.414C311.517 156.883 311.334 157.311 311.079 157.699C310.828 158.087 310.485 158.398 310.05 158.633C309.616 158.872 309.073 158.992 308.421 158.992L301.85 158.997L301.848 156.773L303.197 156.772L303.197 156.695C302.924 156.555 302.668 156.357 302.429 156.101C302.195 155.85 302.005 155.533 301.86 155.149C301.719 154.77 301.648 154.325 301.648 153.813ZM303.348 154.413C303.349 154.878 303.441 155.28 303.624 155.621C303.812 155.962 304.059 156.224 304.366 156.407C304.673 156.594 305.008 156.687 305.37 156.687L306.527 156.686C306.467 156.614 306.412 156.49 306.36 156.316C306.309 156.145 306.264 155.953 306.226 155.74C306.187 155.527 306.153 155.316 306.123 155.108C306.093 154.899 306.067 154.718 306.046 154.564C305.999 154.219 305.922 153.91 305.815 153.638C305.708 153.365 305.559 153.15 305.367 152.992C305.179 152.835 304.937 152.756 304.638 152.757C304.212 152.757 303.89 152.913 303.673 153.224C303.456 153.535 303.348 153.932 303.348 154.413ZM301.756 163.116L311.542 163.908L311.355 166.215L307.405 165.895L307.337 166.736L311.049 169.999L310.824 172.777L306.314 168.763L301.035 172.023L301.261 169.233L305.167 166.849L305.258 165.721L301.569 165.423L301.756 163.116ZM296.812 176.036C296.863 175.725 296.936 175.441 297.03 175.184C297.119 174.931 297.208 174.732 297.297 174.587L298.988 175.409C298.837 175.726 298.742 176.014 298.703 176.276C298.664 176.537 298.709 176.78 298.836 177.004C298.958 177.231 299.191 177.444 299.534 177.643L300.025 177.925L310.493 176.038L310.095 178.46L302.411 179.49L302.394 179.591L309.343 183.033L308.943 185.462L298.72 179.796C298.237 179.531 297.837 179.219 297.52 178.86C297.199 178.501 296.978 178.089 296.855 177.624C296.728 177.162 296.714 176.633 296.812 176.036ZM297.43 190.977C297.669 190.027 298.083 189.263 298.672 188.686C299.26 188.114 299.968 187.736 300.796 187.553C301.627 187.376 302.524 187.408 303.487 187.651C304.454 187.894 305.261 188.295 305.907 188.853C306.557 189.412 307.004 190.082 307.246 190.864C307.492 191.651 307.498 192.509 307.264 193.439C307.069 194.212 306.755 194.86 306.32 195.383C305.888 195.912 305.369 196.289 304.763 196.514C304.161 196.741 303.511 196.792 302.813 196.669L303.352 194.524C303.833 194.553 304.267 194.443 304.655 194.193C305.046 193.949 305.31 193.556 305.446 193.015C305.562 192.556 305.539 192.122 305.378 191.712C305.222 191.304 304.939 190.945 304.529 190.635C304.118 190.329 303.592 190.096 302.952 189.935C302.303 189.772 301.721 189.726 301.206 189.799C300.696 189.872 300.271 190.049 299.933 190.329C299.597 190.613 299.371 190.989 299.253 191.456C299.17 191.787 299.158 192.098 299.216 192.389C299.278 192.686 299.406 192.953 299.601 193.191C299.796 193.43 300.057 193.625 300.383 193.777L299.843 195.922C299.183 195.699 298.636 195.35 298.202 194.876C297.771 194.403 297.484 193.834 297.339 193.169C297.199 192.506 297.229 191.775 297.43 190.977ZM295.593 198.66L304.884 201.833L304.136 204.023L300.386 202.742L300.113 203.54L302.909 207.616L302.008 210.253L298.623 205.253L292.704 207.116L293.609 204.466L297.981 203.116L298.347 202.046L294.845 200.849L295.593 198.66ZM290.291 212.529C290.541 211.959 290.868 211.491 291.271 211.123C291.676 210.761 292.138 210.535 292.656 210.446C293.173 210.36 293.726 210.447 294.315 210.705C294.822 210.928 295.201 211.205 295.451 211.538C295.7 211.87 295.854 212.242 295.911 212.654C295.968 213.065 295.958 213.496 295.882 213.946C295.808 214.402 295.698 214.859 295.553 215.316C295.377 215.867 295.239 216.316 295.138 216.663C295.041 217.011 295.007 217.28 295.036 217.469C295.067 217.664 295.184 217.806 295.387 217.895L295.422 217.911C295.863 218.104 296.262 218.123 296.618 217.967C296.975 217.812 297.261 217.488 297.476 216.996C297.704 216.477 297.771 216.016 297.678 215.612C297.583 215.213 297.405 214.892 297.143 214.652L298.291 212.796C298.769 213.192 299.113 213.649 299.322 214.169C299.536 214.691 299.62 215.251 299.576 215.851C299.536 216.452 299.379 217.067 299.103 217.695C298.913 218.129 298.674 218.538 298.384 218.922C298.094 219.307 297.755 219.626 297.365 219.879C296.979 220.133 296.54 220.28 296.048 220.32C295.554 220.365 295.008 220.256 294.411 219.994L288.393 217.357L289.285 215.32L290.521 215.861L290.551 215.791C290.358 215.552 290.203 215.268 290.087 214.938C289.974 214.614 289.927 214.247 289.949 213.838C289.972 213.434 290.086 212.998 290.291 212.529ZM291.608 213.762C291.421 214.187 291.344 214.593 291.375 214.979C291.41 215.366 291.531 215.706 291.738 215.997C291.944 216.291 292.213 216.512 292.545 216.657L293.604 217.121C293.579 217.031 293.578 216.896 293.601 216.715C293.622 216.538 293.658 216.345 293.709 216.134C293.759 215.924 293.813 215.717 293.869 215.514C293.925 215.31 293.975 215.134 294.017 214.985C294.112 214.65 294.166 214.336 294.178 214.044C294.19 213.751 294.14 213.494 294.027 213.273C293.919 213.053 293.728 212.884 293.455 212.764C293.064 212.593 292.707 212.606 292.383 212.804C292.06 213.002 291.801 213.321 291.608 213.762ZM276.3 248.272L278.245 249.987L278.466 247.397L280.013 247.621L279.495 250.164L281.843 249.058L282.427 250.508L279.964 251.337L282.091 252.821L281.131 254.042L279.182 252.333L278.961 254.922L277.414 254.699L277.936 252.15L275.584 253.261L275 251.811L277.463 250.982L275.34 249.494L276.3 248.272Z" fill="#1D1D1D"/>
</svg>
