<svg width="319" height="313" viewBox="0 0 319 313" fill="none" xmlns="http://www.w3.org/2000/svg">
<path d="M231.524 282.493C232.325 282.04 233.114 281.774 233.893 281.696C234.667 281.62 235.373 281.725 236.01 282.012C236.647 282.298 237.158 282.755 237.543 283.384L235.451 284.568C235.258 284.27 235.004 284.059 234.689 283.934C234.375 283.813 234.029 283.776 233.65 283.824C233.271 283.872 232.89 284.004 232.508 284.22C232.1 284.451 231.778 284.726 231.543 285.046C231.309 285.369 231.176 285.708 231.143 286.065C231.11 286.422 231.189 286.766 231.382 287.098C231.573 287.445 231.834 287.698 232.165 287.859C232.496 288.019 232.876 288.076 233.304 288.029C233.73 287.985 234.183 287.826 234.665 287.553L235.672 286.984L236.573 288.575L235.566 289.144C235.169 289.369 234.861 289.634 234.642 289.939C234.419 290.246 234.292 290.572 234.262 290.917C234.235 291.266 234.316 291.604 234.506 291.932C234.685 292.257 234.916 292.496 235.199 292.65C235.48 292.809 235.791 292.88 236.134 292.862C236.473 292.847 236.82 292.738 237.176 292.537C237.525 292.339 237.812 292.094 238.037 291.8C238.263 291.506 238.4 291.191 238.45 290.854C238.501 290.521 238.443 290.192 238.273 289.867L240.259 288.743C240.605 289.39 240.739 290.054 240.659 290.735C240.578 291.423 240.317 292.069 239.877 292.676C239.439 293.286 238.851 293.8 238.113 294.218C237.352 294.648 236.611 294.878 235.89 294.91C235.166 294.947 234.516 294.813 233.937 294.509C233.359 294.205 232.906 293.763 232.578 293.185C232.212 292.545 232.096 291.9 232.233 291.25C232.366 290.602 232.702 290.037 233.242 289.555L233.192 289.466C232.328 289.808 231.546 289.859 230.847 289.618C230.146 289.383 229.596 288.908 229.197 288.194C228.836 287.556 228.694 286.882 228.773 286.172C228.849 285.468 229.124 284.794 229.596 284.149C230.065 283.507 230.708 282.955 231.524 282.493ZM221.21 287.899C221.776 287.642 222.332 287.511 222.878 287.507C223.421 287.508 223.916 287.649 224.361 287.929C224.802 288.21 225.156 288.644 225.422 289.23C225.651 289.734 225.748 290.194 225.711 290.608C225.675 291.022 225.54 291.402 225.308 291.746C225.076 292.09 224.781 292.404 224.423 292.688C224.064 292.978 223.677 293.245 223.263 293.489C222.764 293.781 222.361 294.022 222.055 294.213C221.75 294.407 221.545 294.585 221.44 294.745C221.333 294.911 221.325 295.094 221.417 295.296L221.432 295.331C221.632 295.769 221.916 296.05 222.285 296.172C222.654 296.295 223.083 296.245 223.572 296.023C224.088 295.789 224.446 295.49 224.647 295.128C224.843 294.767 224.924 294.41 224.89 294.056L226.984 293.442C227.075 294.055 227.026 294.626 226.834 295.152C226.645 295.683 226.333 296.157 225.9 296.574C225.469 296.994 224.94 297.346 224.316 297.63C223.885 297.826 223.433 297.97 222.961 298.063C222.488 298.156 222.022 298.166 221.564 298.093C221.107 298.025 220.682 297.841 220.288 297.542C219.891 297.245 219.558 296.8 219.289 296.206L216.572 290.223L218.597 289.303L219.155 290.531L219.224 290.5C219.24 290.193 219.314 289.879 219.449 289.556C219.581 289.238 219.791 288.934 220.081 288.644C220.368 288.359 220.744 288.111 221.21 287.899ZM221.366 289.696C220.943 289.888 220.614 290.138 220.379 290.446C220.146 290.757 220.01 291.091 219.97 291.446C219.926 291.803 219.979 292.146 220.129 292.476L220.607 293.529C220.649 293.445 220.738 293.344 220.876 293.225C221.01 293.108 221.166 292.988 221.344 292.865C221.523 292.742 221.701 292.623 221.878 292.51C222.056 292.396 222.21 292.298 222.341 292.215C222.636 292.03 222.886 291.832 223.09 291.623C223.294 291.413 223.429 291.188 223.493 290.948C223.559 290.712 223.53 290.459 223.407 290.187C223.231 289.799 222.956 289.57 222.583 289.501C222.21 289.432 221.804 289.497 221.366 289.696ZM212.781 291.837L216.088 301.081L213.909 301.861L212.574 298.129L211.78 298.413L210.334 303.14L207.71 304.078L209.511 298.315L204.367 294.847L207.003 293.904L210.784 296.482L211.849 296.101L210.602 292.616L212.781 291.837ZM198.977 292.644C199.282 292.563 199.571 292.513 199.843 292.494C200.111 292.471 200.329 292.471 200.497 292.492L200.441 294.372C200.09 294.363 199.788 294.395 199.534 294.467C199.279 294.539 199.076 294.679 198.924 294.887C198.767 295.092 198.668 295.391 198.627 295.786L198.571 296.349L204.583 305.124L202.211 305.753L198.122 299.167L198.023 299.193L197.731 306.942L195.353 307.573L196.33 295.926C196.373 295.376 196.494 294.883 196.691 294.447C196.888 294.007 197.173 293.636 197.547 293.334C197.915 293.029 198.392 292.799 198.977 292.644ZM185.603 299.34C186.568 299.167 187.434 299.23 188.202 299.53C188.966 299.83 189.601 300.32 190.108 301C190.612 301.685 190.951 302.516 191.126 303.493C191.302 304.475 191.269 305.375 191.026 306.193C190.783 307.016 190.356 307.699 189.743 308.241C189.127 308.789 188.347 309.147 187.403 309.316C186.619 309.457 185.898 309.436 185.243 309.255C184.583 309.079 184.026 308.761 183.572 308.301C183.118 307.846 182.803 307.274 182.628 306.587L184.805 306.197C184.977 306.647 185.256 306.997 185.643 307.248C186.026 307.504 186.493 307.583 187.042 307.485C187.508 307.401 187.894 307.202 188.202 306.887C188.51 306.577 188.721 306.171 188.834 305.67C188.944 305.17 188.94 304.595 188.824 303.945C188.706 303.286 188.508 302.737 188.23 302.298C187.953 301.862 187.618 301.548 187.224 301.355C186.826 301.166 186.391 301.114 185.917 301.199C185.581 301.259 185.292 301.376 185.051 301.549C184.805 301.727 184.614 301.954 184.478 302.23C184.341 302.505 184.27 302.823 184.265 303.183L182.088 303.573C182.02 302.88 182.113 302.238 182.367 301.647C182.621 301.06 183.021 300.564 183.568 300.159C184.115 299.758 184.793 299.485 185.603 299.34ZM177.845 300.825L178.775 310.599L176.472 310.818L176.096 306.873L175.256 306.953L172.692 311.178L169.918 311.442L173.082 306.299L168.949 301.671L171.737 301.406L174.766 304.835L175.892 304.728L175.542 301.044L177.845 300.825ZM163.022 301.705C163.644 301.697 164.206 301.801 164.707 302.016C165.205 302.236 165.601 302.564 165.896 302.999C166.187 303.434 166.336 303.973 166.344 304.617C166.351 305.171 166.255 305.63 166.055 305.995C165.855 306.36 165.579 306.653 165.228 306.875C164.877 307.096 164.481 307.265 164.039 307.382C163.593 307.502 163.132 307.591 162.655 307.648C162.081 307.715 161.615 307.774 161.258 307.826C160.9 307.881 160.641 307.961 160.481 308.065C160.316 308.174 160.235 308.339 160.238 308.561L160.238 308.599C160.244 309.08 160.392 309.452 160.68 309.712C160.969 309.973 161.382 310.1 161.919 310.093C162.486 310.086 162.934 309.957 163.263 309.705C163.588 309.454 163.806 309.16 163.917 308.822L166.081 309.101C165.918 309.7 165.643 310.202 165.256 310.608C164.869 311.017 164.393 311.326 163.829 311.533C163.265 311.745 162.64 311.855 161.954 311.863C161.481 311.869 161.009 311.82 160.539 311.715C160.069 311.61 159.638 311.432 159.248 311.181C158.857 310.935 158.541 310.595 158.302 310.164C158.057 309.732 157.931 309.19 157.923 308.538L157.841 301.968L160.065 301.94L160.082 303.289L160.159 303.288C160.296 303.013 160.491 302.755 160.744 302.513C160.992 302.276 161.307 302.082 161.689 301.933C162.067 301.787 162.511 301.711 163.022 301.705ZM162.443 303.413C161.978 303.418 161.577 303.515 161.238 303.703C160.9 303.894 160.641 304.145 160.461 304.454C160.278 304.763 160.188 305.099 160.193 305.461L160.207 306.618C160.279 306.557 160.402 306.5 160.576 306.447C160.745 306.394 160.937 306.346 161.149 306.305C161.362 306.264 161.572 306.228 161.781 306.195C161.989 306.163 162.17 306.135 162.323 306.112C162.668 306.061 162.976 305.98 163.247 305.87C163.518 305.76 163.732 305.608 163.887 305.415C164.042 305.225 164.118 304.981 164.114 304.683C164.109 304.257 163.949 303.937 163.636 303.724C163.322 303.51 162.924 303.407 162.443 303.413ZM147.718 304.297L145.436 304.049C145.455 303.682 145.322 303.383 145.039 303.151C144.756 302.918 144.37 302.776 143.883 302.723C143.388 302.669 142.959 302.731 142.596 302.91C142.229 303.093 142.021 303.407 141.973 303.852C141.944 304.115 141.985 304.353 142.094 304.566C142.204 304.784 142.371 304.961 142.596 305.096C142.821 305.232 143.095 305.318 143.417 305.353L144.91 305.516L144.732 307.149L143.239 306.986C142.76 306.934 142.386 307.005 142.117 307.198C141.843 307.391 141.687 307.655 141.651 307.99C141.612 308.35 141.711 308.657 141.95 308.91C142.183 309.162 142.529 309.314 142.987 309.363C143.444 309.413 143.837 309.351 144.164 309.177C144.488 309.002 144.674 308.752 144.722 308.427L146.99 308.674C146.92 309.241 146.697 309.716 146.321 310.099C145.941 310.482 145.456 310.76 144.867 310.931C144.274 311.102 143.622 311.149 142.91 311.072C142.148 310.989 141.501 310.803 140.971 310.514C140.441 310.224 140.048 309.858 139.792 309.414C139.536 308.975 139.437 308.48 139.497 307.929C139.555 307.399 139.768 306.979 140.136 306.668C140.504 306.36 140.975 306.163 141.551 306.076L141.562 305.974C141.179 305.911 140.843 305.763 140.556 305.53C140.268 305.302 140.051 305.01 139.905 304.656C139.759 304.301 139.71 303.904 139.758 303.463C139.823 302.866 140.051 302.368 140.442 301.969C140.832 301.574 141.341 301.293 141.967 301.125C142.59 300.957 143.287 300.915 144.058 300.999C144.808 301.081 145.467 301.266 146.036 301.555C146.6 301.848 147.032 302.227 147.333 302.693C147.634 303.159 147.762 303.693 147.718 304.297ZM119.553 310.447L119.113 308.806C119.448 308.631 119.8 308.53 120.17 308.504C120.539 308.477 120.96 308.503 121.433 308.579C121.9 308.659 122.452 308.768 123.09 308.905C123.807 309.057 124.421 309.06 124.933 308.914C125.445 308.768 125.882 308.467 126.244 308.009C126.605 307.556 126.917 306.942 127.179 306.168L127.073 306.143C126.636 306.657 126.112 307.004 125.5 307.183C124.889 307.362 124.22 307.366 123.494 307.195C122.702 307.007 122.045 306.664 121.524 306.164C120.998 305.667 120.644 305.043 120.463 304.291C120.278 303.537 120.298 302.684 120.523 301.73C120.756 300.747 121.142 299.939 121.682 299.304C122.22 298.674 122.876 298.245 123.648 298.016C124.416 297.786 125.265 297.781 126.194 298C127.119 298.219 127.875 298.61 128.465 299.174C129.049 299.742 129.434 300.465 129.62 301.346C129.8 302.229 129.753 303.254 129.477 304.419L129.274 305.277C128.743 307.525 127.927 309.103 126.828 310.013C125.728 310.922 124.353 311.192 122.702 310.823C122.21 310.716 121.772 310.615 121.388 310.519C120.999 310.423 120.654 310.361 120.354 310.334C120.054 310.307 119.787 310.344 119.553 310.447ZM125.755 299.801C125.294 299.692 124.868 299.716 124.477 299.873C124.084 300.034 123.746 300.314 123.464 300.711C123.178 301.108 122.963 301.606 122.821 302.208C122.681 302.801 122.653 303.326 122.737 303.784C122.821 304.246 123.004 304.627 123.288 304.926C123.572 305.225 123.946 305.43 124.411 305.539C124.759 305.622 125.087 305.634 125.394 305.575C125.702 305.516 125.981 305.39 126.233 305.195C126.485 305.001 126.703 304.744 126.888 304.424C127.073 304.104 127.223 303.722 127.337 303.276C127.55 302.376 127.516 301.612 127.235 300.985C126.953 300.363 126.46 299.968 125.755 299.801ZM113.978 294.61C114.888 294.913 115.609 295.376 116.143 295.999C116.677 296.621 117.008 297.353 117.136 298.196C117.26 299.037 117.161 299.938 116.841 300.9C116.52 301.862 116.057 302.645 115.452 303.247C114.843 303.848 114.138 304.238 113.338 304.416C112.538 304.593 111.683 304.531 110.773 304.228C109.863 303.925 109.142 303.462 108.608 302.839C108.074 302.217 107.746 301.483 107.623 300.638C107.497 299.792 107.594 298.888 107.914 297.925C108.235 296.963 108.699 296.184 109.307 295.587C109.911 294.988 110.613 294.6 111.413 294.422C112.213 294.244 113.069 294.307 113.978 294.61ZM113.38 296.365C112.887 296.2 112.429 296.198 112.007 296.359C111.584 296.523 111.215 296.809 110.9 297.216C110.58 297.621 110.326 298.107 110.138 298.673C109.948 299.243 109.859 299.786 109.871 300.302C109.878 300.821 110.001 301.273 110.241 301.659C110.481 302.044 110.848 302.319 111.341 302.483C111.846 302.652 112.312 302.654 112.74 302.491C113.163 302.327 113.535 302.04 113.855 301.63C114.171 301.223 114.423 300.735 114.613 300.165C114.802 299.599 114.892 299.058 114.884 298.543C114.872 298.027 114.746 297.577 114.506 297.191C114.261 296.809 113.885 296.533 113.38 296.365ZM105.923 292.022L102.048 301.044L98.2598 299.416C97.1909 298.957 96.4388 298.381 96.0035 297.689C95.5643 296.995 95.5086 296.266 95.8366 295.502C96.0536 294.997 96.4072 294.66 96.8975 294.49C97.3822 294.323 97.9496 294.314 98.5996 294.463C98.1427 294.22 97.779 293.923 97.5084 293.57C97.234 293.216 97.0648 292.832 97.0007 292.42C96.9367 292.007 96.9956 291.59 97.1772 291.167C97.3908 290.669 97.7078 290.293 98.1282 290.038C98.5431 289.785 99.0428 289.663 99.6276 289.673C100.207 289.685 100.849 289.843 101.553 290.146L105.923 292.022ZM103.213 292.841L100.834 291.819C100.443 291.651 100.096 291.611 99.7937 291.699C99.4898 291.791 99.2689 291.998 99.131 292.319C98.9712 292.691 98.9575 293.031 99.0899 293.338C99.2206 293.649 99.4817 293.889 99.8732 294.057L102.252 295.079L103.213 292.841ZM101.662 296.453L99.8232 295.663C99.5335 295.539 99.2672 295.473 99.0244 295.466C98.7798 295.463 98.57 295.515 98.3947 295.62C98.2178 295.73 98.0831 295.892 97.9906 296.108C97.8578 296.417 97.8807 296.714 98.0596 297C98.2345 297.284 98.5451 297.521 98.9914 297.713L100.789 298.485L101.662 296.453ZM92.4688 285.659C93.0177 285.952 93.4598 286.313 93.7952 286.744C94.1249 287.176 94.3142 287.654 94.3631 288.177C94.4082 288.699 94.2792 289.244 93.9761 289.811C93.7152 290.3 93.4092 290.656 93.0581 290.879C92.7071 291.102 92.3244 291.226 91.91 291.251C91.4957 291.277 91.0669 291.234 90.6238 291.123C90.1749 291.013 89.7279 290.869 89.2828 290.689C88.7472 290.471 88.3105 290.298 87.9727 290.171C87.6328 290.047 87.3674 289.993 87.1764 290.006C86.9796 290.022 86.829 290.128 86.7246 290.323L86.7066 290.357C86.4798 290.782 86.4301 291.178 86.5575 291.546C86.6849 291.913 86.9854 292.223 87.4591 292.476C87.959 292.743 88.4138 292.846 88.8234 292.784C89.2293 292.721 89.5623 292.568 89.8223 292.325L91.5836 293.613C91.1523 294.059 90.6693 294.367 90.1348 294.535C89.5983 294.708 89.0329 294.749 88.4386 294.659C87.8423 294.572 87.2416 294.367 86.6364 294.044C86.2191 293.821 85.8298 293.551 85.4685 293.232C85.1072 292.914 84.8157 292.55 84.5941 292.142C84.3704 291.738 84.2576 291.288 84.2556 290.795C84.2498 290.299 84.4005 289.763 84.7076 289.188L87.8026 283.392L89.7649 284.439L89.1296 285.629L89.1972 285.665C89.4498 285.491 89.745 285.359 90.0829 285.269C90.4151 285.18 90.7845 285.163 91.191 285.215C91.5918 285.27 92.0178 285.418 92.4688 285.659ZM91.138 286.876C90.7282 286.657 90.3298 286.548 89.9428 286.549C89.5538 286.554 89.2062 286.648 88.9 286.833C88.5901 287.015 88.3498 287.266 88.1792 287.585L87.6343 288.606C87.7263 288.588 87.8614 288.597 88.0396 288.634C88.214 288.669 88.4043 288.72 88.6103 288.787C88.8163 288.853 89.0184 288.922 89.2167 288.994C89.4149 289.067 89.5867 289.129 89.7321 289.183C90.0587 289.304 90.3673 289.382 90.6581 289.416C90.9488 289.451 91.2089 289.421 91.4383 289.326C91.6657 289.235 91.8497 289.057 91.9902 288.794C92.1909 288.418 92.2052 288.061 92.0332 287.723C91.8611 287.385 91.5627 287.102 91.138 286.876ZM86.221 278.274L78.8732 289.599L76.9643 288.361L77.8479 286.999L77.7353 286.926C77.5053 287.061 77.2261 287.182 76.8977 287.289C76.5669 287.399 76.1939 287.434 75.7785 287.393C75.3608 287.356 74.9106 287.181 74.428 286.868C73.7917 286.455 73.3234 285.92 73.0233 285.263C72.7173 284.607 72.6194 283.865 72.7296 283.038C72.8339 282.211 73.183 281.341 73.7768 280.426C74.3636 279.521 75.0106 278.849 75.7178 278.409C76.4251 277.968 77.1421 277.748 77.8691 277.747C78.596 277.746 79.2829 277.956 79.93 278.375C80.4019 278.682 80.7423 279.014 80.9513 279.373C81.1602 279.732 81.2875 280.084 81.3332 280.429C81.373 280.775 81.3798 281.081 81.3535 281.349L81.434 281.401L84.2799 277.015L86.221 278.274ZM79.6415 284.246C79.9871 283.713 80.2147 283.198 80.3244 282.7C80.4304 282.2 80.4135 281.745 80.2736 281.334C80.1279 280.924 79.8494 280.586 79.4383 280.319C79.0093 280.041 78.5758 279.922 78.1378 279.963C77.6975 280.008 77.2742 280.183 76.8678 280.488C76.4556 280.795 76.0825 281.205 75.7485 281.72C75.4168 282.231 75.1955 282.733 75.0847 283.225C74.9738 283.717 74.9901 284.169 75.1335 284.582C75.277 284.995 75.565 285.342 75.9975 285.623C76.4122 285.892 76.8351 286.011 77.2661 285.981C77.6972 285.951 78.1153 285.788 78.5206 285.492C78.9223 285.194 79.2959 284.779 79.6415 284.246ZM70.0751 271.392C70.8478 271.995 71.3789 272.682 71.6684 273.454C71.9545 274.224 72.0137 275.024 71.8461 275.855C71.6724 276.687 71.2801 277.495 70.6693 278.277C70.0558 279.063 69.3632 279.639 68.5916 280.005C67.8173 280.373 67.0236 280.511 66.2105 280.417C65.3914 280.323 64.6039 279.982 63.848 279.392C63.2198 278.902 62.7543 278.352 62.4514 277.742C62.1426 277.134 62.0076 276.507 62.0464 275.861C62.0826 275.219 62.2981 274.604 62.693 274.015L64.4366 275.375C64.2161 275.803 64.1416 276.245 64.2129 276.701C64.2783 277.157 64.5311 277.557 64.9712 277.901C65.3441 278.192 65.7503 278.347 66.1898 278.365C66.6266 278.387 67.0695 278.273 67.5184 278.024C67.964 277.771 68.3899 277.385 68.7963 276.864C69.2079 276.337 69.4846 275.823 69.6263 275.323C69.7654 274.826 69.7755 274.366 69.6566 273.944C69.5317 273.522 69.2795 273.163 68.8999 272.867C68.6311 272.657 68.3516 272.52 68.0613 272.455C67.765 272.392 67.4686 272.401 67.1721 272.483C66.8756 272.565 66.5917 272.725 66.3203 272.962L64.5768 271.601C65.0478 271.087 65.5879 270.728 66.1971 270.522C66.8036 270.32 67.4402 270.287 68.1067 270.423C68.7706 270.563 69.4268 270.886 70.0751 271.392ZM58.1515 270.416L56.022 268.454C55.1006 267.605 54.5941 266.724 54.5025 265.811C54.4109 264.898 54.6984 264.076 55.3652 263.347C55.8043 262.876 56.3072 262.563 56.8738 262.407C57.4373 262.248 58.032 262.263 58.658 262.452C59.2779 262.641 59.895 263.018 60.5092 263.584L63.7904 266.607L57.1376 273.828L55.497 272.316L60.8634 266.492L59.2228 264.98C58.853 264.639 58.4624 264.453 58.051 264.422C57.6367 264.394 57.2924 264.528 57.018 264.826C56.7293 265.139 56.613 265.505 56.6693 265.921C56.7256 266.338 56.9386 266.717 57.3084 267.058L59.4379 269.02L58.1515 270.416ZM54.8999 258.28L47.6658 264.918L46.1013 263.213L49.0213 260.534L48.4509 259.912L43.5342 260.416L41.65 258.362L47.6601 257.784L48.8582 251.696L50.7511 253.759L49.8436 258.244L50.6085 259.078L53.3354 256.575L54.8999 258.28ZM42.9899 249.497L35.297 250.486L33.8404 248.606L41.6008 242.592L42.9713 244.36L37.6815 248.46L45.3715 247.457L46.8321 249.342L39.0717 255.356L37.7051 253.593L42.9899 249.497ZM33.8516 235.881L26.2675 237.213L25.2729 235.633L35.6961 233.76L36.5579 235.128L30.3176 243.644L29.3332 242.08L33.8516 235.881ZM29.6432 242.573L37.9511 237.341L39.1399 239.228L30.832 244.46L29.6432 242.573ZM34.2553 231.472L25.9473 236.704L24.7688 234.833L33.0767 229.601L34.2553 231.472ZM27.1768 225.469L19.4373 224.962L18.3685 222.838L27.139 218.425L28.1446 220.424L22.1662 223.432L29.9057 223.924L30.9774 226.054L22.2069 230.467L21.2042 228.474L27.1768 225.469ZM22.9623 208.87L13.7017 212.132L12.933 209.949L16.671 208.633L16.3907 207.837L11.6716 206.368L10.7457 203.739L16.4999 205.569L19.9935 200.441L20.9237 203.082L18.3269 206.85L18.7027 207.917L22.1935 206.687L22.9623 208.87ZM18.3005 193.668C18.5415 194.596 18.5462 195.453 18.3145 196.24C18.0829 197.026 17.6488 197.703 17.0121 198.269C16.3743 198.831 15.5646 199.239 14.5829 199.494C13.6013 199.749 12.6931 199.786 11.8584 199.607C11.0226 199.423 10.3122 199.044 9.72718 198.47C9.14213 197.895 8.72911 197.144 8.48813 196.216C8.24714 195.288 8.24246 194.431 8.47407 193.644C8.70568 192.857 9.14244 192.183 9.78435 191.62C10.4252 191.053 11.2364 190.642 12.2181 190.387C13.1997 190.132 14.1064 190.097 14.938 190.281C15.7686 190.462 16.4764 190.84 17.0614 191.414C17.6465 191.989 18.0595 192.74 18.3005 193.668ZM16.5031 194.121C16.3724 193.618 16.125 193.233 15.7608 192.967C15.3925 192.702 14.9519 192.547 14.4388 192.505C13.9247 192.458 13.3789 192.509 12.8015 192.659C12.2199 192.81 11.716 193.031 11.2897 193.322C10.8582 193.61 10.5462 193.96 10.3535 194.371C10.1609 194.782 10.1299 195.239 10.2605 195.742C10.3944 196.258 10.646 196.651 11.0154 196.92C11.3837 197.185 11.827 197.341 12.3452 197.387C12.8583 197.43 13.4056 197.376 13.9871 197.225C14.5646 197.075 15.067 196.856 15.4943 196.569C15.9206 196.278 16.2301 195.927 16.4227 195.516C16.6102 195.102 16.637 194.637 16.5031 194.121ZM16.0856 185.503L6.40841 187.161L5.71215 183.097C5.51569 181.95 5.58952 181.006 5.93363 180.264C6.27702 179.518 6.85824 179.074 7.67727 178.934C8.21909 178.841 8.69459 178.954 9.10377 179.273C9.50803 179.589 9.82438 180.06 10.0528 180.687C10.0077 180.171 10.0596 179.704 10.2083 179.285C10.3563 178.862 10.5859 178.511 10.8971 178.233C11.2083 177.955 11.5907 177.777 12.0443 177.699C12.5777 177.608 13.0659 177.669 13.509 177.883C13.9471 178.093 14.321 178.446 14.6308 178.942C14.9357 179.435 15.1529 180.059 15.2825 180.815L16.0856 185.503ZM13.9241 183.674L13.4869 181.123C13.4149 180.703 13.2597 180.39 13.0213 180.184C12.7787 179.98 12.4851 179.907 12.1407 179.966C11.7417 180.034 11.4493 180.207 11.2635 180.486C11.0735 180.765 11.0145 181.114 11.0865 181.534L11.5237 184.086L13.9241 183.674ZM10.0494 184.338L9.71155 182.366C9.65829 182.056 9.5685 181.796 9.44215 181.589C9.31161 181.382 9.15436 181.234 8.9704 181.144C8.78224 181.056 8.57266 181.031 8.34165 181.071C8.00984 181.127 7.77282 181.309 7.63059 181.614C7.48764 181.915 7.45718 182.305 7.53922 182.784L7.86954 184.712L10.0494 184.338ZM0.0886097 166.865L1.51192 165.937C1.78205 166.201 1.98707 166.505 2.12699 166.848C2.26692 167.191 2.37378 167.599 2.44758 168.072C2.51677 168.541 2.58495 169.1 2.65209 169.748C2.73024 170.477 2.91822 171.062 3.21601 171.503C3.51381 171.945 3.9363 172.266 4.4835 172.468C5.02644 172.671 5.70665 172.777 6.52414 172.785L6.51507 172.677C5.89071 172.421 5.39829 172.031 5.03782 171.505C4.67735 170.979 4.466 170.345 4.40377 169.601C4.33585 168.79 4.45854 168.06 4.77182 167.409C5.0805 166.755 5.56422 166.224 6.223 165.819C6.88141 165.409 7.69897 165.163 8.67567 165.081C9.68209 164.997 10.5706 165.112 11.3411 165.428C12.1074 165.745 12.7193 166.235 13.1768 166.898C13.6339 167.556 13.9023 168.361 13.982 169.313C14.0613 170.26 13.9243 171.101 13.5711 171.836C13.2132 172.567 12.6448 173.158 11.8657 173.608C11.082 174.054 10.0935 174.327 8.90027 174.427L8.02124 174.501C5.71964 174.693 3.96601 174.408 2.76036 173.645C1.55472 172.883 0.87069 171.659 0.708283 169.975C0.657829 169.475 0.61819 169.027 0.589366 168.632C0.560186 168.232 0.511917 167.885 0.44456 167.592C0.377203 167.298 0.258553 167.056 0.0886097 166.865ZM12.1337 169.455C12.0942 168.983 11.939 168.586 11.6682 168.262C11.3931 167.939 11.0228 167.704 10.5574 167.56C10.0916 167.41 9.55086 167.362 8.93512 167.413C8.32787 167.464 7.81975 167.601 7.41074 167.823C6.99749 168.046 6.69274 168.339 6.49648 168.701C6.30022 169.064 6.222 169.483 6.26183 169.959C6.2917 170.316 6.38224 170.631 6.53346 170.905C6.68468 171.179 6.8918 171.405 7.15481 171.584C7.41782 171.763 7.73 171.891 8.09135 171.967C8.4527 172.044 8.86304 172.068 9.32237 172.038C10.2439 171.96 10.959 171.691 11.4677 171.229C11.9721 170.768 12.1941 170.176 12.1337 169.455ZM13.385 158.104C13.3851 158.726 13.2743 159.287 13.0527 159.785C12.8269 160.28 12.4945 160.672 12.0556 160.962C11.6167 161.247 11.0755 161.39 10.4321 161.39C9.8781 161.39 9.42 161.288 9.05777 161.083C8.69554 160.879 8.40576 160.6 8.18841 160.246C7.97106 159.892 7.80697 159.494 7.69615 159.051C7.58107 158.603 7.49794 158.141 7.44678 157.663C7.38709 157.088 7.3338 156.622 7.2869 156.264C7.23574 155.906 7.15902 155.646 7.05674 155.484C6.9502 155.318 6.78613 155.235 6.56454 155.235L6.52619 155.235C6.04465 155.235 5.67179 155.377 5.4076 155.663C5.14342 155.948 5.01134 156.36 5.01137 156.897C5.0114 157.463 5.13501 157.913 5.38218 158.245C5.62936 158.573 5.92128 158.795 6.25793 158.91L5.95124 161.071C5.35464 160.9 4.85604 160.619 4.45545 160.227C4.0506 159.835 3.74801 159.355 3.5477 158.789C3.34312 158.222 3.24081 157.596 3.24077 156.909C3.24075 156.436 3.29612 155.966 3.40689 155.497C3.51765 155.028 3.70087 154.6 3.95653 154.212C4.20793 153.824 4.55095 153.513 4.98559 153.279C5.42024 153.04 5.96356 152.921 6.61554 152.921L13.1866 152.92L13.1867 155.145L11.838 155.145L11.838 155.221C12.1107 155.362 12.3664 155.56 12.6051 155.816C12.8394 156.067 13.0291 156.385 13.174 156.768C13.3146 157.148 13.385 157.593 13.385 158.104ZM11.6847 157.503C11.6847 157.039 11.593 156.636 11.4098 156.295C11.2223 155.954 10.9751 155.692 10.6682 155.509C10.3614 155.322 10.0269 155.228 9.66468 155.228L8.50772 155.228C8.56739 155.301 8.62279 155.424 8.67394 155.599C8.72508 155.769 8.76984 155.961 8.8082 156.174C8.84657 156.387 8.88067 156.598 8.91051 156.807C8.94035 157.016 8.96593 157.197 8.98725 157.35C9.03414 157.695 9.11086 158.004 9.21741 158.277C9.32396 158.55 9.47312 158.765 9.66489 158.923C9.8524 159.08 10.0953 159.159 10.3936 159.159C10.8197 159.159 11.1415 159.003 11.3588 158.692C11.5761 158.381 11.6847 157.985 11.6847 157.503ZM13.8243 144.549C13.7442 145.526 13.461 146.347 12.9747 147.013C12.4887 147.674 11.8522 148.163 11.0652 148.479C10.2744 148.79 9.38414 148.905 8.39455 148.824C7.40072 148.743 6.53935 148.48 5.81042 148.035C5.07725 147.59 4.52684 147.002 4.15919 146.271C3.78764 145.535 3.64101 144.689 3.71929 143.734C3.78436 142.94 3.98847 142.249 4.33162 141.661C4.67088 141.069 5.12091 140.612 5.68173 140.29C6.2383 139.968 6.87118 139.81 7.58038 139.817L7.3998 142.021C6.92106 142.072 6.5108 142.252 6.16903 142.562C5.82335 142.867 5.62773 143.298 5.58215 143.854C5.54353 144.326 5.63702 144.75 5.86262 145.128C6.08397 145.505 6.42219 145.813 6.87727 146.051C7.3327 146.285 7.88956 146.429 8.54787 146.483C9.21467 146.538 9.79603 146.487 10.292 146.331C10.7836 146.175 11.1735 145.931 11.4614 145.599C11.7455 145.264 11.9072 144.856 11.9465 144.376C11.9743 144.036 11.9355 143.727 11.83 143.449C11.7206 143.166 11.5502 142.924 11.3188 142.721C11.0875 142.518 10.7983 142.368 10.4514 142.271L10.6319 140.067C11.3197 140.179 11.9167 140.433 12.423 140.83C12.925 141.226 13.3019 141.74 13.5537 142.372C13.8012 143.003 13.8914 143.729 13.8243 144.549ZM14.3766 136.67L4.69188 135.056L5.07208 132.774L8.98129 133.425L9.11992 132.593L5.69594 129.029L6.15386 126.28L10.3104 130.659L15.8449 127.855L15.3849 130.617L11.292 132.663L11.1061 133.779L14.7568 134.387L14.3766 136.67ZM17.3331 122.118C17.1811 122.721 16.9368 123.238 16.6001 123.667C16.2603 124.091 15.8422 124.39 15.3458 124.564C14.8504 124.734 14.2907 124.74 13.6667 124.583C13.1296 124.447 12.7103 124.236 12.4091 123.949C12.1078 123.662 11.895 123.321 11.7707 122.925C11.6464 122.529 11.5846 122.102 11.5855 121.646C11.5832 121.184 11.6156 120.715 11.6827 120.24C11.7654 119.667 11.8277 119.202 11.8697 118.843C11.9076 118.484 11.8967 118.213 11.8371 118.031C11.7744 117.844 11.6356 117.723 11.4208 117.669L11.3836 117.659C10.9166 117.542 10.5202 117.589 10.1942 117.801C9.86828 118.014 9.63971 118.38 9.50852 118.901C9.37004 119.45 9.38003 119.916 9.53848 120.299C9.69798 120.678 9.92689 120.964 10.2252 121.158L9.39982 123.178C8.86296 122.867 8.44821 122.472 8.15557 121.994C7.8588 121.515 7.68255 120.976 7.62682 120.378C7.56695 119.778 7.62083 119.146 7.78846 118.481C7.90404 118.022 8.07281 117.579 8.29478 117.151C8.51674 116.724 8.79907 116.353 9.14175 116.04C9.4803 115.725 9.88895 115.507 10.3677 115.386C10.8475 115.261 11.4035 115.278 12.0357 115.437L18.4076 117.043L17.8641 119.2L16.5562 118.87L16.5375 118.945C16.7676 119.148 16.9671 119.402 17.1361 119.709C17.3019 120.01 17.4082 120.364 17.455 120.771C17.4987 121.173 17.4581 121.622 17.3331 122.118ZM15.8312 121.12C15.9447 120.67 15.9542 120.257 15.8598 119.881C15.7613 119.505 15.5857 119.191 15.3329 118.938C15.0812 118.681 14.7798 118.508 14.4285 118.42L13.3066 118.137C13.3468 118.222 13.3703 118.355 13.3772 118.537C13.3851 118.715 13.3817 118.912 13.3668 119.128C13.3519 119.344 13.3334 119.557 13.3114 119.767C13.2893 119.976 13.2698 120.158 13.253 120.312C13.2141 120.658 13.213 120.977 13.2497 121.267C13.2863 121.558 13.3784 121.803 13.5258 122.003C13.6691 122.201 13.8854 122.337 14.1746 122.41C14.5878 122.514 14.9378 122.442 15.2246 122.193C15.5113 121.945 15.7135 121.587 15.8312 121.12ZM18.8984 106.851L13.1723 101.703L13.8019 99.9462L21.7055 106.995L21.16 108.517L10.6085 108.858L11.2316 107.119L18.8984 106.851ZM11.0354 107.666L20.2781 110.979L19.5255 113.079L10.2829 109.767L11.0354 107.666ZM22.6176 104.45L13.375 101.138L14.121 99.0556L23.3637 102.368L22.6176 104.45ZM22.9763 95.1756L18.6003 88.7719L19.6127 86.6203L28.4965 90.8007L27.5439 92.825L21.4884 89.9755L25.8756 96.3704L24.8604 98.5277L15.9767 94.3474L16.9265 92.3288L22.9763 95.1756ZM45.7307 55.249L43.9165 53.3964L43.5059 55.9628L41.979 55.6263L42.6824 53.1277L40.2595 54.0589L39.7833 52.5696L42.3009 51.9237L40.2886 50.2884L41.335 49.1405L43.1535 50.9884L43.5641 48.422L45.0909 48.7585L44.3832 51.2618L46.8104 50.3259L47.2866 51.8151L44.7691 52.461L46.777 54.1011L45.7307 55.249ZM89.7241 27.8404C88.9121 28.2738 88.1161 28.52 87.336 28.5789C86.5597 28.6359 85.8568 28.5135 85.2272 28.212C84.5977 27.9104 84.0981 27.4404 83.7284 26.8021L85.8486 25.6703C86.034 25.9723 86.2828 26.1897 86.5952 26.3224C86.9056 26.4514 87.2509 26.4965 87.6312 26.4578C88.0114 26.4191 88.3951 26.2963 88.7823 26.0897C89.1959 25.8689 89.5243 25.6018 89.7676 25.2884C90.0088 24.9712 90.1505 24.6348 90.1925 24.2791C90.2344 23.9234 90.1632 23.5773 89.9789 23.241C89.796 22.8894 89.5412 22.6293 89.2146 22.4607C88.8879 22.2921 88.5096 22.2259 88.0797 22.2622C87.6536 22.2964 87.1962 22.444 86.7075 22.7049L85.6868 23.2497L84.8259 21.6369L85.8466 21.0921C86.2488 20.8774 86.5632 20.6202 86.7897 20.3206C87.02 20.019 87.1543 19.6961 87.1928 19.3519C87.2293 19.0039 87.1563 18.6637 86.974 18.3311C86.8032 18.002 86.5783 17.7573 86.2995 17.597C86.0225 17.4309 85.7125 17.3525 85.3696 17.3616C85.0305 17.3687 84.6804 17.4686 84.3195 17.6613C83.9662 17.8499 83.6732 18.0884 83.4407 18.3768C83.2082 18.6651 83.063 18.9769 83.0053 19.312C82.9455 19.6434 82.9962 19.9738 83.1575 20.3031L81.1444 21.3777C80.8143 20.7231 80.6974 20.0561 80.7936 19.3767C80.8916 18.6916 81.1681 18.0513 81.6231 17.4558C82.0761 16.8566 82.6767 16.3573 83.4248 15.9579C84.1954 15.5466 84.9419 15.3341 85.664 15.3206C86.388 15.3012 87.0354 15.4508 87.6062 15.7692C88.1771 16.0876 88.6191 16.54 88.9321 17.1264C89.2831 17.7748 89.3823 18.4222 89.2299 19.0688C89.0812 19.7133 88.731 20.2698 88.1792 20.7382L88.2273 20.8284C89.0996 20.5078 89.8823 20.4764 90.5755 20.7344C91.2704 20.9865 91.8086 21.4745 92.1902 22.1983C92.5353 22.8449 92.6601 23.5222 92.5646 24.2301C92.4709 24.9322 92.1799 25.5996 91.6915 26.2322C91.207 26.8628 90.5512 27.3989 89.7241 27.8404ZM100.164 22.6817C99.592 22.9261 99.0332 23.0444 98.4876 23.0365C97.9443 23.0231 97.4532 22.8714 97.0143 22.5817C96.5793 22.2902 96.2354 21.8486 95.9826 21.2569C95.7649 20.7475 95.679 20.286 95.7248 19.8726C95.7706 19.4591 95.9134 19.083 96.1533 18.7442C96.3931 18.4054 96.6951 18.098 97.0591 17.8219C97.4253 17.5403 97.8179 17.2823 98.2367 17.0477C98.7423 16.7668 99.1504 16.5345 99.4612 16.3508C99.7703 16.1631 99.9792 15.9905 100.088 15.8328C100.199 15.6695 100.211 15.486 100.124 15.2822L100.109 15.247C99.9195 14.8042 99.6417 14.5174 99.2754 14.3866C98.909 14.2558 98.479 14.2959 97.9852 14.5068C97.464 14.7295 97.0992 15.0198 96.8906 15.3777C96.686 15.7339 96.5969 16.0894 96.6233 16.4441L94.516 17.0108C94.4384 16.3952 94.5011 15.8263 94.7043 15.3039C94.9057 14.7776 95.2277 14.311 95.6702 13.9041C96.111 13.4934 96.6469 13.1532 97.2778 12.8836C97.7128 12.6978 98.1676 12.5637 98.6421 12.4815C99.1167 12.3992 99.5826 12.3994 100.04 12.4822C100.495 12.561 100.916 12.7543 101.302 13.0619C101.692 13.3678 102.016 13.8206 102.272 14.4202L104.853 20.4628L102.808 21.3367L102.278 20.0965L102.207 20.1266C102.185 20.4326 102.103 20.7456 101.962 21.0655C101.823 21.3798 101.606 21.6789 101.31 21.9629C101.016 22.2412 100.634 22.4808 100.164 22.6817ZM100.049 20.8821C100.476 20.6996 100.81 20.4571 101.052 20.1547C101.291 19.8483 101.435 19.5181 101.483 19.1639C101.535 18.8081 101.49 18.4637 101.348 18.1306L100.893 17.0667C100.85 17.15 100.758 17.2495 100.617 17.3651C100.481 17.4791 100.322 17.5956 100.141 17.7146C99.9603 17.8336 99.7797 17.9478 99.5994 18.0573C99.4191 18.1667 99.2626 18.2614 99.1299 18.3413C98.8309 18.52 98.577 18.7119 98.368 18.917C98.1591 19.1222 98.0198 19.3439 97.9502 19.5822C97.8788 19.8165 97.9018 20.0709 98.019 20.3452C98.1864 20.737 98.4558 20.9718 98.8273 21.0494C99.1987 21.1271 99.6059 21.0713 100.049 20.8821ZM108.68 18.9382L105.608 9.61298L107.806 8.88898L109.046 12.6531L109.847 12.3891L111.412 7.70097L114.059 6.82897L112.113 12.5446L117.168 16.1422L114.509 17.0182L110.795 14.345L109.72 14.699L110.878 18.2142L108.68 18.9382ZM122.505 18.475C122.198 18.5487 121.909 18.592 121.636 18.605C121.368 18.6211 121.15 18.6165 120.981 18.5912L121.082 16.7131C121.433 16.7298 121.736 16.7052 121.992 16.6393C122.247 16.5734 122.454 16.4384 122.611 16.2341C122.773 16.033 122.879 15.7358 122.929 15.3425L122.998 14.7804L117.195 5.86669L119.581 5.29328L123.513 11.9743L123.613 11.9504L124.087 4.21068L126.48 3.63577L125.229 15.2567C125.172 15.805 125.04 16.2947 124.833 16.7259C124.626 17.1612 124.332 17.5254 123.951 17.8185C123.575 18.1148 123.093 18.3336 122.505 18.475ZM136.032 12.0907C135.063 12.2418 134.199 12.1588 133.438 11.8419C132.681 11.5244 132.056 11.0201 131.565 10.3291C131.077 9.6332 130.756 8.79475 130.603 7.81371C130.45 6.82846 130.503 5.92945 130.765 5.11667C131.026 4.29969 131.468 3.62682 132.093 3.09808C132.722 2.56446 133.509 2.22378 134.457 2.07602C135.244 1.95321 135.964 1.98979 136.615 2.18574C137.27 2.37683 137.82 2.70729 138.264 3.17712C138.708 3.64274 139.009 4.22108 139.169 4.91213L136.984 5.25297C136.822 4.7994 136.551 4.44276 136.17 4.18307C135.792 3.91851 135.328 3.82924 134.776 3.91527C134.309 3.98817 133.918 4.17851 133.604 4.4863C133.289 4.78988 133.069 5.19078 132.944 5.68901C132.823 6.18658 132.813 6.76168 132.915 7.4143C133.018 8.07534 133.204 8.62865 133.472 9.07422C133.739 9.51558 134.067 9.83743 134.457 10.0398C134.85 10.2372 135.284 10.2989 135.76 10.2246C136.097 10.1721 136.388 10.062 136.634 9.89431C136.883 9.72175 137.079 9.49926 137.222 9.22681C137.365 8.95437 137.443 8.63815 137.456 8.27818L139.641 7.93735C139.693 8.63219 139.586 9.27212 139.319 9.85715C139.052 10.438 138.64 10.9248 138.085 11.3176C137.529 11.7063 136.844 11.964 136.032 12.0907ZM143.821 10.7831L143.13 0.989227L145.438 0.826334L145.717 4.77957L146.558 4.72017L149.225 0.559046L152.005 0.362855L148.717 5.42654L152.735 10.154L149.942 10.3511L146.997 6.8487L145.868 6.92835L146.129 10.6202L143.821 10.7831ZM158.661 10.2564C158.039 10.2503 157.48 10.134 156.984 9.90753C156.491 9.67684 156.103 9.34062 155.817 8.89888C155.536 8.45718 155.399 7.91461 155.405 7.27118C155.41 6.71723 155.517 6.26016 155.725 5.89996C155.933 5.53977 156.215 5.25275 156.571 5.03891C156.927 4.82506 157.327 4.66491 157.771 4.55847C158.22 4.44781 158.683 4.36926 159.161 4.32281C159.736 4.26879 160.204 4.22011 160.562 4.17675C160.92 4.12913 161.181 4.05498 161.344 3.9543C161.511 3.8494 161.596 3.68616 161.598 3.46458L161.599 3.42623C161.603 2.94472 161.464 2.57047 161.181 2.30347C160.898 2.03648 160.488 1.90035 159.952 1.89508C159.385 1.88952 158.934 2.00868 158.599 2.25257C158.269 2.49649 158.044 2.78621 157.926 3.12171L155.769 2.79371C155.945 2.19882 156.231 1.70302 156.627 1.30632C157.023 0.905355 157.505 0.607518 158.074 0.412805C158.643 0.213832 159.27 0.117711 159.956 0.124444C160.429 0.129086 160.899 0.189101 161.367 0.304491C161.835 0.419881 162.261 0.607313 162.646 0.866788C163.032 1.122 163.339 1.46808 163.57 1.90502C163.804 2.342 163.918 2.88646 163.911 3.53842L163.847 10.1091L161.623 10.0873L161.636 8.73864L161.559 8.73789C161.416 9.00922 161.215 9.26295 160.957 9.49907C160.704 9.73096 160.384 9.91747 159.999 10.0586C159.619 10.1955 159.173 10.2614 158.661 10.2564ZM159.279 8.5621C159.743 8.56665 160.147 8.47899 160.49 8.29911C160.832 8.11496 161.097 7.87039 161.283 7.56538C161.474 7.26042 161.571 6.92684 161.574 6.56464L161.585 5.40773C161.512 5.46668 161.388 5.52086 161.213 5.57028C161.042 5.61974 160.85 5.6626 160.637 5.69886C160.423 5.73512 160.212 5.76714 160.003 5.79492C159.794 5.8227 159.612 5.84649 159.459 5.86629C159.113 5.90977 158.803 5.98344 158.53 6.08729C158.256 6.19115 158.039 6.33818 157.88 6.52838C157.72 6.71432 157.639 6.95644 157.636 7.25472C157.632 7.68083 157.784 8.00408 158.093 8.22445C158.402 8.44482 158.797 8.55737 159.279 8.5621ZM174.023 8.0192L176.297 8.32135C176.27 8.68744 176.395 8.98996 176.673 9.2289C176.951 9.46784 177.333 9.61957 177.819 9.6841C178.313 9.74974 178.743 9.69729 179.11 9.52674C179.481 9.35253 179.696 9.04365 179.755 8.6001C179.79 8.3382 179.755 8.09928 179.651 7.88335C179.546 7.66319 179.383 7.48248 179.162 7.34123C178.94 7.19998 178.668 7.10803 178.347 7.06539L176.858 6.8676L177.074 5.23915L178.563 5.43693C179.041 5.50034 179.416 5.43848 179.691 5.25136C179.969 5.06481 180.13 4.80467 180.175 4.47095C180.222 4.11189 180.13 3.80302 179.898 3.54435C179.67 3.28623 179.328 3.12688 178.872 3.06628C178.416 3.00568 178.022 3.05868 177.69 3.22527C177.363 3.39242 177.171 3.63779 177.115 3.96137L174.853 3.6609C174.937 3.09597 175.171 2.62629 175.556 2.25185C175.945 1.87798 176.436 1.61219 177.029 1.45448C177.626 1.29733 178.279 1.26589 178.989 1.36016C179.749 1.46115 180.391 1.66246 180.914 1.96407C181.437 2.26569 181.821 2.64129 182.067 3.09088C182.313 3.53625 182.399 4.03351 182.326 4.58266C182.256 5.1107 182.033 5.52602 181.658 5.82865C181.283 6.12705 180.807 6.31314 180.23 6.38692L180.216 6.48831C180.598 6.56049 180.93 6.71633 181.212 6.95583C181.494 7.1911 181.704 7.48766 181.841 7.84551C181.979 8.20335 182.018 8.60194 181.96 9.04126C181.881 9.63688 181.641 10.1295 181.241 10.5192C180.842 10.9046 180.327 11.1736 179.696 11.3263C179.07 11.4795 178.372 11.5051 177.603 11.4029C176.856 11.3036 176.201 11.1028 175.639 10.8003C175.082 10.4942 174.659 10.1048 174.369 9.63217C174.08 9.15951 173.964 8.62185 174.023 8.0192ZM202.328 2.54047L202.729 4.19147C202.39 4.35822 202.035 4.45038 201.665 4.46795C201.295 4.48551 200.875 4.45032 200.404 4.36238C199.939 4.27139 199.389 4.14948 198.756 3.99665C198.042 3.82743 197.428 3.80971 196.913 3.94348C196.398 4.07726 195.953 4.36842 195.58 4.81696C195.209 5.26138 194.882 5.86756 194.602 6.63549L194.707 6.66302C195.156 6.15951 195.689 5.82541 196.304 5.66072C196.92 5.49603 197.589 5.50816 198.31 5.6971C199.098 5.90333 199.746 6.26252 200.255 6.77467C200.769 7.28378 201.108 7.91651 201.271 8.67286C201.438 9.43029 201.397 10.2831 201.149 11.2312C200.893 12.2082 200.488 13.0073 199.933 13.6285C199.379 14.2455 198.714 14.6593 197.936 14.8697C197.163 15.0812 196.314 15.066 195.391 14.8242C194.472 14.5834 193.724 14.174 193.149 13.596C192.579 13.015 192.211 12.2822 192.046 11.3976C191.887 10.5101 191.959 9.48708 192.262 8.32871L192.486 7.47539C193.071 5.24109 193.924 3.68267 195.045 2.80011C196.166 1.91755 197.547 1.68028 199.189 2.08831C199.678 2.20747 200.113 2.31932 200.496 2.42385C200.882 2.52947 201.225 2.59945 201.524 2.63381C201.824 2.66816 202.092 2.63705 202.328 2.54047ZM195.873 13.0342C196.331 13.1541 196.757 13.1402 197.153 12.9927C197.549 12.8411 197.893 12.57 198.185 12.1795C198.481 11.79 198.707 11.2964 198.864 10.6987C199.018 10.1092 199.058 9.58456 198.985 9.12482C198.913 8.66096 198.738 8.27607 198.461 7.97013C198.185 7.66419 197.816 7.45076 197.354 7.32983C197.008 7.23914 196.68 7.21945 196.372 7.27078C196.063 7.32211 195.781 7.44195 195.524 7.6303C195.268 7.81865 195.043 8.0704 194.851 8.38556C194.658 8.70072 194.499 9.07983 194.374 9.52288C194.14 10.4174 194.156 11.1814 194.422 11.8149C194.688 12.4442 195.172 12.8507 195.873 13.0342ZM207.522 18.5052C206.62 18.1806 205.91 17.7007 205.391 17.0656C204.872 16.4306 204.559 15.6905 204.451 14.8455C204.347 14.0019 204.467 13.103 204.81 12.1487C205.153 11.1944 205.635 10.4234 206.254 9.83553C206.877 9.24913 207.591 8.87651 208.395 8.71767C209.2 8.55883 210.053 8.64175 210.955 8.96644C211.857 9.29114 212.568 9.77101 213.087 10.4061C213.605 11.0411 213.916 11.7824 214.019 12.63C214.125 13.4791 214.007 14.3807 213.663 15.335C213.32 16.2893 212.837 17.0576 212.215 17.64C211.598 18.2238 210.887 18.5952 210.082 18.754C209.278 18.9129 208.424 18.8299 207.522 18.5052ZM208.162 16.7654C208.651 16.9415 209.108 16.9543 209.534 16.804C209.961 16.6497 210.337 16.3729 210.662 15.9735C210.991 15.5756 211.256 15.0959 211.458 14.5346C211.662 13.9692 211.763 13.4284 211.763 12.9122C211.769 12.3933 211.656 11.9384 211.426 11.5475C211.195 11.1565 210.835 10.873 210.346 10.6969C209.845 10.5165 209.379 10.5028 208.948 10.6556C208.521 10.81 208.142 11.0881 207.812 11.49C207.487 11.8894 207.223 12.3718 207.019 12.9371C206.817 13.4984 206.714 14.0365 206.71 14.5513C206.71 15.0676 206.825 15.5212 207.056 15.9122C207.292 16.3006 207.661 16.585 208.162 16.7654ZM215.513 21.2837L219.603 12.3577L223.351 14.0749C224.409 14.5594 225.147 15.153 225.565 15.8558C225.988 16.5602 226.026 17.2902 225.68 18.0457C225.451 18.5454 225.089 18.8743 224.595 19.0322C224.107 19.1881 223.539 19.1836 222.893 19.0187C223.344 19.2722 223.701 19.5785 223.963 19.9376C224.228 20.2985 224.388 20.6858 224.443 21.0997C224.497 21.5135 224.428 21.9297 224.236 22.3481C224.011 22.8401 223.685 23.2087 223.259 23.454C222.838 23.6971 222.335 23.8067 221.751 23.7828C221.172 23.7567 220.534 23.5839 219.837 23.2645L215.513 21.2837ZM218.242 20.53L220.596 21.6083C220.983 21.7857 221.329 21.834 221.633 21.7531C221.939 21.6683 222.165 21.4671 222.311 21.1494C222.479 20.7814 222.501 20.4422 222.376 20.1318C222.253 19.8175 221.997 19.5717 221.61 19.3942L219.256 18.3159L218.242 20.53ZM219.879 16.9561L221.698 17.7894C221.985 17.9208 222.25 17.9928 222.492 18.0055C222.737 18.0143 222.948 17.9681 223.125 17.8667C223.305 17.7614 223.443 17.6022 223.541 17.3892C223.681 17.0831 223.665 16.7852 223.493 16.4955C223.325 16.2076 223.021 15.9624 222.579 15.7601L220.801 14.9454L219.879 16.9561ZM228.812 27.9662C228.271 27.6603 227.837 27.2883 227.512 26.8501C227.193 26.4104 227.015 25.9282 226.978 25.4035C226.945 24.8809 227.087 24.3395 227.404 23.7792C227.676 23.2968 227.99 22.9482 228.347 22.7334C228.703 22.5186 229.088 22.4035 229.503 22.3882C229.918 22.3729 230.346 22.426 230.786 22.5475C231.232 22.6673 231.676 22.8223 232.116 23.0125C232.647 23.2434 233.079 23.4265 233.414 23.5617C233.751 23.6932 234.015 23.7542 234.206 23.7448C234.403 23.7338 234.556 23.6318 234.665 23.4388L234.684 23.4054C234.921 22.9861 234.98 22.5913 234.861 22.2208C234.743 21.8504 234.449 21.5331 233.982 21.2691C233.488 20.9904 233.036 20.8769 232.625 20.9287C232.218 20.9825 231.881 21.1277 231.616 21.3643L229.885 20.0347C230.327 19.5991 230.817 19.3032 231.356 19.1472C231.896 18.9875 232.462 18.9598 233.054 19.0641C233.648 19.1647 234.244 19.3837 234.841 19.7211C235.253 19.9537 235.636 20.2335 235.99 20.5604C236.343 20.8874 236.626 21.2576 236.838 21.6709C237.052 22.0805 237.154 22.5322 237.145 23.0259C237.139 23.5217 236.976 24.0535 236.655 24.6212L233.424 30.3429L231.487 29.249L232.15 28.0746L232.083 28.0369C231.827 28.2052 231.528 28.3304 231.188 28.4125C230.854 28.4929 230.485 28.5019 230.079 28.4395C229.68 28.3754 229.258 28.2177 228.812 27.9662ZM230.172 26.7812C230.576 27.0096 230.972 27.1278 231.359 27.1359C231.748 27.1403 232.098 27.054 232.408 26.8769C232.722 26.702 232.968 26.4568 233.146 26.1414L233.715 25.134C233.623 25.1503 233.488 25.1378 233.311 25.0964C233.137 25.0571 232.948 25.0017 232.744 24.9304C232.539 24.859 232.339 24.7849 232.142 24.7082C231.946 24.6315 231.776 24.5647 231.632 24.5079C231.308 24.3789 231.001 24.2938 230.711 24.2525C230.422 24.2111 230.161 24.2351 229.929 24.3246C229.7 24.4103 229.512 24.5831 229.365 24.8428C229.155 25.2138 229.133 25.5705 229.297 25.9127C229.461 26.2549 229.752 26.5444 230.172 26.7812ZM234.884 35.4966L242.497 24.3481L244.376 25.6314L243.461 26.9722L243.572 27.0479C243.805 26.9181 244.087 26.8036 244.417 26.7045C244.751 26.6018 245.125 26.5759 245.539 26.6266C245.956 26.6738 246.401 26.8596 246.877 27.184C247.503 27.6118 247.958 28.1576 248.243 28.8215C248.533 29.4843 248.614 30.228 248.484 31.0528C248.36 31.8764 247.991 32.7387 247.375 33.6396C246.767 34.5299 246.105 35.1868 245.387 35.6102C244.67 36.0336 243.948 36.2371 243.221 36.2207C242.494 36.2044 241.812 35.9787 241.175 35.5437C240.711 35.2265 240.378 34.8859 240.178 34.522C239.978 34.1581 239.859 33.8033 239.821 33.4578C239.79 33.1111 239.79 32.8044 239.823 32.5377L239.743 32.4836L236.795 36.8015L234.884 35.4966ZM241.603 29.6818C241.244 30.2061 241.005 30.7158 240.883 31.2109C240.766 31.7084 240.772 32.1641 240.902 32.5781C241.038 32.9909 241.308 33.3355 241.713 33.6119C242.135 33.9002 242.566 34.0292 243.005 33.9986C243.446 33.9645 243.873 33.7997 244.287 33.5041C244.706 33.2073 245.089 32.8056 245.435 32.2988C245.778 31.7956 246.012 31.2994 246.134 30.8103C246.256 30.3211 246.251 29.8684 246.117 29.452C245.984 29.0357 245.704 28.6821 245.278 28.3913C244.87 28.1125 244.45 27.9832 244.018 28.0032C243.587 28.0232 243.165 28.1763 242.753 28.4624C242.344 28.751 241.961 29.1574 241.603 29.6818ZM250.863 42.7581C250.104 42.137 249.59 41.4372 249.318 40.6587C249.051 39.8829 249.01 39.0814 249.198 38.2543C249.391 37.4266 249.802 36.6287 250.431 35.8606C251.063 35.0892 251.769 34.53 252.549 34.1829C253.332 33.8326 254.129 33.714 254.939 33.8272C255.756 33.9399 256.535 34.3 257.277 34.9075C257.893 35.4125 258.346 35.9732 258.634 36.5895C258.929 37.2052 259.049 37.8352 258.995 38.4795C258.943 39.1205 258.713 39.7308 258.305 40.3105L256.594 38.909C256.824 38.4863 256.909 38.0464 256.849 37.5891C256.794 37.1312 256.551 36.7254 256.119 36.3717C255.753 36.0719 255.351 35.9075 254.912 35.8785C254.475 35.8462 254.03 35.9495 253.575 36.1885C253.124 36.4302 252.689 36.8065 252.27 37.3175C251.846 37.835 251.558 38.3422 251.404 38.8389C251.253 39.3323 251.232 39.7917 251.341 40.2169C251.456 40.6415 251.7 41.0064 252.072 41.3115C252.336 41.5276 252.612 41.6712 252.901 41.7424C253.196 41.8131 253.492 41.8108 253.791 41.7357C254.089 41.6607 254.377 41.5079 254.653 41.2775L256.364 42.679C255.881 43.1812 255.333 43.528 254.719 43.7192C254.108 43.9071 253.471 43.9251 252.808 43.773C252.147 43.6176 251.499 43.2793 250.863 42.7581ZM262.76 44.0145L264.842 46.0261C265.743 46.8965 266.229 47.7891 266.299 48.7041C266.369 49.619 266.063 50.4335 265.379 51.1476C264.929 51.6075 264.419 51.9087 263.849 52.0512C263.282 52.1967 262.687 52.1678 262.066 51.9647C261.451 51.7614 260.843 51.3697 260.242 50.7894L257.033 47.6899L263.853 40.6277L265.458 42.1775L259.956 47.8741L261.561 49.4239C261.922 49.7732 262.309 49.9684 262.719 50.0095C263.133 50.0475 263.48 49.9209 263.761 49.6297C264.057 49.3232 264.182 48.9609 264.136 48.5428C264.089 48.1247 263.885 47.741 263.523 47.3917L261.441 45.3801L262.76 44.0145ZM265.725 56.2236L273.114 49.7579L274.637 51.4993L271.655 54.1091L272.211 54.744L277.138 54.3566L278.973 56.4539L272.951 56.8907L271.61 62.9484L269.766 60.8415L270.779 56.3791L270.034 55.5276L267.249 57.9649L265.725 56.2236ZM277.425 65.2847L285.139 64.4776L286.551 66.3909L278.651 72.2209L277.322 70.4208L282.707 66.4468L274.996 67.268L273.58 65.3496L281.48 59.5196L282.804 61.3146L277.425 65.2847ZM286.239 79.1137L293.852 77.9623L294.809 79.5648L284.345 81.1903L283.515 79.8018L289.956 71.437L290.903 73.023L286.239 79.1137ZM290.605 72.5236L282.175 77.5572L281.031 75.6418L289.461 70.6083L290.605 72.5236ZM285.731 83.5118L294.16 78.4782L295.294 80.3771L286.865 85.4106L285.731 83.5118ZM292.665 89.6812L300.39 90.3709L301.408 92.5198L292.536 96.7236L291.578 94.7019L297.626 91.8363L289.9 91.1609L288.879 89.0063L297.752 84.8024L298.707 86.8184L292.665 89.6812ZM296.482 106.376L305.817 103.335L306.534 105.535L302.766 106.762L303.027 107.565L307.71 109.145L308.574 111.795L302.865 109.829L299.251 114.873L298.383 112.211L301.068 108.505L300.718 107.43L297.199 108.576L296.482 106.376ZM300.781 121.685C300.562 120.751 300.578 119.894 300.829 119.113C301.079 118.332 301.529 117.667 302.18 117.116C302.831 116.57 303.65 116.181 304.637 115.95C305.625 115.718 306.534 115.703 307.364 115.902C308.195 116.106 308.896 116.502 309.467 117.09C310.038 117.678 310.433 118.439 310.652 119.373C310.87 120.307 310.854 121.164 310.604 121.945C310.354 122.725 309.901 123.389 309.246 123.937C308.591 124.488 307.77 124.88 306.783 125.111C305.795 125.342 304.888 125.356 304.061 125.151C303.235 124.95 302.537 124.556 301.966 123.968C301.395 123.379 301 122.618 300.781 121.685ZM302.589 121.274C302.707 121.781 302.945 122.171 303.303 122.446C303.665 122.721 304.102 122.885 304.614 122.94C305.126 123 305.673 122.961 306.254 122.825C306.839 122.688 307.348 122.479 307.781 122.199C308.22 121.921 308.54 121.579 308.743 121.173C308.945 120.766 308.987 120.31 308.868 119.804C308.747 119.285 308.505 118.887 308.142 118.608C307.78 118.334 307.341 118.168 306.824 118.11C306.312 118.054 305.764 118.095 305.179 118.232C304.598 118.368 304.09 118.575 303.656 118.851C303.223 119.132 302.905 119.476 302.703 119.882C302.505 120.292 302.467 120.756 302.589 121.274ZM302.799 129.901L312.513 128.474L313.112 132.554C313.281 133.705 313.185 134.647 312.823 135.38C312.462 136.118 311.871 136.548 311.048 136.668C310.505 136.748 310.032 136.624 309.63 136.295C309.234 135.97 308.929 135.492 308.715 134.86C308.748 135.376 308.685 135.842 308.527 136.257C308.368 136.676 308.131 137.021 307.813 137.292C307.495 137.563 307.109 137.731 306.653 137.798C306.118 137.877 305.631 137.804 305.193 137.58C304.76 137.359 304.395 136.997 304.097 136.494C303.804 135.994 303.602 135.365 303.49 134.606L302.799 129.901ZM304.917 131.78L305.293 134.341C305.355 134.763 305.502 135.079 305.736 135.291C305.973 135.501 306.265 135.581 306.611 135.53C307.011 135.472 307.308 135.305 307.5 135.032C307.697 134.757 307.764 134.409 307.702 133.988L307.326 131.426L304.917 131.78ZM308.806 131.209L309.097 133.188C309.143 133.5 309.226 133.762 309.347 133.972C309.473 134.182 309.627 134.334 309.808 134.428C309.994 134.521 310.203 134.551 310.435 134.517C310.768 134.468 311.01 134.292 311.159 133.99C311.309 133.693 311.349 133.303 311.278 132.823L310.994 130.888L308.806 131.209ZM318.352 148.906L316.908 149.8C316.644 149.53 316.446 149.222 316.314 148.875C316.182 148.529 316.085 148.118 316.022 147.644C315.964 147.174 315.908 146.614 315.856 145.964C315.795 145.233 315.621 144.644 315.333 144.196C315.046 143.748 314.631 143.416 314.089 143.201C313.55 142.986 312.873 142.865 312.056 142.838L312.062 142.946C312.681 143.216 313.164 143.618 313.512 144.152C313.86 144.686 314.057 145.325 314.102 146.07C314.151 146.882 314.011 147.61 313.683 148.253C313.359 148.9 312.863 149.419 312.195 149.809C311.527 150.204 310.704 150.431 309.726 150.49C308.718 150.551 307.832 150.414 307.069 150.08C306.311 149.746 305.71 149.243 305.268 148.569C304.827 147.9 304.577 147.089 304.519 146.136C304.462 145.188 304.619 144.35 304.989 143.623C305.363 142.9 305.945 142.323 306.735 141.891C307.529 141.463 308.523 141.213 309.718 141.141L310.599 141.088C312.904 140.948 314.651 141.274 315.839 142.065C317.026 142.855 317.682 144.094 317.805 145.782C317.844 146.283 317.873 146.732 317.893 147.128C317.912 147.528 317.953 147.875 318.013 148.171C318.074 148.466 318.187 148.711 318.352 148.906ZM306.37 146.037C306.399 146.509 306.545 146.91 306.808 147.24C307.076 147.57 307.44 147.812 307.902 147.968C308.365 148.128 308.904 148.189 309.521 148.152C310.129 148.115 310.64 147.991 311.054 147.778C311.473 147.565 311.784 147.279 311.989 146.921C312.193 146.563 312.281 146.145 312.252 145.669C312.231 145.312 312.148 144.994 312.003 144.717C311.858 144.44 311.656 144.209 311.397 144.024C311.139 143.839 310.83 143.704 310.47 143.619C310.111 143.534 309.701 143.501 309.241 143.52C308.318 143.576 307.597 143.828 307.077 144.278C306.562 144.728 306.327 145.314 306.37 146.037ZM304.856 157.355C304.871 156.733 304.994 156.176 305.227 155.682C305.465 155.193 305.806 154.809 306.251 154.53C306.697 154.254 307.241 154.124 307.885 154.139C308.438 154.152 308.894 154.265 309.251 154.477C309.609 154.69 309.892 154.976 310.101 155.335C310.31 155.693 310.465 156.095 310.566 156.541C310.67 156.991 310.743 157.455 310.783 157.934C310.829 158.51 310.872 158.978 310.91 159.337C310.953 159.696 311.024 159.957 311.122 160.122C311.225 160.29 311.387 160.377 311.608 160.382L311.647 160.383C312.128 160.394 312.504 160.26 312.775 159.981C313.046 159.702 313.187 159.293 313.2 158.757C313.213 158.19 313.1 157.738 312.86 157.4C312.621 157.066 312.334 156.838 312 156.715L312.357 154.562C312.949 154.746 313.441 155.039 313.833 155.44C314.228 155.841 314.52 156.328 314.707 156.899C314.898 157.47 314.986 158.099 314.97 158.785C314.959 159.258 314.893 159.727 314.771 160.193C314.65 160.659 314.457 161.083 314.192 161.465C313.932 161.847 313.582 162.15 313.142 162.374C312.702 162.603 312.156 162.709 311.504 162.694L304.935 162.543L304.986 160.319L306.334 160.35L306.336 160.273C306.067 160.126 305.816 159.922 305.583 159.661C305.354 159.404 305.172 159.083 305.036 158.696C304.904 158.313 304.844 157.867 304.856 157.355ZM306.542 157.995C306.531 158.46 306.614 158.864 306.789 159.209C306.969 159.555 307.21 159.822 307.512 160.013C307.815 160.207 308.147 160.309 308.509 160.317L309.666 160.344C309.608 160.27 309.555 160.145 309.508 159.969C309.461 159.798 309.421 159.605 309.387 159.391C309.354 159.177 309.325 158.965 309.3 158.756C309.275 158.547 309.253 158.365 309.235 158.211C309.196 157.865 309.127 157.554 309.027 157.279C308.927 157.004 308.782 156.785 308.594 156.623C308.411 156.461 308.17 156.377 307.871 156.37C307.445 156.36 307.12 156.508 306.896 156.814C306.671 157.12 306.553 157.514 306.542 157.995ZM304.102 170.897C304.205 169.922 304.507 169.108 305.009 168.454C305.51 167.804 306.158 167.33 306.952 167.032C307.75 166.739 308.643 166.645 309.63 166.749C310.622 166.854 311.477 167.137 312.195 167.598C312.918 168.06 313.454 168.66 313.805 169.4C314.159 170.145 314.286 170.993 314.186 171.947C314.102 172.739 313.882 173.425 313.525 174.005C313.172 174.589 312.712 175.035 312.144 175.344C311.58 175.653 310.943 175.796 310.234 175.773L310.466 173.573C310.946 173.534 311.36 173.363 311.709 173.061C312.062 172.764 312.268 172.338 312.326 171.783C312.376 171.313 312.292 170.886 312.075 170.503C311.863 170.121 311.532 169.805 311.083 169.557C310.633 169.312 310.079 169.155 309.422 169.086C308.757 169.016 308.175 169.053 307.675 169.197C307.18 169.342 306.785 169.577 306.489 169.902C306.197 170.231 306.026 170.635 305.976 171.114C305.94 171.453 305.972 171.762 306.071 172.043C306.173 172.328 306.338 172.574 306.565 172.783C306.791 172.991 307.077 173.147 307.421 173.252L307.19 175.452C306.505 175.324 305.914 175.056 305.417 174.648C304.924 174.24 304.559 173.717 304.322 173.08C304.089 172.442 304.016 171.715 304.102 170.897ZM303.367 178.761L313.011 180.599L312.578 182.872L308.685 182.13L308.527 182.959L311.867 186.602L311.346 189.34L307.292 184.864L301.694 187.539L302.218 184.789L306.357 182.838L306.569 181.727L302.934 181.034L303.367 178.761ZM300.064 193.238C300.231 192.638 300.489 192.128 300.836 191.708C301.187 191.292 301.612 191.004 302.113 190.843C302.613 190.686 303.172 190.694 303.792 190.867C304.326 191.016 304.739 191.238 305.033 191.533C305.327 191.827 305.531 192.174 305.645 192.573C305.759 192.972 305.81 193.4 305.798 193.857C305.788 194.318 305.744 194.786 305.665 195.26C305.568 195.83 305.493 196.293 305.442 196.651C305.395 197.009 305.399 197.28 305.454 197.464C305.512 197.652 305.648 197.777 305.861 197.836L305.898 197.847C306.362 197.976 306.759 197.939 307.091 197.735C307.422 197.531 307.66 197.17 307.804 196.653C307.957 196.107 307.958 195.641 307.81 195.255C307.66 194.872 307.438 194.58 307.145 194.379L308.022 192.38C308.55 192.705 308.955 193.11 309.235 193.595C309.52 194.082 309.682 194.625 309.723 195.225C309.767 195.826 309.697 196.456 309.513 197.117C309.386 197.573 309.206 198.011 308.973 198.433C308.74 198.855 308.448 199.218 308.098 199.523C307.751 199.829 307.337 200.036 306.856 200.145C306.373 200.258 305.817 200.227 305.19 200.051L298.861 198.284L299.459 196.141L300.758 196.504L300.779 196.43C300.554 196.221 300.361 195.962 300.2 195.651C300.042 195.346 299.944 194.989 299.908 194.581C299.874 194.178 299.926 193.73 300.064 193.238ZM301.54 194.274C301.415 194.721 301.395 195.134 301.48 195.511C301.569 195.89 301.736 196.209 301.983 196.468C302.228 196.731 302.525 196.911 302.873 197.009L303.988 197.32C303.95 197.234 303.93 197.1 303.927 196.918C303.924 196.74 303.933 196.543 303.953 196.328C303.973 196.112 303.997 195.9 304.025 195.691C304.052 195.482 304.076 195.3 304.097 195.147C304.145 194.802 304.154 194.484 304.124 194.192C304.095 193.901 304.009 193.654 303.867 193.45C303.729 193.248 303.516 193.107 303.229 193.026C302.818 192.912 302.467 192.975 302.174 193.216C301.881 193.457 301.67 193.81 301.54 194.274ZM298.13 208.459L303.738 213.736L303.069 215.479L295.327 208.252L295.907 206.742L306.464 206.642L305.801 208.366L298.13 208.459ZM306.01 207.823L296.845 204.302L297.645 202.219L306.81 205.741L306.01 207.823ZM294.358 210.776L303.523 214.297L302.729 216.362L293.564 212.84L294.358 210.776ZM293.779 220.042L297.994 226.553L296.929 228.678L288.151 224.278L289.154 222.278L295.137 225.278L290.91 218.776L291.978 216.644L300.756 221.044L299.756 223.038L293.779 220.042ZM270.087 259.405L271.859 261.298L272.327 258.741L273.846 259.111L273.087 261.594L275.53 260.716L275.973 262.216L273.442 262.806L275.417 264.485L274.346 265.61L272.569 263.722L272.101 266.279L270.582 265.908L271.345 263.421L268.898 264.303L268.455 262.804L270.986 262.214L269.015 260.53L270.087 259.405Z" fill="#1D1D1D"/>
</svg>
