<svg width="333" height="340" viewBox="0 0 333 340" fill="none" xmlns="http://www.w3.org/2000/svg">
<path d="M236.629 312.198C237.452 311.784 238.253 311.558 239.035 311.518C239.812 311.479 240.512 311.619 241.134 311.936C241.756 312.252 242.244 312.734 242.598 313.381L240.451 314.461C240.273 314.155 240.029 313.932 239.72 313.791C239.413 313.655 239.069 313.601 238.688 313.631C238.307 313.66 237.92 313.774 237.528 313.971C237.11 314.182 236.775 314.441 236.524 314.748C236.275 315.059 236.125 315.392 236.075 315.747C236.024 316.101 236.087 316.449 236.263 316.79C236.437 317.146 236.686 317.412 237.008 317.588C237.331 317.765 237.707 317.84 238.138 317.814C238.565 317.79 239.026 317.654 239.52 317.405L240.554 316.885L241.375 318.518L240.342 319.038C239.935 319.243 239.614 319.493 239.38 319.787C239.143 320.083 239.001 320.402 238.954 320.745C238.909 321.092 238.974 321.434 239.148 321.771C239.311 322.104 239.529 322.354 239.804 322.521C240.077 322.694 240.385 322.78 240.728 322.779C241.067 322.78 241.42 322.689 241.785 322.505C242.143 322.325 242.442 322.094 242.681 321.811C242.921 321.529 243.073 321.22 243.139 320.887C243.207 320.557 243.164 320.225 243.011 319.892L245.05 318.867C245.364 319.529 245.464 320.199 245.352 320.876C245.237 321.558 244.945 322.192 244.476 322.776C244.008 323.364 243.396 323.849 242.638 324.23C241.858 324.622 241.107 324.817 240.384 324.813C239.66 324.814 239.017 324.649 238.454 324.317C237.891 323.985 237.46 323.522 237.161 322.928C236.826 322.271 236.742 321.622 236.911 320.979C237.075 320.338 237.438 319.79 238.001 319.335L237.955 319.244C237.076 319.544 236.292 319.556 235.606 319.281C234.917 319.012 234.391 318.511 234.027 317.779C233.698 317.124 233.589 316.444 233.702 315.738C233.813 315.039 234.12 314.378 234.623 313.758C235.123 313.139 235.792 312.619 236.629 312.198ZM226.072 317.121C226.649 316.888 227.21 316.781 227.755 316.799C228.298 316.823 228.786 316.984 229.22 317.282C229.649 317.582 229.984 318.03 230.226 318.627C230.433 319.14 230.51 319.603 230.457 320.016C230.403 320.428 230.253 320.801 230.007 321.136C229.76 321.47 229.452 321.771 229.083 322.04C228.711 322.315 228.314 322.565 227.891 322.791C227.38 323.063 226.967 323.287 226.653 323.465C226.34 323.646 226.128 323.815 226.016 323.97C225.902 324.132 225.887 324.315 225.97 324.52L225.984 324.556C226.165 325.002 226.437 325.294 226.801 325.432C227.165 325.57 227.595 325.538 228.093 325.337C228.619 325.124 228.989 324.841 229.204 324.487C229.416 324.135 229.512 323.781 229.492 323.426L231.61 322.9C231.676 323.517 231.602 324.085 231.389 324.603C231.177 325.125 230.846 325.586 230.396 325.984C229.948 326.386 229.405 326.716 228.769 326.973C228.331 327.151 227.873 327.276 227.397 327.349C226.921 327.422 226.456 327.413 226 327.321C225.546 327.234 225.129 327.032 224.749 326.717C224.365 326.404 224.05 325.945 223.806 325.341L221.341 319.249L223.403 318.415L223.909 319.665L223.98 319.637C224.008 319.331 224.096 319.02 224.244 318.703C224.389 318.391 224.612 318.096 224.913 317.818C225.212 317.545 225.598 317.313 226.072 317.121ZM226.153 318.923C225.723 319.097 225.384 319.333 225.136 319.631C224.891 319.933 224.74 320.26 224.686 320.613C224.627 320.968 224.665 321.313 224.801 321.649L225.235 322.721C225.28 322.639 225.374 322.541 225.517 322.428C225.655 322.317 225.816 322.203 226 322.088C226.183 321.973 226.365 321.862 226.548 321.756C226.73 321.65 226.888 321.558 227.023 321.481C227.325 321.308 227.583 321.121 227.796 320.92C228.008 320.719 228.152 320.5 228.226 320.263C228.302 320.03 228.284 319.775 228.172 319.499C228.012 319.104 227.747 318.864 227.377 318.779C227.008 318.694 226.599 318.742 226.153 318.923ZM217.488 320.711L220.465 330.067L218.261 330.768L217.059 326.992L216.255 327.248L214.642 331.92L211.987 332.765L213.991 327.069L208.973 323.421L211.64 322.572L215.327 325.282L216.405 324.939L215.283 321.413L217.488 320.711ZM203.637 321.059C203.944 320.986 204.234 320.944 204.507 320.932C204.775 320.916 204.993 320.921 205.161 320.947L205.054 322.825C204.704 322.807 204.401 322.831 204.145 322.896C203.889 322.961 203.682 323.096 203.524 323.299C203.362 323.5 203.255 323.797 203.204 324.19L203.133 324.752L208.91 333.683L206.522 334.249L202.609 327.557L202.51 327.58L202.013 335.319L199.618 335.886L200.903 324.269C200.962 323.721 201.095 323.232 201.304 322.801C201.512 322.367 201.807 322.003 202.189 321.711C202.565 321.416 203.048 321.199 203.637 321.059ZM190.094 327.433C191.062 327.28 191.927 327.361 192.689 327.676C193.446 327.991 194.072 328.494 194.565 329.184C195.055 329.878 195.378 330.716 195.533 331.697C195.69 332.681 195.638 333.581 195.379 334.394C195.12 335.212 194.679 335.886 194.056 336.416C193.429 336.951 192.642 337.294 191.695 337.444C190.908 337.569 190.188 337.534 189.536 337.34C188.88 337.151 188.33 336.821 187.884 336.353C187.44 335.888 187.137 335.311 186.975 334.62L189.16 334.274C189.322 334.727 189.594 335.083 189.976 335.341C190.355 335.605 190.819 335.693 191.371 335.606C191.838 335.532 192.228 335.34 192.542 335.032C192.856 334.727 193.075 334.326 193.198 333.827C193.318 333.329 193.326 332.754 193.223 332.102C193.118 331.441 192.931 330.888 192.662 330.443C192.393 330.003 192.064 329.682 191.674 329.48C191.281 329.284 190.846 329.223 190.37 329.299C190.034 329.352 189.743 329.463 189.498 329.631C189.249 329.805 189.054 330.028 188.911 330.3C188.769 330.573 188.692 330.89 188.68 331.25L186.496 331.596C186.442 330.901 186.547 330.261 186.812 329.675C187.078 329.094 187.488 328.606 188.043 328.212C188.598 327.822 189.282 327.562 190.094 327.433ZM182.308 328.772L183.111 338.557L180.805 338.746L180.481 334.796L179.64 334.865L177.021 339.057L174.243 339.284L177.474 334.184L173.402 329.502L176.193 329.273L179.177 332.742L180.305 332.649L180.002 328.961L182.308 328.772ZM167.473 329.49C168.095 329.486 168.656 329.592 169.157 329.81C169.653 330.033 170.047 330.362 170.34 330.799C170.629 331.236 170.775 331.776 170.78 332.419C170.784 332.973 170.685 333.432 170.483 333.796C170.281 334.16 170.004 334.451 169.652 334.671C169.3 334.891 168.903 335.058 168.461 335.172C168.014 335.29 167.552 335.377 167.075 335.431C166.501 335.495 166.034 335.552 165.677 335.601C165.319 335.655 165.06 335.734 164.899 335.837C164.733 335.945 164.651 336.11 164.653 336.331L164.653 336.37C164.657 336.851 164.802 337.223 165.09 337.485C165.377 337.747 165.789 337.876 166.326 337.872C166.893 337.868 167.341 337.741 167.672 337.492C167.998 337.242 168.218 336.949 168.33 336.611L170.493 336.902C170.327 337.5 170.049 338.001 169.66 338.404C169.271 338.812 168.794 339.118 168.229 339.322C167.663 339.531 167.038 339.638 166.352 339.643C165.879 339.646 165.407 339.594 164.938 339.487C164.468 339.38 164.039 339.199 163.649 338.947C163.26 338.698 162.946 338.357 162.708 337.924C162.467 337.491 162.343 336.949 162.339 336.297L162.291 329.726L164.515 329.71L164.525 331.059L164.602 331.058C164.74 330.784 164.937 330.527 165.191 330.287C165.44 330.05 165.756 329.859 166.139 329.711C166.517 329.567 166.962 329.494 167.473 329.49ZM166.885 331.195C166.42 331.198 166.018 331.293 165.679 331.478C165.339 331.668 165.079 331.918 164.898 332.226C164.713 332.534 164.621 332.869 164.624 333.231L164.632 334.388C164.704 334.328 164.828 334.272 165.002 334.219C165.172 334.167 165.363 334.121 165.576 334.081C165.789 334.041 166 334.005 166.208 333.974C166.417 333.943 166.598 333.916 166.751 333.893C167.096 333.844 167.404 333.765 167.676 333.656C167.948 333.548 168.162 333.397 168.318 333.204C168.475 333.016 168.552 332.772 168.55 332.474C168.547 332.048 168.389 331.727 168.076 331.512C167.763 331.297 167.366 331.191 166.885 331.195ZM152.18 332.045L149.897 331.809C149.914 331.442 149.78 331.143 149.495 330.912C149.211 330.681 148.825 330.54 148.338 330.49C147.842 330.438 147.413 330.503 147.051 330.684C146.685 330.869 146.479 331.184 146.433 331.629C146.405 331.892 146.447 332.129 146.558 332.342C146.668 332.559 146.836 332.735 147.062 332.87C147.288 333.005 147.562 333.089 147.884 333.123L149.378 333.278L149.209 334.912L147.715 334.757C147.236 334.707 146.862 334.779 146.593 334.974C146.32 335.169 146.166 335.433 146.132 335.768C146.094 336.129 146.195 336.435 146.435 336.687C146.67 336.938 147.016 337.088 147.474 337.135C147.932 337.183 148.324 337.118 148.651 336.942C148.973 336.766 149.158 336.515 149.205 336.19L151.474 336.426C151.407 336.993 151.186 337.469 150.812 337.854C150.434 338.239 149.95 338.519 149.362 338.694C148.77 338.868 148.118 338.918 147.406 338.844C146.643 338.765 145.996 338.582 145.464 338.295C144.933 338.009 144.538 337.644 144.28 337.202C144.021 336.764 143.92 336.269 143.977 335.718C144.032 335.188 144.243 334.767 144.61 334.454C144.976 334.145 145.447 333.945 146.022 333.855L146.032 333.753C145.649 333.692 145.313 333.545 145.024 333.314C144.735 333.087 144.516 332.797 144.369 332.443C144.221 332.089 144.171 331.692 144.216 331.251C144.278 330.653 144.504 330.154 144.892 329.753C145.281 329.356 145.788 329.073 146.414 328.902C147.036 328.731 147.732 328.685 148.504 328.766C149.254 328.843 149.914 329.026 150.484 329.312C151.05 329.602 151.484 329.979 151.787 330.443C152.09 330.907 152.221 331.441 152.18 332.045ZM132.486 336.606L130.314 336.095L132.127 328.392L129.121 327.685L127.309 335.388L125.137 334.877L126.95 327.174L123.944 326.467L122.132 334.17L119.961 333.66L122.209 324.102L134.734 327.049L132.486 336.606ZM115.107 325.308L109.251 330.394L106.997 329.636L110.125 320.33L112.245 321.042L110.113 327.386L115.96 322.29L118.22 323.05L115.092 332.357L112.977 331.646L115.107 325.308ZM97.6986 321.667L98.443 319.92L103.253 321.97L102.509 323.717L97.6986 321.667ZM100.301 327.07L104.151 318.038L106.203 318.913L102.353 327.945L100.301 327.07ZM94.756 324.706L98.606 315.675L100.652 316.547L96.8023 325.579L94.756 324.706ZM94.8383 313.971L90.3167 322.686L88.2628 321.62L90.0879 318.103L89.3389 317.714L84.8925 319.872L82.4187 318.588L87.8667 315.985L86.9062 309.856L89.3914 311.145L90.0757 315.669L91.0799 316.19L92.7843 312.905L94.8383 313.971ZM81.0094 306.114C81.8246 306.619 82.4201 307.236 82.7959 307.965C83.1717 308.693 83.3248 309.482 83.2553 310.331C83.1822 311.178 82.8787 312.033 82.3448 312.895C81.811 313.758 81.1803 314.412 80.4527 314.859C79.7215 315.303 78.9459 315.52 78.126 315.508C77.3061 315.497 76.4886 315.239 75.6733 314.734C74.8581 314.23 74.2626 313.613 73.8868 312.884C73.511 312.155 73.3608 311.366 73.4362 310.515C73.508 309.663 73.8108 308.805 74.3446 307.943C74.8784 307.08 75.5098 306.429 76.2388 305.988C76.9642 305.545 77.7368 305.329 78.5567 305.34C79.3766 305.352 80.1941 305.61 81.0094 306.114ZM80.0228 307.684C79.5808 307.41 79.1361 307.303 78.6887 307.362C78.239 307.424 77.8139 307.617 77.4133 307.94C77.009 308.261 76.6499 308.676 76.3359 309.183C76.0196 309.694 75.8079 310.202 75.7008 310.707C75.5877 311.213 75.6035 311.681 75.7481 312.112C75.8927 312.542 76.186 312.894 76.6281 313.168C77.081 313.448 77.5341 313.558 77.9873 313.498C78.437 313.436 78.865 313.242 79.2715 312.917C79.6721 312.594 80.0306 312.177 80.3469 311.666C80.6609 311.159 80.8733 310.654 80.984 310.151C81.0912 309.646 81.0725 309.178 80.9279 308.748C80.7774 308.319 80.4757 307.964 80.0228 307.684ZM66.1421 303.231L67.2906 301.711L71.508 304.898L70.3595 306.418L66.1421 303.231ZM66.4719 308.52L72.3913 300.687L74.2425 302.085L68.323 309.919L66.4719 308.52ZM67.3869 296.664C68.1417 297.235 68.6664 297.901 68.961 298.663C69.2523 299.423 69.3193 300.221 69.162 301.058C69.0047 301.896 68.6241 302.714 68.0204 303.513C67.4166 304.312 66.7348 304.899 65.9749 305.276C65.215 305.652 64.4312 305.802 63.6235 305.726C62.8124 305.647 62.0295 305.323 61.2748 304.752C60.5234 304.185 60.0008 303.523 59.707 302.766C59.4097 302.008 59.3385 301.211 59.4932 300.378C59.6446 299.541 60.0221 298.723 60.6259 297.925C61.2297 297.126 61.9145 296.537 62.6803 296.16C63.4428 295.78 64.2309 295.628 65.0445 295.703C65.8548 295.776 66.6356 296.097 67.3869 296.664ZM66.2308 298.194C65.7854 297.858 65.3368 297.695 64.8851 297.706C64.4334 297.717 63.9973 297.863 63.577 298.144C63.1566 298.424 62.7679 298.801 62.4108 299.273C62.0536 299.746 61.7975 300.223 61.6423 300.704C61.4872 301.185 61.4672 301.642 61.5824 302.076C61.695 302.514 61.974 302.901 62.4193 303.238C62.8681 303.577 63.3201 303.742 63.7752 303.734C64.2244 303.726 64.6592 303.582 65.0795 303.301C65.4998 303.021 65.8886 302.644 66.2457 302.171C66.6054 301.695 66.8628 301.217 67.018 300.736C67.1731 300.255 67.1944 299.796 67.0818 299.358C66.9632 298.921 66.6795 298.533 66.2308 298.194ZM50.7359 293.526L49.4109 294.885L43.2587 288.889L44.5838 287.529L46.8588 289.747L52.3866 284.075L53.9887 285.637L48.4609 291.308L50.7359 293.526ZM46.1299 277.295C46.5428 277.76 46.8318 278.253 46.9969 278.773C47.156 279.293 47.1675 279.806 47.0315 280.314C46.8926 280.819 46.5825 281.285 46.1011 281.712C45.6867 282.08 45.2762 282.307 44.8695 282.395C44.4628 282.482 44.0608 282.466 43.6635 282.345C43.2662 282.225 42.879 282.036 42.502 281.778C42.119 281.519 41.75 281.229 41.3951 280.906C40.9687 280.515 40.6192 280.201 40.3465 279.964C40.0707 279.731 39.8409 279.587 39.6569 279.534C39.4669 279.48 39.289 279.527 39.1233 279.674L39.0946 279.699C38.7344 280.019 38.5502 280.373 38.542 280.762C38.5338 281.151 38.7079 281.546 39.0642 281.948C39.4403 282.372 39.8311 282.626 40.2366 282.711C40.6392 282.792 41.0046 282.764 41.3328 282.627L42.5371 284.447C41.9777 284.715 41.418 284.836 40.8582 284.808C40.2952 284.784 39.7507 284.626 39.2248 284.335C38.6957 284.046 38.2035 283.646 37.7482 283.132C37.4343 282.779 37.1632 282.39 36.935 281.965C36.7068 281.541 36.5597 281.099 36.4936 280.639C36.4244 280.183 36.4745 279.722 36.6442 279.258C36.811 278.791 37.1382 278.342 37.626 277.909L42.5415 273.548L44.0177 275.212L43.0088 276.107L43.0597 276.165C43.357 276.089 43.6798 276.067 44.028 276.1C44.3702 276.133 44.7227 276.245 45.0856 276.435C45.4425 276.626 45.7906 276.912 46.1299 277.295ZM44.4593 277.974C44.151 277.626 43.8153 277.386 43.4519 277.252C43.0854 277.122 42.7266 277.09 42.3755 277.156C42.0216 277.22 41.7091 277.371 41.4381 277.612L40.5727 278.38C40.6654 278.394 40.7888 278.45 40.943 278.547C41.0944 278.64 41.2551 278.754 41.4252 278.888C41.5953 279.022 41.7608 279.157 41.9217 279.293C42.0825 279.43 42.2219 279.548 42.3396 279.649C42.6037 279.876 42.8661 280.056 43.1268 280.19C43.3875 280.323 43.6419 280.385 43.89 280.376C44.1349 280.369 44.3689 280.267 44.592 280.069C44.9108 279.786 45.0483 279.456 45.0044 279.079C44.9605 278.702 44.7788 278.334 44.4593 277.974ZM33.7323 261.842C34.2949 262.645 34.6017 263.458 34.6529 264.281C34.7016 265.1 34.5242 265.882 34.1208 266.628C33.7114 267.373 33.1002 268.031 32.2872 268.601C31.4706 269.173 30.64 269.521 29.7952 269.645C28.947 269.771 28.1478 269.67 27.3978 269.343C26.6417 269.014 25.9885 268.457 25.4382 267.672C24.9808 267.019 24.6964 266.358 24.5849 265.686C24.4675 265.014 24.5218 264.375 24.7476 263.769C24.9699 263.166 25.356 262.64 25.9059 262.192L27.1754 264.003C26.8394 264.348 26.639 264.749 26.574 265.205C26.5031 265.661 26.6278 266.117 26.9482 266.574C27.2197 266.962 27.5629 267.229 27.9777 267.375C28.3891 267.524 28.8459 267.544 29.3482 267.437C29.848 267.326 30.3684 267.081 30.9093 266.702C31.4571 266.318 31.8719 265.907 32.1537 265.47C32.432 265.036 32.5761 264.599 32.5859 264.16C32.5898 263.721 32.4536 263.303 32.1772 262.909C31.9815 262.63 31.7543 262.417 31.4955 262.271C31.2308 262.123 30.9446 262.045 30.6371 262.037C30.3295 262.029 30.0113 262.099 29.6826 262.246L28.4131 260.435C29.0137 260.081 29.6353 259.895 30.278 259.877C30.9172 259.861 31.5356 260.015 32.1331 260.341C32.7271 260.668 33.2602 261.169 33.7323 261.842ZM25.2861 255.101L17.53 255.114L16.3215 253.066L24.7772 248.076L25.9142 250.003L20.1505 253.404L27.9056 253.377L29.1173 255.431L20.6616 260.421L19.5279 258.499L25.2861 255.101ZM26.0533 242.828L13.9098 248.727L12.9156 246.68L14.3761 245.97L14.3174 245.85C14.0506 245.846 13.749 245.806 13.4126 245.728C13.0723 245.651 12.7349 245.488 12.4005 245.239C12.0622 244.991 11.7674 244.608 11.516 244.091C11.1846 243.408 11.0602 242.708 11.1428 241.991C11.2197 241.271 11.5192 240.586 12.0413 239.934C12.5577 239.281 13.3065 238.716 14.2878 238.239C15.2576 237.768 16.159 237.527 16.992 237.515C17.825 237.504 18.5528 237.686 19.1755 238.061C19.7982 238.436 20.2781 238.97 20.6151 239.664C20.8608 240.17 20.9804 240.631 20.9737 241.046C20.967 241.462 20.8941 241.829 20.7552 242.147C20.6105 242.464 20.4578 242.73 20.2971 242.945L20.339 243.031L25.0423 240.747L26.0533 242.828ZM17.3342 244.541C17.9054 244.263 18.3665 243.94 18.7176 243.57C19.0669 243.197 19.2878 242.798 19.3803 242.374C19.4672 241.948 19.4036 241.515 19.1895 241.074C18.966 240.614 18.6563 240.289 18.2602 240.097C17.8602 239.908 17.4074 239.839 16.9017 239.89C16.3904 239.939 15.8587 240.098 15.3068 240.366C14.7586 240.633 14.31 240.948 13.9608 241.311C13.6117 241.675 13.3918 242.071 13.3011 242.499C13.2104 242.927 13.2777 243.372 13.503 243.836C13.7189 244.281 14.0192 244.602 14.4038 244.799C14.7885 244.995 15.2307 245.072 15.7305 245.028C16.2285 244.981 16.7631 244.818 17.3342 244.541ZM15.7522 228.604C16.1005 229.497 16.2058 230.348 16.0682 231.156C15.9306 231.965 15.5788 232.687 15.013 233.324C14.4456 233.957 13.6894 234.458 12.7445 234.826C11.7996 235.195 10.9021 235.339 10.0521 235.258C9.2006 235.174 8.45059 234.881 7.80212 234.379C7.15365 233.878 6.65526 233.18 6.30697 232.287C5.95867 231.393 5.85335 230.542 5.99099 229.734C6.12862 228.926 6.48312 228.204 7.05448 227.57C7.62429 226.932 8.38166 226.428 9.32658 226.06C10.2715 225.691 11.1678 225.55 12.0153 225.636C12.8614 225.718 13.6086 226.009 14.2571 226.511C14.9055 227.013 15.4039 227.711 15.7522 228.604ZM14.0205 229.265C13.8317 228.781 13.5408 228.428 13.1478 228.206C12.7509 227.986 12.2952 227.885 11.7807 227.902C11.2646 227.916 10.7286 228.031 10.1728 228.248C9.61298 228.466 9.13851 228.745 8.74936 229.084C8.3547 229.421 8.08585 229.805 7.94281 230.236C7.79976 230.666 7.82267 231.124 8.01152 231.608C8.20502 232.105 8.501 232.465 8.89946 232.689C9.29637 232.909 9.75485 233.012 10.2749 232.997C10.7894 232.979 11.3266 232.861 11.8864 232.643C12.4422 232.426 12.9155 232.15 13.3062 231.815C13.6953 231.476 13.9614 231.091 14.1045 230.66C14.242 230.226 14.214 229.762 14.0205 229.265ZM8.44065 216.076L0.783651 215.262L0.263669 213.469L10.799 214.547L11.2495 216.1L2.90097 222.561L2.38633 220.787L8.44065 216.076ZM2.54838 221.346L11.9779 218.611L12.5993 220.753L3.16987 223.488L2.54838 221.346ZM10.0457 211.95L0.616259 214.685L0.000117313 212.561L9.4296 209.826L10.0457 211.95ZM12.8705 102.575L10.578 101.363L10.9691 103.933L9.41238 104.077L9.32071 101.483L7.29693 103.109L6.38953 101.835L8.59039 100.453L6.17545 99.5088L6.82215 98.0965L9.11733 99.3022L8.72618 96.7328L10.2829 96.588L10.3719 99.1878L12.3984 97.5567L13.3058 98.8299L11.1049 100.212L13.5172 101.162L12.8705 102.575ZM107.235 20.6504C106.374 20.9749 105.552 21.1158 104.771 21.0731C103.994 21.0289 103.313 20.8164 102.728 20.4358C102.143 20.0551 101.708 19.5243 101.424 18.8435L103.673 17.9962C103.818 18.3196 104.037 18.5674 104.329 18.7396C104.62 18.9077 104.957 18.9972 105.339 19.0081C105.721 19.019 106.117 18.9471 106.528 18.7923C106.967 18.6271 107.327 18.4048 107.609 18.1256C107.889 17.8424 108.073 17.5271 108.161 17.1799C108.249 16.8326 108.223 16.4803 108.084 16.1229C107.948 15.7505 107.729 15.4596 107.427 15.25C107.125 15.0405 106.759 14.9259 106.328 14.9061C105.901 14.8848 105.428 14.9718 104.91 15.1671L103.827 15.575L103.182 13.8642L104.265 13.4563C104.692 13.2956 105.037 13.0814 105.3 12.8136C105.568 12.5444 105.743 12.2416 105.826 11.9053C105.907 11.5651 105.879 11.2182 105.741 10.8648C105.614 10.5164 105.423 10.2446 105.167 10.0495C104.914 9.84886 104.617 9.73085 104.276 9.69546C103.939 9.65857 103.579 9.71223 103.196 9.85646C102.821 9.99767 102.5 10.1962 102.232 10.4519C101.964 10.7077 101.779 10.998 101.679 11.3229C101.576 11.6437 101.584 11.9779 101.701 12.3253L99.5656 13.1298C99.3231 12.4379 99.2937 11.7614 99.4772 11.1003C99.6632 10.4337 100.02 9.8346 100.549 9.30312C101.076 8.76765 101.736 8.35044 102.529 8.05148C103.347 7.7435 104.115 7.62961 104.832 7.70982C105.553 7.78453 106.175 8.01675 106.7 8.40648C107.225 8.79621 107.604 9.30212 107.839 9.92421C108.103 10.6126 108.117 11.2674 107.882 11.8887C107.651 12.5085 107.232 13.0149 106.624 13.4079L106.66 13.5036C107.566 13.2987 108.347 13.3691 109 13.7147C109.657 14.0549 110.127 14.6085 110.412 15.3757C110.67 16.0616 110.706 16.7493 110.52 17.4389C110.336 18.1229 109.96 18.747 109.394 19.3109C108.832 19.8734 108.112 20.3199 107.235 20.6504ZM118.253 16.8717C117.654 17.0425 117.085 17.0897 116.545 17.0135C116.008 16.932 115.539 16.72 115.14 16.3775C114.745 16.0338 114.459 15.5526 114.283 14.9338C114.131 14.4011 114.103 13.9326 114.201 13.5281C114.298 13.1237 114.487 12.7684 114.767 12.4623C115.048 12.1563 115.386 11.8892 115.781 11.661C116.18 11.4275 116.602 11.2207 117.047 11.0405C117.584 10.8252 118.018 10.6459 118.349 10.5026C118.679 10.3552 118.908 10.21 119.036 10.0673C119.166 9.91919 119.201 9.73862 119.14 9.52554L119.13 9.48866C118.998 9.02562 118.758 8.70626 118.411 8.53058C118.064 8.35489 117.632 8.34074 117.116 8.48813C116.571 8.6437 116.172 8.88594 115.921 9.21484C115.673 9.54258 115.54 9.88409 115.522 10.2394L113.36 10.5374C113.36 9.91694 113.494 9.36031 113.761 8.86752C114.027 8.37062 114.405 7.94809 114.895 7.59993C115.384 7.24767 115.958 6.97738 116.618 6.78905C117.072 6.65921 117.54 6.58323 118.022 6.5611C118.503 6.53897 118.965 6.59761 119.408 6.73703C119.85 6.87235 120.243 7.11682 120.588 7.47045C120.937 7.82291 121.2 8.31261 121.379 8.93955L123.183 15.2582L121.044 15.8688L120.674 14.5719L120.6 14.5929C120.54 14.8938 120.419 15.194 120.239 15.4937C120.062 15.7881 119.808 16.0575 119.479 16.3021C119.153 16.5415 118.744 16.7313 118.253 16.8717ZM118.364 15.0718C118.81 14.9443 119.172 14.7456 119.45 14.4759C119.726 14.202 119.91 13.8924 120.002 13.5471C120.099 13.2006 120.097 12.8532 119.997 12.5048L119.68 11.3923C119.627 11.4696 119.523 11.5568 119.369 11.6539C119.219 11.7499 119.047 11.8455 118.853 11.9409C118.658 12.0363 118.465 12.1269 118.272 12.2129C118.08 12.2989 117.912 12.3732 117.771 12.4358C117.452 12.5757 117.176 12.7342 116.943 12.9115C116.71 13.0888 116.544 13.2913 116.445 13.519C116.345 13.7426 116.335 13.9978 116.417 14.2846C116.534 14.6944 116.772 14.9611 117.131 15.0847C117.49 15.2082 117.901 15.204 118.364 15.0718ZM127.169 14.2142L125.199 4.59572L127.466 4.13135L128.261 8.01379L129.088 7.84446L131.185 3.36937L133.916 2.81008L131.32 8.26153L135.924 12.4208L133.181 12.9827L129.802 9.89703L128.693 10.1241L129.436 13.7498L127.169 14.2142ZM140.98 15.3334C140.667 15.3734 140.374 15.3851 140.102 15.3684C139.834 15.3554 139.617 15.3272 139.453 15.2838L139.757 13.4277C140.103 13.4822 140.407 13.4906 140.669 13.4529C140.93 13.4152 141.15 13.3033 141.328 13.1173C141.511 12.9349 141.649 12.651 141.741 12.2654L141.87 11.714L137.068 2.22371L139.502 1.91243L142.687 8.98037L142.789 8.9674L144.099 1.32472L146.54 1.01263L144.037 12.4294C143.921 12.9683 143.737 13.4408 143.483 13.847C143.231 14.2573 142.899 14.5875 142.489 14.8376C142.083 15.0914 141.58 15.2567 140.98 15.3334ZM155.119 10.4177C154.14 10.4692 153.288 10.2985 152.564 9.90569C151.843 9.51263 151.273 8.94734 150.855 8.2098C150.44 7.46779 150.207 6.60102 150.155 5.6095C150.102 4.61372 150.247 3.72488 150.59 2.94299C150.933 2.15684 151.442 1.53262 152.118 1.07033C152.797 0.603559 153.616 0.344969 154.573 0.294559C155.369 0.252663 156.081 0.362398 156.709 0.623762C157.341 0.880648 157.855 1.26542 158.248 1.77809C158.642 2.2865 158.883 2.89257 158.971 3.59629L156.763 3.71256C156.649 3.24491 156.415 2.86248 156.062 2.56528C155.714 2.26359 155.261 2.12742 154.703 2.15677C154.231 2.18164 153.823 2.33115 153.479 2.6053C153.134 2.87519 152.875 3.25158 152.699 3.73447C152.529 4.21713 152.461 4.78826 152.495 5.44786C152.53 6.11597 152.659 6.68531 152.88 7.15587C153.1 7.62217 153.394 7.97582 153.761 8.21681C154.132 8.45332 154.558 8.55891 155.039 8.5336C155.379 8.51567 155.68 8.43582 155.942 8.29404C156.207 8.14778 156.425 7.94643 156.595 7.68998C156.765 7.43353 156.874 7.12691 156.924 6.77012L159.132 6.65384C159.114 7.35039 158.942 7.97606 158.617 8.53085C158.292 9.08138 157.833 9.52373 157.24 9.85791C156.647 10.1878 155.94 10.3744 155.119 10.4177ZM163.001 9.89793L163.205 0.0818695L165.518 0.129958L165.436 4.09217L166.28 4.10971L169.314 0.208867L172.101 0.266786L168.364 5.00976L171.935 10.0836L169.136 10.0255L166.522 6.26934L165.391 6.24583L165.314 9.94602L163.001 9.89793ZM177.83 10.7085C177.211 10.6484 176.664 10.484 176.189 10.2153C175.719 9.94273 175.361 9.57403 175.115 9.10918C174.873 8.64473 174.783 8.09228 174.845 7.45182C174.899 6.90044 175.045 6.45436 175.284 6.11359C175.522 5.77283 175.828 5.51137 176.201 5.32921C176.574 5.14706 176.986 5.02225 177.438 4.95478C177.895 4.88348 178.363 4.84542 178.843 4.84062C179.421 4.83681 179.891 4.82886 180.252 4.81678C180.613 4.80045 180.879 4.74921 181.05 4.66306C181.226 4.57307 181.324 4.4178 181.346 4.19725L181.349 4.15908C181.396 3.67979 181.29 3.29488 181.031 3.00433C180.772 2.71379 180.376 2.54259 179.842 2.49073C179.277 2.43599 178.818 2.51557 178.463 2.72947C178.113 2.94378 177.864 3.21291 177.717 3.53687L175.596 3.02282C175.824 2.44548 176.152 1.97639 176.581 1.61556C177.01 1.25049 177.516 0.995655 178.1 0.851048C178.684 0.7022 179.317 0.660908 180 0.727173C180.471 0.772859 180.934 0.873478 181.39 1.02903C181.846 1.18458 182.254 1.40833 182.616 1.70027C182.977 1.98797 183.254 2.35945 183.445 2.81471C183.641 3.27039 183.707 3.8227 183.644 4.47164L183.009 11.0119L180.795 10.7971L180.925 9.45468L180.849 9.44727C180.683 9.70514 180.461 9.94048 180.183 10.1533C179.91 10.3623 179.576 10.5204 179.18 10.6276C178.789 10.7309 178.339 10.7579 177.83 10.7085ZM178.593 9.07417C179.055 9.11903 179.465 9.06674 179.822 8.91728C180.179 8.76359 180.464 8.5429 180.676 8.25521C180.892 7.96794 181.018 7.64404 181.053 7.28351L181.164 6.13196C181.086 6.18435 180.958 6.22755 180.779 6.26157C180.605 6.29601 180.41 6.32202 180.194 6.33961C179.978 6.35721 179.765 6.37077 179.554 6.38029C179.343 6.38981 179.161 6.39777 179.006 6.40416C178.658 6.41747 178.343 6.46398 178.061 6.54367C177.779 6.62337 177.551 6.75103 177.375 6.92667C177.2 7.09807 177.098 7.33221 177.069 7.62911C177.028 8.05326 177.152 8.38851 177.441 8.63487C177.729 8.88123 178.113 9.02766 178.593 9.07417ZM193.311 9.75326L195.556 10.2297C195.5 10.5926 195.602 10.9039 195.861 11.1635C196.119 11.4232 196.488 11.6039 196.968 11.7056C197.455 11.8091 197.888 11.79 198.267 11.6482C198.651 11.5031 198.889 11.2117 198.982 10.774C199.037 10.5155 199.02 10.2747 198.933 10.0513C198.846 9.82379 198.697 9.63106 198.487 9.47313C198.276 9.3152 198.013 9.20262 197.696 9.13537L196.227 8.82348L196.568 7.21652L198.037 7.52842C198.508 7.6284 198.888 7.59567 199.175 7.43023C199.467 7.26567 199.648 7.01873 199.718 6.68942C199.793 6.3351 199.725 6.02004 199.514 5.74426C199.306 5.46935 198.977 5.28412 198.527 5.18856C198.077 5.09301 197.68 5.1155 197.337 5.25605C196.997 5.39749 196.787 5.62737 196.707 5.94568L194.475 5.47187C194.601 4.91506 194.871 4.46483 195.284 4.12116C195.701 3.77838 196.211 3.55119 196.814 3.43961C197.421 3.3289 198.075 3.34787 198.775 3.49652C199.526 3.65578 200.15 3.90592 200.648 4.24693C201.147 4.58793 201.501 4.99202 201.711 5.45919C201.922 5.92218 201.97 6.42463 201.855 6.96654C201.744 7.4876 201.49 7.88453 201.092 8.15733C200.696 8.42597 200.207 8.57483 199.625 8.60394L199.604 8.70398C199.979 8.80534 200.298 8.98628 200.561 9.24679C200.824 9.50313 201.011 9.81498 201.12 10.1823C201.229 10.5497 201.238 10.9501 201.146 11.3837C201.021 11.9714 200.745 12.4441 200.316 12.8018C199.888 13.1553 199.354 13.3839 198.713 13.4875C198.077 13.592 197.379 13.5638 196.62 13.4028C195.883 13.2461 195.245 12.9954 194.709 12.6506C194.177 12.3025 193.785 11.8817 193.532 11.3881C193.28 10.8946 193.206 10.3496 193.311 9.75326ZM213.372 7.30551L215.478 8.04238L212.864 15.5116L215.778 16.5314L218.392 9.06216L220.497 9.79902L217.884 17.2682L220.798 18.288L223.412 10.8188L225.517 11.5557L222.274 20.8228L210.129 16.5726L213.372 7.30551ZM229.463 20.3705L235.821 15.9288L237.983 16.919L233.894 25.8453L231.86 24.9137L234.647 18.8291L228.298 23.2819L226.13 22.2891L230.219 13.3627L232.247 14.2917L229.463 20.3705ZM246.392 25.8244L245.468 27.4827L240.901 24.937L241.825 23.2787L246.392 25.8244ZM244.374 20.1768L239.594 28.7527L237.645 27.6666L242.425 19.0907L244.374 20.1768ZM249.639 23.1115L244.859 31.6875L242.916 30.6044L247.696 22.0285L249.639 23.1115ZM248.427 33.7787L253.84 25.5876L255.77 26.8633L253.585 30.1696L254.289 30.6348L258.938 28.9566L261.263 30.4932L255.571 32.5089L255.882 38.7055L253.546 37.1619L253.341 32.5906L252.398 31.9668L250.357 35.0545L248.427 33.7787ZM261.35 43.0497C260.593 42.4615 260.066 41.7851 259.77 41.0206C259.473 40.2561 259.405 39.4554 259.564 38.6185C259.726 37.7842 260.119 36.9666 260.741 36.1657C261.363 35.3647 262.06 34.7807 262.83 34.4137C263.605 34.0492 264.399 33.9161 265.213 34.0143C266.027 34.1125 266.812 34.4557 267.57 35.0439C268.327 35.6321 268.854 36.3085 269.15 37.073C269.447 37.8375 269.512 38.6386 269.347 39.4763C269.185 40.3166 268.793 41.1372 268.171 41.9381C267.549 42.739 266.852 43.32 266.08 43.6811C265.312 44.0448 264.521 44.1776 263.707 44.0794C262.893 43.9812 262.107 43.6379 261.35 43.0497ZM262.498 41.5937C262.908 41.9126 263.339 42.0666 263.79 42.0555C264.244 42.041 264.687 41.8943 265.12 41.6152C265.556 41.3388 265.957 40.965 266.323 40.4938C266.691 40.0194 266.956 39.5367 267.116 39.0459C267.282 38.5543 267.316 38.0869 267.217 37.6437C267.119 37.2005 266.865 36.8194 266.454 36.5005C266.034 36.1737 265.595 36.0162 265.138 36.0281C264.684 36.0425 264.238 36.1897 263.799 36.4695C263.367 36.7485 262.966 37.1253 262.597 37.5998C262.231 38.0709 261.967 38.5506 261.803 39.0388C261.643 39.5296 261.612 39.9966 261.71 40.4398C261.814 40.8823 262.077 41.2669 262.498 41.5937ZM275.828 47.4737L274.528 48.866L270.665 45.2584L271.965 43.8661L275.828 47.4737ZM276.049 42.1793L269.349 49.3557L267.653 47.7721L274.353 40.5958L276.049 42.1793ZM273.909 53.8756C273.217 53.23 272.765 52.5128 272.551 51.7242C272.34 50.9385 272.356 50.1374 272.599 49.3211C272.843 48.5047 273.306 47.7305 273.99 46.9986C274.673 46.2666 275.412 45.7528 276.207 45.4572C277.002 45.1617 277.797 45.0937 278.592 45.2533C279.391 45.4159 280.136 45.82 280.827 46.4656C281.516 47.1083 281.967 47.821 282.181 48.6036C282.397 49.3891 282.386 50.1885 282.145 51.0017C281.908 51.8179 281.447 52.592 280.764 53.3239C280.081 54.0559 279.338 54.5698 278.538 54.8656C277.74 55.1643 276.94 55.2339 276.139 55.0745C275.34 54.9179 274.597 54.5183 273.909 53.8756ZM275.217 52.4739C275.625 52.8549 276.055 53.0633 276.505 53.0991C276.956 53.1349 277.404 53.0351 277.852 52.7997C278.299 52.5643 278.725 52.2301 279.129 51.7971C279.533 51.3642 279.837 50.9166 280.042 50.4543C280.246 49.992 280.313 49.539 280.244 49.0951C280.177 48.6482 279.94 48.2342 279.532 47.8532C279.121 47.4694 278.688 47.2581 278.235 47.2193C277.787 47.1804 277.34 47.2787 276.893 47.5141C276.445 47.7495 276.02 48.0837 275.615 48.5167C275.208 48.9527 274.903 49.4019 274.698 49.8642C274.494 50.3264 274.425 50.781 274.492 51.228C274.564 51.6747 274.806 52.0901 275.217 52.4739ZM290.134 58.7372L291.593 57.523L297.088 64.1271L295.628 65.3413L293.597 62.8991L287.508 67.9644L286.078 66.2446L292.166 61.1793L290.134 58.7372ZM293.023 75.3603C292.661 74.8542 292.425 74.334 292.316 73.7995C292.212 73.2661 292.254 72.7538 292.443 72.2628C292.633 71.7752 292.991 71.3443 293.514 70.97C293.965 70.6478 294.397 70.4645 294.81 70.4202C295.224 70.3759 295.622 70.4343 296.005 70.5956C296.387 70.7569 296.752 70.9856 297.1 71.2816C297.454 71.5786 297.791 71.9064 298.11 72.2648C298.493 72.6981 298.808 73.0466 299.054 73.3105C299.304 73.572 299.518 73.7388 299.695 73.811C299.878 73.8842 300.06 73.8564 300.24 73.7275L300.271 73.7052C300.663 73.4251 300.883 73.0921 300.932 72.7061C300.981 72.3202 300.849 71.9089 300.537 71.4721C300.207 71.0111 299.845 70.7173 299.451 70.5907C299.059 70.4676 298.693 70.4571 298.352 70.5594L297.345 68.6235C297.929 68.4151 298.498 68.3539 299.052 68.4398C299.61 68.5232 300.134 68.7371 300.627 69.0817C301.123 69.4237 301.571 69.8737 301.97 70.4318C302.245 70.8165 302.474 71.2318 302.656 71.6775C302.839 72.1233 302.939 72.5782 302.957 73.0424C302.978 73.504 302.88 73.9566 302.662 74.4001C302.448 74.847 302.075 75.2601 301.545 75.6394L296.2 79.4617L294.906 77.6523L296.003 76.8678L295.958 76.8054C295.655 76.8496 295.331 76.8372 294.989 76.768C294.652 76.6999 294.313 76.5519 293.972 76.3243C293.637 76.0976 293.321 75.7762 293.023 75.3603ZM294.756 74.86C295.026 75.2378 295.335 75.5121 295.682 75.6828C296.033 75.851 296.386 75.9204 296.742 75.891C297.101 75.865 297.428 75.7467 297.722 75.536L298.663 74.863C298.573 74.8388 298.456 74.7705 298.313 74.6581C298.172 74.5492 298.024 74.4193 297.869 74.2683C297.714 74.1173 297.563 73.9655 297.417 73.813C297.272 73.6605 297.146 73.5281 297.039 73.4157C296.8 73.1622 296.558 72.9555 296.313 72.7956C296.067 72.6358 295.821 72.5475 295.573 72.5308C295.329 72.5116 295.086 72.5888 294.843 72.7623C294.496 73.0102 294.325 73.3238 294.329 73.7033C294.333 74.0827 294.476 74.4683 294.756 74.86ZM303.741 92.0201C303.267 91.1626 303.048 90.322 303.084 89.4984C303.122 88.6785 303.381 87.919 303.861 87.2199C304.347 86.5225 305.024 85.9334 305.893 85.4526C306.765 84.9698 307.628 84.7115 308.481 84.6777C309.338 84.6419 310.122 84.8265 310.833 85.2317C311.55 85.6385 312.141 86.2613 312.605 87.1003C312.991 87.7975 313.204 88.4857 313.244 89.165C313.289 89.846 313.168 90.4757 312.879 91.0543C312.595 91.6308 312.155 92.1127 311.561 92.4999L310.49 90.5648C310.86 90.2575 311.102 89.8802 311.215 89.433C311.334 88.9874 311.258 88.5204 310.988 88.032C310.759 87.6181 310.446 87.3165 310.049 87.1271C309.655 86.9356 309.203 86.8668 308.692 86.9206C308.184 86.9781 307.64 87.1668 307.062 87.4866C306.477 87.8105 306.021 88.1748 305.695 88.5795C305.372 88.9821 305.183 89.4011 305.126 89.8364C305.076 90.2734 305.167 90.7026 305.401 91.1239C305.566 91.4222 305.769 91.6578 306.011 91.8308C306.259 92.0055 306.535 92.1131 306.84 92.1538C307.145 92.1944 307.469 92.159 307.811 92.0474L308.882 93.9825C308.247 94.2703 307.609 94.3895 306.968 94.34C306.331 94.2885 305.733 94.0693 305.173 93.6827C304.617 93.2939 304.14 92.7398 303.741 92.0201ZM311.428 99.6153L319.142 100.421L320.128 102.585L311.193 106.655L310.266 104.619L316.356 101.845L308.641 101.053L307.653 98.8837L316.588 94.8134L317.512 96.8435L311.428 99.6153ZM309.372 111.74L322.067 107.148L322.841 109.288L321.314 109.84L321.36 109.966C321.625 109.997 321.921 110.069 322.247 110.183C322.578 110.294 322.896 110.492 323.202 110.775C323.513 111.057 323.766 111.468 323.962 112.009C324.22 112.723 324.27 113.432 324.113 114.137C323.961 114.844 323.591 115.495 323.004 116.088C322.421 116.684 321.618 117.167 320.592 117.538C319.578 117.905 318.656 118.05 317.827 117.974C316.997 117.898 316.292 117.641 315.712 117.203C315.132 116.765 314.711 116.183 314.449 115.458C314.257 114.929 314.187 114.458 314.237 114.045C314.287 113.633 314.398 113.276 314.57 112.973C314.747 112.674 314.926 112.425 315.109 112.228L315.076 112.138L310.159 113.916L309.372 111.74ZM318.223 110.952C317.626 111.168 317.133 111.441 316.745 111.772C316.359 112.106 316.097 112.48 315.961 112.892C315.83 113.306 315.848 113.744 316.014 114.205C316.188 114.685 316.462 115.042 316.836 115.274C317.214 115.504 317.657 115.62 318.165 115.622C318.679 115.627 319.224 115.524 319.801 115.316C320.374 115.108 320.854 114.842 321.239 114.517C321.624 114.192 321.885 113.821 322.02 113.405C322.155 112.989 322.134 112.539 321.959 112.054C321.791 111.589 321.526 111.239 321.164 111.003C320.802 110.766 320.37 110.644 319.869 110.635C319.368 110.63 318.82 110.736 318.223 110.952ZM318.12 126.968C317.868 126.043 317.853 125.185 318.076 124.396C318.298 123.607 318.724 122.926 319.355 122.352C319.986 121.783 320.791 121.365 321.769 121.099C322.748 120.833 323.655 120.784 324.492 120.954C325.33 121.128 326.045 121.499 326.637 122.066C327.228 122.634 327.65 123.38 327.902 124.305C328.154 125.231 328.168 126.088 327.946 126.877C327.724 127.666 327.295 128.346 326.659 128.916C326.025 129.491 325.219 129.911 324.24 130.178C323.262 130.444 322.355 130.49 321.522 130.315C320.689 130.144 319.977 129.775 319.385 129.207C318.793 128.639 318.372 127.893 318.12 126.968ZM319.912 126.493C320.048 126.995 320.3 127.377 320.668 127.639C321.039 127.9 321.481 128.049 321.995 128.086C322.51 128.127 323.055 128.069 323.63 127.912C324.21 127.755 324.711 127.528 325.134 127.232C325.562 126.938 325.87 126.585 326.058 126.172C326.246 125.759 326.272 125.301 326.135 124.8C325.995 124.286 325.739 123.896 325.367 123.631C324.995 123.37 324.55 123.219 324.031 123.179C323.518 123.142 322.971 123.203 322.391 123.361C321.816 123.517 321.316 123.742 320.892 124.034C320.469 124.33 320.164 124.685 319.976 125.098C319.793 125.514 319.772 125.979 319.912 126.493ZM324.067 140.199L331.595 141.816L331.923 143.653L321.56 141.47L321.276 139.878L330.26 134.334L330.584 136.152L324.067 140.199ZM330.482 135.58L320.817 137.305L320.425 135.109L330.09 133.384L330.482 135.58ZM322.035 144.132L331.7 142.407L332.089 144.585L322.424 146.309L322.035 144.132ZM307.755 252.603L309.908 254.048L309.788 251.451L311.351 251.47L311.171 254.059L313.354 252.655L314.123 254.016L311.79 255.161L314.092 256.352L313.302 257.689L311.145 256.25L311.265 258.846L309.702 258.827L309.885 256.232L307.7 257.643L306.93 256.281L309.264 255.137L306.964 253.94L307.755 252.603Z" fill="#1D1D1D"/>
</svg>
