<svg width="150" height="150" viewBox="0 0 150 150" fill="none" xmlns="http://www.w3.org/2000/svg">
<g clip-path="url(#clip0_5_3293)">
<path d="M89.1013 135.368C89.3942 134.964 89.5306 134.815 89.6229 134.643C91.1435 131.7 93.6632 130.991 96.8328 130.618C103.633 129.816 109.166 123.142 109.447 116.067C109.511 114.467 109.447 112.86 109.471 111.256C109.491 109.793 110.169 108.767 111.686 108.667C113.347 108.559 114.141 109.649 114.218 111.152C114.575 118.428 113.17 125.11 107.541 130.33C107.18 130.662 106.037 131.051 107.172 131.773C110.695 134.001 118.013 136.166 123.049 132.021C121.729 131.384 120.75 130.466 121.179 128.902C121.644 127.207 123.077 126.998 124.557 127.103C129.243 127.423 131.924 124.661 134.074 121.025C134.724 119.923 134.576 119.518 133.215 119.55C130.411 119.614 127.598 119.598 124.794 119.562C122.262 119.526 121.44 118.364 122.282 115.951C123.658 112.01 124.256 107.925 124.593 103.796C124.706 102.413 124.81 101.002 124.284 99.5351C121.729 100.69 119.293 102.061 116.689 102.918C97.4587 109.276 80.5192 105.308 65.9589 91.3014C64.8034 90.191 64.1735 89.9465 62.9979 91.125C61.5375 92.5841 59.9366 93.915 58.3277 95.2178C57.2966 96.0556 56.7269 96.7892 58.0348 97.8475C58.3357 98.092 58.5404 98.4688 58.749 98.8096C59.4872 100.012 59.3107 101.119 58.2756 102.045C57.1361 103.063 55.9886 102.698 55.0738 101.768C54.0026 100.678 53.0798 99.4349 52.1088 98.2484C48.9833 94.4241 45.8779 90.5838 42.7363 86.7676C41.2759 84.9958 40.2768 84.8795 38.5235 86.4269C28.5492 95.2138 18.3782 103.772 8.20329 112.323C6.80303 113.501 6.65057 114.676 7.85423 116.087C10.414 119.081 12.9417 122.104 15.4694 125.126C15.9388 125.688 16.3882 126.273 16.7974 126.882C17.5798 128.041 17.5156 129.199 16.4764 130.125C15.3611 131.119 14.1293 130.791 13.2627 129.812C9.64367 125.704 6.01664 121.583 2.93126 117.061C1.26619 114.62 1.90012 111.77 4.39571 109.501C7.45702 106.715 10.6909 104.117 13.8364 101.427C20.9942 95.306 28.1439 89.1808 35.2937 83.0556C35.5986 82.795 35.8554 82.4022 36.2085 82.2859C39.005 81.3599 38.6198 79.2714 38.2948 77.0627C36.9989 68.2757 36.0279 59.4607 36.044 50.5575C36.06 43.362 40.5858 37.349 47.5229 35.5251C48.3012 35.3207 49.0274 35.2966 48.9913 34.102C48.9552 33.0317 48.558 32.675 47.5991 32.3182C41.1354 29.921 37.1393 24.5013 37.1794 18.3401C37.1955 15.8186 38.1463 14.9287 40.662 15.2334C43.635 15.5941 46.2951 16.7607 48.8268 18.797C49.0555 16.7446 48.6663 14.1671 51.4508 14.1831C53.8942 14.1991 53.806 16.4239 53.818 18.5164C56.0047 17.0894 58.091 15.9629 60.4421 15.4418C64.3179 14.5759 65.6179 15.7344 65.0923 19.6108C64.2457 25.8723 60.8434 30.1295 54.9494 32.3503C54.0547 32.687 53.7097 33.0357 53.6655 34.0018C53.6174 35.1042 54.2353 35.2966 55.0538 35.5452C57.9466 36.4311 57.9385 36.4511 59.6397 33.7573C67.7524 20.8896 79.3196 13.0126 94.4215 11.361C113.668 9.25648 129.223 16.3758 140.096 32.4545C153.842 52.7863 149.18 80.3979 129.837 95.4864C128.971 96.1599 129.007 96.8413 128.886 97.8194C128.421 101.652 130.242 103.155 133.673 104.478C139.491 106.719 141.565 112.106 139.86 118.969C138.536 124.293 135.334 128.261 130.475 130.851C129.893 131.163 129.316 131.372 128.938 132.029C125.813 137.477 120.79 139.261 114.868 138.972C110.719 138.768 106.891 137.373 103.489 134.972C102.502 134.278 101.651 134.21 100.524 134.555C96.8649 135.669 93.1336 136.186 89.0973 135.368H89.1013ZM100.079 101.006C123.169 101.082 142.74 82.6788 143.106 59.1921C143.479 35.2004 124.256 15.9068 100.287 15.7344C77.0125 15.5701 57.4731 34.9078 57.425 58.1659C57.3768 81.5884 76.6113 100.906 100.079 101.006ZM43.7875 56.1977C41.7707 56.1977 40.872 57.2119 41.0913 59.2402C41.1715 59.9698 41.2759 60.7034 41.2558 61.433C41.2237 62.6316 41.7132 63.0926 42.9289 63.0324C44.0523 62.9803 45.1878 62.8761 46.3112 63.1968C47.3664 63.4974 47.888 64.1909 47.9682 65.2011C48.0485 66.2313 47.5309 66.9689 46.6041 67.4459C45.91 67.8067 45.1717 67.7065 44.4455 67.7225C41.5005 67.7867 41.8456 67.1092 42.1144 70.4204C42.2107 71.5989 42.319 72.9378 42.9329 73.8598C43.4625 74.6535 44.8066 74.0562 45.7816 74.1765C47.0133 74.3288 47.7556 75.0544 47.9 76.2249C48.0485 77.4275 47.4105 78.2933 46.251 78.6341C45.6251 78.8185 44.943 78.8104 44.281 78.8626C43.7955 78.8986 43.302 78.8906 43.3622 79.5881C43.4505 80.6264 43.7915 81.5002 44.7344 82.1096C45.6692 82.7109 46.0624 81.9212 46.572 81.4842C49.1117 79.3195 51.5832 77.0787 54.1791 74.9862C55.0778 74.2606 55.1781 73.6072 54.8612 72.6131C51.6474 62.4913 51.856 52.4015 55.3627 42.3999C55.8402 41.037 55.3547 40.6241 54.2393 40.2393C48.1608 38.1388 41.1314 42.9251 40.8024 49.3389C40.7182 50.9664 40.9509 51.9084 42.8928 51.6278C43.8718 51.4875 44.8949 51.6158 45.8939 51.6719C47.25 51.7481 48.0284 52.5258 48.0043 53.8486C47.9803 55.0913 47.3182 56.0213 45.9822 56.1857C45.26 56.2739 44.5177 56.2017 43.7835 56.2017L43.7875 56.1977ZM56.8873 78.9788C56.6667 79.1472 56.3979 79.3316 56.1491 79.544C55.2423 80.3217 54.2674 81.0433 53.4529 81.9131C51.9483 83.5206 48.7466 84.4787 48.9753 86.4349C49.204 88.3711 51.7236 90.0066 53.1359 91.8506C53.7899 92.7084 54.2433 92.4799 54.8772 91.9267C56.8272 90.2231 58.7851 88.5234 60.7792 86.8638C61.4933 86.2705 61.5054 85.7735 61.0039 85.0158C59.8724 83.3001 58.8413 81.5203 57.766 79.7685C57.5694 79.4438 57.4531 79.0309 56.8913 78.9788H56.8873ZM131.522 114.98C132.389 114.98 133.264 114.908 134.118 114.996C135.49 115.137 135.643 114.451 135.506 113.325C135.23 111.02 133.833 109.649 131.867 108.687C129.255 107.408 129.187 107.44 128.634 110.282C128.569 110.607 128.441 110.92 128.377 111.244C127.877 113.762 128.924 115.007 131.518 114.98H131.522ZM54.1791 27.58C57.2685 26.5057 59.8604 23.3108 59.8323 20.6049C56.0889 22.1884 54.0427 24.7138 54.1791 27.58ZM42.4354 20.4967C42.8928 23.88 45.6893 26.9186 48.7024 27.4036C47.9401 23.9041 45.6492 21.8797 42.4354 20.4967Z" fill="white"/>
<path d="M68.8229 136.635C66.2871 136.635 63.7394 136.767 61.2117 136.611C53.6487 136.138 48.493 130.008 49.3436 122.476C49.5523 120.636 49.5964 118.736 50.2664 116.968C51.5784 113.525 53.8413 111.08 57.5446 110.19C60.1445 109.564 62.7564 108.979 65.4486 109.087C66.7004 109.139 66.7847 108.594 66.4677 107.664C66.0344 106.39 65.4847 105.195 64.3292 104.373C62.957 103.399 62.6521 102.1 63.603 100.733C64.5458 99.3744 65.9341 99.5788 67.1939 100.236C69.9744 101.687 70.8891 104.389 71.2863 107.191C71.515 108.791 72.1169 109.075 73.5653 109.091C76.6466 109.123 79.6799 109.729 82.5727 110.783C85.1646 111.729 86.8497 113.814 87.7885 116.291C89.1808 119.971 89.5298 123.843 88.5468 127.695C87.2028 132.963 82.9257 136.214 76.8392 136.595C74.1791 136.759 71.499 136.623 68.8269 136.623V136.635H68.8229ZM69.0716 131.88C69.0716 131.88 69.0716 131.864 69.0716 131.86C71.7437 131.86 74.4199 131.965 77.084 131.836C81.2848 131.632 84.0933 128.694 84.2899 124.477C84.3621 122.937 83.9649 121.43 83.8606 119.915C83.6319 116.535 81.0199 114.443 77.0398 114.246C76.3859 114.214 76.2053 114.391 76.0248 115.064C75.3868 117.481 74.0106 118.155 71.9163 116.7C69.8299 115.253 68.1087 115.056 66.243 116.796C66.1949 116.84 66.1347 116.876 66.0745 116.904C64.0684 117.858 62.8046 117.389 62.3151 115.249C62.0824 114.23 61.7052 114.166 60.8546 114.242C56.9508 114.587 55.1733 116.207 54.4231 120.095C54.1181 121.678 53.9536 123.266 54.07 124.869C54.3508 128.694 57.4242 131.728 61.2558 131.86C63.8557 131.949 66.4637 131.876 69.0676 131.876L69.0716 131.88Z" fill="white"/>
<path d="M41.039 101.074C41.9378 99.9398 42.8044 98.8575 44.0121 98.1119C45.3722 97.2741 46.6882 97.1498 47.8036 98.4085C48.9992 99.7554 48.5017 100.978 47.278 102.044C47.1376 102.169 47.0453 102.349 46.8246 102.65C48.3091 103.055 49.7094 103.431 51.1097 103.82C53.1158 104.377 54.0466 105.564 53.6133 107.011C53.18 108.462 51.6995 109.015 49.7896 108.398C48.265 107.905 46.7364 107.48 45.1114 107.384C43.9037 107.312 43.33 107.644 43.5467 108.915C43.5707 109.043 43.5547 109.184 43.5467 109.316C43.4744 110.956 42.6479 112.07 40.9909 112.05C39.2737 112.026 38.4391 110.735 38.6397 109.184C38.8644 107.444 38.0941 107.368 36.75 107.408C30.491 107.596 25.2831 112.647 25.0705 118.8C24.7896 126.938 29.5722 131.909 37.7932 132.005C40.1965 132.033 42.6038 132.005 45.0071 131.993C46.632 131.981 47.8838 132.638 47.8919 134.338C47.8999 136.03 46.6842 136.751 45.0392 136.691C41.2437 136.551 37.408 137.132 33.6486 136.326C25.2952 134.538 19.8666 127.487 20.1555 118.937C20.4284 110.932 26.4747 104.229 34.6115 102.914C34.8041 102.882 34.9926 102.806 35.2574 102.73C35.2976 102 34.5312 101.884 34.2584 101.415C33.6205 100.333 33.464 99.2664 34.3467 98.2842C35.1451 97.3903 36.096 97.262 37.2395 97.7711C38.8323 98.4767 39.8434 99.8035 41.035 101.074H41.039Z" fill="white"/>
<path d="M100.155 94.6326C80.0297 94.6005 63.7321 78.4898 63.7441 58.639C63.7602 38.271 79.9454 22.2405 100.548 22.1964C120.693 22.1523 136.818 38.6479 136.758 59.2403C136.702 78.5499 120.039 94.6646 100.155 94.6326ZM99.9342 27.0749C86.4131 27.1871 74.533 35.7576 70.264 48.477C66.0632 60.988 70.3563 75.0183 80.8522 83.1398C82.441 84.3704 83.9095 85.6973 86.1563 84.3304C86.8183 83.9295 87.8535 84.1099 88.7201 84.0938C90.8586 84.0538 93.0011 84.1339 95.1356 84.0217C99.8219 83.7732 104.191 84.7392 108.067 87.405C109.291 88.2468 110.338 88.2829 111.582 87.7577C122.719 83.0676 129.765 74.9221 131.514 62.9082C134.303 43.7709 119.281 26.9146 99.9302 27.0789L99.9342 27.0749ZM93.8718 89.0004C96.3995 89.9545 98.9873 90.0266 102.169 89.6659C99.0916 88.6837 96.5118 88.4833 93.8718 89.0004Z" fill="white"/>
<path d="M116.577 39.4652C116.52 40.1547 116.212 40.7239 115.778 41.2611C107.738 51.2466 99.7174 61.2482 91.6609 71.2217C90.2606 72.9534 88.8002 72.9975 87.2274 71.4221C84.3507 68.5359 81.51 65.6136 78.6854 62.6793C77.4015 61.3484 77.3333 59.8532 78.4126 58.7989C79.5721 57.6685 81.0045 57.8489 82.4128 59.304C84.2704 61.2241 86.1722 63.1042 87.9616 65.0885C88.8804 66.1067 89.406 66.247 90.3609 65.0484C96.6842 57.1073 103.084 49.2303 109.455 41.3333C110.418 40.1387 111.369 38.9321 112.336 37.7375C113.062 36.8436 114.013 36.6391 115.032 37.0721C116.047 37.501 116.504 38.3789 116.573 39.4652H116.577Z" fill="white"/>
</g>
<defs>
<clipPath id="clip0_5_3293">
<rect width="146" height="128" fill="white" transform="translate(2 11)"/>
</clipPath>
</defs>
</svg>
