<svg width="150" height="150" viewBox="0 0 150 150" fill="none" xmlns="http://www.w3.org/2000/svg">
<g clip-path="url(#clip0_5_3300)">
<g clip-path="url(#clip1_5_3300)">
<path d="M68.3193 72.5383C63.2452 69.8469 59.5961 66.0345 55.9387 62.2385C55.1067 61.373 54.6784 61.4183 54.2501 62.5559C53.5252 64.4765 52.685 66.3559 51.9642 68.2807C51.4988 69.5254 50.6545 69.7603 49.5136 69.4059C48.1833 68.9896 48.6446 68.0334 48.9576 67.2256C49.8678 64.8598 50.7822 62.494 51.8118 60.1777C52.2978 59.0855 52.199 58.4178 51.3052 57.5317C41.7582 48.0562 32.2648 38.5313 22.7672 29.0064C21.7046 27.9389 20.6543 26.8384 19.7194 25.6597C15.9961 20.9611 16.4162 14.5232 20.6502 10.55C24.9377 6.5274 31.5399 6.47382 35.9468 10.6448C40.2302 14.7004 44.3283 18.958 48.5128 23.1208C53.5252 28.1038 58.5746 33.0537 63.5376 38.0821C64.522 39.0795 65.0656 39.166 66.0953 38.1068C77.1085 26.7972 88.1835 15.5495 99.2133 4.25642C101.491 1.92774 103.962 0.101887 107.376 0.00296927C111.351 -0.108313 114.963 2.14206 116.569 5.76079C118.147 9.32181 117.335 13.5629 114.53 16.4191C108.995 22.0451 103.431 27.6421 97.9406 33.3134C95.49 35.844 95.5312 35.0239 98.0106 37.6575C99.3286 39.0547 100.729 40.3736 102.055 41.7667C103.509 43.2917 103.484 44.2809 101.985 45.8141C97.2816 50.6198 92.6152 55.4668 87.817 60.1777C86.5443 61.4266 86.7173 62.1355 87.8046 63.3101C90.2758 65.9809 92.5205 68.8536 94.4727 71.9283C96.2561 74.7351 95.7289 75.9551 92.4422 76.5444C85.8194 77.7356 79.3243 77.2369 73.0311 74.7928C71.8984 74.3518 71.05 74.4837 69.9915 75.0442C66.1365 77.0885 62.6233 79.8211 58.2987 80.9421C57.372 81.1812 58.0104 81.8241 58.1092 82.2734C58.6405 84.7175 58.1257 85.3728 55.6051 85.3934C54.9873 85.3975 54.3695 85.3934 53.7517 85.3934C49.7031 85.4223 49.4972 85.6366 49.6042 89.8035C50.3827 90.1167 51.0334 89.5933 51.7006 89.3955C58.554 87.3676 64.5879 88.6453 69.6044 93.855C70.3787 94.6587 70.9717 94.9802 72.0632 94.5433C73.8136 93.8426 76.153 94.7947 77.4215 93.8302C78.6777 92.874 78.6777 90.5042 79.658 88.9132C85.111 80.0807 98.2248 80.3486 103.414 89.4779C104.201 90.8627 104.621 91.2955 106.219 90.3929C111.483 87.413 117.912 88.4475 122.327 92.7422C126.281 96.5876 127.397 103.256 124.897 108.375C124.329 109.533 123.612 110.621 122.867 111.912C123.954 112.336 125.35 111.858 126.162 113.082C126.462 113.54 126.808 112.835 127.01 112.571C129.852 108.845 133.707 107.563 138.241 107.786C140.227 107.885 142.224 107.881 144.209 107.827C146.096 107.778 146.981 108.515 146.924 110.498C146.837 113.313 146.854 116.132 146.932 118.943C146.989 120.925 146.083 121.605 144.185 121.581C138.9 121.511 133.616 121.581 128.332 121.511C126.919 121.494 126.194 121.791 125.803 123.365C123.406 132.96 115.56 138.982 105.704 138.982C81.6843 138.982 57.6644 138.982 33.6445 138.974C22.1947 138.974 13.5373 130.611 13.1708 119.211C13.1213 117.702 13.1872 116.186 13.0966 114.681C12.9772 112.703 13.8586 112.056 15.7902 112.064C28.488 112.118 41.1816 112.089 53.8794 112.089C56.1446 112.089 58.4099 112.068 60.6751 112.113C61.643 112.134 62.0302 111.837 61.919 110.803C61.7542 109.253 62.2897 107.151 61.47 106.294C60.7534 105.548 58.7476 106.867 57.2979 107.221C56.1035 107.514 54.9214 107.877 53.7311 108.19C51.4865 108.779 50.8275 108.437 49.9708 106.261C49.7443 105.688 49.5548 105.099 49.3159 104.53C48.5787 102.77 48.0721 102.91 46.367 103.804C44.8266 104.612 44.04 105.424 43.9699 107.188C43.937 108.041 42.9238 108.371 42.0465 108.425C35.9468 108.816 29.843 108.701 23.7392 108.441C22.1823 108.375 21.5522 107.431 21.5645 106.009C21.5769 104.608 21.511 103.508 19.637 103.314C18.3191 103.178 18.1049 101.954 18.2326 100.742C18.8751 94.7123 22.8702 90.4877 28.8422 89.5562C29.7895 89.4078 30.7656 89.3872 31.6923 89.1605C32.3307 89.0039 33.5663 89.7417 33.4715 88.2332C33.3933 86.9926 33.3233 85.6201 31.6429 85.4882C30.0737 85.3687 28.488 85.3852 26.9105 85.3728C24.4352 85.3522 23.7968 84.5279 24.7318 82.1992C26.5399 77.7108 29.9007 74.7886 34.46 73.3997C41.6264 71.2194 48.4263 71.7758 54.4354 76.734C56.054 78.0694 57.7056 78.2672 59.559 77.2369C62.3597 75.683 65.1974 74.1951 68.3235 72.5177L68.3193 72.5383ZM69.6908 121.539V121.552C52.6809 121.552 35.6668 121.572 18.6568 121.519C16.8858 121.515 16.4162 121.861 16.9311 123.699C18.8545 130.566 25.2507 135.685 32.8579 135.714C57.4132 135.812 81.9726 135.808 106.528 135.714C114.028 135.685 119.992 131.056 122.455 123.922C123.258 121.589 123.237 121.544 120.729 121.544C103.719 121.544 86.7049 121.544 69.695 121.544L69.6908 121.539ZM91.3796 73.4615C91.3014 72.4229 90.6547 71.8376 90.177 71.207C87.7758 68.0293 85.111 65.0741 82.4792 62.086C72.7222 50.9866 61.7789 41.0578 51.4535 30.5272C45.7821 24.7447 40.0284 19.0446 34.2953 13.328C31.9723 11.0117 29.1676 10.1791 25.9962 11.0652C22.9525 11.9184 21.0209 13.9833 20.4937 17.1074C19.9171 20.5242 21.4369 23.1991 23.801 25.5566C35.3126 37.0517 46.8406 48.5261 58.2575 60.1159C62.8621 64.7939 67.5533 69.2204 73.8424 71.6027C79.5468 73.7583 85.3376 74.5207 91.3796 73.4656V73.4615ZM82.0509 26.8261C81.5072 26.789 81.1654 27.1352 80.8318 27.4814C76.5484 31.9162 72.2774 36.3634 67.9651 40.7734C67.2773 41.4782 67.265 41.9275 67.9857 42.6034C73.3276 47.6276 78.4265 52.8867 83.2494 58.4178C83.8507 59.1061 84.3326 59.304 85.074 58.5373C89.5509 53.9088 94.0608 49.3092 98.579 44.7178C99.2997 43.9841 99.3286 43.4937 98.546 42.7188C93.5872 37.7935 88.686 32.8106 83.756 27.8606C83.2824 27.3866 82.8417 26.8096 82.055 26.8261H82.0509ZM106.903 3.21779C105.642 3.16008 103.958 3.98852 102.558 5.41458C96.8409 11.2301 91.149 17.0745 85.4117 22.8694C84.6539 23.636 84.4273 24.1347 85.317 24.9879C87.784 27.3619 90.214 29.7854 92.5699 32.2748C93.3607 33.1115 93.8014 32.9754 94.518 32.2418C100.502 26.1089 106.553 20.042 112.496 13.872C114.456 11.836 114.613 9.32181 113.456 6.79942C112.343 4.38419 110.342 3.259 106.907 3.21366L106.903 3.21779ZM69.7032 118.362C86.9315 118.362 104.156 118.333 121.384 118.407C123.192 118.415 123.521 117.686 123.254 116.247C122.974 114.743 121.718 115.419 120.927 115.419C95.0534 115.382 69.176 115.39 43.3027 115.394C34.9295 115.394 26.5563 115.411 18.1831 115.398C17.0958 115.398 16.2103 115.316 16.2062 116.927C16.2021 118.63 17.2194 118.37 18.2326 118.37C35.3908 118.37 52.5491 118.37 69.7073 118.366L69.7032 118.362ZM84.7939 112.085C84.9998 112.081 85.2058 112.072 85.4158 112.068C85.2387 109.781 86.1819 107.576 85.6918 105.301C84.4603 99.5881 78.4059 96.0641 72.6769 97.6345C67.0302 99.18 63.3729 105.684 65.0285 111.067C65.3374 112.072 65.8893 112.146 66.6884 112.085C67.7922 112.002 67.3185 111.231 67.2444 110.712C66.9725 108.787 66.9725 106.879 67.5162 105.004C67.7057 104.353 67.8869 103.611 68.7518 103.574C69.7279 103.532 71.7378 106.319 71.9067 107.238C72.2568 109.158 71.433 110.551 70.1151 111.862C71.7131 112.522 72.5039 111.891 73.167 110.762C73.5171 110.16 74.1513 109.488 74.6373 110.584C74.9009 111.186 74.6579 112.023 75.7658 111.557C76.4866 111.256 77.6151 111.561 77.265 109.999C77.0756 109.138 77.9693 109.175 78.5377 109.587C79.1431 110.028 79.765 110.502 80.2222 111.087C81.2354 112.377 82.4463 112.278 84.1637 111.887C82.3557 110.312 80.8441 108.944 79.2749 107.646C78.2535 106.801 78.1176 105.972 79.1678 105.123C80.1481 104.332 80.424 102.242 81.7049 102.564C83.1011 102.914 83.1135 104.897 83.5748 106.236C83.686 106.554 83.6819 106.912 83.7519 107.246C84.0937 108.862 84.4397 110.473 84.7857 112.089L84.7939 112.085ZM105.189 112.043C105.296 111.483 104.942 111.219 104.687 110.906C102.175 107.856 102.22 107.889 104.567 104.86C105.531 103.615 106.05 104.015 106.59 105.111C107.479 106.92 107.957 108.841 107.978 110.852C107.986 111.664 108.159 112.118 109.11 112.122C110.132 112.126 110.144 111.516 110.198 110.79C110.68 104.48 105.75 99.1141 99.411 99.0605C93.0065 99.0069 87.8376 104.398 88.2206 110.692C88.2742 111.557 88.4018 112.126 89.4644 112.122C90.5435 112.118 90.4488 111.458 90.4447 110.745C90.4364 109.154 90.6382 107.592 91.2808 106.125C91.5155 105.593 91.7585 104.925 92.6028 105.14C95.3623 105.84 96.2725 108.862 94.3656 110.947C94.1144 111.223 93.6325 111.413 93.8426 111.932C93.9084 111.977 93.9538 112.035 94.0114 112.048C95.9472 112.522 97.92 110.749 99.8434 112.142C101.376 109.859 102.904 111.813 104.44 112.134C104.679 112.184 104.951 112.072 105.181 112.039L105.189 112.043ZM114.028 111.862C116.956 112.761 118.892 111.738 120.54 109.686C122.846 106.805 123.526 103.615 122.805 100.025C121.334 92.6845 111.936 89.3254 106.231 94.1311C105.136 95.0544 104.275 96.2991 105.77 97.3253C108.801 99.4108 111.285 101.834 112.446 105.412C112.714 106.236 113.328 106.129 113.954 106.026C114.699 105.902 114.555 105.437 114.349 104.958C114.205 104.62 114.127 104.245 114.469 104.035C114.876 103.784 115.292 103.99 115.56 104.324C116.413 105.395 117.179 106.541 118.077 107.576C118.843 108.462 118.526 109.064 117.727 109.587C116.586 110.325 115.416 111.013 114.032 111.862H114.028ZM82.6193 95.8622C82.924 94.7164 83.1464 93.6448 83.5089 92.6185C83.7025 92.0621 84.0278 91.4645 84.8763 91.7942C87.4422 92.7999 88.5625 96.4021 86.8285 98.4876C86.1283 99.3284 86.4084 99.8931 86.9768 100.388C87.7964 101.109 87.9035 100.033 88.3153 99.72C89.0031 99.1965 89.0402 98.0054 90.6794 98.5783C92.0056 99.044 93.3977 97.3501 94.831 96.7442C95.7042 96.3774 94.4974 95.8086 94.4315 95.2563C94.3615 94.6752 94.691 94.3702 94.9999 94.0116C95.6259 93.2862 96.289 92.5897 96.8574 91.8189C97.5905 90.8339 98.233 90.9781 98.6861 91.9714C99.1103 92.8988 99.5222 93.888 99.6375 94.8854C99.7899 96.196 100.593 96.2661 101.507 96.1342C102.681 95.9652 102.08 95.0956 101.973 94.5268C101.021 89.4037 97.1539 86.09 91.7709 85.7438C86.915 85.4305 82.6934 88.3568 81.0542 93.0678C80.5105 94.6298 80.7865 95.5819 82.6234 95.8581L82.6193 95.8622ZM55.0614 82.4012C54.5178 80.9092 53.7229 79.9859 52.7756 79.1822C47.6479 74.8299 41.8035 74.36 35.5967 76.0911C32.6643 76.9071 30.3043 78.6176 28.5292 81.0946C28.2738 81.4532 27.6107 82.2569 28.4468 82.327C29.8142 82.4424 31.2351 82.8587 32.6354 82.0673C38.1915 78.9349 43.9658 79.2234 49.596 81.6346C51.4247 82.4177 53.0515 82.4465 55.0614 82.4053V82.4012ZM21.3998 100.837C23.1255 99.1924 24.6988 98.5742 26.4122 98.2939C30.7079 97.585 35.0366 97.4572 39.2829 98.3969C41.0128 98.7802 41.4287 97.9147 42.0177 96.8019C42.7591 95.4047 41.6141 94.9307 40.8068 94.4279C36.3505 91.6376 31.614 91.7118 26.7705 93.1996C23.2903 94.2671 21.9476 96.9132 21.3916 100.841L21.3998 100.837ZM66.26 94.6422C62.0343 91.1842 57.4338 90.5907 52.4955 92.0703C47.6396 93.5211 43.9493 97.383 43.5622 101.307C44.979 100.544 46.7583 101.084 47.9321 99.7818C51.0869 96.2867 55.2221 95.1945 59.6496 95.5242C61.9107 95.6932 63.9536 95.4747 66.2559 94.6422H66.26ZM41.1651 105.812C41.3052 105.577 41.4452 105.338 41.5811 105.103C40.1025 104.501 39.9666 103.392 39.9955 102.222C40.0078 101.711 39.703 101.525 39.25 101.426C34.6989 100.449 30.1395 100.351 25.6214 101.533C24.5588 101.81 23.9781 102.589 24.2417 103.899C24.4847 105.115 24.9583 105.647 26.268 105.618C28.1832 105.577 30.1025 105.783 32.0218 105.803C35.0696 105.84 38.1174 105.812 41.1693 105.812H41.1651ZM127.945 118.362C132.83 118.362 137.69 118.354 142.55 118.37C143.283 118.37 143.723 118.172 143.707 117.336C143.69 116.507 143.246 116.309 142.517 116.317C140.115 116.338 137.714 116.297 135.313 116.338C134.209 116.359 133.274 116.054 133.279 114.863C133.287 113.684 134.205 113.362 135.317 113.387C137.648 113.441 139.984 113.399 142.315 113.424C143.077 113.432 143.67 113.366 143.666 112.373C143.666 111.458 143.39 110.984 142.368 111.009C140.107 111.067 137.834 110.918 135.581 111.071C131.73 111.335 128.723 114.244 127.945 118.362ZM41.5152 88.6824V88.7566C42.6808 88.7566 43.8423 88.769 45.0078 88.7525C45.568 88.7442 46.3588 89.1482 46.5606 88.262C46.8942 86.7824 47.1125 85.2739 47.3431 83.7736C47.3513 83.7159 47.0054 83.5634 46.8077 83.5181C43.3604 82.7309 39.9007 82.6196 36.4246 83.3409C35.5391 83.5264 35.4361 83.9261 35.6874 84.7999C36.82 88.7401 36.7829 88.7484 40.8933 88.6865C41.0992 88.6865 41.3052 88.6865 41.5111 88.6865L41.5152 88.6824ZM57.9898 98.3516C57.0631 98.5247 55.844 98.57 54.6537 98.9451C50.428 100.276 50.3085 100.561 52.3802 104.369C52.7962 105.136 53.2534 105.305 54.0112 105.094C56.1735 104.493 58.3522 103.932 60.5063 103.297C60.9676 103.161 61.5936 103.17 61.7048 102.403C62.1167 99.5304 61.1117 98.3145 57.9898 98.3516ZM46.194 91.8643C44.7813 91.6582 43.6034 91.4233 42.306 91.8189C43.5746 93.3769 44.7442 94.3496 46.194 91.8643ZM68.8795 107.971C69.0113 108.433 68.62 109.22 69.4478 109.241C70.1315 109.257 70.5105 108.688 70.5022 107.992C70.494 107.316 70.1521 106.702 69.4726 106.702C68.6653 106.702 68.9948 107.489 68.8795 107.971Z" fill="white"/>
<path d="M76.0337 146.846C96.8328 146.846 117.628 146.854 138.427 146.842C142.756 146.842 143.781 145.766 143.748 141.484C143.724 137.774 143.699 134.065 143.707 130.355C143.707 129.164 143.74 127.821 145.429 127.891C146.977 127.957 146.928 129.267 146.936 130.355C146.977 134.547 147.039 138.734 146.977 142.926C146.92 146.792 144.576 149.339 140.738 149.854C139.79 149.982 138.822 149.999 137.863 149.999C96.3386 150.003 54.8103 150.003 13.2862 149.995C6.77463 149.995 3.00195 146.248 3.00195 139.823C3.00195 122.306 3.01019 104.793 3.00607 87.2768C3.00607 85.1666 3.25319 83.1553 4.88417 81.5932C6.02503 80.501 7.39242 79.9363 8.97398 79.9322C12.2689 79.924 15.5638 79.9446 18.8587 79.924C20.0408 79.9157 20.9963 80.2784 20.9427 81.5973C20.8933 82.8338 19.8925 83.0234 18.8381 83.0151C15.9551 82.9945 13.072 82.978 10.189 82.9986C7.30181 83.0193 6.2392 84.0785 6.2392 86.9966C6.22685 104.855 6.22273 122.714 6.2392 140.573C6.2392 144.538 8.71862 146.825 13.0226 146.829C34.0277 146.846 55.0286 146.837 76.0337 146.837V146.846Z" fill="white"/>
<path d="M125.383 83.0031C120.65 83.0031 115.914 83.0031 111.182 83.0031C110.07 83.0031 108.809 83.0937 108.772 81.4987C108.735 79.883 109.979 79.9407 111.108 79.9366C120.642 79.9284 130.181 79.9243 139.716 79.916C140.902 79.916 142.265 79.8047 142.224 81.5234C142.191 83.0855 140.906 83.0113 139.79 83.0113C134.987 83.0113 130.185 83.0113 125.383 83.0113V82.9989V83.0031Z" fill="white"/>
<path d="M112.912 73.8982C111.721 73.9394 110.914 72.6947 111.462 71.586C111.668 71.1697 112.063 70.8482 112.372 70.4814C114.778 67.6293 114.769 64.4227 112.343 61.5582C108.665 57.21 108.653 52.1899 112.31 47.9736C113.114 47.0462 114.007 46.1189 115.235 47.1863C116.396 48.1961 115.589 49.1193 114.843 50.0014C112.047 53.311 112.059 56.2249 114.835 59.5593C118.237 63.6437 118.142 68.9111 114.584 72.8266C114.127 73.3335 113.678 73.8734 112.904 73.8982H112.912Z" fill="white"/>
<path d="M125.202 46.7041C126.195 46.8154 126.759 47.5243 126.413 48.7731C126.298 49.1977 125.878 49.5521 125.565 49.9024C122.632 53.1791 122.571 56.0106 125.359 59.3944C128.736 63.4912 128.765 68.5401 125.421 72.5051C125.198 72.7647 124.98 73.0368 124.725 73.2593C124.053 73.8487 123.32 74.1867 122.534 73.4901C121.796 72.8389 121.821 72.0476 122.323 71.2727C122.772 70.5844 123.324 69.9621 123.744 69.2614C125.462 66.3969 125.198 64.1507 122.88 61.3892C119.202 57.0163 119.325 51.8025 123.201 47.6974C123.674 47.1946 124.119 46.6588 125.198 46.7L125.202 46.7041Z" fill="white"/>
<path d="M55.8808 52.3672C54.6617 52.3178 53.9121 50.8711 54.7317 49.9273C56.3874 48.0231 58.1996 46.2508 59.9994 44.4786C60.6007 43.8851 61.3792 43.8933 62.0258 44.5074C62.5694 45.0226 62.8701 45.7233 62.3635 46.3415C60.5843 48.5012 58.5744 50.4425 56.4038 52.2106C56.2597 52.326 56.0208 52.326 55.8808 52.3631V52.3672Z" fill="white"/>
<path d="M64.2911 49.4658C65.4732 49.5483 66.1363 50.0305 66.0745 51.1433C65.9962 52.5694 65.2055 53.4802 63.7928 53.575C62.7961 53.641 61.9806 52.9815 62.0794 51.947C62.203 50.6199 63.0844 49.7626 64.2911 49.4658Z" fill="white"/>
<path d="M30.7943 18.4841C30.6872 19.6258 30.2094 20.3718 29.015 20.3883C27.7877 20.4047 27.0093 19.7288 26.9722 18.5542C26.9351 17.4001 27.5941 16.5882 28.8585 16.5923C30.1106 16.5923 30.679 17.363 30.7943 18.4841Z" fill="white"/>
<path d="M60.7251 57.7913C59.4895 57.6388 58.7605 57.0247 58.7647 55.9283C58.7647 54.8567 59.3948 54.1148 60.5645 54.0942C61.7383 54.0736 62.3191 54.7125 62.352 55.8706C62.385 57.0741 61.5983 57.5192 60.7251 57.7913Z" fill="white"/>
<path d="M82.9858 36.9403C82.9199 38.1809 82.2898 38.8692 81.0501 38.8857C79.8762 38.9022 79.2502 38.2098 79.2461 37.0969C79.2461 35.9058 79.9092 35.1268 81.1448 35.1433C82.2568 35.1557 82.8787 35.8316 82.9817 36.9444L82.9858 36.9403Z" fill="white"/>
<path d="M108.843 10.068C108.752 11.3827 108.052 12.1782 106.792 12.2153C105.532 12.2524 104.712 11.5393 104.712 10.204C104.712 8.90155 105.532 8.10197 106.734 8.04839C107.974 7.99481 108.715 8.81088 108.839 10.0721L108.843 10.068Z" fill="white"/>
<path d="M75.3832 99.6498C75.5727 99.6581 75.7127 99.6498 75.8445 99.6746C77.0925 99.8889 78.9788 99.621 79.2383 100.948C79.4895 102.234 78.0809 103.454 77.1337 104.526C76.7918 104.913 76.3058 105.049 75.8569 104.662C75.3668 104.237 75.7127 103.804 75.8816 103.363C76.0669 102.877 77.3355 102.329 75.9846 101.875C75.0126 101.546 73.8429 101.624 73.1139 102.44C72.7514 102.848 73.5587 103.145 73.8799 103.446C74.3577 103.895 74.4648 104.414 74.0529 104.888C73.6246 105.383 73.1674 104.971 72.7926 104.707C71.7588 103.969 71.1616 102.885 70.5397 101.818C70.0496 100.981 70.6715 100.746 71.2358 100.47C72.562 99.8229 73.9994 99.7405 75.3791 99.6416L75.3832 99.6498Z" fill="white"/>
<path d="M96.9852 104.047C97.0594 104.344 97.0676 104.41 97.0964 104.468C97.4301 105.189 99.1352 105.486 98.2497 106.434C97.2612 107.497 96.4539 106.108 95.7867 105.465C95.066 104.773 93.9416 103.982 94.2299 102.98C94.5141 101.987 95.8814 101.83 96.8617 101.636C98.7563 101.265 100.68 101.232 102.533 101.966C103.283 102.263 103.699 102.646 103.097 103.483C102.459 104.369 101.923 105.338 101.269 106.211C100.956 106.628 100.42 106.644 99.9671 106.351C99.6088 106.121 99.6994 105.774 99.8106 105.436C100.482 103.433 100.239 103.194 97.9861 103.664C97.6607 103.734 97.3559 103.907 96.9935 104.047H96.9852Z" fill="white"/>
<path d="M110.272 97.2345C110.445 98.2979 112.467 98.5534 111.335 99.6085C110.318 100.556 109.593 99.1098 108.868 98.4957C108.456 98.1454 108.176 97.6467 107.805 97.2428C106.949 96.3072 107.245 95.7219 108.304 95.2397C110.787 94.098 113.299 93.9043 115.894 94.8275C116.397 95.0048 116.895 95.2397 116.685 95.8002C116.154 97.2222 115.305 98.4669 114.156 99.4767C113.888 99.7116 113.555 99.761 113.234 99.4767C112.875 99.1593 112.838 98.8172 112.991 98.3762C113.201 97.758 114.531 97.3499 113.575 96.5586C112.818 95.928 111.879 96.4844 111.067 96.8553C110.824 96.9666 110.581 97.0861 110.264 97.2345H110.272Z" fill="white"/>
<path d="M120.63 106.99C118.649 105.288 117.335 103.479 115.914 101.773C115.511 101.286 115.54 100.775 115.964 100.297C116.367 99.8355 116.742 99.345 117.175 98.9122C117.776 98.3105 117.978 96.9298 118.917 97.1482C119.947 97.3873 120.124 98.7103 120.371 99.6871C120.947 101.954 120.98 104.258 120.63 106.995V106.99Z" fill="white"/>
<path d="M89.1766 90.7475C89.1518 91.7202 91.207 92.0952 90.1733 93.0226C89.0942 93.987 88.5135 92.3508 87.8133 91.7738C87.0925 91.1844 86.1658 90.3477 86.4953 89.408C86.8166 88.5012 88.0439 88.3817 88.9747 88.2869C90.8734 88.0973 92.7762 88.0108 94.6296 88.6991C95.6634 89.0824 95.927 89.6099 95.2433 90.5043C94.5843 91.3698 93.9418 92.2518 93.2169 93.0638C92.871 93.4512 92.3438 93.4306 91.9155 93.0885C91.5736 92.8165 91.7178 92.4991 91.8949 92.1859C92.2038 91.646 93.2375 91.2462 92.6033 90.5249C92.1049 89.952 91.1782 90.2859 90.441 90.323C89.9838 90.3477 89.4649 90.2611 89.1724 90.7475H89.1766Z" fill="white"/>
</g>
</g>
<defs>
<clipPath id="clip0_5_3300">
<rect width="150" height="150" fill="white"/>
</clipPath>
<clipPath id="clip1_5_3300">
<rect width="144" height="150" fill="white" transform="translate(3.00195 0.00292969)"/>
</clipPath>
</defs>
</svg>
