<svg width="150" height="150" viewBox="0 0 150 150" fill="none" xmlns="http://www.w3.org/2000/svg">
<g clip-path="url(#clip0_5_3318)">
<g clip-path="url(#clip1_5_3318)">
<path d="M109.47 28.1248C108.972 29.489 108.447 30.8266 107.998 32.1869C107.766 32.8899 107.207 32.8785 106.663 33.0305C103.419 33.9311 100.32 35.1623 97.5249 37.0889C96.6692 37.6779 96.2813 38.3353 96.2851 39.4258C96.3193 58.8018 96.327 78.1777 96.2889 97.5536C96.2889 99.2028 96.6464 99.4156 98.0421 98.5758C100.594 97.0368 103.324 95.8741 106.226 95.1293C107.238 94.8671 107.698 94.9051 107.724 96.1629C107.789 99.2864 107.846 99.275 104.887 100.404C101.978 101.513 99.2666 103.007 96.7339 104.808C94.9959 106.047 93.4215 106.126 91.5124 104.922C79.3277 97.2192 66.3559 96.5543 52.8782 100.837C52.2165 101.046 51.5433 101.293 50.8626 101.35C49.3528 101.471 48.3793 100.78 48.3793 99.1952C48.3641 89.38 48.3603 79.5647 48.4249 69.7532C48.4325 68.7842 48.9269 67.819 49.1969 66.8501C49.7293 64.9197 49.8586 62.8753 49.4137 61.0133C47.9001 54.694 48.5086 48.2987 48.3907 41.93C48.3413 39.3346 48.4249 36.7355 48.3641 34.1439C48.3222 32.4035 49.022 31.275 50.6496 30.6214C58.3963 27.494 66.4471 26.7416 74.6881 27.5092C81.176 28.1134 87.3976 29.6676 93.064 33.0191C93.8855 33.5055 94.4711 33.2129 95.1556 32.8139C98.9586 30.5986 103.024 29.0786 107.344 28.235C108.025 28.102 108.698 27.9044 109.478 28.1324L109.47 28.1248ZM91.6912 68.6018H91.7026C91.7026 59.7366 91.4858 50.8637 91.809 42.0098C91.9421 38.4417 90.5465 36.8153 87.5421 35.5765C76.7455 31.1116 65.7892 30.9216 54.6351 33.9539C53.3916 34.2921 53.3003 35.0141 53.3041 36.0477C53.3231 55.359 53.3345 74.6742 53.3041 93.9855C53.3041 95.4485 53.5475 95.7411 55.1067 95.3649C67.0214 92.4769 78.685 92.7771 89.8353 98.4998C91.6607 99.4384 91.6835 99.4308 91.6835 97.2876C91.6912 87.727 91.6835 78.1663 91.6835 68.6018H91.6912Z" fill="white"/>
<path d="M4.2499 94.6051C8.01103 94.6051 11.5554 94.6051 15.1035 94.6051C24.2306 94.6165 33.3539 94.6051 42.481 94.6773C43.3215 94.6849 44.816 93.8717 44.8084 95.8667C44.797 98.2759 44.6791 98.4545 42.3137 98.4545C30.399 98.4431 18.4844 98.4735 6.56971 98.3671C4.61879 98.3481 4.10539 98.8876 4.17004 100.795C4.30695 104.77 4.20047 104.77 8.17075 104.766C14.0007 104.759 19.8306 104.778 25.6605 104.743C27.0068 104.736 28.1591 104.968 28.1933 106.567C28.2313 108.27 27.0372 108.578 25.6111 108.574C19.0852 108.555 12.5556 108.6 6.02969 108.532C4.66062 108.517 4.16244 108.825 4.17765 110.299C4.25751 116.694 4.18525 123.09 4.21568 129.485C4.23469 133.346 6.92719 136.006 10.8176 136.013C22.6068 136.032 34.3921 136.032 46.1813 136.013C50.1098 136.006 52.9277 133.129 52.9392 129.147C52.962 121.296 52.9468 113.441 52.9544 105.591C52.9544 104.341 55.1525 102.912 56.3276 103.345C56.9361 103.569 56.7383 104.071 56.7383 104.458C56.7497 113.259 56.8562 122.064 56.6851 130.864C56.5976 135.474 51.8971 139.881 47.0141 139.931C34.7192 140.056 22.4242 140.018 10.1293 139.946C4.7595 139.916 0.23018 134.888 0.336663 129.633C0.534417 120.012 0.378495 110.382 0.359481 100.757C0.359481 100.062 0.386101 99.3512 0.245392 98.6787C-0.74718 93.9743 1.23416 90.4898 5.80531 89.1484C7.00705 88.795 8.29245 88.5746 9.53982 88.567C16.5753 88.5214 23.607 88.5556 30.6424 88.567C30.8972 88.567 31.152 88.5594 31.403 88.586C32.5439 88.6962 33.4262 89.2434 33.3996 90.4442C33.3729 91.6753 32.6466 92.3175 31.2889 92.3099C24.1926 92.2833 17.0925 92.3251 9.99617 92.3175C8.64993 92.3175 7.3341 92.4353 6.09434 92.9787C5.42122 93.2751 4.68724 93.5221 4.2423 94.6127L4.2499 94.6051Z" fill="white"/>
<path d="M136.475 95.3347C136.475 105.522 136.536 115.714 136.456 125.901C136.395 133.414 130.687 139.019 123.343 138.996C116.802 138.977 110.907 133.46 110.862 126.897C110.748 109.623 110.801 92.3442 110.812 75.0696C110.812 72.9036 111.892 71.8966 114.155 71.8852C119.666 71.8624 125.176 71.8358 130.687 71.9042C132.06 71.9232 132.63 71.6003 132.531 70.1221C132.406 68.2335 132.523 66.3259 132.485 64.4297C132.455 62.963 132.717 61.5988 134.471 61.5798C136.224 61.5608 136.517 62.925 136.517 64.3841C136.505 72.6756 136.505 80.9633 136.505 89.2548C136.505 91.2802 136.505 93.3056 136.505 95.3309H136.482L136.475 95.3347ZM114.748 111.306C114.748 116.432 114.669 121.558 114.771 126.684C114.863 131.218 119.076 135.029 123.72 134.983C128.344 134.934 132.493 131.012 132.512 126.498C132.554 116.246 132.489 105.994 132.542 95.7413C132.55 94.3315 132.018 94.0883 130.77 94.1035C126.02 94.1643 121.271 94.1833 116.521 94.0921C115.064 94.0655 114.695 94.5405 114.714 95.9313C114.786 101.057 114.745 106.184 114.748 111.31V111.306ZM123.67 90.2998V90.3074C126.138 90.3074 128.61 90.2732 131.078 90.3226C132.109 90.3416 132.554 90.0414 132.539 88.9318C132.485 85.0103 132.497 81.0887 132.516 77.1672C132.52 76.2856 132.375 75.7384 131.299 75.746C126.173 75.7878 121.042 75.7916 115.916 75.7726C114.996 75.7726 114.726 76.1336 114.733 77.0114C114.767 80.9329 114.779 84.8545 114.733 88.776C114.718 89.9198 115.106 90.3454 116.266 90.315C118.734 90.2504 121.202 90.296 123.674 90.296L123.67 90.2998Z" fill="white"/>
<path d="M129.394 54.0064C137.912 54.0938 144.416 48.7017 145.804 41.2158C145.895 40.718 146.001 40.224 146.07 39.7224C146.249 38.4494 146.944 37.7502 148.253 37.8984C149.584 38.0466 150.063 39.0156 149.998 40.1974C149.888 42.2949 149.321 44.2975 148.45 46.2165C144.925 53.9684 136.669 58.8361 128.512 57.9659C119.772 57.0311 112.843 50.822 110.938 42.2266C108.322 30.3935 117.167 18.7239 128.937 18.4883C129.379 18.4807 129.827 18.4655 130.265 18.5149C131.554 18.6631 132.455 19.2977 132.379 20.6922C132.303 22.0602 131.299 22.4098 130.101 22.4098C125.416 22.4098 121.43 24.0856 118.323 27.5892C113.882 32.6051 113.151 38.3962 115.73 44.3849C118.426 50.6472 123.503 53.8126 129.386 54.0102L129.394 54.0064Z" fill="white"/>
<path d="M29.7414 29.8195C29.7642 33.1634 28.5929 35.8918 27.2314 38.5441C26.2503 40.4555 25.1778 42.3175 24.1358 44.1985C22.6527 46.8812 22.512 49.545 23.9685 52.3303C25.0485 54.3975 25.9917 56.5559 26.5621 58.8283C27.5319 62.7004 27.4026 66.4813 25.1931 69.9773C24.4172 71.2047 23.6491 72.4435 22.8238 73.6366C21.025 76.2282 20.7056 78.9908 21.8046 81.9167C22.2496 83.0947 22.4853 84.2081 20.9984 84.7287C19.5495 85.2341 18.7623 84.3677 18.2374 83.1327C16.8227 79.7888 16.8646 76.4752 18.5987 73.2718C19.3783 71.8317 20.2986 70.4561 21.2608 69.1299C23.535 65.995 23.8316 62.6016 22.5842 59.0524C21.8541 56.9739 20.968 54.9409 20.0667 52.9269C18.7775 50.039 18.8459 47.189 19.9754 44.2783C21.1923 41.1395 22.9987 38.3047 24.5199 35.3256C26.5241 31.4078 26.3377 27.7371 23.8962 24.0549C22.0442 21.2696 20.2948 18.4006 19.3099 15.1555C18.998 14.1257 18.6862 13.0769 18.8763 11.9901C19.0475 11.0211 19.6902 10.3257 20.6561 10.2915C21.6069 10.2573 22.3865 10.8159 22.5006 11.8457C22.9265 15.7786 25.2463 18.8566 27.1173 22.1322C28.532 24.6173 29.9544 27.0835 29.7528 29.8233L29.7414 29.8195Z" fill="white"/>
<path d="M27.7178 78.2006C27.4744 74.7616 28.7674 71.847 30.821 69.3885C34.3007 65.2275 34.6582 60.793 32.8023 55.9063C31.2089 51.7111 31.8212 47.7402 34.1676 43.944C35.898 41.1473 37.9211 38.5481 39.5032 35.6487C41.6784 31.6664 41.5758 27.8323 39.1419 24.0095C37.5142 21.4483 35.9512 18.8492 34.9472 15.9574C34.4833 14.6236 34.2208 13.2785 34.3083 11.8687C34.3806 10.7515 34.9967 10.0751 36.0805 10.0067C37.2062 9.9345 37.8831 10.6147 37.9706 11.7091C38.2292 15.0454 39.6477 17.9562 41.5415 20.5744C46.2686 27.1179 45.6297 33.5398 41.4465 39.9807C40.1382 41.9947 38.7464 43.9592 37.4534 45.9846C35.761 48.6332 35.1564 51.4945 36.3505 54.4851C38.849 60.7436 38.001 66.4663 33.8748 71.7672C31.5778 74.7198 30.8362 77.9498 32.2281 81.5559C32.6959 82.7719 32.1673 83.7105 30.9541 84.0905C29.7752 84.4591 29.0032 83.8017 28.5887 82.7415C28.0068 81.2595 27.676 79.7205 27.714 78.193L27.7178 78.2006Z" fill="white"/>
<path d="M39.1987 78.0602C39.0389 75.6397 39.5866 73.3293 41.0317 71.5661C45.6827 65.9042 44.8346 60.1739 41.7657 54.246C40.986 52.7374 40.3091 51.1642 39.7311 49.5682C39.3165 48.4244 39.4002 47.2009 40.7769 46.7221C42.1726 46.2357 42.8343 47.1515 43.3059 48.3332C44.8917 52.308 46.9415 56.0851 47.6564 60.4095C48.3942 64.8706 47.299 68.8378 44.983 72.5085C43.1081 75.4801 42.2372 78.4288 43.7698 81.7994C44.2832 82.928 44.017 83.9616 42.7316 84.4175C41.5185 84.8469 40.7921 84.0946 40.3243 83.1332C39.5409 81.522 39.1112 79.812 39.1987 78.0564V78.0602Z" fill="white"/>
<path d="M127.861 45.829C127.291 45.7264 126.891 45.3084 126.496 44.9095C124.184 42.5763 121.89 40.2203 119.571 37.891C118.563 36.8802 118.335 35.8048 119.35 34.737C120.384 33.6502 121.377 34.1024 122.294 35.0182C123.769 36.4926 125.298 37.9138 126.728 39.4299C127.595 40.3457 128.142 40.4445 129.105 39.4223C133.14 35.1512 137.273 30.9712 141.392 26.7799C142.887 25.2599 144.419 25.5069 145.085 27.2587C145.495 28.3417 144.837 28.9421 144.237 29.5615C141.156 32.7344 138.053 35.8846 134.957 39.0461C133.056 40.9879 131.162 42.9373 129.261 44.8791C128.869 45.278 128.523 45.7606 127.861 45.829Z" fill="white"/>
<path d="M117.3 58.536C116.79 59.6304 116.315 60.5766 115.908 61.5494C115.657 62.1574 115.265 62.4272 114.619 62.4348C111.078 62.4804 107.538 62.5412 103.997 62.5906C102.974 62.6058 102.297 62.089 102.073 61.1124C101.845 60.113 102.358 59.3796 103.198 58.9274C103.628 58.6956 104.161 58.555 104.647 58.5512C108.815 58.5208 112.987 58.536 117.3 58.536Z" fill="white"/>
<path d="M127.169 63.6961C127.188 66.1661 125.481 67.8988 123.039 67.8722C120.761 67.8494 118.845 65.9077 118.841 63.6163C118.841 61.4123 120.742 59.5618 123.001 59.5694C125.572 59.5808 127.146 61.1387 127.165 63.6923L127.169 63.6961ZM122.918 64.8893C123.705 64.8589 124.169 64.4637 124.233 63.7493C124.306 62.9703 123.952 62.3737 123.127 62.2559C122.275 62.1305 121.788 62.6169 121.754 63.4263C121.72 64.2129 122.214 64.6841 122.921 64.8931L122.918 64.8893Z" fill="white"/>
<path d="M116.879 68.3436C113.791 68.1232 111.227 68.9325 108.645 70.3575C107.288 71.1061 105.177 70.6121 103.424 70.4639C102.564 70.3917 102.024 69.5709 102.081 68.6552C102.142 67.6748 102.785 66.873 103.717 66.8312C107.63 66.6412 111.547 66.5538 115.464 66.5196C116.373 66.512 116.475 67.4468 116.875 68.3474L116.879 68.3436Z" fill="white"/>
<path d="M113.308 54.6259C110.22 54.6259 107.128 54.6373 104.04 54.6221C102.944 54.6145 102.199 54.0407 102.077 52.9577C101.944 51.7759 102.61 50.9285 103.754 50.8297C105.956 50.6397 108.212 50.3699 110.379 50.6397C112.136 50.8563 112.414 52.9653 113.562 54.0559C113.479 54.2459 113.391 54.4397 113.308 54.6297V54.6259Z" fill="white"/>
<path d="M108.683 46.6458C107.097 46.6458 105.526 46.6762 103.96 46.6344C102.845 46.604 102.21 45.8706 102.085 44.8598C101.963 43.9023 102.492 43.1385 103.423 42.8231C104.705 42.3937 106.044 42.6103 107.359 42.6483C108.071 42.6673 107.975 43.3019 108.097 43.7731C108.333 44.6774 108.728 45.5438 108.683 46.6458Z" fill="white"/>
<path d="M105.313 78.6186C103.705 78.6718 102.191 78.7668 102.058 76.7757C101.967 75.4077 103.107 74.7693 105.245 74.6971C106.599 74.6515 107.435 74.7237 107.416 76.5363C107.397 78.3336 106.872 78.9948 105.313 78.6186Z" fill="white"/>
<path d="M105.321 86.5225C103.644 86.5491 102.203 86.6517 102.036 84.7746C101.906 83.323 103.135 82.6922 105.519 82.5592C107.208 82.4642 107.371 83.228 107.478 84.6606C107.641 86.8531 106.31 86.5681 105.318 86.5225H105.321Z" fill="white"/>
<path d="M70.9122 42.8761C74.7076 42.8761 78.5068 42.8761 82.3021 42.8761C83.1996 42.8761 84.0933 42.9483 84.8653 43.4233C85.759 43.9743 86.1469 44.8369 85.8693 45.8629C85.6107 46.828 84.9528 47.3258 83.8879 47.2232C75.6165 46.4214 67.3185 46.6684 59.028 46.6342C57.9175 46.6304 57.001 46.3796 56.5409 45.3081C56.1682 44.4417 56.5485 43.6779 57.1684 43.0813C57.7578 42.5151 58.5488 42.5417 59.317 42.5417C63.1808 42.5493 67.0408 42.5417 70.9046 42.5417C70.9046 42.6519 70.9046 42.7621 70.9046 42.8723L70.9122 42.8761Z" fill="white"/>
<path d="M69.8735 50.5332C74.7641 51.0006 79.2782 50.594 83.7543 51.1905C84.7811 51.3273 85.5911 51.6845 85.9144 52.7333C86.3669 54.2001 85.4428 55.4845 83.914 55.3249C75.6426 54.4547 67.3445 54.6333 59.0503 54.5915C57.7307 54.5839 56.4947 54.2457 56.5099 52.6991C56.5251 51.202 57.5671 50.5218 59.0693 50.5294C62.8076 50.5484 66.5459 50.537 69.8735 50.537V50.5332Z" fill="white"/>
<path d="M71.4482 78.5313C67.3981 78.5313 63.3479 78.5161 59.3016 78.5389C57.8298 78.5465 56.476 78.2349 56.4874 76.5098C56.4988 74.8264 57.788 74.4312 59.2978 74.4578C66.9493 74.5984 74.6047 74.6972 82.2562 74.8378C83.0054 74.853 83.7622 75.0164 84.5038 75.1646C85.8462 75.4306 86.158 76.3882 86.0249 77.5851C85.8842 78.8391 85.0057 79.0101 83.9637 79.0063C79.7919 78.9911 75.62 78.9987 71.4482 78.9987C71.4482 78.8429 71.4482 78.6833 71.4482 78.5275V78.5313Z" fill="white"/>
<path d="M70.9951 66.4931C74.509 66.6869 79.0536 66.9339 83.6019 67.1847C84.8341 67.2531 85.8799 67.6027 86.032 69.0467C86.1765 70.4146 85.6745 71.3228 84.1457 71.1898C75.7526 70.4412 67.3366 70.5438 58.9207 70.5324C57.5592 70.5324 56.4336 70.0271 56.483 68.5223C56.5286 67.1163 57.5174 66.4741 58.9473 66.4855C62.6172 66.5083 66.287 66.4931 70.9951 66.4931Z" fill="white"/>
<path d="M69.2916 58.494C75.0873 58.7904 79.0652 58.9918 83.0431 59.2008C84.0015 59.2502 84.9978 59.3224 85.5074 60.2952C86.3441 61.895 85.3705 63.4492 83.5489 63.2934C75.3497 62.598 67.1315 62.4992 58.9095 62.5562C57.6089 62.5638 56.5213 62.1268 56.4947 60.7436C56.4681 59.2692 57.4378 58.4864 58.9628 58.4902C63.0129 58.4978 67.0593 58.4902 69.2878 58.4902L69.2916 58.494Z" fill="white"/>
<path d="M80.0277 86.7997C74.9203 86.3627 69.8015 86.5261 64.6865 86.4463C62.728 86.4159 60.7695 86.4159 58.811 86.3741C57.5712 86.3475 56.4493 85.9789 56.4531 84.5159C56.4569 83.0719 57.4153 82.4069 58.83 82.3993C66.1621 82.3575 73.4866 82.4525 80.8111 82.8059C82.1003 82.8667 82.8418 83.4747 82.8152 84.7933C82.7848 86.2715 81.8265 86.9365 80.0315 86.7997H80.0277Z" fill="white"/>
<path d="M124.188 98.2758C125.849 98.2264 127.055 99.3626 127.112 101.027C127.169 102.71 126.043 103.938 124.404 103.976C122.777 104.014 121.529 102.851 121.438 101.213C121.351 99.6096 122.556 98.3176 124.188 98.272V98.2758Z" fill="white"/>
<path d="M118.08 114.076C118.765 114.973 119.054 115.588 119.537 115.934C120.358 116.519 121.354 116.329 121.381 115.284C121.415 113.894 122.647 112.959 122.256 111.386C124.191 112.252 124.918 113.461 124.465 115.254C124.036 116.96 122.663 117.914 120.967 117.77C119.191 117.621 118.335 116.694 118.084 114.072L118.08 114.076Z" fill="white"/>
<path d="M129.638 124.313C129.892 125.742 129.394 126.574 128.383 127.037C127.668 127.364 126.873 127.326 126.234 126.798C125.546 126.228 125.359 125.457 125.546 124.583C125.694 123.887 126.158 123.466 126.774 123.264C127.706 122.953 127.276 123.865 127.493 124.184C128.135 125.126 128.858 124.795 129.638 124.317V124.313Z" fill="white"/>
<path d="M121.711 109.611C121.788 110.838 121.038 111.385 119.989 111.442C118.97 111.499 118.323 110.903 118.262 109.839C118.182 108.429 119.536 108.262 120.312 108.022C121.187 107.753 121.677 108.684 121.711 109.611Z" fill="white"/>
</g>
</g>
<defs>
<clipPath id="clip0_5_3318">
<rect width="150" height="150" fill="white"/>
</clipPath>
<clipPath id="clip1_5_3318">
<rect width="150" height="130" fill="white" transform="translate(0.00195312 10.0029)"/>
</clipPath>
</defs>
</svg>
