<svg width="199" height="199" viewBox="0 0 199 199" fill="none" xmlns="http://www.w3.org/2000/svg">
<g clip-path="url(#clip0_5_3345)">
<path d="M90.6948 141.627C89.9283 141.373 89.2117 140.908 88.3809 141.516C87.4575 142.192 88.1421 142.936 88.2882 143.616C89.1903 147.787 87.9852 149.893 83.8744 151.131C82.3948 151.578 80.8796 151.846 79.318 151.825C76.3089 151.779 74.2767 149.822 74.6403 146.821C74.8578 145.029 74.1804 144.678 72.7258 144.31C67.524 142.993 65.2708 138.815 66.8751 133.675C67.0926 132.974 67.3565 132.463 66.5043 131.879C61.8017 128.682 59.6661 124.046 59.0101 118.494C57.994 109.866 56.8103 101.257 55.7158 92.6359C55.6124 91.8096 55.2951 91.223 54.6106 90.7222C53.4126 89.8458 52.1862 88.9694 51.1665 87.907C50.2645 86.9663 49.8759 86.9627 49.1414 88.0931C44.15 95.7765 39.0802 103.41 34.0424 111.065C29.6607 117.725 25.3003 124.4 20.9043 131.05C18.6261 134.498 15.9486 135.131 12.3726 133.106C9.3742 131.411 6.38293 129.708 3.40948 127.966C0.439594 126.228 -0.701298 123.606 0.428898 120.394C2.00475 115.912 3.70896 111.49 6.35797 107.463C20.2804 86.2795 34.128 65.0498 47.9969 43.838C50.7315 39.6529 53.4269 38.9697 57.7587 41.4021C60.7607 43.0868 63.7306 44.8324 66.7432 46.5029C68.9608 47.7298 70.5189 49.3824 70.6116 52.0652C70.6472 53.0811 70.9895 53.1884 71.9343 52.8486C85.0011 48.1591 98.5171 46.5566 112.265 47.8121C122.244 48.7242 132.145 50.4376 141.468 54.4761C151.465 58.8079 158.856 69.471 157.594 81.7653C157.398 83.6611 157.351 85.5641 156.717 87.392C156.342 88.4722 156 89.7027 155.095 90.318C152.97 91.7631 152.652 93.9272 152.307 96.1557C152.078 97.6223 151.775 99.0817 151.487 100.538C151.294 101.507 151.526 101.807 152.585 101.561C153.64 101.317 154.759 101.353 155.915 101.26C155.537 100.673 154.938 100.706 154.485 100.48C153.754 100.115 153.073 99.7327 153.258 98.7633C153.444 97.7832 154.171 97.4255 155.084 97.3933C156.756 97.3397 158.435 97.4184 159.993 98.0587C161.523 98.6846 162.443 98.4092 163.177 96.821C163.929 95.1935 165.003 93.7412 166.988 93.3584C167.908 93.1832 168.792 93.1009 169.488 93.8199C170.201 94.5568 170.058 95.4653 169.744 96.3345C169.103 98.1231 168.472 99.9187 167.755 101.679C167.359 102.648 167.516 103.113 168.397 103.85C169.776 105.005 170.964 105.288 172.675 104.683C173.923 104.243 175.367 104.354 176.725 104.236C178.076 104.118 179.378 104.798 180.797 104.522C180.536 103.628 179.724 103.41 179.125 102.991C178.351 102.448 178.265 101.718 178.526 100.942C178.782 100.169 179.506 100.123 180.166 100.201C182.701 100.498 184.711 101.89 186.505 103.557C187.417 104.408 187.988 104.519 188.997 103.685C189.984 102.866 191.197 102.276 192.384 101.754C193.518 101.253 194.794 101.131 195.6 102.326C196.363 103.456 196.277 104.751 195.45 105.832C194.619 106.915 193.653 107.895 192.701 108.876C192.113 109.48 192.027 109.949 192.555 110.711C193.332 111.834 194.067 112.964 194.951 114.019C199.593 119.542 199.782 125.895 197.839 132.398C193.589 146.613 175.78 151.228 164.008 142.099C163.865 141.988 163.705 141.892 163.601 141.752C161.295 138.54 157.658 138.558 154.303 137.871C153.258 137.656 153.287 138.322 153.205 138.991C152.938 141.169 152.16 143.122 150.727 144.81C148.203 147.776 144.926 147.958 141.436 147.386C140.908 147.3 140.366 147.232 139.871 147.043C138.762 146.617 138.47 146.917 138.466 148.119C138.459 151.267 136.587 153.492 133.489 153.878C128.826 154.458 124.8 153.023 121.649 149.453C119.966 147.547 119.378 145.297 120.108 142.811C120.376 141.906 120.215 141.588 119.26 141.763C118.91 141.827 118.55 141.845 118.194 141.834C116.326 141.77 115.534 142.439 115.677 144.524C115.83 146.771 114.935 148.845 113.277 150.476C110.721 152.995 108.208 153.356 105.034 151.653C104.357 151.288 103.676 150.899 103.084 150.412C102.214 149.697 101.662 149.604 100.806 150.612C98.132 153.749 94.7272 153.703 91.9177 150.655C89.3578 147.88 89.012 145.379 90.6948 141.63V141.627ZM149.265 95.0432C134.883 102.419 119.991 105.649 104.232 104.952C88.6769 104.265 73.6385 101.421 59.413 94.3529C59.3916 96.9569 59.8587 99.2284 60.1688 101.514C61.0566 108.121 61.9123 114.731 62.9426 121.313C63.4632 124.64 65.3635 127.208 68.1301 129.125C68.779 129.576 69.271 129.773 69.9698 129.086C73.749 125.376 78.3839 124.243 83.5393 124.543C91.0228 124.979 94.7878 132.359 92.4275 137.306C92.0532 138.086 92.2814 138.422 93.0657 138.49C93.5863 138.536 94.1246 138.69 94.6345 138.393C94.7628 137.749 94.3385 137.259 94.1745 136.701C93.1192 133.124 94.3136 129.919 97.2478 128.642C98.5242 128.084 99.9004 127.952 101.269 128.07C107.548 128.61 111.776 132.015 114.383 137.635C114.678 138.275 114.778 139.037 115.794 138.873C118.23 138.472 120.722 138.39 123.271 137.656C122.372 136.365 121.584 135.117 120.682 133.954C115.759 127.601 120.187 118.999 127.581 117.4C131.114 116.638 134.398 117.539 137.682 118.623C139.75 119.306 139.675 119.292 139.974 117.203C140.723 111.98 142.566 107.312 146.941 104.007C147.34 103.707 147.64 103.371 147.736 102.873C148.221 100.387 148.706 97.8977 149.262 95.0289L149.265 95.0432ZM67.8948 53.031C67.9305 51.3069 67.1532 50.0728 65.6808 49.2358C62.3258 47.3328 58.9638 45.437 55.6195 43.5089C54.2825 42.7363 53.409 42.9616 52.5641 44.3388C49.9507 48.599 47.2661 52.8164 44.5279 56.9943C31.4469 76.947 18.3373 96.8818 5.2456 116.827C4.26515 118.319 3.32391 119.836 2.99947 121.642C2.71781 123.209 3.10643 124.418 4.58959 125.244C7.59869 126.918 10.5614 128.674 13.5527 130.381C16.1233 131.847 17.0717 131.6 18.676 129.154C26.5054 117.221 34.3062 105.263 42.1855 93.362C50.1361 81.3575 58.1687 69.4102 66.1656 57.4415C67.0677 56.0929 67.8734 54.7158 67.8912 53.0274L67.8948 53.031ZM193.368 117.754C192.594 118.72 192.035 119.482 191.407 120.186C191.018 120.619 190.58 121.113 189.892 120.912C189.2 120.712 189.018 120.079 189.043 119.485C189.154 116.767 187.414 115.447 185.318 114.356C182.872 113.082 180.622 111.494 178.864 109.376C177.456 107.684 175.834 107.481 173.934 107.981C167.202 109.756 162.592 113.969 159.958 120.376C159.048 122.594 158.567 124.919 158.778 127.355C159.266 133.063 162.553 136.977 166.96 140.128C177.663 147.783 192.391 142.188 195.115 129.429C195.974 125.412 195.65 121.524 193.368 117.75V117.754ZM108.56 87.4134C117.278 87.1738 126.579 86.7052 135.632 84.1619C139.693 83.0208 143.739 81.7689 147.062 78.9967C150.157 76.414 150.545 73.8028 148.513 70.3367C146.352 66.6487 143.047 64.2986 139.357 62.3921C130.84 57.9852 121.684 56.0071 112.218 55.1772C98.4743 53.9753 85.1294 55.6494 72.2159 60.625C67.9019 62.2883 64.0835 64.4703 61.8374 68.7592C61.4274 69.5426 60.8213 70.2222 60.3114 70.9519C59.0672 72.7297 59.085 73.7062 60.3721 75.4375C61.9943 77.6195 64.244 78.8893 66.6969 79.8909C79.9241 85.2922 93.7681 87.2596 108.56 87.4134ZM53.2629 82.1731C51.4054 84.5339 51.4517 84.6806 53.4483 86.4727C57.0777 89.7242 61.1921 92.1601 65.6879 93.9808C74.9826 97.7367 84.5768 100.176 94.581 101.153C107.081 102.376 119.47 102.433 131.66 98.8885C137.714 97.1286 143.564 94.8608 149.073 91.7595C152.656 89.7385 154.827 86.7481 155.095 82.4843C154.549 84.677 152.806 85.7787 151.176 86.9699C148.324 89.0517 145.208 90.6649 141.924 91.9169C130.797 96.1557 119.171 97.5758 107.366 98.0944C97.2407 98.5416 87.3613 96.939 77.546 94.7821C74.3159 94.0738 71.0251 93.548 67.9519 92.1852C62.4506 89.7421 57.0492 87.1738 53.2664 82.1802L53.2629 82.1731ZM157.465 135.006C156.909 133.557 156.325 132.377 155.993 131.128C153.982 123.552 156.653 117.271 161.416 111.551C162.043 110.796 163.594 110.378 163.174 109.266C162.771 108.2 161.255 108.289 160.193 107.967C159.801 107.849 159.373 107.845 158.966 107.774C157.184 107.463 155.469 106.912 154.2 105.578C153.33 104.665 152.56 104.716 151.54 105.209C145.793 108.003 143.785 113.032 143.24 118.977C143.097 120.54 143.572 121.603 144.894 122.579C148.584 125.294 151.725 128.499 152.82 133.192C152.941 133.718 153.223 134.051 153.718 134.187C154.898 134.512 156.043 135.017 157.465 135.006ZM147.533 143.902C148.677 143.183 149.162 142.153 149.536 141.098C150.545 138.225 150.513 135.313 149.208 132.573C145.953 125.745 140.135 122.293 133.065 120.63C128.94 119.66 125.389 120.601 122.811 124.157C121.841 125.494 121.256 127.015 121.641 128.778C132.815 124.733 145.344 132.352 147.533 143.898V143.902ZM152.324 75.9598C153.394 73.81 153.554 71.6351 152.688 69.4174C151.044 65.2 148.171 62.088 144.292 59.8059C135.468 54.6085 125.713 52.3835 115.762 50.9778C107.313 49.783 98.8201 50.0764 90.3775 51.3247C83.9172 52.2798 77.546 53.5962 71.4886 56.1788C70.0019 56.8155 69.3174 57.9244 68.6899 59.5519C75.5495 55.9391 82.648 54.1399 89.9568 53.0381C100.26 51.4857 110.518 51.7218 120.804 53.4745C128.622 54.8088 136.017 57.2197 142.773 61.3476C148.185 64.6563 152.435 68.8987 152.324 75.9562V75.9598ZM145.493 83.4823C116.34 93.2011 87.8069 91.3374 60.0013 79.9803C60.9104 81.1751 62.6182 82.1945 64.44 83.0637C72.9896 87.1487 82.0526 89.3951 91.39 90.7186C107.469 92.9972 123.26 91.9992 138.694 86.7016C141.094 85.8789 143.354 84.7915 145.497 83.4787L145.493 83.4823ZM55.3807 79.2184C55.0491 79.9124 55.4484 80.2057 55.6445 80.5384C56.8888 82.6488 58.7748 84.1225 60.7714 85.4067C67.6345 89.8208 75.2429 92.0671 83.2505 93.3298C100.225 96.0054 117.078 95.798 133.817 91.6951C139.561 90.2858 145.083 88.3399 149.918 84.7843C151.223 83.8257 152.274 82.6882 152.649 81.032C150.303 83.4179 147.714 85.5963 144.659 86.7767C138.466 89.1697 132.131 91.2301 125.585 92.4535C110.061 95.358 94.5988 94.7785 79.3287 90.9261C70.6258 88.7298 61.7803 86.5263 55.3807 79.2149V79.2184ZM90.0602 134.949C90.488 132.259 89.1617 129.826 86.7552 128.503C84.673 127.358 82.4234 127.254 80.1772 127.512C75.4247 128.056 71.5849 130.084 69.5669 134.723C69.0286 135.961 68.8289 137.249 69.5313 138.501C69.7452 138.883 69.8735 139.502 70.4476 139.456C70.936 139.416 70.8897 138.819 71.0786 138.472C74.3088 132.495 84.8691 130.449 90.0602 134.945V134.949ZM109.43 149.55C111.787 148.219 112.81 146.266 112.917 143.838C113.167 138.179 107.869 131.826 102.264 131.053C100.745 130.842 99.1766 130.728 97.7897 131.668C97.4403 131.905 97.0339 132.226 97.0981 132.638C97.1801 133.139 97.7576 132.988 98.132 133.092C103.705 134.619 107.42 138.057 109.042 143.691C109.577 145.544 109.159 147.447 109.434 149.55H109.43ZM135.289 146.327C135.471 144.742 135.525 143.369 135.799 142.045C136.626 138.064 136.666 138.064 133.011 136.172C132.277 135.793 131.51 135.482 130.751 135.156C130.241 134.938 129.649 134.784 129.296 135.321C127.763 137.653 125.66 139.481 123.592 141.652C127.934 142.396 131.603 144.081 135.286 146.331L135.289 146.327ZM127.414 130.617C127.125 130.631 126.405 130.606 125.706 130.728C124.743 130.896 123.417 130.76 123.043 131.747C122.743 132.541 123.856 133.21 124.34 133.933C124.504 134.176 124.736 134.376 124.914 134.612C125.581 135.503 125.98 135.385 126.512 134.401C127.813 131.998 129.207 131.515 131.817 132.398C133.746 133.049 135.471 134.094 137.097 135.292C139.439 137.02 139.764 138.096 138.958 140.976C138.184 143.745 138.58 144.274 141.522 144.41C141.878 144.428 142.235 144.424 142.588 144.41C144.488 144.335 144.63 144.131 144.078 142.299C142.096 135.696 135.022 130.613 127.407 130.62L127.414 130.617ZM85.5216 144.288C84.2381 141.448 83.0188 138.762 81.8066 136.072C81.6532 135.728 81.3573 135.707 81.0685 135.714C79.5604 135.743 78.145 136.165 76.808 136.841C76.234 137.131 76.1912 137.585 76.4265 138.193C77.1752 140.153 77.5674 142.192 77.5318 144.299C77.5211 144.846 77.5995 145.326 78.3054 144.996C80.5516 143.952 82.9403 144.299 85.5216 144.288ZM94.2316 142.721C95.9215 144.063 97.5188 145.408 98.378 147.35C98.9235 148.584 99.3014 148.176 99.8719 147.364C101.105 145.612 102.4 143.877 104.14 142.611C105.241 141.806 105.091 141.133 104.318 140.314C103.79 139.753 103.252 139.198 102.685 138.679C102.335 138.361 101.965 138.093 101.444 138.504C99.2943 140.21 96.6631 141.098 94.2387 142.718L94.2316 142.721ZM131.97 151.099C132.348 151.067 132.836 151.085 133.289 150.967C133.903 150.806 134.747 150.788 134.929 150.09C135.133 149.3 134.248 149.067 133.76 148.713C130.972 146.71 127.813 145.54 124.515 144.721C123.97 144.585 123.21 144.281 122.85 144.818C122.536 145.286 122.839 145.973 123.157 146.488C123.467 146.989 123.756 147.529 124.162 147.944C126.269 150.112 128.94 150.934 131.97 151.099ZM182.144 108.357C184.779 111.322 188.655 112.045 191.09 114.985C189.207 112.099 187.385 109.287 190.922 106.171C188.359 109.047 186.33 107.584 184.194 105.395C184.369 107.205 184.08 108.339 182.144 108.357ZM157.84 104.69C160.553 105.302 163.256 105.363 165.206 107.405C165.527 107.742 165.88 107.448 166.122 107.205C166.521 106.805 166.097 106.586 165.865 106.361C164.368 104.887 164.193 103.22 164.978 101.314C165.505 100.03 166.129 98.7598 166.332 97.0607C165.124 98.0873 164.771 99.3035 164.293 100.427C163.926 101.289 163.338 102.398 162.5 102.108C160.193 101.31 159.166 102.616 158.164 104.218C158.104 104.311 158.036 104.401 157.836 104.687L157.84 104.69ZM84.5269 135.771C84.944 136.705 85.2578 137.52 85.6713 138.282C85.9209 138.74 85.9922 139.642 86.7373 139.391C87.3506 139.187 88.0066 138.69 88.2348 137.996C88.4522 137.327 87.8889 136.927 87.429 136.569C86.6732 135.986 85.8425 135.6 84.5269 135.768V135.771ZM96.5847 149.922C95.6006 147.955 94.5382 146.281 92.4489 145.072C92.9231 147.98 94.4277 149.729 96.5847 149.922ZM78.3625 148.595C80.6157 148.974 82.7335 148.684 85.1116 147.296C82.3699 146.928 80.2164 147.032 78.3625 148.595ZM106.075 144.571C105.452 145.157 104.895 145.74 104.282 146.248C103.516 146.882 103.787 147.3 104.5 147.669C105.056 147.955 105.537 148.763 106.161 148.438C106.781 148.112 106.443 147.254 106.468 146.635C106.493 146.019 106.642 145.347 106.079 144.571H106.075Z" fill="white"/>
<path d="M107.116 85.1098C98.2951 84.7521 87.6777 84.2871 77.4275 80.9962C74.6929 80.1198 72.1331 78.8715 69.7621 77.2618C65.3768 74.2857 64.9704 69.5855 68.853 65.9512C72.7427 62.3098 77.5808 60.4426 82.6221 59.2049C94.5587 56.2789 106.627 55.3811 118.828 57.3306C124.183 58.1855 129.349 59.6843 134.272 61.9736C136.882 63.1862 139.246 64.7636 141.086 67.0279C144.216 70.8768 143.735 75.391 139.777 78.4351C136.112 81.2538 131.77 82.5021 127.345 83.4751C121.281 84.8058 115.109 85.0311 107.119 85.1062L107.116 85.1098ZM104.827 83.3284C111.166 83.3821 117.098 83.2068 122.981 82.3233C128.29 81.522 133.424 80.2164 138.023 77.2117C141.891 74.6863 141.325 70.1936 138.818 67.729C137.185 66.1229 135.374 64.7958 133.285 63.8944C128.033 61.623 122.582 60.0026 116.92 59.1727C106.035 57.5774 95.2397 58.4716 84.5367 60.6536C79.9339 61.5908 75.463 63.0789 71.6125 65.9512C67.2522 69.2027 67.2522 73.3914 71.5983 76.6823C73.8551 78.3921 76.3936 79.5153 79.1068 80.2772C87.6527 82.6738 96.4483 82.8992 104.823 83.3249L104.827 83.3284Z" fill="white"/>
</g>
<defs>
<clipPath id="clip0_5_3345">
<rect width="199" height="199" fill="white"/>
</clipPath>
</defs>
</svg>
