<svg width="214" height="167" viewBox="0 0 214 167" fill="none" xmlns="http://www.w3.org/2000/svg">
<g clip-path="url(#clip0_5_3348)">
<path d="M109.748 64.0048C125.961 64.0048 142.169 63.9934 158.382 64.0391C159.338 64.0391 160.766 63.3414 161.044 65.2229C161.352 67.3045 160.254 67.499 158.575 67.4932C147.767 67.4361 136.963 67.4589 126.154 67.4589C105.68 67.4589 85.2 67.4932 64.7256 67.4017C62.4103 67.3903 61.6878 67.945 61.7048 70.3698C61.8186 85.0441 61.8072 99.7185 61.7219 114.393C61.7105 116.783 62.2396 117.635 64.8565 117.624C94.5298 117.532 124.203 117.544 153.871 117.658C156.749 117.67 157.506 116.932 157.46 114.01C157.284 102.103 157.324 90.1853 157.477 78.2788C157.517 75.4709 156.658 74.6589 153.95 74.8762C150.935 75.1221 147.886 74.9162 144.854 74.9448C143.506 74.9562 142.288 74.8304 142.305 73.0805C142.322 71.4792 143.477 71.382 144.706 71.3877C149.445 71.4106 154.184 71.4449 158.928 71.3877C160.447 71.3648 161.113 71.7251 161.107 73.4408C161.05 95.1663 161.044 116.898 161.084 138.623C161.084 140.264 160.538 140.756 158.951 140.728C154.4 140.642 149.849 140.728 145.303 140.665C143.784 140.642 143.033 140.813 142.806 142.718C141.776 151.359 134.483 157.672 125.836 157.69C117.519 157.707 110.095 151.29 108.951 142.867C108.718 141.162 108.291 140.671 106.59 140.676C91.7081 140.733 76.8203 140.739 61.9381 140.636C59.9811 140.625 59.5829 141.431 59.3667 143.084C58.2744 151.565 50.9813 157.844 42.4877 157.718C34.0056 157.587 26.6214 151.119 25.7396 142.798C25.5462 140.985 24.9261 140.671 23.3161 140.648C20.6139 140.613 17.0527 141.894 15.437 140.036C13.8726 138.24 15.0502 134.746 15.0047 131.995C14.9421 128.186 15.0047 124.372 14.9819 120.558C14.9705 118.047 15.8182 115.954 17.5988 114.158C26.9058 104.791 36.2356 95.4408 45.4232 85.9591C47.9661 83.3342 50.9642 83.4772 54.0931 83.5001C58.1891 83.5287 58.1891 83.5001 58.1891 79.4855C58.1891 75.1964 58.3086 70.9016 58.1265 66.624C58.0298 64.4166 58.7637 63.9476 60.8401 63.959C77.1445 64.0448 93.4489 64.0048 109.759 64.0105L109.748 64.0048ZM40.5364 113.409C35.7066 113.409 30.871 113.461 26.0411 113.386C24.2093 113.358 22.9065 114.038 21.5184 115.239C19.2201 117.229 18.3213 119.511 18.509 122.508C18.7138 125.733 18.5887 128.981 18.6228 132.218C18.6797 137.251 18.6854 137.188 23.5665 137.171C25.2049 137.171 26.2573 136.908 26.5133 135.003C26.6498 134.014 27.2415 133.042 27.7933 132.172C31.6845 126.019 37.2596 122.788 44.5244 123.594C51.5331 124.372 56.2663 128.535 58.7296 135.146C59.2928 136.65 59.9527 137.142 61.5512 137.136C76.6155 137.079 91.6797 137.085 106.75 137.165C108.468 137.176 109.332 136.662 109.787 135.015C110.345 132.979 111.414 131.16 112.785 129.57C121.472 119.511 137.202 122.33 141.839 134.837C142.527 136.69 143.409 137.268 145.303 137.176C148.614 137.016 151.937 137.028 155.247 137.182C157.079 137.268 157.466 136.627 157.398 134.906C157.261 131.48 157.182 128.038 157.432 124.624C157.637 121.787 156.607 121.187 153.928 121.198C123.799 121.295 93.6651 121.261 63.5367 121.261C58.2801 121.261 58.172 121.261 58.2289 115.925C58.2517 113.832 57.4837 113.358 55.6063 113.392C50.5887 113.484 45.5654 113.421 40.5421 113.415L40.5364 113.409ZM27.0537 108.926C27.2244 109.229 27.3951 109.526 27.5657 109.829C37.2881 109.829 47.0104 109.818 56.7384 109.846C58.1436 109.846 58.1834 109.023 58.1777 107.994C58.1607 101.617 58.1777 95.2407 58.155 88.8643C58.155 88.1551 58.3768 87.0343 57.2903 87.0972C54.0021 87.2744 50.4863 85.9648 47.5907 88.8414C40.7924 95.5895 33.9032 102.24 27.0537 108.931V108.926ZM125.955 154.007C133.118 153.995 139.381 147.933 139.466 140.928C139.557 133.745 133.186 127.226 125.95 127.1C118.708 126.974 112.342 133.333 112.319 140.722C112.296 147.768 118.719 154.018 125.955 154.007ZM56.0216 140.842C56.0785 133.528 49.9971 127.209 42.8746 127.186C35.314 127.163 29.1928 133.133 29.1643 140.568C29.1359 147.91 35.0808 153.881 42.5219 153.972C49.9743 154.064 55.9647 148.242 56.0273 140.848L56.0216 140.842Z" fill="white"/>
<path d="M139.562 42.7653C139.573 39.2425 141.479 36.3031 144.42 35.1536C147.339 34.0156 150.098 34.4331 152.271 36.6805C154.586 39.0767 155.707 42.0219 154.211 45.2758C152.476 49.0617 150.513 52.7503 148.579 56.4446C148.107 57.3424 147.145 58.6406 146.303 57.1308C143.868 52.756 141.109 48.5298 139.624 43.6746C139.516 43.32 139.568 42.9197 139.556 42.7653H139.562ZM147.208 52.7445C148.693 49.8508 150.052 47.3632 151.258 44.8069C152.419 42.3478 151.856 40.1461 149.739 38.4819C147.93 37.058 145.939 37.2924 144.284 38.6764C142.304 40.3291 142.031 42.5365 143.163 44.8412C144.414 47.3803 145.74 49.8794 147.208 52.7445Z" fill="white"/>
<path d="M67.1112 6.69158C72.2483 6.7259 76.1452 11.9986 74.2166 16.8538C72.5782 20.9828 70.3254 24.8772 68.2376 28.8175C67.4753 30.2529 66.2636 30.0756 65.6776 28.7031C63.9254 24.5913 61.2346 20.9485 59.8522 16.6765C58.2194 11.6154 61.8717 6.65727 67.1112 6.69158ZM67.0543 24.7286C68.2376 22.5497 69.1876 20.8055 70.1263 19.0555C70.5302 18.3007 70.9398 17.5458 71.2527 16.7509C72.2312 14.3204 71.5599 11.8042 69.5119 10.4374C67.754 9.25931 65.8596 9.25931 64.2326 10.5861C62.2187 12.2216 61.8205 14.389 62.9754 16.7394C64.2326 19.2957 65.5638 21.812 67.06 24.7286H67.0543Z" fill="white"/>
<path d="M205.6 112.877C205.686 113.512 205.373 114.53 204.912 115.462C203.222 118.859 201.527 122.262 199.707 125.59C198.751 127.34 197.511 127.74 196.401 125.624C194.598 122.176 192.686 118.779 191.065 115.245C189.677 112.214 190.519 108.788 192.817 106.592C195.002 104.499 198.307 103.876 200.992 105.157C204.019 106.598 205.521 109.069 205.606 112.877H205.6ZM198.091 122.645C199.689 119.431 201.009 116.921 202.198 114.347C203.256 112.06 202.636 110.007 200.736 108.508C199.041 107.17 197.112 106.907 195.263 108.377C193.267 109.955 192.908 112.122 193.807 114.278C194.928 116.955 196.435 119.465 198.085 122.645H198.091Z" fill="white"/>
<path d="M184.161 78.805C189.554 78.805 194.947 78.805 200.34 78.805C201.7 78.805 203.236 78.7078 203.167 80.6522C203.105 82.3335 201.722 82.3564 200.431 82.3506C189.645 82.3392 178.864 82.3335 168.078 82.3506C166.855 82.3506 165.865 82.3792 165.859 80.635C165.848 78.7307 166.957 78.8107 168.272 78.8164C173.568 78.845 178.864 78.8279 184.166 78.8279C184.166 78.8279 184.166 78.8164 184.166 78.8107L184.161 78.805Z" fill="white"/>
<path d="M180.005 74.9225C175.937 74.9225 171.864 74.8824 167.796 74.9453C166.516 74.9682 165.902 74.7223 165.964 73.2411C166.016 71.983 166.209 71.354 167.671 71.3654C176.187 71.4226 184.704 71.3997 193.22 71.394C194.414 71.394 195.302 71.7543 195.33 73.1096C195.365 74.6594 194.335 74.9568 193.055 74.9511C188.703 74.9396 184.351 74.9511 179.999 74.9511V74.9282L180.005 74.9225Z" fill="white"/>
<path d="M174.403 86.171C176.582 86.171 178.761 86.1653 180.94 86.171C182.1 86.171 183.13 86.6056 183.124 87.8752C183.119 89.0704 182.231 89.6709 180.997 89.6652C176.542 89.6537 172.094 89.6251 167.639 89.6652C166.371 89.6766 166.029 89.0533 165.967 87.9267C165.898 86.7086 166.342 86.1939 167.582 86.2225C169.852 86.2739 172.128 86.2396 174.403 86.2396C174.403 86.2168 174.403 86.1939 174.403 86.171Z" fill="white"/>
<path d="M173.476 64.0452C175.456 64.0452 177.442 64.0452 179.421 64.0452C180.656 64.0452 181.469 64.6457 181.407 65.9095C181.35 67.0247 180.559 67.4708 179.438 67.4593C175.473 67.425 171.508 67.4136 167.543 67.4593C166.314 67.4708 165.83 67.0247 165.916 65.7895C165.984 64.72 166.2 63.9709 167.526 64.0166C169.505 64.0853 171.491 64.0338 173.471 64.0395L173.476 64.0452Z" fill="white"/>
<path d="M172.553 93.6168C174.248 93.6168 175.949 93.594 177.644 93.6283C178.549 93.6454 179.323 93.9085 179.408 95.0408C179.493 96.236 178.856 96.8823 177.775 96.8994C174.288 96.9394 170.801 96.8765 167.319 96.8594C166.113 96.8594 166.045 96.0416 165.999 95.1209C165.942 94.0343 166.363 93.5825 167.473 93.6168C169.168 93.674 170.863 93.634 172.564 93.634C172.564 93.634 172.564 93.6226 172.564 93.6168H172.553Z" fill="white"/>
<path d="M170.102 104.436C169.255 104.436 168.401 104.373 167.565 104.448C166.245 104.562 165.944 103.87 166.001 102.732C166.046 101.76 165.955 100.782 167.394 100.816C169.556 100.868 171.724 100.839 173.885 100.891C174.938 100.914 175.774 101.445 175.831 102.549C175.899 103.882 174.892 104.31 173.772 104.373C172.554 104.442 171.325 104.391 170.102 104.391V104.442V104.436Z" fill="white"/>
<path d="M190.583 89.7051C189.275 89.3391 186.772 90.6716 186.686 88.0123C186.59 85.1701 189.161 86.6341 190.583 86.291C191.209 86.1423 191.897 86.2567 192.557 86.2567C193.78 86.2567 194.952 86.4568 194.878 88.0238C194.81 89.5164 193.695 89.7737 192.438 89.7108C191.875 89.6822 191.306 89.7108 190.583 89.7108V89.7051Z" fill="white"/>
<path d="M96.7444 28.5367C95.6635 28.3823 95.0718 27.7418 95.1401 26.6381C95.2027 25.6144 95.8796 25.1512 96.8525 25.1969C97.9845 25.2484 98.5989 25.9346 98.4908 27.0326C98.3998 27.9648 97.7456 28.5024 96.7444 28.5424V28.5367Z" fill="white"/>
<path d="M112.615 36.0458C111.591 35.9429 111.061 35.3481 111.079 34.353C111.096 33.215 111.773 32.5859 112.871 32.5859C113.906 32.5859 114.395 33.3351 114.395 34.2787C114.395 35.3996 113.735 36 112.615 36.0458Z" fill="white"/>
<path d="M78.6737 26.6322C78.6225 27.9189 78.0536 28.5537 76.9329 28.5423C75.9146 28.5308 75.4367 27.816 75.3741 26.8953C75.3002 25.7229 76.0568 25.2025 77.1206 25.1911C78.1332 25.1796 78.5997 25.8201 78.6737 26.6322Z" fill="white"/>
<path d="M114.477 40.8958C114.517 41.8851 114.079 42.6171 113.106 42.7372C112.042 42.8687 111.246 42.3255 111.132 41.1989C111.018 40.0551 111.656 39.4146 112.793 39.386C113.778 39.3631 114.386 39.8607 114.472 40.8958H114.477Z" fill="white"/>
<path d="M186.932 55.6727C185.891 55.4039 185.248 54.7977 185.425 53.6539C185.567 52.7046 186.181 52.0355 187.137 52.127C188.229 52.23 188.747 53.042 188.639 54.14C188.542 55.1294 187.894 55.604 186.932 55.6784V55.6727Z" fill="white"/>
<path d="M188.59 58.5205C189.511 58.7035 190.228 59.1038 190.211 60.1561C190.194 61.2312 189.653 62.0261 188.561 62.0547C187.6 62.0776 186.963 61.3113 186.923 60.4191C186.872 59.3783 187.514 58.6806 188.595 58.5205H188.59Z" fill="white"/>
<path d="M169.651 137.285C169.662 138.337 169.173 138.926 168.155 138.96C167.102 138.995 166.277 138.6 166.277 137.393C166.277 136.244 167.051 135.683 168.086 135.678C169.065 135.672 169.554 136.364 169.651 137.29V137.285Z" fill="white"/>
<path d="M171.086 48.9416C171 49.9252 170.477 50.6115 169.498 50.6343C168.361 50.6629 167.758 49.9023 167.803 48.7986C167.843 47.8093 168.469 47.1974 169.481 47.2717C170.443 47.3403 171.034 47.9122 171.086 48.9416Z" fill="white"/>
<path d="M183.726 49.4447C183.663 50.4684 183.094 50.9888 182.087 51.0002C181.103 51.0117 180.443 50.5885 180.415 49.5019C180.386 48.3181 181.075 47.7062 182.156 47.712C183.168 47.7177 183.595 48.484 183.72 49.439L183.726 49.4447Z" fill="white"/>
<path d="M164.552 48.9189C164.489 49.9254 163.926 50.5831 162.964 50.5774C161.895 50.5659 161.161 49.8568 161.218 48.7531C161.269 47.7866 161.98 47.1919 162.947 47.2433C163.903 47.2948 164.472 47.9124 164.546 48.9189H164.552Z" fill="white"/>
<path d="M129.869 48.9929C129.795 49.9765 129.238 50.6399 128.299 50.6227C127.27 50.5998 126.502 49.925 126.53 48.8385C126.553 47.7119 127.429 47.14 128.43 47.2372C129.295 47.323 129.949 47.9406 129.869 48.9929Z" fill="white"/>
<path d="M121.825 47.1341C122.843 47.3515 123.441 47.9348 123.395 48.907C123.355 49.8448 122.838 50.6054 121.819 50.5597C120.727 50.5139 120.107 49.8105 120.187 48.6725C120.255 47.6431 120.955 47.2371 121.825 47.1284V47.1341Z" fill="white"/>
<path d="M193.977 138.577C192.948 138.469 192.396 137.914 192.367 136.936C192.339 135.849 192.885 135.083 193.983 135.083C194.916 135.083 195.547 135.764 195.57 136.707C195.599 137.759 195.064 138.469 193.977 138.571V138.577Z" fill="white"/>
<path d="M176.316 137.365C176.236 138.269 175.872 138.932 174.825 138.984C173.71 139.041 173.045 138.572 173.039 137.394C173.033 136.439 173.471 135.712 174.45 135.655C175.525 135.598 176.128 136.279 176.316 137.359V137.365Z" fill="white"/>
<path d="M88.5078 26.8331C88.6614 25.8952 89.0824 25.1975 90.1292 25.2147C91.102 25.2261 91.7391 25.7008 91.7676 26.7644C91.796 27.9139 91.2954 28.5887 90.095 28.5373C89.0483 28.4915 88.6728 27.7538 88.5078 26.8388V26.8331Z" fill="white"/>
<path d="M114.159 46.3568C114.301 45.4189 114.734 44.6926 115.763 44.7098C116.924 44.7269 117.447 45.4646 117.379 46.5912C117.317 47.6263 116.708 48.1067 115.684 48.0667C114.586 48.0267 114.284 47.2832 114.159 46.3568Z" fill="white"/>
<path d="M175.783 47.2891C176.836 47.3577 177.422 47.8895 177.416 48.8903C177.41 49.8339 176.921 50.5774 175.92 50.6059C174.822 50.6345 174.179 50.0055 174.213 48.8446C174.242 47.798 174.879 47.3634 175.789 47.2891H175.783Z" fill="white"/>
<path d="M179.396 137.33C179.607 136.432 180.045 135.678 181.035 135.666C182.144 135.655 182.787 136.312 182.724 137.473C182.668 138.503 182.07 139.012 181.046 138.954C180.045 138.897 179.544 138.297 179.396 137.33Z" fill="white"/>
<path d="M190.284 67.1215C190.176 68.1395 189.619 68.6942 188.623 68.6656C187.485 68.6313 186.859 67.8592 186.973 66.8356C187.059 66.0292 187.571 65.1886 188.634 65.24C189.795 65.2972 190.216 66.075 190.284 67.1158V67.1215Z" fill="white"/>
<path d="M85.3901 26.873C84.9861 27.7994 84.5083 28.6286 83.3705 28.5257C82.3806 28.4342 81.8686 27.7822 81.9426 26.7986C82.0222 25.6777 82.6992 25.0716 83.8085 25.2145C84.7188 25.3289 85.282 25.9294 85.3844 26.8787L85.3901 26.873Z" fill="white"/>
<path d="M109.564 30.3612C108.472 30.4756 107.971 29.7951 107.841 28.9087C107.681 27.8164 108.29 27.0558 109.371 27.0043C110.253 26.9643 110.992 27.4332 111.083 28.4626C111.18 29.5778 110.668 30.2297 109.564 30.3612Z" fill="white"/>
<path d="M136.309 48.9816C136.218 49.9652 135.718 50.6057 134.705 50.5771C133.544 50.5428 133.049 49.7822 133.14 48.6899C133.226 47.6949 133.846 47.1573 134.847 47.2488C135.848 47.3403 136.292 48.0037 136.303 48.9816H136.309Z" fill="white"/>
<path d="M197.662 129.782C198.766 129.839 199.358 130.486 199.38 131.561C199.397 132.516 198.908 133.191 197.878 133.213C196.707 133.242 196.155 132.367 196.092 131.429C196.03 130.56 196.661 129.897 197.668 129.782H197.662Z" fill="white"/>
<path d="M187.654 135.65C188.696 135.73 189.196 136.342 189.208 137.303C189.213 138.241 188.804 138.955 187.757 138.99C186.596 139.024 186.045 138.355 186.079 137.24C186.107 136.245 186.716 135.747 187.654 135.65Z" fill="white"/>
<path d="M156.418 47.2949C157.499 47.3921 158.067 47.9354 158.033 48.9591C157.999 49.9599 157.442 50.6061 156.423 50.5489C155.473 50.4917 154.848 49.9313 154.865 48.8847C154.882 47.8268 155.519 47.3807 156.418 47.2949Z" fill="white"/>
<path d="M103.362 25.1747C104.34 25.2376 104.915 25.758 104.96 26.7416C105.012 27.8739 104.426 28.5259 103.294 28.4801C102.27 28.4401 101.854 27.7367 101.843 26.7816C101.832 25.7809 102.344 25.2261 103.362 25.1689V25.1747Z" fill="white"/>
<path d="M117.82 140.619C117.785 136.027 121.187 132.464 125.739 132.327C130.13 132.196 133.902 135.844 133.999 140.322C134.101 144.908 130.364 148.786 125.875 148.746C121.318 148.711 117.859 145.217 117.82 140.614V140.619ZM125.807 135.981C123.264 136.027 121.227 138.218 121.341 140.797C121.449 143.221 123.548 145.2 125.983 145.172C128.515 145.143 130.523 142.953 130.415 140.339C130.312 137.863 128.276 135.936 125.807 135.981Z" fill="white"/>
<path d="M42.399 148.757C37.7171 148.586 34.4346 144.948 34.5882 140.116C34.7304 135.65 38.4396 132.316 43.076 132.482C47.5134 132.642 51.0177 136.473 50.8129 140.951C50.6138 145.417 46.8364 148.917 42.3934 148.757H42.399ZM47.2289 140.717C47.2403 138.286 45.1752 136.067 42.8371 135.993C40.1974 135.907 38.1779 137.92 38.1836 140.636C38.1836 143.153 40.1292 145.143 42.6494 145.206C45.0444 145.269 47.2175 143.136 47.2289 140.717Z" fill="white"/>
<path d="M149.145 42.3938C148.975 43.6633 148.247 44.4125 147.092 44.2867C145.971 44.1609 145.254 43.3031 145.379 42.1021C145.493 41.067 146.119 40.4265 147.268 40.478C148.548 40.5295 149.066 41.2672 149.14 42.3995L149.145 42.3938Z" fill="white"/>
<path d="M66.9611 12.4956C68.1842 12.5528 68.9181 13.159 68.9693 14.4C69.0148 15.6009 68.4289 16.4644 67.2001 16.4873C66.0282 16.5102 65.2431 15.7439 65.1805 14.5601C65.1179 13.3992 65.6754 12.5757 66.9611 12.4956Z" fill="white"/>
<path d="M197.983 114.33C196.743 114.176 196.004 113.381 195.987 112.3C195.97 111.185 196.743 110.373 197.955 110.361C199.184 110.356 199.849 111.065 199.832 112.306C199.815 113.524 199.116 114.164 197.978 114.33H197.983Z" fill="white"/>
</g>
<defs>
<clipPath id="clip0_5_3348">
<rect width="190.999" height="151.021" fill="white" transform="translate(14.6152 6.69141)"/>
</clipPath>
</defs>
</svg>
