<svg width="150" height="150" viewBox="0 0 150 150" fill="none" xmlns="http://www.w3.org/2000/svg">
<g clip-path="url(#clip0_5_3392)">
<g clip-path="url(#clip1_5_3392)">
<path d="M74.2693 109.915C65.4075 109.915 56.5413 109.92 47.6795 109.915C43.9632 109.915 41.8171 107.919 41.8874 104.572C41.9578 101.339 44.0688 99.3687 47.7191 99.5094C49.7377 99.5886 50.3007 99.0036 50.2523 96.9805C50.1115 90.9022 50.1731 84.8195 50.2215 78.7412C50.2303 77.6021 49.962 76.9028 48.8845 76.3134C46.5008 75.0116 45.3926 72.8653 45.3882 70.1516C45.3882 66.6374 45.3354 63.1189 45.3838 59.6047C45.4365 55.7915 47.939 53.2802 51.7608 53.2714C66.7049 53.2362 81.6447 53.2318 96.5888 53.2582C100.507 53.2626 102.948 55.8047 102.97 59.7719C102.992 63.2156 102.909 66.6594 102.992 70.0988C103.063 72.874 101.932 74.9412 99.5838 76.2782C98.5415 76.872 98.2072 77.5361 98.216 78.706C98.2688 85.0042 98.2688 91.3068 98.2072 97.605C98.194 98.9992 98.5591 99.7029 100.05 99.4874C100.336 99.4478 100.635 99.4786 100.93 99.4874C104.655 99.571 106.858 101.55 106.849 104.792C106.84 108.077 104.685 109.924 100.859 109.924C91.9974 109.924 83.1312 109.924 74.2693 109.924V109.915ZM74.177 99.4478V99.4698C80.2549 99.4698 86.3328 99.3731 92.4064 99.5226C94.5174 99.5754 94.9704 98.8497 94.922 96.9101C94.7988 91.861 94.6449 86.7943 94.9396 81.7584C95.1243 78.6181 94.3854 76.5201 91.3597 75.3238C90.6736 75.0511 90.3657 74.8972 89.7017 75.3766C86.5132 77.6769 83.7952 77.6857 80.4792 75.3634C79.7667 74.8664 79.4369 74.9808 78.8212 75.4074C75.4524 77.7604 73.0775 77.7692 69.6251 75.3634C68.9391 74.884 68.596 74.9808 67.9891 75.3942C64.6687 77.6505 61.9727 77.6857 58.7315 75.4162C57.953 74.8708 57.5616 74.95 56.9327 75.5129C56.3962 75.9924 55.7585 76.4937 55.0856 76.6521C53.7486 76.9688 53.6783 77.8264 53.6827 78.9347C53.7134 85.1582 53.7354 91.3816 53.6651 97.605C53.6475 99.0256 54.0477 99.483 55.499 99.4698C61.7221 99.3995 67.9451 99.439 74.1682 99.439L74.177 99.4478ZM74.1286 61.9974C81.7414 61.9974 89.3586 61.9974 96.9714 61.9974C99.7069 61.9974 99.7817 61.9006 99.4826 59.1693C99.2232 56.8383 97.5212 56.7503 95.7664 56.7503C81.416 56.7459 67.0655 56.7415 52.7195 56.7503C52.1346 56.7503 51.5321 56.7283 50.9735 56.8603C48.7702 57.3661 48.7966 59.0902 48.8493 60.8362C48.9065 62.8462 50.4458 61.949 51.2902 61.9578C58.903 62.0325 66.5158 62.0018 74.133 62.0018L74.1286 61.9974ZM74.3793 106.41V106.419C82.7969 106.419 91.2145 106.419 99.6322 106.419C100.292 106.419 100.952 106.428 101.607 106.401C102.579 106.366 103.102 105.711 103.199 104.871C103.304 103.978 102.706 103.323 101.866 103.094C101.246 102.927 100.56 102.971 99.9048 102.971C82.8497 102.966 65.7945 102.966 48.7438 102.971C48.0885 102.971 47.4112 102.94 46.7823 103.085C45.9247 103.279 45.3354 103.846 45.397 104.8C45.4585 105.72 46.0083 106.269 46.9318 106.362C47.5124 106.419 48.1017 106.41 48.6866 106.41C57.2494 106.41 65.8121 106.41 74.3793 106.41ZM63.3801 65.5027C60.8586 65.5115 59.6008 66.5788 59.6067 68.7046C59.6155 72.0692 60.9172 73.7581 63.4504 73.6965C65.733 73.6437 66.9424 72.0428 66.9336 69.0872C66.9277 66.6887 65.7418 65.4939 63.3757 65.5027H63.3801ZM85.1762 65.5027C82.6518 65.5056 81.3954 66.7694 81.4072 69.2939C81.4204 72.0604 82.8453 73.7669 85.1014 73.7141C87.3356 73.6613 88.7957 71.8977 88.8221 69.2148C88.8455 66.7371 87.6302 65.5012 85.1762 65.5071V65.5027ZM77.8536 68.5858C77.8742 66.5304 76.8231 65.5027 74.7003 65.5027C73.6756 65.5027 72.6509 65.5291 71.6262 65.5115C70.9049 65.4983 70.5311 65.793 70.5487 66.5363C70.5839 67.9261 70.4827 69.3291 70.6762 70.6969C70.9357 72.531 72.6861 73.8592 74.4101 73.7449C76.1736 73.6305 77.6777 72.1615 77.8405 70.3407C77.8932 69.7601 77.8492 69.1708 77.8492 68.5858H77.8536ZM52.5612 65.5115C50.0661 65.5144 48.8332 66.7943 48.8625 69.3511C48.8669 69.7865 48.8273 70.2307 48.8977 70.6618C49.3419 73.4414 52.2533 74.6289 54.5446 72.9928C55.8992 72.0296 56.1367 70.6486 56.0971 69.1312C55.974 64.6451 56.5149 65.6302 52.5656 65.5115H52.5612ZM96.0874 65.5027C93.6246 65.5086 92.3946 66.6477 92.3976 68.9201C92.402 71.9548 93.8357 73.8021 96.1622 73.7757C98.4623 73.7493 99.6542 71.968 99.6058 68.4583C99.5574 64.9529 100.098 65.5731 96.0874 65.5027Z" fill="white"/>
<path d="M44.0694 141.376C38.1366 141.376 32.1994 141.411 26.2666 141.336C25.4398 141.327 23.9225 142.159 23.8434 140.531C23.7686 139.084 24.2348 137.892 26.3502 137.897C37.8507 137.906 49.3513 137.725 60.8563 137.629C65.7204 137.589 66.8858 136.41 66.8682 131.493C66.8551 126.95 66.8902 122.406 66.8331 117.868C66.8155 116.618 67.0398 115.994 68.4999 116.06C69.7753 116.117 70.4833 116.218 70.4526 117.815C70.3558 122.943 70.4394 128.071 70.4218 133.2C70.4042 137.747 67.1321 141.072 62.5319 141.116C56.3792 141.174 50.2221 141.13 44.0694 141.13C44.0694 141.213 44.0694 141.292 44.0694 141.376Z" fill="white"/>
<path d="M21.5654 101.097C21.5654 95.8987 21.5522 90.7044 21.5654 85.5058C21.583 80.7734 24.644 77.2592 29.3278 76.749C31.5751 76.5027 33.862 76.5951 36.1226 76.4412C38.1984 76.3004 38.0708 78.0377 38.2072 79.1284C38.3963 80.6458 36.9494 79.8893 36.2721 79.9509C34.5261 80.1004 32.7581 79.9641 31.0078 80.0697C27.0584 80.3116 25.0574 82.4623 25.0618 86.4162C25.0618 96.5188 25.0926 106.621 25.1014 116.724C25.1014 118.448 24.0151 119.473 22.3131 119.447C21.0905 119.429 21.627 118.488 21.627 118.008C21.5786 112.374 21.5962 106.736 21.5962 101.097H21.561H21.5654Z" fill="white"/>
<path d="M9.63369 38.1593C15.1531 38.1373 19.4235 42.3375 19.4103 47.7737C19.3971 53.2098 15.1311 57.4893 9.68206 57.5288C4.5233 57.564 0.0418148 53.1131 0.00223348 47.9144C-0.0373478 42.3947 4.11869 38.1813 9.63369 38.1593ZM9.90636 41.6074C6.35723 41.5283 3.64371 44.0044 3.55136 47.4086C3.4546 51.0063 6.04498 53.9619 9.36981 54.0499C13.0245 54.1466 15.8216 51.4857 15.8787 47.8572C15.9315 44.4487 13.2884 41.6822 9.90636 41.6074Z" fill="white"/>
<path d="M119.981 134.638C119.981 129.351 124.322 124.948 129.565 124.913C134.846 124.878 139.332 129.347 139.394 134.699C139.455 140.012 134.983 144.503 129.626 144.503C124.252 144.503 119.986 140.14 119.981 134.642V134.638ZM135.928 134.607C135.884 131.295 133.021 128.445 129.727 128.427C126.301 128.41 123.394 131.277 123.381 134.69C123.368 138.068 126.314 140.997 129.696 140.975C133.087 140.953 135.972 138.002 135.924 134.607H135.928Z" fill="white"/>
<path d="M22.5017 134.849C22.4709 140.254 18.029 144.604 12.6503 144.499C7.3684 144.393 3.02325 139.837 3.09362 134.466C3.15959 129.259 7.65426 124.87 12.8702 124.922C18.1697 124.971 22.5368 129.474 22.5061 134.849H22.5017ZM6.62955 134.449C6.5108 138.064 9.23312 140.949 12.8042 140.993C16.0323 141.033 18.8206 138.368 18.9657 135.104C19.1284 131.484 16.4325 128.524 12.901 128.441C9.55417 128.366 6.74389 131.062 6.62955 134.449Z" fill="white"/>
<path d="M140.454 38.1595C145.771 38.2386 150.024 42.5664 150.006 47.8838C149.984 53.1528 145.397 57.617 140.08 57.5378C134.724 57.4587 130.528 53.0077 130.625 47.5056C130.717 42.175 135.027 38.0759 140.454 38.1595ZM140.261 54.0369C143.766 54.0281 146.457 51.3232 146.462 47.7915C146.47 44.3477 143.687 41.612 140.173 41.6164C136.725 41.6164 134.169 44.2113 134.152 47.7343C134.134 51.3232 136.773 54.0457 140.261 54.0369Z" fill="white"/>
<path d="M78.7558 15.3458C78.6854 20.6017 74.1908 24.9383 68.9352 24.8107C63.5302 24.6832 59.3346 20.2542 59.4313 14.7785C59.5325 9.51826 63.9348 5.41915 69.3926 5.50272C74.7493 5.58629 78.8306 9.87451 78.7602 15.3414L78.7558 15.3458ZM75.2902 15.0512C75.2902 11.6294 72.5987 8.95969 69.1815 8.98168C65.7204 9.00367 62.9629 11.6338 62.9145 14.9588C62.8617 18.3938 65.6368 21.2702 69.0804 21.3494C72.4448 21.4241 75.2902 18.5389 75.2902 15.0556V15.0512Z" fill="white"/>
<path d="M127.37 103.125C127.37 107.519 127.37 111.913 127.37 116.306C127.37 117.529 127.682 118.747 125.607 118.725C123.438 118.703 123.971 117.322 123.971 116.21C123.962 107.787 123.988 99.3647 124.006 90.9422C124.014 87.5688 123.509 87.019 120.096 86.8958C117.462 86.7991 114.823 86.7947 112.188 86.7155C110.909 86.6759 109.312 84.7275 109.545 83.5796C109.673 82.9551 110.17 83.0606 110.57 83.0606C114.599 83.0342 118.636 83.0606 122.634 83.5576C125.554 83.9227 127.313 86.2097 127.375 89.5084C127.458 94.0473 127.397 98.5906 127.397 103.13H127.375L127.37 103.125Z" fill="white"/>
<path d="M69.0762 36.9325C69.0762 39.6461 69.0102 42.3598 69.1026 45.0691C69.1509 46.4721 68.4473 46.5909 67.3522 46.5733C66.3055 46.5557 65.5446 46.5557 65.5622 45.1087C65.6238 39.611 65.6062 34.1132 65.5402 28.6155C65.5271 27.3269 66.1516 27.1773 67.1631 27.2477C68.0778 27.3137 69.1246 27.0014 69.085 28.5759C69.0146 31.36 69.063 34.144 69.063 36.9325H69.0718H69.0762Z" fill="white"/>
<path d="M129.305 52.8449C129.349 53.8301 128.592 53.9796 128.069 54.3007C123.786 56.9308 119.458 59.4817 115.232 62.1954C114.005 62.9827 113.516 62.6352 112.839 61.6148C112.179 60.6209 111.88 59.9567 113.178 59.187C117.936 56.3634 122.629 53.4254 127.37 50.571C128.474 49.9069 129.366 51.0372 129.305 52.8449Z" fill="white"/>
<path d="M36.9623 60.2779C36.5225 60.9508 36.1399 61.7689 35.5462 62.3846C34.8733 63.0839 34.3412 62.2263 33.8706 61.9184C29.8905 59.3411 25.8004 56.9441 21.5784 54.8065C19.6521 53.8302 20.6636 52.7262 21.099 51.6135C21.7191 50.0301 22.5811 51.3452 23.144 51.6223C27.4628 53.7466 31.6057 56.2008 35.6298 58.8441C36.1443 59.1827 36.8436 59.3938 36.9667 60.2823L36.9623 60.2779Z" fill="white"/>
<path d="M78.6986 82.1766C81.7728 82.1766 84.8469 82.2249 87.9211 82.1546C89.2844 82.1238 89.9309 82.4756 89.8869 83.9798C89.8034 86.9794 89.8298 89.9833 89.8869 92.9829C89.9133 94.3287 89.5483 94.9665 88.031 94.9489C81.808 94.8829 75.5849 94.8785 69.3662 94.9489C67.761 94.9665 67.352 94.2979 67.3784 92.8509C67.4399 89.9261 67.4575 86.9926 67.3696 84.0678C67.3212 82.4668 68.0117 82.0798 69.4718 82.1194C72.5459 82.2029 75.6201 82.1458 78.6942 82.1458C78.6942 82.1546 78.6942 82.1634 78.6942 82.1766H78.6986ZM78.5447 91.3336V91.3424C80.0048 91.3424 81.4649 91.3687 82.925 91.338C86.9535 91.2456 86.4346 92.0461 86.5753 87.7578C86.6281 86.1789 86.2367 85.5676 84.5303 85.6379C81.179 85.7787 77.8146 85.6775 74.459 85.6863C70.7692 85.6951 70.8571 85.6995 70.8087 89.4379C70.7868 91.0565 71.3981 91.4347 72.8538 91.36C74.7449 91.2632 76.6492 91.338 78.5447 91.338V91.3336Z" fill="white"/>
</g>
</g>
<defs>
<clipPath id="clip0_5_3392">
<rect width="150" height="150" fill="white"/>
</clipPath>
<clipPath id="clip1_5_3392">
<rect width="150" height="139" fill="white" transform="translate(0.00195312 5.50293)"/>
</clipPath>
</defs>
</svg>
