<svg width="220" height="119" viewBox="0 0 220 119" fill="none" xmlns="http://www.w3.org/2000/svg">
<g clip-path="url(#clip0_11_736)">
<ellipse cx="109.452" cy="62.3826" rx="104.526" ry="52.0535" fill="#B22527"/>
<path d="M59.5914 94.736C88.8737 105.807 119.205 109.476 150.469 107.046C147.833 107.598 145.205 108.204 142.555 108.688C139.45 109.256 136.337 109.791 133.207 110.207C130.257 110.598 127.291 110.881 124.33 111.185C117.865 111.851 111.388 112.131 104.904 111.922C99.7287 111.753 94.5704 111.28 89.4204 110.672C83.6821 109.995 78.0021 109.033 72.3471 107.9C67.6188 106.954 62.9628 105.753 58.3483 104.37C50.7592 102.095 43.4033 99.2661 36.347 95.7034C30.7252 92.8636 25.5003 89.4694 20.6805 85.442C16.1409 81.6511 12.2673 77.352 9.72285 72.0501C6.23771 64.7834 6.25436 57.4515 9.72285 50.1522C11.3877 46.6466 13.6936 43.5948 16.3796 40.7659C21.635 35.2248 27.9172 31.0752 34.5961 27.3929C41.1696 23.7677 48.1565 21.1046 55.2655 18.7566C62.5771 16.3407 70.0745 14.6015 77.6775 13.24C82.414 12.3895 87.1728 11.7508 91.9427 11.1856C94.7591 10.8513 97.6032 10.653 100.45 10.5307C103.935 10.3812 107.423 9.96271 110.908 10.0768C115.947 10.2426 120.981 10.5687 126.009 11.0606C135.568 11.9981 144.98 13.6314 154.264 15.9983C162.25 18.0338 169.998 20.7078 177.514 24.0585C183.53 26.7407 189.191 29.9691 194.474 33.8579C200.542 38.3228 205.803 43.459 209.017 50.3234C212.352 57.4488 212.349 64.5769 209.006 71.7158C205.934 78.2732 201.059 83.3224 195.259 87.6161C191.211 90.6135 186.566 92.5049 181.91 94.3202C173.563 97.5704 164.884 99.7335 156.06 101.296C151.651 102.076 147.186 102.579 142.719 103.057C134.408 103.946 126.078 103.902 117.751 103.799C112.892 103.736 108.048 103.291 103.206 102.815C96.904 102.196 90.669 101.225 84.4674 100.032C79.9667 99.1655 75.5048 98.1275 71.0707 96.9779C67.6577 96.092 64.2308 95.2605 60.8067 94.4262C60.421 94.3311 59.9993 94.3691 59.5942 94.3447C59.5942 94.4778 59.5886 94.6137 59.5886 94.7469L59.5914 94.736Z" fill="#B22527"/>
<path d="M59.5914 96.9105C88.8737 107.982 119.205 111.65 150.469 109.221C147.833 109.773 145.205 110.379 142.555 110.862C139.45 111.43 136.337 111.966 133.207 112.381C130.257 112.773 127.291 113.055 124.33 113.36C117.865 114.026 111.388 114.305 104.904 114.096C99.7287 113.928 94.5704 113.455 89.4204 112.846C83.6821 112.169 78.0021 111.207 72.3471 110.074C67.6188 109.129 62.9628 107.927 58.3483 106.544C50.7592 104.27 43.4033 101.441 36.347 97.878C30.7252 95.0382 25.5003 91.644 20.6805 87.6166C16.1409 83.8256 12.2673 79.5265 9.72285 74.2246C6.23771 66.958 6.25436 59.6261 9.72285 52.3268C11.3877 48.8212 13.6936 45.7694 16.3796 42.9404C21.635 37.3994 27.9171 33.2497 34.5961 29.5675C41.1695 25.9423 48.1565 23.2791 55.2655 20.9312C62.5771 18.5153 70.0745 16.7761 77.6775 15.4146C82.414 14.564 87.1728 13.9254 91.9427 13.3602C94.7591 13.0259 97.6032 12.8275 100.45 12.7052C103.935 12.5558 107.423 12.1373 110.908 12.2514C115.947 12.4172 120.981 12.7433 126.009 13.2352C135.568 14.1727 144.98 15.8059 154.264 18.1729C162.25 20.2083 169.998 22.8824 177.514 26.2331C183.53 28.9153 189.191 32.1437 194.474 36.0325C200.542 40.4974 205.803 45.6335 209.017 52.498C212.352 59.6233 212.349 66.7514 209.006 73.8904C205.934 80.4478 201.059 85.4969 195.259 89.7906C191.211 92.7881 186.566 94.6795 181.91 96.4948C173.563 99.7449 164.884 101.908 156.06 103.471C151.651 104.251 147.186 104.753 142.719 105.232C134.408 106.12 126.078 106.077 117.751 105.974C112.892 105.911 108.048 105.465 103.206 104.99C96.904 104.37 90.669 103.4 84.4674 102.207C79.9667 101.34 75.5048 100.302 71.0707 99.1525C67.6577 98.2666 64.2308 97.435 60.8067 96.6007C60.421 96.5056 59.9993 96.5437 59.5942 96.5192C59.5942 96.6524 59.5886 96.7883 59.5886 96.9214L59.5914 96.9105Z" fill="#B22527"/>
<path d="M98.3071 118.968C94.9497 118.968 91.7373 118.642 88.4564 118.519C84.9841 118.389 81.5446 117.986 78.116 117.573C74.8982 117.185 71.6885 116.671 68.4898 116.086C63.0336 115.092 57.676 113.765 52.3594 112.221C44.5801 109.962 37.0745 107.008 29.9355 103.218C25.0239 100.612 20.3585 97.5864 16.1146 93.9521C10.7241 89.3366 6.18185 84.0851 3.18288 77.6158C1.73538 74.4898 0.692861 71.2416 0.257791 67.8248C-1.00364 57.9306 2.50428 49.5042 8.47212 41.8606C13.5616 35.3396 20.0521 30.4876 27.15 26.3179C33.8785 22.3657 41.0394 19.3838 48.4054 16.9102C54.8138 14.7602 61.3919 13.1265 68.0574 11.9577C72.8241 11.1232 77.6126 10.3839 82.4503 9.95438C86.7901 9.5684 91.1271 9.19872 95.475 8.87526C100.02 8.53548 104.562 8.23104 109.115 8.02718C111.649 7.91301 114.183 7.82059 116.709 7.86409C121.223 7.94291 125.747 8.05436 130.245 8.42403C134.749 8.79371 139.247 9.26939 143.721 9.96254C151.533 11.1721 159.266 12.6943 166.796 15.1244C167.04 15.2032 167.333 15.1353 167.735 15.1353C166.878 14.1214 165.666 13.98 164.665 13.5288C158.875 10.9085 152.836 8.97583 146.712 7.28511C142.194 6.03746 137.696 4.73816 133.124 3.69165C128.699 2.67776 124.299 1.5633 119.88 0.535823C119.505 0.448841 119.281 0.234103 118.961 0.103629C121.727 -0.230709 124.422 0.345549 127.126 0.582032C130.108 0.842979 133.066 1.37575 136.024 1.8623C138.484 2.26732 140.927 2.77018 143.376 3.24043C150.693 4.64302 157.884 6.52945 164.938 8.89972C171.519 11.1096 177.938 13.7327 184.103 16.9238C190.107 20.0307 195.817 23.6133 201.071 27.8592C207.414 32.9884 212.807 38.9331 216.46 46.2804C219.169 51.7277 220.408 57.5093 219.886 63.5654C219.314 70.2005 216.739 76.0501 212.5 81.2364C210.09 84.1857 207.701 87.1675 205.014 89.8558C201.761 93.1095 198.086 95.8875 194.203 98.4045C185.154 104.273 175.281 108.285 164.99 111.368C158.607 113.279 152.102 114.7 145.513 115.728C140.856 116.453 136.191 117.084 131.482 117.399C127.131 117.69 122.791 118.122 118.446 118.468C114.574 118.775 109.315 118.97 106.852 118.97C104.39 118.97 105.758 118.97 104.198 118.97C102.639 118.97 99.914 118.969 98.3098 118.97C96.7056 118.972 98.3071 118.968 98.3071 118.968ZM59.512 96.6214C59.512 96.4882 59.5175 96.3523 59.5175 96.2191C59.917 96.2436 60.3302 96.2055 60.7133 96.3007C64.0926 97.1352 67.4719 97.9669 70.8348 98.8531C75.2074 100.006 79.61 101.041 84.0456 101.908C90.1612 103.104 96.3096 104.075 102.524 104.692C107.301 105.167 112.079 105.616 116.867 105.676C125.082 105.782 133.293 105.823 141.488 104.934C145.891 104.455 150.294 103.952 154.644 103.172C163.343 101.609 171.902 99.4456 180.136 96.1947C184.73 94.3816 189.308 92.487 193.3 89.4889C199.019 85.1941 203.826 80.1437 206.855 73.5847C210.15 66.4467 210.155 59.3169 206.866 52.187C203.698 45.3209 198.51 40.1835 192.526 35.7175C187.316 31.8304 181.734 28.5985 175.801 25.9156C168.389 22.5641 160.749 19.8894 152.874 17.8535C143.716 15.4859 134.434 13.8523 125.01 12.9145C120.052 12.4225 115.089 12.0963 110.12 11.9305C106.683 11.8163 103.243 12.2349 99.8066 12.3844C96.9964 12.5068 94.1917 12.7052 91.4171 13.0395C86.7162 13.6049 82.0207 14.2437 77.3499 15.0945C69.8552 16.459 62.459 18.196 55.2489 20.6124C48.2385 22.9637 41.3486 25.6275 34.8663 29.2509C28.2801 32.934 22.0851 37.0847 16.9026 42.6271C14.2539 45.4595 11.9828 48.5093 10.3383 52.0158C6.91791 59.3196 6.90149 66.6506 10.3383 73.919C12.8447 79.2222 16.6646 83.5224 21.1439 87.3143C25.8968 91.34 31.0492 94.7377 36.5929 97.5782C43.5513 101.142 50.8052 103.971 58.2889 106.247C62.8366 107.63 67.4308 108.832 72.0935 109.777C77.67 110.911 83.2712 111.871 88.9298 112.55C94.0084 113.159 99.0951 113.632 104.198 113.8C110.593 114.01 116.979 113.73 123.355 113.064C126.275 112.759 129.2 112.477 132.108 112.085C135.195 111.669 138.265 111.134 141.327 110.566C143.94 110.082 146.531 109.476 149.131 108.924C118.301 111.354 88.3908 107.684 59.5148 96.6105L59.512 96.6214Z" fill="#A11F28"/>
<path d="M50.6894 39.5633C54.8841 39.5633 59.0761 39.5633 63.2708 39.5633C64.8223 39.5633 66.3737 39.528 67.8349 38.8974C68.4862 38.6174 68.8966 38.775 69.2386 39.4492C70.303 41.5422 70.6998 43.7303 70.3003 46.0299C70.065 47.3863 69.411 48.5307 67.9745 48.952C67.4354 49.1096 67.2576 49.4005 67.1755 49.8843C66.1795 55.7638 64.6034 61.5454 64.2504 67.5309C64.1108 69.8903 64.1628 72.2388 64.4337 74.5791C64.5103 75.2451 64.4501 75.5849 63.6894 75.6664C61.3362 75.9219 59.0022 76.3813 56.6271 76.4139C52.9714 76.4683 51.1518 74.4324 51.7428 70.7818C52.3092 67.2998 53.0179 63.8395 53.6664 60.3711C54.3013 56.9924 54.9279 53.6137 55.5873 50.2404C55.7351 49.4902 55.5928 49.202 54.75 49.2102C51.513 49.2483 48.276 49.2238 45.0417 49.2102C44.4944 49.2102 44.1414 49.2564 44.0183 49.9523C42.8937 56.3129 41.1616 62.5783 41.0385 69.0911C41.0057 70.9014 40.9646 72.7145 41.2875 74.5085C41.4243 75.275 41.2656 75.642 40.3708 75.7181C38.2393 75.9029 36.1241 76.2889 33.9926 76.4438C29.921 76.7374 27.9372 74.6689 28.624 70.6677C29.672 64.5626 30.917 58.4874 32.0361 52.3932C32.3672 50.5856 32.6956 48.7943 31.7351 46.9867C31.0866 45.7662 31.1988 44.3392 31.4697 42.9855C31.8418 41.1236 33.0595 39.9846 34.9721 39.6585C36.1925 39.4519 37.4266 39.5225 38.6552 39.5253C42.6666 39.5307 46.6752 39.5253 50.6866 39.5253C50.6866 39.5334 50.6866 39.5443 50.6866 39.5524L50.6894 39.5633Z" fill="white"/>
<path d="M125.593 64.0053C124.362 64.0053 123.128 64.0488 121.899 63.9917C120.988 63.9509 120.556 64.356 120.411 65.1959C119.866 68.3272 119.406 71.4613 120.11 74.628C120.266 75.3293 120.167 75.699 119.33 75.7751C117.606 75.93 115.899 76.2589 114.172 76.3785C111.332 76.5715 109.985 75.1744 110.352 72.3366C110.689 69.7353 111.22 67.1611 111.646 64.5707C112.243 60.9528 112.817 57.3321 113.406 53.7142C113.715 51.8223 113.685 49.9196 113.57 48.0223C113.521 47.2259 113.781 46.8807 114.593 46.8018C116.134 46.6496 117.661 46.337 119.204 46.2392C122.011 46.0625 123.401 47.5303 123.035 50.3056C122.769 52.3198 122.425 54.3312 121.948 56.3047C121.691 57.3675 121.992 57.5442 122.953 57.5251C125.322 57.4789 127.695 57.4789 130.064 57.517C131.26 57.536 131.813 57.0467 131.868 55.848C131.98 53.3146 132.185 50.7867 132.281 48.2534C132.311 47.4515 132.565 47.0601 133.375 46.8372C135.011 46.3887 136.642 46.0271 138.355 46.1549C140.862 46.3425 141.981 47.5276 141.814 50.0311C141.647 52.5182 140.982 54.932 140.531 57.3756C139.587 62.4886 138.331 67.558 138.73 72.8286C138.935 75.525 138.9 75.5413 136.188 76.1448C134.85 76.4438 133.49 76.6069 132.117 76.3894C130.083 76.0687 129.046 74.9216 129.066 72.8802C129.087 70.6975 129.662 68.5828 129.99 66.4381C130.026 66.2152 130.081 65.995 130.119 65.7721C130.329 64.5743 129.822 63.9745 128.598 63.9727C127.593 63.9727 126.592 63.9727 125.588 63.9727C125.588 63.9836 125.588 63.9944 125.588 64.0053H125.593Z" fill="white"/>
<path d="M92.9574 58.2101C97.3655 54.2008 101.708 50.6535 104.663 45.8124C104.909 45.4074 105.123 45.1764 105.621 45.4645C106.524 45.9864 107.501 46.3778 108.308 47.0655C110.579 48.9927 110.724 51.4282 108.612 53.543C106.1 56.0573 103.251 58.183 100.356 60.227C99.3904 60.9093 99.3877 61.2844 100.14 62.1379C102.485 64.7909 104.704 67.5553 107.041 70.2164C107.684 70.9476 107.731 71.619 107.43 72.4345C106.68 74.465 105.446 76.0796 103.191 76.4248C101.032 76.7564 99.5163 75.487 98.4272 73.8343C96.8073 71.3771 95.3407 68.8165 93.8029 66.3049C93.2611 65.4188 92.7029 64.5435 92.0517 63.5025C91.5537 64.6849 91.5373 65.7885 91.3703 66.8594C90.99 69.2922 90.897 71.7223 91.3868 74.1524C91.5044 74.7286 91.5591 75.1962 90.7246 75.294C88.8256 75.5196 86.9512 75.9491 85.0276 75.9654C82.7675 75.9844 81.506 74.7857 81.5963 72.5296C81.6538 71.0917 81.911 69.651 82.1764 68.2294C83.1642 62.9344 84.0727 57.6257 84.8087 52.2899C85.0222 50.7514 84.9401 49.2129 84.8635 47.6771C84.8252 46.878 84.9866 46.4485 85.9087 46.3398C87.4903 46.1522 89.05 45.7853 90.6507 45.7363C93.2556 45.6548 94.673 47.1362 94.3337 49.7348C94.0355 52.0181 93.573 54.2823 93.19 56.5575C93.1161 56.9978 93.0668 57.4436 92.9601 58.2129L92.9574 58.2101Z" fill="white"/>
<path d="M165.228 63.3068C164.538 67.1231 163.95 70.5399 164.65 74.0274C164.776 74.6498 164.899 75.1744 163.983 75.2886C162.13 75.5224 160.299 75.9301 158.425 75.96C156.006 75.9953 154.8 74.7939 154.879 72.3665C154.956 70.0506 155.588 67.8136 155.962 65.5384C156.655 61.3442 157.342 57.1473 158.02 52.9505C158.313 51.151 158.225 49.3352 158.149 47.5276C158.119 46.8236 158.277 46.454 159.06 46.3724C160.644 46.2066 162.212 45.8641 163.796 45.7608C166.557 45.5787 167.999 47.1498 167.6 49.868C167.209 52.5454 166.719 55.212 166.21 58.2727C166.888 57.6448 167.318 57.2398 167.756 56.8456C171.51 53.4751 175.322 50.1561 177.962 45.7744C178.222 45.3449 178.477 45.2145 178.947 45.4808C180.012 46.0843 181.147 46.5654 182.028 47.457C183.878 49.3244 183.873 51.6049 181.883 53.5675C179.355 56.0601 176.509 58.183 173.628 60.2461C172.804 60.8359 172.591 61.1839 173.363 62.0537C175.77 64.7692 178.058 67.5907 180.422 70.3469C180.811 70.8009 180.983 71.2276 180.887 71.8147C180.556 73.8452 178.778 75.9083 176.843 76.3541C174.662 76.857 173.13 75.7235 171.934 74.1361C170.104 71.7087 168.705 68.9987 167.146 66.3974C166.59 65.4705 166.005 64.5599 165.225 63.3041L165.228 63.3068Z" fill="white"/>
<path d="M72.3821 76.4682C69.7088 76.5063 68.7155 75.5223 68.7346 73.3695C68.7483 71.9153 69.1123 70.4991 69.4187 69.0856C70.2861 65.0899 70.6801 61.037 70.8389 56.9624C70.8744 56.0138 71.1864 55.5626 72.1413 55.4702C73.3179 55.356 74.4836 55.0923 75.6629 55.0108C78.2432 54.8314 79.4171 56.041 79.034 58.645C78.6728 61.1023 78.1201 63.5323 77.6248 65.9678C77.0229 68.9198 76.8012 71.8881 77.3321 74.8672C77.4497 75.5277 77.2965 75.7778 76.6562 75.8621C75.0308 76.0768 73.411 76.3187 72.3794 76.4655L72.3821 76.4682Z" fill="white"/>
<path d="M149.589 54.8776C152.38 54.8368 153.376 55.7936 153.242 58.0823C153.086 60.7516 152.364 63.3339 151.825 65.9407C151.234 68.8056 151.017 71.6679 151.485 74.5601C151.576 75.12 151.439 75.3918 150.922 75.574C149.367 76.123 147.797 76.5688 146.128 76.4655C143.75 76.3187 142.705 75.2097 142.973 72.8585C143.203 70.8416 143.668 68.8546 144.01 66.8513C144.51 63.9156 145.23 61.0017 144.956 57.9818C144.751 55.7039 144.765 55.693 147.113 55.2581C148.095 55.076 149.088 54.9537 149.586 54.8776H149.589Z" fill="white"/>
<path d="M150.832 88.654C150.824 91.1411 149.059 93.7887 146.84 94.6476C144.525 95.5419 141.583 94.9194 140.021 93.2178C139.457 92.6035 139.099 91.8859 138.841 91.1031C138.726 90.7552 138.519 90.3773 138.108 90.3936C137.599 90.4127 137.509 90.8883 137.438 91.2798C137.317 91.9457 137.153 92.6253 137.17 93.294C137.202 94.4193 136.647 94.6884 135.654 94.5797C134.578 94.4628 133.185 95.039 132.499 94.3405C131.85 93.6799 132.534 92.3725 132.635 91.3532C132.772 89.9587 132.934 88.567 133.112 87.1753C133.202 86.4767 133.213 85.7374 132.729 85.2399C131.921 84.4082 132.463 83.9651 133.09 83.5383C134.264 82.7392 135.536 82.5625 136.833 83.2176C138.116 83.8645 138.135 85.0497 138.067 86.2701C138.045 86.6724 137.673 87.2786 138.319 87.4281C138.858 87.5531 138.997 86.9334 139.208 86.5528C140.855 83.5547 143.737 82.2336 146.711 83.1197C149.343 83.9026 150.845 85.9195 150.837 88.6567L150.832 88.654ZM146.446 88.0261C146.396 87.7189 146.391 87.159 146.21 86.6643C146.027 86.1641 145.682 85.664 145.058 85.6531C144.473 85.6422 143.969 85.9793 143.772 86.5066C143.211 88.0179 142.617 89.5347 143.126 91.2064C143.31 91.8125 143.57 92.3018 144.259 92.3752C144.941 92.4459 145.378 92.0545 145.652 91.4972C146.155 90.4779 146.421 89.3933 146.443 88.0234L146.446 88.0261Z" fill="white"/>
<path d="M98.2397 88.9557C97.3887 90.4316 96.5432 91.9103 95.6867 93.3836C95.394 93.8865 95.1367 94.5443 94.4417 94.4845C93.7139 94.422 93.6674 93.6962 93.4895 93.1498C93.1256 92.0381 92.7726 90.9236 92.3102 89.4803C91.9025 90.9943 91.6726 92.2501 90.9885 93.3401C90.0527 94.827 88.6299 95.4195 87.0209 94.9493C85.4202 94.4818 84.9824 92.9215 86.1508 91.75C88.0689 89.8255 88.6135 87.3655 88.8296 84.824C88.9254 83.6851 89.2455 83.2583 90.4495 83.3045C94.5868 83.4649 93.5798 82.7419 95.0164 86.4305C95.1258 86.7104 95.2489 86.985 95.4569 87.4797C96.234 86.3217 96.9153 85.3785 97.5146 84.3891C97.9907 83.6035 98.6228 83.2311 99.5367 83.3018C99.8541 83.3263 100.174 83.329 100.492 83.3371C103.704 83.4024 103.693 83.3997 103.305 86.6452C103.031 88.9339 102.768 91.2253 102.555 93.5195C102.481 94.3078 102.202 94.6503 101.373 94.5823C100.199 94.4818 98.6666 95.0526 97.9442 94.3513C97.2738 93.7016 98.0482 92.2447 98.1631 91.1411C98.237 90.4398 98.3464 89.7412 98.4394 89.0426C98.371 89.0155 98.3054 88.9883 98.237 88.9611L98.2397 88.9557Z" fill="white"/>
<path d="M124.251 87.6075C124.478 87.6075 124.711 87.5803 124.935 87.6129C126.213 87.7923 126.818 87.3057 126.681 85.9738C126.634 85.5308 126.771 85.0714 126.752 84.6202C126.722 83.8047 127.078 83.4486 127.89 83.2719C130.479 82.7147 131.313 83.4677 130.81 86.0336C130.29 88.6866 129.373 91.2879 129.713 94.0577C129.729 94.1882 129.74 94.3866 129.663 94.4464C128.736 95.1831 127.647 95.1369 126.56 95.001C125.671 94.8922 125.362 94.2752 125.367 93.457C125.367 93.2776 125.46 93.0982 125.452 92.9243C125.406 92.0381 126.317 90.8312 125.63 90.3936C124.7 89.8038 123.337 90.1952 122.16 90.2441C121.72 90.2631 121.558 90.6138 121.52 90.9998C121.438 91.8071 121.173 92.6606 121.342 93.4163C121.61 94.6123 121.189 94.9629 120.097 94.9466C119.643 94.9412 119.189 95.0445 118.735 95.0445C117.435 95.0499 116.912 94.4437 117.139 93.1499C117.574 90.66 118.042 88.1756 118.491 85.6857C118.538 85.4193 118.617 85.1312 118.56 84.8784C118.261 83.6117 118.986 83.3834 120.029 83.2556C122.442 82.9593 122.99 83.4595 122.598 85.7672C122.39 86.9904 122.94 87.602 124.248 87.602L124.251 87.6075Z" fill="white"/>
<path d="M109.011 90.7605C110.962 92.9759 113.296 91.5515 115.513 91.1465C115.669 91.6657 115.365 91.9701 115.149 92.2827C113.565 94.5715 109.931 95.6506 107.337 94.6177C104.053 93.3102 103.008 89.222 105.142 86.0445C106.962 83.3344 110.722 82.0922 113.825 83.174C115.507 83.7612 116.427 84.9191 116.413 86.4359C116.402 88.0369 115.565 89.2003 113.907 89.7657C113.138 90.0266 112.325 90.2006 111.518 90.2903C110.716 90.3773 109.898 90.3093 109.085 90.3093L109.009 90.7605H109.011ZM109.808 88.0777C111.012 88.0804 111.816 87.4498 111.868 86.5229C111.906 85.8433 111.608 85.5008 110.921 85.5226C110.109 85.547 109.063 86.6832 109 87.5585C108.946 88.2978 109.518 87.9798 109.805 88.0777H109.808Z" fill="white"/>
<path d="M77.3217 43.7466C78.7829 43.7657 80.2523 44.9698 80.6436 46.4648C81.4344 49.4956 78.7364 52.6107 75.6006 52.2926C74.1613 52.1459 72.9984 50.9172 72.7302 49.2646C72.3335 46.8209 74.922 43.714 77.3245 43.7439L77.3217 43.7466Z" fill="white"/>
<path d="M151.47 43.7466C152.904 43.7602 154.36 44.8719 154.795 46.2854C155.728 49.3244 153.022 52.6079 149.842 52.2926C148.343 52.1458 147.174 50.9009 146.909 49.1694C146.548 46.8182 149.153 43.7221 151.47 43.7439V43.7466Z" fill="white"/>
</g>
<defs>
<clipPath id="clip0_11_736">
<rect width="220" height="119" fill="white"/>
</clipPath>
</defs>
</svg>
